<svg xmlns="http://www.w3.org/2000/svg" viewBox="0 0 73.47 61.87"><defs><style>.cls-1{opacity:0.66;}.cls-2,.cls-4{fill:#fff;}.cls-2{stroke:#231f20;stroke-miterlimit:10;}.cls-3{fill:#231f20;}.cls-5{fill:#2ed03c;}.cls-6{fill:#aed136;}</style></defs><title>PDC_disease_green</title><g id="Layer_7" data-name="Layer 7"><rect class="cls-2" x="15.59" y="9.15" width="42.75" height="42.75" rx="8.64" ry="8.64"/><path class="cls-3" d="M55.67,38.13a8.49,8.49,0,1,1-8.58-8.29A8.44,8.44,0,0,1,55.67,38.13Zm-9.95,9.31a10.17,10.17,0,1,0-10-10.17A10.1,10.1,0,0,0,45.73,47.45Z"/><path class="cls-4" d="M52.56,44.34l.2.51a15.92,15.92,0,0,0,2.18-1.59c0-.22.95-3.7.95-3.7l-.13-.64-.93.53-.95,2.64Z"/><path class="cls-3" d="M27.13,29.84a8.38,8.38,0,1,1-8.58,8.29A8.44,8.44,0,0,1,27.13,29.84Zm11.41,7.44a10,10,0,1,0-10,10.17A10.1,10.1,0,0,0,38.53,37.28Z"/><path class="cls-4" d="M21.66,44.34l-.2.51a15.92,15.92,0,0,1-2.18-1.59c0-.22-.95-3.7-.95-3.7l.13-.64.93.53.95,2.64Z"/><path class="cls-3" d="M43.52,23.81a7.54,7.54,0,1,1-2.79-10.37A7.59,7.59,0,0,1,43.52,23.81ZM32.69,29.55a9,9,0,1,0-3.63-12.34A9.09,9.09,0,0,0,32.69,29.55Z"/><path class="cls-4" d="M34.49,13.19l-.31-.38a14.33,14.33,0,0,1,2.2-1c.19.06,3.33.87,3.33.87l.45.38-.82.5-2.49-.41Z"/><path d="M36.92,42.74A10.49,10.49,0,1,1,47.41,32.25,10.49,10.49,0,0,1,36.92,42.74Zm7.87-10.49a7.87,7.87,0,1,0-7.87,7.87A7.87,7.87,0,0,0,44.79,32.25Z"/><circle class="cls-4" cx="36.97" cy="31.53" r="1.42"/><path class="cls-5" d="M49.73,9.15a8.67,8.67,0,0,1,8.64,8.64V43.26a8.67,8.67,0,0,1-8.64,8.64H24.26a8.67,8.67,0,0,1-8.64-8.64V17.79a8.67,8.67,0,0,1,8.64-8.64H49.73m0-4H24.26A12.65,12.65,0,0,0,11.62,17.79V43.26A12.65,12.65,0,0,0,24.26,55.9H49.73A12.65,12.65,0,0,0,62.37,43.26V17.79A12.65,12.65,0,0,0,49.73,5.15Z"/><path class="cls-6" d="M49.71,9.15a8.67,8.67,0,0,1,8.64,8.64V43.26a8.67,8.67,0,0,1-8.64,8.64H24.23a8.67,8.67,0,0,1-8.64-8.64V17.79a8.67,8.67,0,0,1,8.64-8.64H49.71m0-2H24.23A10.65,10.65,0,0,0,13.59,17.79V43.26A10.65,10.65,0,0,0,24.23,53.9H49.71A10.65,10.65,0,0,0,60.35,43.26V17.79A10.65,10.65,0,0,0,49.71,7.15Z"/></g></svg>