<svg xmlns="http://www.w3.org/2000/svg" viewBox="0 0 73.47 61.87"><defs><style>.cls-1{opacity:0.66;}.cls-2,.cls-4{fill:#fff;}.cls-2{stroke:#231f20;stroke-miterlimit:10;}.cls-3{fill:#231f20;}.cls-5{fill:#f7ec13;}.cls-6{fill:#ffce07;}</style></defs><title>PDC_disease_yellow</title><g id="Layer_7" data-name="Layer 7"><rect class="cls-2" x="14.9" y="9.15" width="42.75" height="42.75" rx="8.64" ry="8.64"/><path class="cls-3" d="M55,38.13a8.49,8.49,0,1,1-8.58-8.29A8.44,8.44,0,0,1,55,38.13ZM45,47.45A10.17,10.17,0,1,0,35,37.28,10.1,10.1,0,0,0,45,47.45Z"/><path class="cls-4" d="M51.86,44.34l.2.51a15.92,15.92,0,0,0,2.18-1.59c0-.22.95-3.7.95-3.7l-.13-.64-.93.53-.95,2.64Z"/><path class="cls-3" d="M26.43,29.84a8.38,8.38,0,1,1-8.58,8.29A8.44,8.44,0,0,1,26.43,29.84Zm11.41,7.44a10,10,0,1,0-10,10.17A10.1,10.1,0,0,0,37.84,37.28Z"/><path class="cls-4" d="M21,44.34l-.2.51a15.92,15.92,0,0,1-2.18-1.59c0-.22-.95-3.7-.95-3.7l.13-.64.93.53.95,2.64Z"/><path class="cls-3" d="M42.83,23.81A7.54,7.54,0,1,1,40,13.45,7.59,7.59,0,0,1,42.83,23.81ZM32,29.55a9,9,0,1,0-3.63-12.34A9.09,9.09,0,0,0,32,29.55Z"/><path class="cls-4" d="M33.79,13.19l-.31-.38a14.33,14.33,0,0,1,2.2-1c.19.06,3.33.87,3.33.87l.45.38-.82.5-2.49-.41Z"/><path d="M36.23,42.74A10.49,10.49,0,1,1,46.72,32.25,10.49,10.49,0,0,1,36.23,42.74ZM44.1,32.25a7.87,7.87,0,1,0-7.87,7.87A7.87,7.87,0,0,0,44.1,32.25Z"/><circle class="cls-4" cx="36.27" cy="31.53" r="1.42"/><path class="cls-5" d="M49,9.15a8.67,8.67,0,0,1,8.64,8.64V43.26A8.67,8.67,0,0,1,49,51.9H23.54a8.67,8.67,0,0,1-8.64-8.64V17.79a8.67,8.67,0,0,1,8.64-8.64H49m0-4H23.54A12.65,12.65,0,0,0,10.9,17.79V43.26A12.65,12.65,0,0,0,23.54,55.9H49A12.65,12.65,0,0,0,61.65,43.26V17.79A12.65,12.65,0,0,0,49,5.15Z"/><path class="cls-6" d="M49,9.15a8.67,8.67,0,0,1,8.64,8.64V43.26A8.67,8.67,0,0,1,49,51.9H23.54a8.67,8.67,0,0,1-8.64-8.64V17.79a8.67,8.67,0,0,1,8.64-8.64H49m0-2H23.54A10.65,10.65,0,0,0,12.9,17.79V43.26A10.65,10.65,0,0,0,23.54,53.9H49A10.65,10.65,0,0,0,59.65,43.26V17.79A10.65,10.65,0,0,0,49,7.15Z"/></g></svg>