<svg xmlns="http://www.w3.org/2000/svg" viewBox="0 0 73.47 61.87"><defs><style>.cls-1{opacity:0.66;}.cls-2,.cls-4{fill:#fff;}.cls-2{stroke:#231f20;stroke-miterlimit:10;}.cls-3{fill:#231f20;}.cls-5{fill:#ed1f24;}.cls-6{fill:#c82127;}</style></defs><title>PDC_disease_red</title><g id="Layer_7" data-name="Layer 7"><rect class="cls-2" x="16.63" y="9.15" width="42.75" height="42.75" rx="8.64" ry="8.64"/><path class="cls-3" d="M56.71,38.13a8.49,8.49,0,1,1-8.58-8.29A8.44,8.44,0,0,1,56.71,38.13Zm-9.95,9.31a10.17,10.17,0,1,0-10-10.17A10.1,10.1,0,0,0,46.77,47.45Z"/><path class="cls-4" d="M53.6,44.34l.2.51A15.92,15.92,0,0,0,56,43.27c0-.22.95-3.7.95-3.7l-.13-.64-.93.53-.95,2.64Z"/><path class="cls-3" d="M28.17,29.84a8.38,8.38,0,1,1-8.58,8.29A8.44,8.44,0,0,1,28.17,29.84Zm11.41,7.44a10,10,0,1,0-10,10.17A10.1,10.1,0,0,0,39.57,37.28Z"/><path class="cls-4" d="M22.7,44.34l-.2.51a15.92,15.92,0,0,1-2.18-1.59c0-.22-.95-3.7-.95-3.7l.13-.64.93.53.95,2.64Z"/><path class="cls-3" d="M44.56,23.81a7.54,7.54,0,1,1-2.79-10.37A7.59,7.59,0,0,1,44.56,23.81ZM33.73,29.55A9,9,0,1,0,30.1,17.22,9.09,9.09,0,0,0,33.73,29.55Z"/><path class="cls-4" d="M35.53,13.19l-.31-.38a14.33,14.33,0,0,1,2.2-1c.19.06,3.33.87,3.33.87l.45.38-.82.5-2.49-.41Z"/><path d="M38,42.74A10.49,10.49,0,1,1,48.45,32.25,10.49,10.49,0,0,1,38,42.74Zm7.87-10.49A7.87,7.87,0,1,0,38,40.12,7.87,7.87,0,0,0,45.83,32.25Z"/><circle class="cls-4" cx="38.01" cy="31.53" r="1.42"/><path class="cls-5" d="M50.75,9.15a8.67,8.67,0,0,1,8.64,8.64V43.26a8.67,8.67,0,0,1-8.64,8.64H25.27a8.67,8.67,0,0,1-8.64-8.64V17.79a8.67,8.67,0,0,1,8.64-8.64H50.75m0-4H25.27A12.65,12.65,0,0,0,12.63,17.79V43.26A12.65,12.65,0,0,0,25.27,55.9H50.75A12.65,12.65,0,0,0,63.39,43.26V17.79A12.65,12.65,0,0,0,50.75,5.15Z"/><path class="cls-6" d="M50.75,9.15a8.67,8.67,0,0,1,8.64,8.64V43.26a8.67,8.67,0,0,1-8.64,8.64H25.27a8.67,8.67,0,0,1-8.64-8.64V17.79a8.67,8.67,0,0,1,8.64-8.64H50.75m0-2H25.27A10.65,10.65,0,0,0,14.63,17.79V43.26A10.65,10.65,0,0,0,25.27,53.9H50.75A10.65,10.65,0,0,0,61.39,43.26V17.79A10.65,10.65,0,0,0,50.75,7.15Z"/></g></svg>