<svg xmlns="http://www.w3.org/2000/svg" viewBox="0 0 73.47 61.87"><defs><style>.cls-1{opacity:0.66;}.cls-2,.cls-4{fill:#fff;}.cls-2{stroke:#231f20;stroke-miterlimit:10;}.cls-3{fill:#231f20;}.cls-5{fill:#4995d1;}.cls-6{fill:#31c5f4;}</style></defs><title>PDC_disease_blue</title><g id="Layer_7" data-name="Layer 7"><rect class="cls-2" x="15.07" y="9.15" width="42.75" height="42.75" rx="8.64" ry="8.64"/><path class="cls-3" d="M55.15,38.13a8.49,8.49,0,1,1-8.58-8.29A8.44,8.44,0,0,1,55.15,38.13ZM45.2,47.45a10.17,10.17,0,1,0-10-10.17A10.1,10.1,0,0,0,45.2,47.45Z"/><path class="cls-4" d="M52,44.34l.2.51a15.92,15.92,0,0,0,2.18-1.59c0-.22.95-3.7.95-3.7l-.13-.64-.93.53-.95,2.64Z"/><path class="cls-3" d="M26.61,29.84A8.38,8.38,0,1,1,18,38.13,8.44,8.44,0,0,1,26.61,29.84ZM38,37.28A10,10,0,1,0,28,47.45,10.1,10.1,0,0,0,38,37.28Z"/><path class="cls-4" d="M21.14,44.34l-.2.51a15.92,15.92,0,0,1-2.18-1.59c0-.22-.95-3.7-.95-3.7l.13-.64.93.53.95,2.64Z"/><path class="cls-3" d="M43,23.81a7.54,7.54,0,1,1-2.79-10.37A7.59,7.59,0,0,1,43,23.81ZM32.17,29.55a9,9,0,1,0-3.63-12.34A9.09,9.09,0,0,0,32.17,29.55Z"/><path class="cls-4" d="M34,13.19l-.31-.38a14.33,14.33,0,0,1,2.2-1c.19.06,3.33.87,3.33.87l.45.38-.82.5-2.49-.41Z"/><path d="M36.4,42.74A10.49,10.49,0,1,1,46.89,32.25,10.49,10.49,0,0,1,36.4,42.74Zm7.87-10.49a7.87,7.87,0,1,0-7.87,7.87A7.87,7.87,0,0,0,44.27,32.25Z"/><circle class="cls-4" cx="36.45" cy="31.53" r="1.42"/><path class="cls-5" d="M49.38,9.15A8.67,8.67,0,0,1,58,17.79V43.26a8.67,8.67,0,0,1-8.64,8.64H23.9a8.67,8.67,0,0,1-8.64-8.64V17.79A8.67,8.67,0,0,1,23.9,9.15H49.38m0-4H23.9A12.65,12.65,0,0,0,11.26,17.79V43.26A12.65,12.65,0,0,0,23.9,55.9H49.38A12.65,12.65,0,0,0,62,43.26V17.79A12.65,12.65,0,0,0,49.38,5.15Z"/><path class="cls-6" d="M49.18,9.15a8.67,8.67,0,0,1,8.64,8.64V43.26a8.67,8.67,0,0,1-8.64,8.64H23.71a8.67,8.67,0,0,1-8.64-8.64V17.79a8.67,8.67,0,0,1,8.64-8.64H49.18m0-2H23.71A10.65,10.65,0,0,0,13.07,17.79V43.26A10.65,10.65,0,0,0,23.71,53.9H49.18A10.65,10.65,0,0,0,59.82,43.26V17.79A10.65,10.65,0,0,0,49.18,7.15Z"/></g></svg>