<?xml version="1.0" standalone="yes"?><svg xmlns="http://www.w3.org/2000/svg" xmlns:xlink="http://www.w3.org/1999/xlink" viewBox="0 0 73.47 61.87" style="zoom: 1;"><defs><style>.cls-1,.cls-5{fill:#fff;}.cls-1,.cls-2{stroke:#231f20;stroke-miterlimit:10;}.cls-2,.cls-3{fill:none;}.cls-4{opacity:0.66;}.cls-6{clip-path:url(#clip-path);}.cls-7{clip-path:url(#clip-path-2);}.cls-8{clip-path:url(#clip-path-3);}.cls-9{fill:#ed1f24;}.cls-10{fill:#c82127;}.cls-11{fill:#231f20;}</style><clipPath id="clip-path"><rect class="cls-1" x="13.64" y="9.42" width="42.75" height="42.75" rx="8.64" ry="8.64"></rect></clipPath><clipPath id="clip-path-2"><rect class="cls-2" x="13.64" y="9.42" width="42.75" height="42.75" rx="8.64" ry="8.64"></rect></clipPath><clipPath id="clip-path-3"><rect class="cls-3" x="13.64" y="9.42" width="42.75" height="42.75" rx="8.64" ry="8.64"></rect></clipPath></defs><title>PDC_drought_red</title><g id="Layer_7" data-name="Layer 7"><rect class="cls-5" x="13.64" y="9.42" width="42.75" height="42.75" rx="8.64" ry="8.64"></rect><g class="cls-6"><path class="cls-5" d="M-135,97.16q0-96.5,0-193H65q0,96.5,0,193Z"></path></g><g class="cls-7"><path class="cls-5" d="M64.11-47V96.89H-135.46V-95.85H64.11v48.51c-2.87,0-2.91,0-3.64-2.8-.45-1.75-1.28-3-3.19-3.41a2.27,2.27,0,0,1-1.23-1.37,9.28,9.28,0,0,1-.23-2.3c1.37.52,3.74,0,4.42-1,.16-.24-.07-.76-.14-1.26a15.18,15.18,0,0,0-1.73.81c-1.07.69-1.68,0-2.28-.71l-1.3-1.64a19.57,19.57,0,0,1-2.76.68c-2.61.22-2.52.21-3.3,2.71-.35,1.12.12,1.28.88,1.48.8-1.15.43-3.59,2.55-2.67a24.06,24.06,0,0,0-.12,4.3c.31,2.06.9,4.06-1.05,6-1.93-2.09-4-4.15-5.86-6.39a50.9,50.9,0,0,1-7.84-13.18c-.37-.89-.89-1.27-1.8-.78.29,2.76.47,5.47,2.61,7.5a1.65,1.65,0,0,1,.45.85c.68,3.73,2.64,6.36,6.33,7.62.39.13.58.86.86,1.31A5.4,5.4,0,0,1,44-51a2.16,2.16,0,0,1-1.4-.71c-1.69-1.79-3.64-3.38-4-6.11a4.47,4.47,0,0,0-1.27-2.73,7.77,7.77,0,0,1-2.86-6.55,1.35,1.35,0,0,0-.13-.79A10.92,10.92,0,0,0,33.29-69c0,2.18.55,4.27-.12,5.82a8.08,8.08,0,0,0,.33,7.55,3.15,3.15,0,0,1-1.13,4.26c-.41.24-1.53.1-1.62-.13-.37-1-1-2.42-.59-3.12.86-1.47.64-2.89.76-4.38s.61-3.06.71-4.6a38,38,0,0,0-.13-4.8c0-.19-.41-.45-.66-.51a.69.69,0,0,0-.55.4c-.23,1.15-.74,2.39-.51,3.46a2.46,2.46,0,0,1-1.09,2.77,7.66,7.66,0,0,0-3,5.05,11.08,11.08,0,0,1-3.07,5.77c-1.3,1.47-2.94,1.43-4.23-.16,1.28-.88,2.5-1.84,3.83-2.62a6.66,6.66,0,0,0,3.11-4.33,6.44,6.44,0,0,1,1.1-2.83c2.07-2.1,2.24-4.75,2.61-7.39-1.37-.46-2.07.09-2.73,1.37a79.22,79.22,0,0,1-5.67,10C18.21-54,15.19-51,12.54-47.93h37.4c-.76,1.19-2.79.84-2.38,2.71.25,1.13.68,2.06,2.12,2.25l-.73-2.67a4.79,4.79,0,0,0,4.69-3.69C54.19-51,55.1-51.47,56.91-51c1.51.4,1.54,1.59,1.94,2.52,1.33,3.09,1.17,3.45,5,1.66A1.83,1.83,0,0,0,64.11-47ZM-10.13,94.49c-.73-1.32-.6-2,.72-2.2A3.43,3.43,0,0,0-6.6,89.93,29.39,29.39,0,0,1-5.16,87.1c3.05.09,3.05.09,4.17,2.62.28.64.54,1.3.89,1.9.16.28.54.7.74.66,1.18-.23,2.34-.58,3.5-.88L4,90.79,1.37,91A26.41,26.41,0,0,0,.25,87.34a4.27,4.27,0,0,0-1.76-2.09c-2.25-1-2.58-1.37-2.29-4,1.93,1.24,2.94-.66,4.49-1.17L.11,79l-2.69,1.18L-4.9,77.51a21.66,21.66,0,0,1-2.53.5c-2.6.16-3,.45-3.51,2.9-.08.41.37.91.72,1.7.85-1.69.7-3.71,2.65-3a31.58,31.58,0,0,0,.07,5.61A5,5,0,0,1-9.64,90.5C-12,91.8-12,91.8-11.92,94.29c-1.9,0-3.79.07-5.68,0a1.77,1.77,0,0,1-1.27-1c-.86-2.77-1.51-5.61-2.4-8.38a3.77,3.77,0,0,1,.38-3.75,7.54,7.54,0,0,0,.29-9.44c-1.43-2.18-1-4,.79-5.62A3.1,3.1,0,0,0-19,62.59c-.49-1.76-.87-3.55-1.23-5.35-.18-.87-.49-1.18-1.44-.91-2.85.79-5.74,1.44-8.58,2.28a2.47,2.47,0,0,0-1.38,1.46c-2.32,7.61-4.57,15.25-6.83,22.88L-42,95.11h52.6a5.57,5.57,0,0,0-.07-.6C3.57,94.49-3.35,94.49-10.13,94.49ZM-108.87-54.64H-88c-.88-1.66-1.78-3.13-2.47-4.7-1.23-2.81-2.33-5.68-3.5-8.52-1.71-4.14-5-6.38-9.15-7.54-2.09-.58-2.34-.46-3.08,1.88h-8.57c-1.15-2.54-2.86-3.35-5.75-2.2A17.39,17.39,0,0,0-125-73.17c-4.71,3.82-6.85,9.18-8.46,14.8-.32,1.1-.51,2.24-.78,3.47h2.67c-.07-2.06,1.58-2.67,3.24-3.4l-3.57-2.17.8-2,1,.34a9.31,9.31,0,0,1-.24-3c.12-.49,1.24-1,1.94-1,1.34-.09,1.64,1.06,2.05,2.11A2.05,2.05,0,0,0-125-63c1.56.17,2.59.76,2.78,2.42.05.47.19.92.33,1.54l-2.51.81-.32,3.2a9.44,9.44,0,0,0,5.59-8.22c.11-1.34.37-2.35,1.83-2.86a3.59,3.59,0,0,0,2.34-3.39,8.91,8.91,0,0,1,.35-2.07c.37-1.1,1.09-1.73,2.22-1.45a8.33,8.33,0,0,0-.9,2.43,5.67,5.67,0,0,1-3,5.18,3,3,0,0,0-1.23,2c-.5,4.13-1.78,7.72-5.92,9.78l1.51-.14c-.14,1.43.6,1.64,3.24.94.92,1.34,1.92,1.54,3.89.79.5,1.12,2.06,1.77,3.85,1.39C-108.92-51.06-109.43-53-108.87-54.64ZM32.07-19.11l-4.31,5.68C26-11.05,24.14-8.7,22.39-6.29c-.31.43-.65,1.27-.45,1.55a2.71,2.71,0,0,0,1.62.67,6.59,6.59,0,0,0,1.79,0c1.29-.12,1.73.46,1.68,1.72C27-.49,27,1.35,27,3.2c0,1,.37,1.61,1.53,1.57,1.79-.06,3.58-.07,5.37,0,1.25,0,1.6-.52,1.56-1.67-.06-1.68,0-3.36,0-5s.84-1.76,2.09-1.74,2.2.11,2.17,1.68c0,1.74,0,3.47,0,5.21,0,1.08.28,1.61,1.47,1.56,1.79-.07,3.58-.06,5.37,0,1.23,0,1.64-.55,1.62-1.67s0-2.39,0-3.58c0-4-.48-3.52,3.54-3.59.53,0,1.43-.26,1.5-.55a2.44,2.44,0,0,0-.45-1.73,33.68,33.68,0,0,0-3.35-4.38A12.76,12.76,0,0,1,45.49-22a2.06,2.06,0,0,0-1-1.67c-.8-.35-1.46.09-1.78,1.08-.4,1.25-1.14,1.35-2,.37-.69-.83-1.3-1.73-2-2.59-.94-1.21-1.49-1.24-2.39-.08a28.82,28.82,0,0,0-2.2,3,2.35,2.35,0,0,0-.21,1.8c.85,2.18,1.86,4.3,2.8,6.44l-.26.14Zm-127.12-.47c1.44-5.76-1.71-10-6.93-9.53a3.88,3.88,0,0,1-2.19-.48c-3.77-2.25-9.39-.72-10,3.61-4.78-1.59-9.26,2.65-9,6.18A2.8,2.8,0,0,1-124.43-17a4.7,4.7,0,0,0-1.42,2.29c-1,3.09.73,6.25,3.48,6.18a4.74,4.74,0,0,1,2.77.9c3.62,2.18,7.31,2.76,11.13.4a1.85,1.85,0,0,1,1.52.08C-102.77-5-99.41-5.91-97-10a1.37,1.37,0,0,1,.86-.49,4.07,4.07,0,0,0,3.67-3.7C-92.15-17-92.88-18.6-95.06-19.58ZM-50-13.13-61.71-30.81l-6.77,10.62-5.06-4.23L-85.87-4.3h40.39l-1.15-1.95c2-.23,3.56-1,3.92-3.08.3-1.73-1.33-4.4-3.08-5.36S-48.64-14.78-50-13.13ZM26.87-72.88l-.21.57c.85.62,1.64,1.63,2.56,1.77a41.06,41.06,0,0,0,5.84.08c-.81-5.23-.76-5.52,1.12-6.77,2.1,3.25,4.63,3.51,7,1,1.25-.13,2.7-.17,3.58-.89,1.09-.89.73-2.4.11-3.6-.39-.76-1-1.38-1.46-2.11A1.81,1.81,0,0,1,45-84.07c1.13-3.81-1.12-7.19-5.11-7.19a32.6,32.6,0,0,0-5.77,1c-1.78-2-3.82-1.94-5.83.49-1.78-1.54-3.77-2.24-5.91-.89a3.52,3.52,0,0,0-1.3,5.13c-.66,0-1.15,0-1.63,0a8.23,8.23,0,0,0-1.46.11c-1.57.34-2,1.55-.91,2.74a18.13,18.13,0,0,0,1.76,1.54c-2.45,2.84-2,4.36,1.64,5.18a13.62,13.62,0,0,0,3.21.25c1.7,0,3.39-.17,5.16-.27C28.7-74.47,29.08-72.9,26.87-72.88ZM-68.89-51l7.38.77.1-.43A15.31,15.31,0,0,1-68.1-59h3.51a72.7,72.7,0,0,1-5.17-6.24,67.62,67.62,0,0,1-3.6-7A31.06,31.06,0,0,1-82.75-59h4.5a18.82,18.82,0,0,1-6.67,8.71l7.46-.7a81.46,81.46,0,0,1-10.12,9.69,119.37,119.37,0,0,0,12.74-2,6,6,0,0,1,3.39.05,46.65,46.65,0,0,0,7,1.38c1.91.28,3.85.35,6.09.53C-62.36-44.39-66-47.22-68.89-51Zm48.18-25.48c.08-1.55.6-3,.08-3.9s-2.12-1.21-3.22-1.77c.26-.37.67-.87,1-1.42.5-.86.13-1.45-.72-1.76a4.17,4.17,0,0,0-4.83,1.69c-.27.41-.57.8-.92,1.3l-1.1-3.32a28.28,28.28,0,0,0-3.46,3.38,25.52,25.52,0,0,0-2,4l-2-1.83c-1.49,2.29-1.46,4.53-1.28,6.81.29,3.63.64,4.11,3.86,5.11-.36,4.51,4,7.19,8,4.1.15.28.31.56.45.85,1.42,2.82,4.11,3.7,6.58,2.14,2.29-1.45,2.7-4.4.93-6.79-.19-.26-.61-.61-.55-.76.73-1.63-.57-2.45-1.43-3.43C-18.6-73.39-19.17-75.19-20.71-76.52ZM-5.94-48.07c0-1.22,0-2.25,0-3.27,0-3.43,0-3.43,3.42-3.71h.16c1.11-.06,1.33-.67.79-1.51a27.62,27.62,0,0,0-2-2.58c-2.7-3.28-5.78-6.38-4.71-11.28.1-.44-.64-1.05-1-1.59-.51.35-1.23.59-1.48,1.07-.56,1.08-1.1,1.09-1.81.26s-1.35-1.7-2.09-2.48a1.42,1.42,0,0,0-1.09-.46c-1.67.43-2.77,3.84-2.08,5.43a9.72,9.72,0,0,1,.92,4.28,5.08,5.08,0,0,1-3.24,4.32,6,6,0,0,1-6.25-.71c-.59.73-1.17,1.38-1.66,2.08s-1,1.69-1.55,2.54a19.15,19.15,0,0,0,3,.6c1.29.06,1.88.5,1.82,1.86-.08,1.71,0,3.42,0,5.15h7.48c0-1.64.09-3.2,0-4.75s.54-1.76,1.8-1.77,2.09.19,2,1.75,0,3.19,0,4.78Zm-113,72.36a8.21,8.21,0,0,0-.9-1.54c-.3-.3-.8-.66-1.15-.6s-.76.53-.93.91a2.32,2.32,0,0,0-.06,1.28c.53,3-.6,5.44-2.67,7.58a21.33,21.33,0,0,0-2.27,3,26.79,26.79,0,0,0-1.32,2.46,15.58,15.58,0,0,0,2.71.53c1.11,0,1.56.39,1.49,1.54-.08,1.35,0,2.71,0,4.06,0,.94.31,1.41,1.31,1.38,1.41,0,2.82,0,4.22,0,1,0,1.34-.39,1.3-1.35a35,35,0,0,1,0-3.9,1.67,1.67,0,0,1,.69-1.25c1.76-.7,2.79,0,2.8,1.92,0,.38,0,.76,0,1.14,0,3.42,0,3.42,3.4,3.43s3.39,0,3.41-3.33c0-1-.32-2.37.2-3s1.9-.48,2.9-.64c1.25-.2,1.49-.71.75-1.74-.63-.87-1.33-1.7-2-2.56q-4.55-5.91-9.09-11.82c-1.18-1.53-1.48-1.51-2.74,0C-117.47,22.54-118.09,23.27-118.94,24.29Zm-8.69,68.36c0,.6,0,1.2,0,1.79-.12,1.3.35,1.92,1.75,1.82a32.49,32.49,0,0,1,3.74,0c1,0,1.39-.34,1.36-1.32,0-1.3,0-2.6,0-3.9s.65-1.54,1.74-1.56,1.81.26,1.81,1.5,0,2.6,0,3.9c0,.92.27,1.42,1.3,1.38,1.35-.06,2.71,0,4.06,0,1,0,1.49-.42,1.48-1.44,0-1.46,0-2.93,0-4.39,0-.89.34-1.32,1.24-1.3a8.44,8.44,0,0,0,1.46,0,11.38,11.38,0,0,0,1.48-.42,5.28,5.28,0,0,0-.53-1.41c-3.28-4.3-6.59-8.57-9.89-12.85-2.33-3-2.33-3-4.63-.08-.87,1.12-1.24,1.05-2.07-.16a1.55,1.55,0,0,0-1.25-.64,1.54,1.54,0,0,0-.8,1.13,14,14,0,0,0,0,2.92,4.78,4.78,0,0,1-1.2,3.71c-1.63,1.94-3.13,4-4.64,6a5.32,5.32,0,0,0-.51,1.27,4.88,4.88,0,0,0,1.29.47c2.9.19,2.9.18,2.9,3.06C-127.63,92.32-127.63,92.48-127.63,92.65ZM-72.3,16.47c-.93,1.12-1.67,2-2.42,2.92s-1.3,1.15-1.87-.2a1.61,1.61,0,0,0-1.33-.68c-.31,0-.65.68-.8,1.12a2.73,2.73,0,0,0,0,1.29A7.64,7.64,0,0,1-81,27.67,31.71,31.71,0,0,0-83.65,31a22.16,22.16,0,0,0-1.28,2.32,14.6,14.6,0,0,0,2.59.46c1.21,0,1.65.48,1.59,1.66s0,2.6,0,3.9c-.05,1.15.48,1.56,1.56,1.54,1.25,0,2.49,0,3.74,0s1.57-.5,1.53-1.59.06-2.5,0-3.74.72-1.36,1.65-1.37,1.72.17,1.66,1.41,0,2.6,0,3.9c0,1,.41,1.39,1.35,1.39a29.14,29.14,0,0,0,4.06-.07,2.08,2.08,0,0,0,1.34-1.36,14.47,14.47,0,0,0,.06-3.08c0-2.51,0-2.48,2.55-2.59a6.57,6.57,0,0,0,1.6-.48,8.41,8.41,0,0,0-.73-1.52q-3.61-4.79-7.29-9.53C-69.2,20.36-70.67,18.53-72.3,16.47ZM-2.18,28.54A12.3,12.3,0,0,0-14.52,16.17,12.38,12.38,0,0,0-26.78,28.62,12.45,12.45,0,0,0-14.51,40.89,12.33,12.33,0,0,0-2.18,28.54Zm-78.05-91.6a9.45,9.45,0,0,1,2-9.36,88.37,88.37,0,0,1,6.68-6.29c3.3,4.45,7.8,8.65,6.48,15.45,5.74-2.55,7.66-9.4,5.66-12.81-1.2,2.45-1.6,2.85-3.4,3.41,2.36-3.51,2.36-6,.12-9-1.36-1.84-2.6-3.77-3.88-5.63-1.27,1.3-1.24,3.35-1.18,5.8-3.21-4.11-2.93-8.23-2.22-12.61a51.46,51.46,0,0,0-6,6,10.61,10.61,0,0,0-2.13,8.05l-.43.1-2.06-3.68A15.06,15.06,0,0,0-80.23-63.06ZM-57.45,69.45l-.42-.42c2.38-2.79,2.38-5.45.11-8.15-1.43-1.69-2.77-3.46-4.16-5.22-1.36,1.13-1.29,3-1.3,5.15a7.52,7.52,0,0,1-2.56-5.48c0-2,.19-3.91.31-5.9-4.65,3.08-9.1,6.33-9,13.06L-76.77,59c-5.59,5.9-5.4,14.81.53,19.16-1.43-3.62-.15-6.56,2.3-9,2-2,4.21-3.83,6.58-6,2,2.5,3.95,4.79,5.62,7.3,1.47,2.21,2.52,4.67,1.07,7.5,5-1.87,8.43-6.56,6.5-11.86Zm-9.26,19.74c0,1,0,1.87,0,2.79,0,4,0,3.27,3.17,3.27,3.8,0,3.24.55,3.28-3.24,0-3.06,0-3.07,3.05-3.45,1.11-.14,1.49-.57.71-1.58q-5.49-7.12-11-14.26c-.53-.69-1.07-.65-1.58,0s-1.08,1.48-1.66,2.2-1.27.67-1.5-.13c-.36-1.27-1.08-1.06-2.13-.83,0,1.13-.08,2.21,0,3.27a5.2,5.2,0,0,1-1.35,4.15c-1.52,1.75-2.89,3.63-4.3,5.48-.8,1.06-.58,1.57.66,1.71,3,.34,3,.34,3,3.45q0,.41,0,.81c0,2.43,0,2.43,2.49,2.43,3.89,0,3.89,0,3.88-3.82C-69.9,88.74-69.62,88.53-66.71,89.19Zm103.06.5c2.19.26,4.1.56,6,.67a1.61,1.61,0,0,0,1.16-1,42.79,42.79,0,0,0,.68-5c.1-1.2.67-1.62,1.8-1.5a17.4,17.4,0,0,0,1.78.11c.49,0,1-.08,1.48-.12a6.63,6.63,0,0,0-.44-1.43c-3.09-5.32-6.21-10.63-9.31-15.95-1.95-3.34-1.94-3.35-4.75-.61-1.35,1.31-2,1.16-2.74-.56a1.52,1.52,0,0,0-1-.78c-.23,0-.65.55-.77.93-.19.61-.14,1.29-.32,1.91-.49,1.6.21,3.51-1.39,4.83-.45.37-1,1.32-.83,1.6.74,1.26.56,3.34,2.58,3.52,1.59.14,2.44.78,2.63,2.38a4.41,4.41,0,0,0,.63,1.81,2.85,2.85,0,0,0,1.37,1.24c2.26.6,2.5.89,2.13,3.21C36.8,86.44,36.61,87.93,36.36,89.69ZM-3.2-4.73l.14-.52A1.71,1.71,0,0,0-3-5.56c.07-1-.23-2.36.31-3S-.78-8.83.21-9s1.48-.75.79-1.65c-3.84-5-7.73-10-11.59-15-.6-.78-1.14-.66-1.69.07s-1.13,1.45-1.71,2.16-1.25.82-1.51,0-.85-1.42-1.59-1a2.2,2.2,0,0,0-.78,1.8c.25,2.82-.21,5.32-2.31,7.41A23,23,0,0,0-22.8-12a20.93,20.93,0,0,0-1.28,2.47A15.43,15.43,0,0,0-21.33-9c1.17,0,1.53.49,1.46,1.58-.06.89,0,1.78,0,2.68l6.68-1.41c.46-.92-.57-2.29,1.37-2.52C-9.16-9-9.89-7.08-9.7-5.51ZM-49.42,16.88a9.26,9.26,0,0,0-1.79-.71c-2.53-.32-4.13,1.17-4.14,3.95a37,37,0,0,0,2,12.34,17,17,0,0,1-5.61-9c-.67-2.6-1.12-5.26-1.65-7.89A14.07,14.07,0,0,0-65,7.28c-1.38-1.18-3-2-4.91-1.18-1.29.54-1.44,1.39-.44,2.34.54.52,1.18.95,1.75,1.43,3.42,2.91,5.18,6.85,6.73,10.91,2,5.23,3.8,10.52,6.91,15.28,4.67,7.14,12.17,4.2,16.24-.32a28.19,28.19,0,0,1-3.34.48c-3.35.09-5.63-.76-6.49-3.4a3.63,3.63,0,0,1,.3-2.94c.43-.54,1.79-.41,2.74-.44.57,0,1.15.35,1.72.33a1.65,1.65,0,0,0,1.17-.62c.15-.23,0-.83-.27-1.14a4.27,4.27,0,0,0-4-1.7A3.23,3.23,0,0,0-50.11,29a39.25,39.25,0,0,0,0,5.13c-1.82-1.59-2.16-3.81-2.49-5.93C-53.29,24.16-53.09,20.22-49.42,16.88ZM-126.56-39a4.31,4.31,0,0,0-5.37,3.5,4.44,4.44,0,0,1-1,2.17c-1.35,1.64-1.15,4.12.6,4.86a22.59,22.59,0,0,0,4.81,1.63,9,9,0,0,0,3.87-.38,2.56,2.56,0,0,1,2,0,4,4,0,0,0,5.44-1.58,2,2,0,0,1,1-.65c1.8-.66,2.74-3.21,1.46-4.65a4.25,4.25,0,0,1-.94-3.06,3.63,3.63,0,0,0-3.86-3.69,6.08,6.08,0,0,1-2.15-.44C-123.32-42.41-125.4-41.62-126.56-39Zm80-5.57h49v-2.84H-40.13v-4.32l-2-.68L-44-51.31v3.9l-2.52.17Zm67.46,75L24.59,28l1,3.19,1.84-2.81,3,4.49.24-.09-.48-5.33,3.41.85-1.58-3.08,5.66.33.06-.24-4.92-2.73,3-2.24-3.67-.5L35.66,15l-5.32,2.66-.25-3.16-.48-.22-1.88,2.59-1.88-5.37h-.28l-.72,5.42L21.48,15l1,3.43-5-1.36-.13.32,3.78,3.51L18,22.18l3,1.6-4.6,3.86,5.86-1.33Zm3.36-60.75L16.42-42c-1.09,1.53-2.12,2.85-3,4.28a1.72,1.72,0,0,0,.11,1.6c3.53,3.87,7.13,7.67,10.81,11.58l1.88-3.16,7.36,9.29.25-.18L26.91-34.29Zm19.8,55-.52.13c.28,1.83,0,4,1,5.41,1.7,2.58,1.87,5.19,1.6,8.09l-1.61.23c.81,1,1.37,2.22,2.05,2.3a64.46,64.46,0,0,0,7.08.1l.24-.5c-1.07-.68-2.15-1.35-3.2-2.06a1.8,1.8,0,0,1-.56-.68c-.85-1.71.53-2.64,1.31-3.8A8.32,8.32,0,0,0,52,32.68l-.38-.17-2,1.43c-.38-2.74-.32-2.67,1.49-4.22A15.78,15.78,0,0,0,53.22,27l-.35-.25-3.3,2.81c-1-2.92,2.36-4.24,2.08-7.05L49.33,25.2c-1.12-2.42-.61-4.56.62-6.68L48.32,20l-1-6.89-.28,0v5.72l-.35.14L42.84,14a11.46,11.46,0,0,0,1.23,3.31c.57,1,1.52,1.72,2.07,2.7A13.29,13.29,0,0,1,47,22.79l-.47.14-2.11-1.86-.48.35c.42.78.65,1.8,1.29,2.29a4,4,0,0,1,1.45,4.58,17.6,17.6,0,0,0-.24,2l-.56.11ZM16.31,95c6.59-.12,13.08.57,19.41-1.26l.16-1.33,5-1.08C32.7,89.2,24.5,90.46,16.31,90ZM25.2,73.88c-.84,1-1.59,2-2.31,2.9s-1.22,1.67-1.83,2.51c1,.23,1.92.51,2.9.66,1.32.21,1.9.82,1.59,2.21a30.39,30.39,0,0,0-.48,3.35c-.26,2.54-.25,2.54,2.28,3,.58.1,1.17.19,1.76.24C32,89,32,89,32.23,85.91a44.62,44.62,0,0,1,.87-4.55,6.35,6.35,0,0,0-1.25-2.53c-.29-.37-.87-.82-1.26-.77-2.28.31-3.48-.95-4.38-2.76A16.11,16.11,0,0,0,25.2,73.88ZM-119.7,61.17c3.34-5.93,16.12-6.59,18-1.54,2.45-2.24,2.13-4.55-.82-6a7.52,7.52,0,0,0-1.06-.39,16.51,16.51,0,0,0-12.26,1.23,14.59,14.59,0,0,0-4,3.18A2.38,2.38,0,0,0-119.7,61.17Zm56.26-42.1c-2.22-4.65-4.92-9-9.6-11.6a9.43,9.43,0,0,0-8.84-.66c-.6.27-1,1-1.47,1.51a12.12,12.12,0,0,0,1.7,1c3.42,1.26,7,2.14,10.22,3.82C-68.53,14.64-66.09,17.05-63.44,19.08Zm104,75.85H58.17V89.77c-2.37,0-4.63,0-6.9,0-1.22,0-2.28.11-2.5,1.64a.89.89,0,0,1-.65.56C45.22,91.89,43.11,94,40.52,94.93ZM37.38,42.65c-.85-.69-1.62-1.28-2.34-1.92a9.5,9.5,0,0,0-7-2.3c-.43,0-1.14.38-1.2.68-.38,2-.61,4-.87,5.85,4.37,2.08,7.69-.45,11.21-2.08C37.22,42.86,37.25,42.8,37.38,42.65Zm19.35,10c.64-1.76-.11-2.58-1.44-3.27-1.53-.79-2.9-1.89-4.43-2.66a4.11,4.11,0,0,0-2.57-.37,28.91,28.91,0,0,0-4,1.56c.77,1.4,1.42,2.71,2.2,3.93a1.77,1.77,0,0,0,1.21.77C50.71,52.65,53.73,52.62,56.73,52.62Zm-23.28-.06c-1.52-4.85-4-6.81-7.8-5.52-1.75.59-3.11,2.44-4.54,3.82-.32.31-.21,1.06-.31,1.7ZM18.36,48.88c2.07-1.45,4.52-2.4,5.61-5.13-2.66-1.19-4.73-4.33-8.33-2.26-.55.32-1.57.63-1.57.94a6.13,6.13,0,0,0,.65,3.43A19.23,19.23,0,0,0,18.36,48.88ZM-118.15,63.77c2-3.62,9.7-5.16,15.08-2,1-1.78.57-3-1.41-4-3.59-1.72-10.31-.71-13.29,2A2.56,2.56,0,0,0-118.15,63.77ZM9.93-3.41v-.4c-1.2-.27-2.41-.49-3.58-.83a16.94,16.94,0,0,0-8.6-.2c-2,.43-4.12.08-6.19,0a66.84,66.84,0,0,0-7-.23c-2.71.22-5.37,1.07-8.07,1.27-1.52.11-3.1-.54-4.78-.88a10.31,10.31,0,0,0,9.76,1.55c3.15-1.06,6.35-1.47,9.48-.18a9.65,9.65,0,0,0,7.68,0,12.29,12.29,0,0,1,7.29-.49A34.84,34.84,0,0,0,9.93-3.41Zm33.39,56c0-.25,0-.32,0-.35l-3.38-4.93c-1.55-2.26-2.49-2.63-5.1-2a1.75,1.75,0,0,0-1.17,2.75c.82,1.26,1.61,2.56,2.51,3.76a2.08,2.08,0,0,0,1.39.74C39.46,52.67,41.35,52.62,43.32,52.62ZM-37.45,36.91a75.86,75.86,0,0,1-7.35,3.66c-4.09,1.53-7.83.26-10.45-3.17-.67-.89-1.29-1.82-1.93-2.73A6.1,6.1,0,0,0-57,36.81c1.14,4.27,5.66,7.53,9.55,6.93C-43,43.05-39.87,40.55-37.45,36.91ZM-102.76,65c.49-1.42-.36-2.2-1.3-2.84-3.06-2.05-9.21-1.78-12.16.5-1.83,1.4-1.55,3.22.3,4C-112,61.9-107.37,63.5-102.76,65ZM-36.12-64.18c-2.23,3.17-5,6.08-6.9,9.53,1.8-.64,2,1.35,3.1,1.64l6.1-9.18Zm-97.32,11.41c1.9,1.44,2.75,1.51,3.41-.72A2.55,2.55,0,0,1-127-55.58c.29.55.55,1.15.9,1.69s.82,1.63,1.4,1.79c1.42.38,1.9,1,1.17,2.54,1.87-1.34,1.87-2.3.22-3.24-1.95-1.11-2.39-2.29-1.95-4.39a15.08,15.08,0,0,0,0-3l-1.61-.21-.6-1.78-.39.06a11.62,11.62,0,0,1,0,1.61c-.17,1.18.55,2.8-1,3.34A2.77,2.77,0,0,0-131-54.76C-131.17-53.4-131.68-52.37-133.43-52.77ZM3.65-2.23l0-.44C1.89-2.29.15-2-1.52-1.51a10.41,10.41,0,0,1-7.1-.06,11.57,11.57,0,0,0-7.16-.54c-3,.76-6,1.61-9.21.72a15,15,0,0,0,5.63,1A28.7,28.7,0,0,1-8.3.17a8,8,0,0,0,4,.05C-1.63-.43,1-1.4,3.65-2.23ZM-113.66,68.92c4-3.89,8.13-2.45,12.41-.59a6,6,0,0,0-1.47-2.07,10.79,10.79,0,0,0-10-1.45C-115.07,65.54-115.32,67.26-113.66,68.92Zm10.92,5.79c1.53-1,1.57-2.11,0-3.07a8.22,8.22,0,0,0-6.66-1.06A3,3,0,0,0-111.26,72c-.19.55.51,1.4.8,2.08A7.67,7.67,0,0,1-102.74,74.71Zm1.35-3c.92-1.06.18-1.84-.51-2.49-2-1.91-6.82-2.6-9.32-1.41-1.7.81-1.89,1.78-.64,3.23C-108.89,68.82-104.84,69.07-101.39,71.74ZM-71.87-33.8v-8.94h-2.6v8.94ZM39.41,43.94c1.47,1.74,3.25,2,5.29,1.88s3.69-.55,4.84-2.32C48.32,41.78,43.91,41.93,39.41,43.94Zm17.53,4.84c0-1.91,0-3.52,0-5.12a1.44,1.44,0,0,0-.74-1c-2.28-1-4.08-.33-5.27,2l2.73,1.89ZM35.15,38.41c4.11,4.52,4.11,4.52,8.66,2.47-1.34-3-.55-2.39-3.65-2.46C38.5,38.37,36.85,38.41,35.15,38.41ZM-73.9,12.74c-2-.66-4-1.36-5.94-1.93a5.71,5.71,0,0,0-5.06,1,9.33,9.33,0,0,0-1.59,2c2.37-.19,4.32-.83,6.32-1.06A56,56,0,0,1-73.9,12.74Zm56.27,59.5c.46.85,1.28,1.64,1.21,2.34-.23,2.34,1.47,2.18,2.86,2.61l1.41-2.33-3-3.77ZM.15.66c-3.94.92-7.86,1.84-11.88.25a6.71,6.71,0,0,0-3.07,0c-2.53.3-5.05.7-7.57,1.06,1.82.16,3.7.13,5.58.17s4.06-.21,5.92.31C-6.86,3.53-3.4,2.05.15.66ZM-122.56,16.79c1.2,0,2.69-1.47,2.27-2.72A3.36,3.36,0,0,0-122.61,12a3.2,3.2,0,0,0-2.49,1.89C-125.37,16.09-124.55,16.76-122.56,16.79Zm13.11-4.61c-2.63,2.24-2.75,2.32-2.19,3.13s.27,2.19,1.8,2.08,2.79-.52,2.91-2.61S-109,13.43-109.45,12.19Zm7.64-1.31c3.07-2.44,2.62-1.55,1.83-4-.26-.81-.6-1.21-1.58-1.08-2.23.29-2.24.23-2.85,3.4ZM-132,22.7c1.11,1,.56,3,2.67,2.88a2.44,2.44,0,0,0,2.62-2.43c.25-1.79-1.15-1.79-2-2.22C-130.53,20-130.61,22.32-132,22.7Zm28.88-2.31c-3.12,1.73-3.12,1.73-1.81,4.81,3.14.19,3.14.19,4.23-2.84Zm116-38.87v.11L22.9-16.59l-.57-2.35,4.79-.3v-.32l-7-.46.26,1.54ZM-.43,42c-.89.58-1.79.85-2,1.37a2.17,2.17,0,0,0,.51,2A10.35,10.35,0,0,0,1.45,47a2,2,0,0,0,1.69-.85,2,2,0,0,0-.29-1.87A25.88,25.88,0,0,0-.43,42Zm-5.93,3.12C-4.62,45.15-3,44-3.1,42.9s-2-2.2-3.54-1.9c-1.22.24-2.73.31-2.8,2.1C-9.49,44.19-8.06,45.09-6.36,45.12Zm4.67-3.47a14.83,14.83,0,0,0,3-1.36,2.26,2.26,0,0,0,.85-1.88A2.33,2.33,0,0,0,.39,37.09,6,6,0,0,0-2.74,38a2.62,2.62,0,0,0-1,2.22C-3.57,40.85-2.43,41.18-1.69,41.65ZM35.15-35.56l-2.46.82-.54-5.93h-.21v8.16L33.72-33v6.74H34Zm-142,109.44a10.38,10.38,0,0,0-2.47.64c-.38.21-.48.91-.71,1.39a8.67,8.67,0,0,0,1.38.44c1.34.2,2.69.37,4,.47a6.65,6.65,0,0,0,1.54-.24c-.19-.5-.25-1.26-.6-1.45A25.67,25.67,0,0,0-106.81,73.88ZM59-62.86a1.9,1.9,0,0,0-1.8-2.25A1.89,1.89,0,0,0,55-63.37,1.93,1.93,0,0,0,56.72-61,2,2,0,0,0,59-62.86ZM-2.8,77.39c1.23.08,1.82-.7,2-1.83a2,2,0,0,0-2-2.1,2.06,2.06,0,0,0-2,2.06A1.84,1.84,0,0,0-2.8,77.39Zm27-35.17.66-.28c-.32-1.11-.33-2.84-1-3.2-1.07-.55-2.62-.14-4-.14l-.07.45ZM14,52.55h4c-.74-2-2.56-2.55-4-4,0,1.24,0,2.09,0,2.94C14,51.83,14,52.14,14,52.55ZM-18.69-83.35c3.21,1.44,5.58,2,6.82,1.53C-13.32-83.77-15.38-84.26-18.69-83.35Zm2.15-1.5c-1.11-2.51-3.61-3.09-6.58-1.87ZM-104,78.52c-1-1.38-3.39-2.11-4.73-1.37-.26.15-.2.88-.29,1.34,1.5.2,3,.42,4.49.57C-104.37,79.09-104.17,78.71-104,78.52ZM-6.78-77.34l.13-.51c-1.39-2-3.47-2.44-6.92-1.34Zm-80,95.13,6.05-3.56C-84.85,14-87,15.22-86.81,17.79ZM14.13,38.41c-.22,1.83,0,2.09,1.57,1.71a16.46,16.46,0,0,0,2-.55c.31-.12.54-.46.81-.7-.29-.15-.57-.42-.87-.43C16.47,38.38,15.3,38.41,14.13,38.41ZM.25-30.31c1-1.41.64-4.42-.67-5.94C0-34.22-1.6-32.2.25-30.31Zm-27.8,16.88c0,1.95-1.29,3.95.45,6C-25.73-9.72-27.15-11.57-27.55-13.44Zm19.3-18.62-.67,0c0,1.56,0,3.12,0,4.68,0,.29.51.55.79.82.19-.34.56-.7.53-1C-7.72-29.05-8-30.55-8.24-32.05ZM-23-17.3c.89-2.2-.25-4-.66-5.84C-24.26-18.15-24.26-18.15-23-17.3ZM-128.25-65.73l-.61,0c-.37.55-1.06,1.12-1,1.63s.82,1,1.27,1.48c.44-.45,1.19-.87,1.23-1.36S-127.93-65.16-128.25-65.73Zm130.36,46-.8-5.74C.06-22.45.27-20.53,2.11-19.77ZM-30.06-24.1l.56-.14-.77-5.51C-31.55-26.83-31.39-24.93-30.06-24.1ZM-19.81-34c-1.35,3-1.1,5.11.74,5.56ZM21.32,76.49l-.62-1.23a6.71,6.71,0,0,0-1.74.26,2.38,2.38,0,0,0-1,1c-.09.16.21.76.42.82a2.57,2.57,0,0,0,1.4,0A9.49,9.49,0,0,0,21.32,76.49Zm31.73,4.37c-.25,2.08,1.23,1.45,2.11,1.35.41,0,1.15-1,1.05-1.16C55.28,79.08,54.13,81,53.05,80.86ZM-130.79,13.38v7.31h.56C-129.44,18.24-130.63,15.8-130.79,13.38Zm19.48-.86.52.05c1-2.46-.27-4.89-.52-7.33Zm-14.95-73.65c.8.09,1.56,0,2,.28s.55,1,.8,1.6l.6-.13c-.11-.67,0-1.67-.39-1.94a16.44,16.44,0,0,0-3.34-1.33ZM-13,70.57a9.75,9.75,0,0,0,2-.05c.2,0,.46-1,.34-1.06A23.28,23.28,0,0,0-13,67.86Zm-106.93-65c-1.18,6.15-1.17,6.7,0,7.44Zm19.38,9.34c-.19,2.19-1.24,4.41-.5,6.68l.5,0ZM-104.88,8c1.24-2.74,0-5-.34-7.3Zm-3.68,71.26-.09.68a2.65,2.65,0,0,0,3.23.45l.08-.66Zm95-15.44-.49-.25-1.12,1.84,1.61.78Z"></path><path d="M-10.13,94.49c6.78,0,13.7,0,20.62,0a5.57,5.57,0,0,1,.07.6H-42L-38.44,83c2.26-7.63,4.51-15.27,6.83-22.88a2.47,2.47,0,0,1,1.38-1.46c2.83-.84,5.73-1.48,8.58-2.28.95-.26,1.26,0,1.44.91.36,1.79.74,3.59,1.23,5.35a3.1,3.1,0,0,1-.83,3.46c-1.8,1.65-2.22,3.44-.79,5.62a7.54,7.54,0,0,1-.29,9.44,3.77,3.77,0,0,0-.38,3.75c.88,2.76,1.54,5.6,2.4,8.38a1.77,1.77,0,0,0,1.27,1c1.89.11,3.78,0,5.68,0C-12,91.8-12,91.8-9.64,90.5a5,5,0,0,0,2.15-5.24,31.58,31.58,0,0,1-.07-5.61c-1.95-.76-1.8,1.26-2.65,3-.35-.79-.8-1.3-.72-1.7.47-2.46.9-2.75,3.51-2.9a21.66,21.66,0,0,0,2.53-.5l2.32,2.68L.11,79l.58,1.07c-1.56.51-2.57,2.41-4.49,1.17-.28,2.64,0,3,2.29,4A4.27,4.27,0,0,1,.25,87.34,26.41,26.41,0,0,1,1.37,91L4,90.79l.15.61c-1.16.31-2.32.65-3.5.88-.2,0-.58-.38-.74-.66C-.45,91-.71,90.36-1,89.72-2.1,87.19-2.1,87.19-5.16,87.1A29.39,29.39,0,0,0-6.6,89.93a3.43,3.43,0,0,1-2.81,2.36C-10.73,92.5-10.85,93.17-10.13,94.49Z"></path><path d="M32.07-19.11l4.49,5.61.26-.14c-.95-2.14-1.95-4.26-2.8-6.44a2.35,2.35,0,0,1,.21-1.8,28.82,28.82,0,0,1,2.2-3c.9-1.16,1.45-1.14,2.39.08.66.86,1.27,1.75,2,2.59.82,1,1.56.88,2-.37.32-1,1-1.43,1.78-1.08a2.06,2.06,0,0,1,1,1.67,12.76,12.76,0,0,0,3.9,11.28,33.68,33.68,0,0,1,3.35,4.38,2.44,2.44,0,0,1,.45,1.73c-.07.3-1,.54-1.5.55-4,.07-3.51-.45-3.54,3.59,0,1.19,0,2.39,0,3.58s-.39,1.71-1.62,1.67c-1.79-.06-3.58-.07-5.37,0-1.18,0-1.5-.49-1.47-1.56.05-1.73,0-3.47,0-5.21,0-1.57-1-1.67-2.17-1.68s-2.14.2-2.09,1.74,0,3.37,0,5c0,1.15-.31,1.71-1.56,1.67-1.79-.07-3.58-.06-5.37,0C27.38,4.81,27,4.24,27,3.2c0-1.84,0-3.69,0-5.53,0-1.26-.39-1.83-1.68-1.72a6.59,6.59,0,0,1-1.79,0,2.71,2.71,0,0,1-1.62-.67c-.2-.28.13-1.12.45-1.55,1.75-2.4,3.57-4.76,5.37-7.13Z"></path><path d="M3.65-2.23C1-1.4-1.63-.43-4.33.22a8,8,0,0,1-4-.05A28.7,28.7,0,0,0-19.36-.45,15,15,0,0,1-25-1.4c3.17.89,6.19,0,9.21-.72a11.57,11.57,0,0,1,7.16.54,10.41,10.41,0,0,0,7.1.06C.15-2,1.89-2.29,3.61-2.67Z"></path><path d="M.15.66c-3.55,1.39-7,2.87-11,1.75-1.86-.52-3.94-.27-5.92-.31s-3.76,0-5.58-.17c2.52-.36,5-.76,7.57-1.06a6.71,6.71,0,0,1,3.07,0C-7.71,2.5-3.79,1.58.15.66Z"></path><path d="M-.43,42a25.88,25.88,0,0,1,3.28,2.28,2,2,0,0,1,.29,1.87A2,2,0,0,1,1.45,47a10.35,10.35,0,0,1-3.35-1.65,2.17,2.17,0,0,1-.51-2C-2.22,42.85-1.33,42.58-.43,42Zm3.25,4c-1.58-2-3.32-2.7-4.66-2C-.45,44.89.67,46,2.82,46Z"></path><path d="M-1.69,41.65c-.73-.46-1.88-.79-2.07-1.41a2.62,2.62,0,0,1,1-2.22,6,6,0,0,1,3.13-.93,2.33,2.33,0,0,1,1.74,1.31,2.26,2.26,0,0,1-.85,1.88A14.83,14.83,0,0,1-1.69,41.65ZM-2.81,40.4,1.41,39C-.22,38.06-2.4,38.77-2.81,40.4Z"></path><path d="M14,52.55c0-.41-.05-.72-.05-1,0-.85,0-1.7,0-2.94,1.46,1.43,3.28,2,4,4Z"></path><path class="cls-5" d="M30.92,22.49a3.79,3.79,0,0,1-4,3.89,3.86,3.86,0,0,1-3.81-4,4.12,4.12,0,0,1,3.91-4A4,4,0,0,1,30.92,22.49Z"></path><path class="cls-5" d="M2.82,46C.67,46-.45,44.89-1.84,44-.5,43.31,1.24,44.06,2.82,46Z"></path><path class="cls-5" d="M-2.81,40.4c.4-1.63,2.59-2.34,4.22-1.41Z"></path></g><g class="cls-8"><path class="cls-5" d="M64.11,-47 V96.89 H-135.46 V-95.85 H64.11 v48.51 c-2.87,0 -2.91,0 -3.64,-2.8 c-.45,-1.75 -1.28,-3 -3.19,-3.41 a2.27,2.27 0 0 1 -1.23,-1.37 a9.28,9.28 0 0 1 -.23,-2.3 c1.37,.52 3.74,0 4.42,-1 c.16,-.24 -.07,-.76 -.14,-1.26 a15.18,15.18 0 0 0 -1.73,.81 c-1.07,.69 -1.68,0 -2.28,-.71 l-1.3,-1.64 a19.57,19.57 0 0 1 -2.76,.68 c-2.61,.22 -2.52,.21 -3.3,2.71 c-.35,1.12 .12,1.28 .88,1.48 c.8,-1.15 .43,-3.59 2.55,-2.67 a24.06,24.06 0 0 0 -.12,4.3 c.31,2.06 .9,4.06 -1.05,6 c-1.93,-2.09 -4,-4.15 -5.86,-6.39 a50.9,50.9 0 0 1 -7.84,-13.18 c-.37,-.89 -.89,-1.27 -1.8,-.78 c.29,2.76 .47,5.47 2.61,7.5 a1.65,1.65 0 0 1 .45,.85 c.68,3.73 2.64,6.36 6.33,7.62 c.39,.13 .58,.86 .86,1.31 A5.4,5.4 0 0 1 44,-51 a2.16,2.16 0 0 1 -1.4,-.71 c-1.69,-1.79 -3.64,-3.38 -4,-6.11 a4.47,4.47 0 0 0 -1.27,-2.73 a7.77,7.77 0 0 1 -2.86,-6.55 a1.35,1.35 0 0 0 -.13,-.79 A10.92,10.92 0 0 0 33.29,-69 c0,2.18 .55,4.27 -.12,5.82 a8.08,8.08 0 0 0 .33,7.55 a3.15,3.15 0 0 1 -1.13,4.26 c-.41,.24 -1.53,.1 -1.62,-.13 c-.37,-1 -1,-2.42 -.59,-3.12 c.86,-1.47 .64,-2.89 .76,-4.38 s.61,-3.06 .71,-4.6 a38,38 0 0 0 -.13,-4.8 c0,-.19 -.41,-.45 -.66,-.51 a.69,.69 0 0 0 -.55,.4 c-.23,1.15 -.74,2.39 -.51,3.46 a2.46,2.46 0 0 1 -1.09,2.77 a7.66,7.66 0 0 0 -3,5.05 a11.08,11.08 0 0 1 -3.07,5.77 c-1.3,1.47 -2.94,1.43 -4.23,-.16 c1.28,-.88 2.5,-1.84 3.83,-2.62 a6.66,6.66 0 0 0 3.11,-4.33 a6.44,6.44 0 0 1 1.1,-2.83 c2.07,-2.1 2.24,-4.75 2.61,-7.39 c-1.37,-.46 -2.07,.09 -2.73,1.37 a79.22,79.22 0 0 1 -5.67,10 C18.21,-54 15.19,-51 12.54,-47.93 h37.4 c-.76,1.19 -2.79,.84 -2.38,2.71 c.25,1.13 .68,2.06 2.12,2.25 l-.73,-2.67 a4.79,4.79 0 0 0 4.69,-3.69 C54.19,-51 55.1,-51.47 56.91,-51 c1.51,.4 1.54,1.59 1.94,2.52 c1.33,3.09 1.17,3.45 5,1.66 A1.83,1.83 0 0 0 64.11,-47 M-10.13,94.49 c-.73,-1.32 -.6,-2 .72,-2.2 A3.43,3.43 0 0 0 -6.6,89.93 A29.39,29.39 0 0 1 -5.16,87.1 c3.05,.09 3.05,.09 4.17,2.62 c.28,.64 .54,1.3 .89,1.9 c.16,.28 .54,.7 .74,.66 c1.18,-.23 2.34,-.58 3.5,-.88 L4,90.79 L1.37,91 A26.41,26.41 0 0 0 .25,87.34 a4.27,4.27 0 0 0 -1.76,-2.09 c-2.25,-1 -2.58,-1.37 -2.29,-4 c1.93,1.24 2.94,-.66 4.49,-1.17 L.11,79 l-2.69,1.18 L-4.9,77.51 a21.66,21.66 0 0 1 -2.53,.5 c-2.6,.16 -3,.45 -3.51,2.9 c-.08,.41 .37,.91 .72,1.7 c.85,-1.69 .7,-3.71 2.65,-3 a31.58,31.58 0 0 0 .07,5.61 A5,5 0 0 1 -9.64,90.5 C-12,91.8 -12,91.8 -11.92,94.29 c-1.9,0 -3.79,.07 -5.68,0 a1.77,1.77 0 0 1 -1.27,-1 c-.86,-2.77 -1.51,-5.61 -2.4,-8.38 a3.77,3.77 0 0 1 .38,-3.75 a7.54,7.54 0 0 0 .29,-9.44 c-1.43,-2.18 -1,-4 .79,-5.62 A3.1,3.1 0 0 0 -19,62.59 c-.49,-1.76 -.87,-3.55 -1.23,-5.35 c-.18,-.87 -.49,-1.18 -1.44,-.91 c-2.85,.79 -5.74,1.44 -8.58,2.28 a2.47,2.47 0 0 0 -1.38,1.46 c-2.32,7.61 -4.57,15.25 -6.83,22.88 L-42,95.11 h52.6 a5.57,5.57 0 0 0 -.07,-.6 C3.57,94.49 -3.35,94.49 -10.13,94.49 M-108.87,-54.64 H-88 c-.88,-1.66 -1.78,-3.13 -2.47,-4.7 c-1.23,-2.81 -2.33,-5.68 -3.5,-8.52 c-1.71,-4.14 -5,-6.38 -9.15,-7.54 c-2.09,-.58 -2.34,-.46 -3.08,1.88 h-8.57 c-1.15,-2.54 -2.86,-3.35 -5.75,-2.2 A17.39,17.39 0 0 0 -125,-73.17 c-4.71,3.82 -6.85,9.18 -8.46,14.8 c-.32,1.1 -.51,2.24 -.78,3.47 h2.67 c-.07,-2.06 1.58,-2.67 3.24,-3.4 l-3.57,-2.17 l.8,-2 l1,.34 a9.31,9.31 0 0 1 -.24,-3 c.12,-.49 1.24,-1 1.94,-1 c1.34,-.09 1.64,1.06 2.05,2.11 A2.05,2.05 0 0 0 -125,-63 c1.56,.17 2.59,.76 2.78,2.42 c.05,.47 .19,.92 .33,1.54 l-2.51,.81 l-.32,3.2 a9.44,9.44 0 0 0 5.59,-8.22 c.11,-1.34 .37,-2.35 1.83,-2.86 a3.59,3.59 0 0 0 2.34,-3.39 a8.91,8.91 0 0 1 .35,-2.07 c.37,-1.1 1.09,-1.73 2.22,-1.45 a8.33,8.33 0 0 0 -.9,2.43 a5.67,5.67 0 0 1 -3,5.18 a3,3 0 0 0 -1.23,2 c-.5,4.13 -1.78,7.72 -5.92,9.78 l1.51,-.14 c-.14,1.43 .6,1.64 3.24,.94 c.92,1.34 1.92,1.54 3.89,.79 c.5,1.12 2.06,1.77 3.85,1.39 C-108.92,-51.06 -109.43,-53 -108.87,-54.64 M32.07,-19.11 l-4.31,5.68 C26,-11.05 24.14,-8.7 22.39,-6.29 c-.31,.43 -.65,1.27 -.45,1.55 a2.71,2.71 0 0 0 1.62,.67 a6.59,6.59 0 0 0 1.79,0 c1.29,-.12 1.73,.46 1.68,1.72 C27,-.49 27,1.35 27,3.2 c0,1 .37,1.61 1.53,1.57 c1.79,-.06 3.58,-.07 5.37,0 c1.25,0 1.6,-.52 1.56,-1.67 c-.06,-1.68 0,-3.36 0,-5 s.84,-1.76 2.09,-1.74 s2.2,.11 2.17,1.68 c0,1.74 0,3.47 0,5.21 c0,1.08 .28,1.61 1.47,1.56 c1.79,-.07 3.58,-.06 5.37,0 c1.23,0 1.64,-.55 1.62,-1.67 s0,-2.39 0,-3.58 c0,-4 -.48,-3.52 3.54,-3.59 c.53,0 1.43,-.26 1.5,-.55 a2.44,2.44 0 0 0 -.45,-1.73 a33.68,33.68 0 0 0 -3.35,-4.38 A12.76,12.76 0 0 1 45.49,-22 a2.06,2.06 0 0 0 -1,-1.67 c-.8,-.35 -1.46,.09 -1.78,1.08 c-.4,1.25 -1.14,1.35 -2,.37 c-.69,-.83 -1.3,-1.73 -2,-2.59 c-.94,-1.21 -1.49,-1.24 -2.39,-.08 a28.82,28.82 0 0 0 -2.2,3 a2.35,2.35 0 0 0 -.21,1.8 c.85,2.18 1.86,4.3 2.8,6.44 l-.26,.14 m-127.12,-.47 c1.44,-5.76 -1.71,-10 -6.93,-9.53 a3.88,3.88 0 0 1 -2.19,-.48 c-3.77,-2.25 -9.39,-.72 -10,3.61 c-4.78,-1.59 -9.26,2.65 -9,6.18 A2.8,2.8 0 0 1 -124.43,-17 a4.7,4.7 0 0 0 -1.42,2.29 c-1,3.09 .73,6.25 3.48,6.18 a4.74,4.74 0 0 1 2.77,.9 c3.62,2.18 7.31,2.76 11.13,.4 a1.85,1.85 0 0 1 1.52,.08 C-102.77,-5 -99.41,-5.91 -97,-10 a1.37,1.37 0 0 1 .86,-.49 a4.07,4.07 0 0 0 3.67,-3.7 C-92.15,-17 -92.88,-18.6 -95.06,-19.58 M-50,-13.13 L-61.71,-30.81 l-6.77,10.62 l-5.06,-4.23 L-85.87,-4.3 h40.39 l-1.15,-1.95 c2,-.23 3.56,-1 3.92,-3.08 c.3,-1.73 -1.33,-4.4 -3.08,-5.36 S-48.64,-14.78 -50,-13.13 M26.87,-72.88 l-.21,.57 c.85,.62 1.64,1.63 2.56,1.77 a41.06,41.06 0 0 0 5.84,.08 c-.81,-5.23 -.76,-5.52 1.12,-6.77 c2.1,3.25 4.63,3.51 7,1 c1.25,-.13 2.7,-.17 3.58,-.89 c1.09,-.89 .73,-2.4 .11,-3.6 c-.39,-.76 -1,-1.38 -1.46,-2.11 A1.81,1.81 0 0 1 45,-84.07 c1.13,-3.81 -1.12,-7.19 -5.11,-7.19 a32.6,32.6 0 0 0 -5.77,1 c-1.78,-2 -3.82,-1.94 -5.83,.49 c-1.78,-1.54 -3.77,-2.24 -5.91,-.89 a3.52,3.52 0 0 0 -1.3,5.13 c-.66,0 -1.15,0 -1.63,0 a8.23,8.23 0 0 0 -1.46,.11 c-1.57,.34 -2,1.55 -.91,2.74 a18.13,18.13 0 0 0 1.76,1.54 c-2.45,2.84 -2,4.36 1.64,5.18 a13.62,13.62 0 0 0 3.21,.25 c1.7,0 3.39,-.17 5.16,-.27 C28.7,-74.47 29.08,-72.9 26.87,-72.88 M-68.89,-51 l7.38,.77 l.1,-.43 A15.31,15.31 0 0 1 -68.1,-59 h3.51 a72.7,72.7 0 0 1 -5.17,-6.24 a67.62,67.62 0 0 1 -3.6,-7 A31.06,31.06 0 0 1 -82.75,-59 h4.5 a18.82,18.82 0 0 1 -6.67,8.71 l7.46,-.7 a81.46,81.46 0 0 1 -10.12,9.69 a119.37,119.37 0 0 0 12.74,-2 a6,6 0 0 1 3.39,.05 a46.65,46.65 0 0 0 7,1.38 c1.91,.28 3.85,.35 6.09,.53 C-62.36,-44.39 -66,-47.22 -68.89,-51 m48.18,-25.48 c.08,-1.55 .6,-3 .08,-3.9 s-2.12,-1.21 -3.22,-1.77 c.26,-.37 .67,-.87 1,-1.42 c.5,-.86 .13,-1.45 -.72,-1.76 a4.17,4.17 0 0 0 -4.83,1.69 c-.27,.41 -.57,.8 -.92,1.3 l-1.1,-3.32 a28.28,28.28 0 0 0 -3.46,3.38 a25.52,25.52 0 0 0 -2,4 l-2,-1.83 c-1.49,2.29 -1.46,4.53 -1.28,6.81 c.29,3.63 .64,4.11 3.86,5.11 c-.36,4.51 4,7.19 8,4.1 c.15,.28 .31,.56 .45,.85 c1.42,2.82 4.11,3.7 6.58,2.14 c2.29,-1.45 2.7,-4.4 .93,-6.79 c-.19,-.26 -.61,-.61 -.55,-.76 c.73,-1.63 -.57,-2.45 -1.43,-3.43 C-18.6,-73.39 -19.17,-75.19 -20.71,-76.52 M-5.94,-48.07 c0,-1.22 0,-2.25 0,-3.27 c0,-3.43 0,-3.43 3.42,-3.71 h.16 c1.11,-.06 1.33,-.67 .79,-1.51 a27.62,27.62 0 0 0 -2,-2.58 c-2.7,-3.28 -5.78,-6.38 -4.71,-11.28 c.1,-.44 -.64,-1.05 -1,-1.59 c-.51,.35 -1.23,.59 -1.48,1.07 c-.56,1.08 -1.1,1.09 -1.81,.26 s-1.35,-1.7 -2.09,-2.48 a1.42,1.42 0 0 0 -1.09,-.46 c-1.67,.43 -2.77,3.84 -2.08,5.43 a9.72,9.72 0 0 1 .92,4.28 a5.08,5.08 0 0 1 -3.24,4.32 a6,6 0 0 1 -6.25,-.71 c-.59,.73 -1.17,1.38 -1.66,2.08 s-1,1.69 -1.55,2.54 a19.15,19.15 0 0 0 3,.6 c1.29,.06 1.88,.5 1.82,1.86 c-.08,1.71 0,3.42 0,5.15 h7.48 c0,-1.64 .09,-3.2 0,-4.75 s.54,-1.76 1.8,-1.77 s2.09,.19 2,1.75 s0,3.19 0,4.78 m-113,72.36 a8.21,8.21 0 0 0 -.9,-1.54 c-.3,-.3 -.8,-.66 -1.15,-.6 s-.76,.53 -.93,.91 a2.32,2.32 0 0 0 -.06,1.28 c.53,3 -.6,5.44 -2.67,7.58 a21.33,21.33 0 0 0 -2.27,3 a26.79,26.79 0 0 0 -1.32,2.46 a15.58,15.58 0 0 0 2.71,.53 c1.11,0 1.56,.39 1.49,1.54 c-.08,1.35 0,2.71 0,4.06 c0,.94 .31,1.41 1.31,1.38 c1.41,0 2.82,0 4.22,0 c1,0 1.34,-.39 1.3,-1.35 a35,35 0 0 1 0,-3.9 a1.67,1.67 0 0 1 .69,-1.25 c1.76,-.7 2.79,0 2.8,1.92 c0,.38 0,.76 0,1.14 c0,3.42 0,3.42 3.4,3.43 s3.39,0 3.41,-3.33 c0,-1 -.32,-2.37 .2,-3 s1.9,-.48 2.9,-.64 c1.25,-.2 1.49,-.71 .75,-1.74 c-.63,-.87 -1.33,-1.7 -2,-2.56 q-4.55,-5.91 -9.09,-11.82 c-1.18,-1.53 -1.48,-1.51 -2.74,0 C-117.47,22.54 -118.09,23.27 -118.94,24.29 m-8.69,68.36 c0,.6 0,1.2 0,1.79 c-.12,1.3 .35,1.92 1.75,1.82 a32.49,32.49 0 0 1 3.74,0 c1,0 1.39,-.34 1.36,-1.32 c0,-1.3 0,-2.6 0,-3.9 s.65,-1.54 1.74,-1.56 s1.81,.26 1.81,1.5 s0,2.6 0,3.9 c0,.92 .27,1.42 1.3,1.38 c1.35,-.06 2.71,0 4.06,0 c1,0 1.49,-.42 1.48,-1.44 c0,-1.46 0,-2.93 0,-4.39 c0,-.89 .34,-1.32 1.24,-1.3 a8.44,8.44 0 0 0 1.46,0 a11.38,11.38 0 0 0 1.48,-.42 a5.28,5.28 0 0 0 -.53,-1.41 c-3.28,-4.3 -6.59,-8.57 -9.89,-12.85 c-2.33,-3 -2.33,-3 -4.63,-.08 c-.87,1.12 -1.24,1.05 -2.07,-.16 a1.55,1.55 0 0 0 -1.25,-.64 a1.54,1.54 0 0 0 -.8,1.13 a14,14 0 0 0 0,2.92 a4.78,4.78 0 0 1 -1.2,3.71 c-1.63,1.94 -3.13,4 -4.64,6 a5.32,5.32 0 0 0 -.51,1.27 a4.88,4.88 0 0 0 1.29,.47 c2.9,.19 2.9,.18 2.9,3.06 C-127.63,92.32 -127.63,92.48 -127.63,92.65 M-72.3,16.47 c-.93,1.12 -1.67,2 -2.42,2.92 s-1.3,1.15 -1.87,-.2 a1.61,1.61 0 0 0 -1.33,-.68 c-.31,0 -.65,.68 -.8,1.12 a2.73,2.73 0 0 0 0,1.29 A7.64,7.64 0 0 1 -81,27.67 A31.71,31.71 0 0 0 -83.65,31 a22.16,22.16 0 0 0 -1.28,2.32 a14.6,14.6 0 0 0 2.59,.46 c1.21,0 1.65,.48 1.59,1.66 s0,2.6 0,3.9 c-.05,1.15 .48,1.56 1.56,1.54 c1.25,0 2.49,0 3.74,0 s1.57,-.5 1.53,-1.59 s.06,-2.5 0,-3.74 s.72,-1.36 1.65,-1.37 s1.72,.17 1.66,1.41 s0,2.6 0,3.9 c0,1 .41,1.39 1.35,1.39 a29.14,29.14 0 0 0 4.06,-.07 a2.08,2.08 0 0 0 1.34,-1.36 a14.47,14.47 0 0 0 .06,-3.08 c0,-2.51 0,-2.48 2.55,-2.59 a6.57,6.57 0 0 0 1.6,-.48 a8.41,8.41 0 0 0 -.73,-1.52 q-3.61,-4.79 -7.29,-9.53 C-69.2,20.36 -70.67,18.53 -72.3,16.47 M-2.18,28.54 A12.3,12.3 0 0 0 -14.52,16.17 A12.38,12.38 0 0 0 -26.78,28.62 A12.45,12.45 0 0 0 -14.51,40.89 A12.33,12.33 0 0 0 -2.18,28.54 m-78.05,-91.6 a9.45,9.45 0 0 1 2,-9.36 a88.37,88.37 0 0 1 6.68,-6.29 c3.3,4.45 7.8,8.65 6.48,15.45 c5.74,-2.55 7.66,-9.4 5.66,-12.81 c-1.2,2.45 -1.6,2.85 -3.4,3.41 c2.36,-3.51 2.36,-6 .12,-9 c-1.36,-1.84 -2.6,-3.77 -3.88,-5.63 c-1.27,1.3 -1.24,3.35 -1.18,5.8 c-3.21,-4.11 -2.93,-8.23 -2.22,-12.61 a51.46,51.46 0 0 0 -6,6 a10.61,10.61 0 0 0 -2.13,8.05 l-.43,.1 l-2.06,-3.68 A15.06,15.06 0 0 0 -80.23,-63.06 M-57.45,69.45 l-.42,-.42 c2.38,-2.79 2.38,-5.45 .11,-8.15 c-1.43,-1.69 -2.77,-3.46 -4.16,-5.22 c-1.36,1.13 -1.29,3 -1.3,5.15 a7.52,7.52 0 0 1 -2.56,-5.48 c0,-2 .19,-3.91 .31,-5.9 c-4.65,3.08 -9.1,6.33 -9,13.06 L-76.77,59 c-5.59,5.9 -5.4,14.81 .53,19.16 c-1.43,-3.62 -.15,-6.56 2.3,-9 c2,-2 4.21,-3.83 6.58,-6 c2,2.5 3.95,4.79 5.62,7.3 c1.47,2.21 2.52,4.67 1.07,7.5 c5,-1.87 8.43,-6.56 6.5,-11.86 m-9.26,19.74 c0,1 0,1.87 0,2.79 c0,4 0,3.27 3.17,3.27 c3.8,0 3.24,.55 3.28,-3.24 c0,-3.06 0,-3.07 3.05,-3.45 c1.11,-.14 1.49,-.57 .71,-1.58 q-5.49,-7.12 -11,-14.26 c-.53,-.69 -1.07,-.65 -1.58,0 s-1.08,1.48 -1.66,2.2 s-1.27,.67 -1.5,-.13 c-.36,-1.27 -1.08,-1.06 -2.13,-.83 c0,1.13 -.08,2.21 0,3.27 a5.2,5.2 0 0 1 -1.35,4.15 c-1.52,1.75 -2.89,3.63 -4.3,5.48 c-.8,1.06 -.58,1.57 .66,1.71 c3,.34 3,.34 3,3.45 q0,.41 0,.81 c0,2.43 0,2.43 2.49,2.43 c3.89,0 3.89,0 3.88,-3.82 C-69.9,88.74 -69.62,88.53 -66.71,89.19 m103.06,.5 c2.19,.26 4.1,.56 6,.67 a1.61,1.61 0 0 0 1.16,-1 a42.79,42.79 0 0 0 .68,-5 c.1,-1.2 .67,-1.62 1.8,-1.5 a17.4,17.4 0 0 0 1.78,.11 c.49,0 1,-.08 1.48,-.12 a6.63,6.63 0 0 0 -.44,-1.43 c-3.09,-5.32 -6.21,-10.63 -9.31,-15.95 c-1.95,-3.34 -1.94,-3.35 -4.75,-.61 c-1.35,1.31 -2,1.16 -2.74,-.56 a1.52,1.52 0 0 0 -1,-.78 c-.23,0 -.65,.55 -.77,.93 c-.19,.61 -.14,1.29 -.32,1.91 c-.49,1.6 .21,3.51 -1.39,4.83 c-.45,.37 -1,1.32 -.83,1.6 c.74,1.26 .56,3.34 2.58,3.52 c1.59,.14 2.44,.78 2.63,2.38 a4.41,4.41 0 0 0 .63,1.81 a2.85,2.85 0 0 0 1.37,1.24 c2.26,.6 2.5,.89 2.13,3.21 C36.8,86.44 36.61,87.93 36.36,89.69 M-3.2,-4.73 l.14,-.52 A1.71,1.71 0 0 0 -3,-5.56 c.07,-1 -.23,-2.36 .31,-3 S-.78,-8.83 .21,-9 s1.48,-.75 .79,-1.65 c-3.84,-5 -7.73,-10 -11.59,-15 c-.6,-.78 -1.14,-.66 -1.69,.07 s-1.13,1.45 -1.71,2.16 s-1.25,.82 -1.51,0 s-.85,-1.42 -1.59,-1 a2.2,2.2 0 0 0 -.78,1.8 c.25,2.82 -.21,5.32 -2.31,7.41 A23,23 0 0 0 -22.8,-12 a20.93,20.93 0 0 0 -1.28,2.47 A15.43,15.43 0 0 0 -21.33,-9 c1.17,0 1.53,.49 1.46,1.58 c-.06,.89 0,1.78 0,2.68 l6.68,-1.41 c.46,-.92 -.57,-2.29 1.37,-2.52 C-9.16,-9 -9.89,-7.08 -9.7,-5.51 M-49.42,16.88 a9.26,9.26 0 0 0 -1.79,-.71 c-2.53,-.32 -4.13,1.17 -4.14,3.95 a37,37 0 0 0 2,12.34 a17,17 0 0 1 -5.61,-9 c-.67,-2.6 -1.12,-5.26 -1.65,-7.89 A14.07,14.07 0 0 0 -65,7.28 c-1.38,-1.18 -3,-2 -4.91,-1.18 c-1.29,.54 -1.44,1.39 -.44,2.34 c.54,.52 1.18,.95 1.75,1.43 c3.42,2.91 5.18,6.85 6.73,10.91 c2,5.23 3.8,10.52 6.91,15.28 c4.67,7.14 12.17,4.2 16.24,-.32 a28.19,28.19 0 0 1 -3.34,.48 c-3.35,.09 -5.63,-.76 -6.49,-3.4 a3.63,3.63 0 0 1 .3,-2.94 c.43,-.54 1.79,-.41 2.74,-.44 c.57,0 1.15,.35 1.72,.33 a1.65,1.65 0 0 0 1.17,-.62 c.15,-.23 0,-.83 -.27,-1.14 a4.27,4.27 0 0 0 -4,-1.7 A3.23,3.23 0 0 0 -50.11,29 a39.25,39.25 0 0 0 0,5.13 c-1.82,-1.59 -2.16,-3.81 -2.49,-5.93 C-53.29,24.16 -53.09,20.22 -49.42,16.88 M-126.56,-39 a4.31,4.31 0 0 0 -5.37,3.5 a4.44,4.44 0 0 1 -1,2.17 c-1.35,1.64 -1.15,4.12 .6,4.86 a22.59,22.59 0 0 0 4.81,1.63 a9,9 0 0 0 3.87,-.38 a2.56,2.56 0 0 1 2,0 a4,4 0 0 0 5.44,-1.58 a2,2 0 0 1 1,-.65 c1.8,-.66 2.74,-3.21 1.46,-4.65 a4.25,4.25 0 0 1 -.94,-3.06 a3.63,3.63 0 0 0 -3.86,-3.69 a6.08,6.08 0 0 1 -2.15,-.44 C-123.32,-42.41 -125.4,-41.62 -126.56,-39 m80,-5.57 h49 v-2.84 H-40.13 v-4.32 l-2,-.68 L-44,-51.31 v3.9 l-2.52,.17 m67.46,75 L24.59,28 l1,3.19 l1.84,-2.81 l3,4.49 l.24,-.09 l-.48,-5.33 l3.41,.85 l-1.58,-3.08 l5.66,.33 l.06,-.24 l-4.92,-2.73 l3,-2.24 l-3.67,-.5 L35.66,15 l-5.32,2.66 l-.25,-3.16 l-.48,-.22 l-1.88,2.59 l-1.88,-5.37 h-.28 l-.72,5.42 L21.48,15 l1,3.43 l-5,-1.36 l-.13,.32 l3.78,3.51 L18,22.18 l3,1.6 l-4.6,3.86 l5.86,-1.33 m3.36,-60.75 L16.42,-42 c-1.09,1.53 -2.12,2.85 -3,4.28 a1.72,1.72 0 0 0 .11,1.6 c3.53,3.87 7.13,7.67 10.81,11.58 l1.88,-3.16 l7.36,9.29 l.25,-.18 L26.91,-34.29 m19.8,55 l-.52,.13 c.28,1.83 0,4 1,5.41 c1.7,2.58 1.87,5.19 1.6,8.09 l-1.61,.23 c.81,1 1.37,2.22 2.05,2.3 a64.46,64.46 0 0 0 7.08,.1 l.24,-.5 c-1.07,-.68 -2.15,-1.35 -3.2,-2.06 a1.8,1.8 0 0 1 -.56,-.68 c-.85,-1.71 .53,-2.64 1.31,-3.8 A8.32,8.32 0 0 0 52,32.68 l-.38,-.17 l-2,1.43 c-.38,-2.74 -.32,-2.67 1.49,-4.22 A15.78,15.78 0 0 0 53.22,27 l-.35,-.25 l-3.3,2.81 c-1,-2.92 2.36,-4.24 2.08,-7.05 L49.33,25.2 c-1.12,-2.42 -.61,-4.56 .62,-6.68 L48.32,20 l-1,-6.89 l-.28,0 v5.72 l-.35,.14 L42.84,14 a11.46,11.46 0 0 0 1.23,3.31 c.57,1 1.52,1.72 2.07,2.7 A13.29,13.29 0 0 1 47,22.79 l-.47,.14 l-2.11,-1.86 l-.48,.35 c.42,.78 .65,1.8 1.29,2.29 a4,4 0 0 1 1.45,4.58 a17.6,17.6 0 0 0 -.24,2 l-.56,.11 M16.31,95 c6.59,-.12 13.08,.57 19.41,-1.26 l.16,-1.33 l5,-1.08 C32.7,89.2 24.5,90.46 16.31,90 M25.2,73.88 c-.84,1 -1.59,2 -2.31,2.9 s-1.22,1.67 -1.83,2.51 c1,.23 1.92,.51 2.9,.66 c1.32,.21 1.9,.82 1.59,2.21 a30.39,30.39 0 0 0 -.48,3.35 c-.26,2.54 -.25,2.54 2.28,3 c.58,.1 1.17,.19 1.76,.24 C32,89 32,89 32.23,85.91 a44.62,44.62 0 0 1 .87,-4.55 a6.35,6.35 0 0 0 -1.25,-2.53 c-.29,-.37 -.87,-.82 -1.26,-.77 c-2.28,.31 -3.48,-.95 -4.38,-2.76 A16.11,16.11 0 0 0 25.2,73.88 M-119.7,61.17 c3.34,-5.93 16.12,-6.59 18,-1.54 c2.45,-2.24 2.13,-4.55 -.82,-6 a7.52,7.52 0 0 0 -1.06,-.39 a16.51,16.51 0 0 0 -12.26,1.23 a14.59,14.59 0 0 0 -4,3.18 A2.38,2.38 0 0 0 -119.7,61.17 m56.26,-42.1 c-2.22,-4.65 -4.92,-9 -9.6,-11.6 a9.43,9.43 0 0 0 -8.84,-.66 c-.6,.27 -1,1 -1.47,1.51 a12.12,12.12 0 0 0 1.7,1 c3.42,1.26 7,2.14 10.22,3.82 C-68.53,14.64 -66.09,17.05 -63.44,19.08 m104,75.85 H58.17 V89.77 c-2.37,0 -4.63,0 -6.9,0 c-1.22,0 -2.28,.11 -2.5,1.64 a.89,.89 0 0 1 -.65,.56 C45.22,91.89 43.11,94 40.52,94.93 M37.38,42.65 c-.85,-.69 -1.62,-1.28 -2.34,-1.92 a9.5,9.5 0 0 0 -7,-2.3 c-.43,0 -1.14,.38 -1.2,.68 c-.38,2 -.61,4 -.87,5.85 c4.37,2.08 7.69,-.45 11.21,-2.08 C37.22,42.86 37.25,42.8 37.38,42.65 m19.35,10 c.64,-1.76 -.11,-2.58 -1.44,-3.27 c-1.53,-.79 -2.9,-1.89 -4.43,-2.66 a4.11,4.11 0 0 0 -2.57,-.37 a28.91,28.91 0 0 0 -4,1.56 c.77,1.4 1.42,2.71 2.2,3.93 a1.77,1.77 0 0 0 1.21,.77 C50.71,52.65 53.73,52.62 56.73,52.62 m-23.28,-.06 c-1.52,-4.85 -4,-6.81 -7.8,-5.52 c-1.75,.59 -3.11,2.44 -4.54,3.82 c-.32,.31 -.21,1.06 -.31,1.7 M18.36,48.88 c2.07,-1.45 4.52,-2.4 5.61,-5.13 c-2.66,-1.19 -4.73,-4.33 -8.33,-2.26 c-.55,.32 -1.57,.63 -1.57,.94 a6.13,6.13 0 0 0 .65,3.43 A19.23,19.23 0 0 0 18.36,48.88 M-118.15,63.77 c2,-3.62 9.7,-5.16 15.08,-2 c1,-1.78 .57,-3 -1.41,-4 c-3.59,-1.72 -10.31,-.71 -13.29,2 A2.56,2.56 0 0 0 -118.15,63.77 M9.93,-3.41 v-.4 c-1.2,-.27 -2.41,-.49 -3.58,-.83 a16.94,16.94 0 0 0 -8.6,-.2 c-2,.43 -4.12,.08 -6.19,0 a66.84,66.84 0 0 0 -7,-.23 c-2.71,.22 -5.37,1.07 -8.07,1.27 c-1.52,.11 -3.1,-.54 -4.78,-.88 a10.31,10.31 0 0 0 9.76,1.55 c3.15,-1.06 6.35,-1.47 9.48,-.18 a9.65,9.65 0 0 0 7.68,0 a12.29,12.29 0 0 1 7.29,-.49 A34.84,34.84 0 0 0 9.93,-3.41 m33.39,56 c0,-.25 0,-.32 0,-.35 l-3.38,-4.93 c-1.55,-2.26 -2.49,-2.63 -5.1,-2 a1.75,1.75 0 0 0 -1.17,2.75 c.82,1.26 1.61,2.56 2.51,3.76 a2.08,2.08 0 0 0 1.39,.74 C39.46,52.67 41.35,52.62 43.32,52.62 M-37.45,36.91 a75.86,75.86 0 0 1 -7.35,3.66 c-4.09,1.53 -7.83,.26 -10.45,-3.17 c-.67,-.89 -1.29,-1.82 -1.93,-2.73 A6.1,6.1 0 0 0 -57,36.81 c1.14,4.27 5.66,7.53 9.55,6.93 C-43,43.05 -39.87,40.55 -37.45,36.91 M-102.76,65 c.49,-1.42 -.36,-2.2 -1.3,-2.84 c-3.06,-2.05 -9.21,-1.78 -12.16,.5 c-1.83,1.4 -1.55,3.22 .3,4 C-112,61.9 -107.37,63.5 -102.76,65 M-36.12,-64.18 c-2.23,3.17 -5,6.08 -6.9,9.53 c1.8,-.64 2,1.35 3.1,1.64 l6.1,-9.18 m-97.32,11.41 c1.9,1.44 2.75,1.51 3.41,-.72 A2.55,2.55 0 0 1 -127,-55.58 c.29,.55 .55,1.15 .9,1.69 s.82,1.63 1.4,1.79 c1.42,.38 1.9,1 1.17,2.54 c1.87,-1.34 1.87,-2.3 .22,-3.24 c-1.95,-1.11 -2.39,-2.29 -1.95,-4.39 a15.08,15.08 0 0 0 0,-3 l-1.61,-.21 l-.6,-1.78 l-.39,.06 a11.62,11.62 0 0 1 0,1.61 c-.17,1.18 .55,2.8 -1,3.34 A2.77,2.77 0 0 0 -131,-54.76 C-131.17,-53.4 -131.68,-52.37 -133.43,-52.77 M3.65,-2.23 l0,-.44 C1.89,-2.29 .15,-2 -1.52,-1.51 a10.41,10.41 0 0 1 -7.1,-.06 a11.57,11.57 0 0 0 -7.16,-.54 c-3,.76 -6,1.61 -9.21,.72 a15,15 0 0 0 5.63,1 A28.7,28.7 0 0 1 -8.3,.17 a8,8 0 0 0 4,.05 C-1.63,-.43 1,-1.4 3.65,-2.23 M-113.66,68.92 c4,-3.89 8.13,-2.45 12.41,-.59 a6,6 0 0 0 -1.47,-2.07 a10.79,10.79 0 0 0 -10,-1.45 C-115.07,65.54 -115.32,67.26 -113.66,68.92 m10.92,5.79 c1.53,-1 1.57,-2.11 0,-3.07 a8.22,8.22 0 0 0 -6.66,-1.06 A3,3 0 0 0 -111.26,72 c-.19,.55 .51,1.4 .8,2.08 A7.67,7.67 0 0 1 -102.74,74.71 m1.35,-3 c.92,-1.06 .18,-1.84 -.51,-2.49 c-2,-1.91 -6.82,-2.6 -9.32,-1.41 c-1.7,.81 -1.89,1.78 -.64,3.23 C-108.89,68.82 -104.84,69.07 -101.39,71.74 M-71.87,-33.8 v-8.94 h-2.6 v8.94 M39.41,43.94 c1.47,1.74 3.25,2 5.29,1.88 s3.69,-.55 4.84,-2.32 C48.32,41.78 43.91,41.93 39.41,43.94 m17.53,4.84 c0,-1.91 0,-3.52 0,-5.12 a1.44,1.44 0 0 0 -.74,-1 c-2.28,-1 -4.08,-.33 -5.27,2 l2.73,1.89 M35.15,38.41 c4.11,4.52 4.11,4.52 8.66,2.47 c-1.34,-3 -.55,-2.39 -3.65,-2.46 C38.5,38.37 36.85,38.41 35.15,38.41 M-73.9,12.74 c-2,-.66 -4,-1.36 -5.94,-1.93 a5.71,5.71 0 0 0 -5.06,1 a9.33,9.33 0 0 0 -1.59,2 c2.37,-.19 4.32,-.83 6.32,-1.06 A56,56 0 0 1 -73.9,12.74 m56.27,59.5 c.46,.85 1.28,1.64 1.21,2.34 c-.23,2.34 1.47,2.18 2.86,2.61 l1.41,-2.33 l-3,-3.77 M.15,.66 c-3.94,.92 -7.86,1.84 -11.88,.25 a6.71,6.71 0 0 0 -3.07,0 c-2.53,.3 -5.05,.7 -7.57,1.06 c1.82,.16 3.7,.13 5.58,.17 s4.06,-.21 5.92,.31 C-6.86,3.53 -3.4,2.05 .15,.66 M-122.56,16.79 c1.2,0 2.69,-1.47 2.27,-2.72 A3.36,3.36 0 0 0 -122.61,12 a3.2,3.2 0 0 0 -2.49,1.89 C-125.37,16.09 -124.55,16.76 -122.56,16.79 m13.11,-4.61 c-2.63,2.24 -2.75,2.32 -2.19,3.13 s.27,2.19 1.8,2.08 s2.79,-.52 2.91,-2.61 S-109,13.43 -109.45,12.19 m7.64,-1.31 c3.07,-2.44 2.62,-1.55 1.83,-4 c-.26,-.81 -.6,-1.21 -1.58,-1.08 c-2.23,.29 -2.24,.23 -2.85,3.4 M-132,22.7 c1.11,1 .56,3 2.67,2.88 a2.44,2.44 0 0 0 2.62,-2.43 c.25,-1.79 -1.15,-1.79 -2,-2.22 C-130.53,20 -130.61,22.32 -132,22.7 m28.88,-2.31 c-3.12,1.73 -3.12,1.73 -1.81,4.81 c3.14,.19 3.14,.19 4.23,-2.84 m116,-38.87 v.11 L22.9,-16.59 l-.57,-2.35 l4.79,-.3 v-.32 l-7,-.46 l.26,1.54 M-.43,42 c-.89,.58 -1.79,.85 -2,1.37 a2.17,2.17 0 0 0 .51,2 A10.35,10.35 0 0 0 1.45,47 a2,2 0 0 0 1.69,-.85 a2,2 0 0 0 -.29,-1.87 A25.88,25.88 0 0 0 -.43,42 m-5.93,3.12 C-4.62,45.15 -3,44 -3.1,42.9 s-2,-2.2 -3.54,-1.9 c-1.22,.24 -2.73,.31 -2.8,2.1 C-9.49,44.19 -8.06,45.09 -6.36,45.12 m4.67,-3.47 a14.83,14.83 0 0 0 3,-1.36 a2.26,2.26 0 0 0 .85,-1.88 A2.33,2.33 0 0 0 .39,37.09 A6,6 0 0 0 -2.74,38 a2.62,2.62 0 0 0 -1,2.22 C-3.57,40.85 -2.43,41.18 -1.69,41.65 M35.15,-35.56 l-2.46,.82 l-.54,-5.93 h-.21 v8.16 L33.72,-33 v6.74 H34 m-142,109.44 a10.38,10.38 0 0 0 -2.47,.64 c-.38,.21 -.48,.91 -.71,1.39 a8.67,8.67 0 0 0 1.38,.44 c1.34,.2 2.69,.37 4,.47 a6.65,6.65 0 0 0 1.54,-.24 c-.19,-.5 -.25,-1.26 -.6,-1.45 A25.67,25.67 0 0 0 -106.81,73.88 M59,-62.86 a1.9,1.9 0 0 0 -1.8,-2.25 A1.89,1.89 0 0 0 55,-63.37 A1.93,1.93 0 0 0 56.72,-61 A2,2 0 0 0 59,-62.86 M-2.8,77.39 c1.23,.08 1.82,-.7 2,-1.83 a2,2 0 0 0 -2,-2.1 a2.06,2.06 0 0 0 -2,2.06 A1.84,1.84 0 0 0 -2.8,77.39 m27,-35.17 l.66,-.28 c-.32,-1.11 -.33,-2.84 -1,-3.2 c-1.07,-.55 -2.62,-.14 -4,-.14 l-.07,.45 M14,52.55 h4 c-.74,-2 -2.56,-2.55 -4,-4 c0,1.24 0,2.09 0,2.94 C14,51.83 14,52.14 14,52.55 M-18.69,-83.35 c3.21,1.44 5.58,2 6.82,1.53 C-13.32,-83.77 -15.38,-84.26 -18.69,-83.35 m2.15,-1.5 c-1.11,-2.51 -3.61,-3.09 -6.58,-1.87 M-104,78.52 c-1,-1.38 -3.39,-2.11 -4.73,-1.37 c-.26,.15 -.2,.88 -.29,1.34 c1.5,.2 3,.42 4.49,.57 C-104.37,79.09 -104.17,78.71 -104,78.52 M-6.78,-77.34 l.13,-.51 c-1.39,-2 -3.47,-2.44 -6.92,-1.34 m-80,95.13 l6.05,-3.56 C-84.85,14 -87,15.22 -86.81,17.79 M14.13,38.41 c-.22,1.83 0,2.09 1.57,1.71 a16.46,16.46 0 0 0 2,-.55 c.31,-.12 .54,-.46 .81,-.7 c-.29,-.15 -.57,-.42 -.87,-.43 C16.47,38.38 15.3,38.41 14.13,38.41 M.25,-30.31 c1,-1.41 .64,-4.42 -.67,-5.94 C0,-34.22 -1.6,-32.2 .25,-30.31 m-27.8,16.88 c0,1.95 -1.29,3.95 .45,6 C-25.73,-9.72 -27.15,-11.57 -27.55,-13.44 m19.3,-18.62 l-.67,0 c0,1.56 0,3.12 0,4.68 c0,.29 .51,.55 .79,.82 c.19,-.34 .56,-.7 .53,-1 C-7.72,-29.05 -8,-30.55 -8.24,-32.05 M-23,-17.3 c.89,-2.2 -.25,-4 -.66,-5.84 C-24.26,-18.15 -24.26,-18.15 -23,-17.3 M-128.25,-65.73 l-.61,0 c-.37,.55 -1.06,1.12 -1,1.63 s.82,1 1.27,1.48 c.44,-.45 1.19,-.87 1.23,-1.36 S-127.93,-65.16 -128.25,-65.73 m130.36,46 l-.8,-5.74 C.06,-22.45 .27,-20.53 2.11,-19.77 M-30.06,-24.1 l.56,-.14 l-.77,-5.51 C-31.55,-26.83 -31.39,-24.93 -30.06,-24.1 M-19.81,-34 c-1.35,3 -1.1,5.11 .74,5.56 M21.32,76.49 l-.62,-1.23 a6.71,6.71 0 0 0 -1.74,.26 a2.38,2.38 0 0 0 -1,1 c-.09,.16 .21,.76 .42,.82 a2.57,2.57 0 0 0 1.4,0 A9.49,9.49 0 0 0 21.32,76.49 m31.73,4.37 c-.25,2.08 1.23,1.45 2.11,1.35 c.41,0 1.15,-1 1.05,-1.16 C55.28,79.08 54.13,81 53.05,80.86 M-130.79,13.38 v7.31 h.56 C-129.44,18.24 -130.63,15.8 -130.79,13.38 m19.48,-.86 l.52,.05 c1,-2.46 -.27,-4.89 -.52,-7.33 m-14.95,-73.65 c.8,.09 1.56,0 2,.28 s.55,1 .8,1.6 l.6,-.13 c-.11,-.67 0,-1.67 -.39,-1.94 a16.44,16.44 0 0 0 -3.34,-1.33 M-13,70.57 a9.75,9.75 0 0 0 2,-.05 c.2,0 .46,-1 .34,-1.06 A23.28,23.28 0 0 0 -13,67.86 m-106.93,-65 c-1.18,6.15 -1.17,6.7 0,7.44 m19.38,9.34 c-.19,2.19 -1.24,4.41 -.5,6.68 l.5,0 M-104.88,8 c1.24,-2.74 0,-5 -.34,-7.3 m-3.68,71.26 l-.09,.68 a2.65,2.65 0 0 0 3.23,.45 l.08,-.66 m95,-15.44 l-.49,-.25 l-1.12,1.84 l1.61,.78  Z "></path><path d="M-10.13,94.49c6.78,0,13.7,0,20.62,0a5.57,5.57,0,0,1,.07.6H-42L-38.44,83c2.26-7.63,4.51-15.27,6.83-22.88a2.47,2.47,0,0,1,1.38-1.46c2.83-.84,5.73-1.48,8.58-2.28.95-.26,1.26,0,1.44.91.36,1.79.74,3.59,1.23,5.35a3.1,3.1,0,0,1-.83,3.46c-1.8,1.65-2.22,3.44-.79,5.62a7.54,7.54,0,0,1-.29,9.44,3.77,3.77,0,0,0-.38,3.75c.88,2.76,1.54,5.6,2.4,8.38a1.77,1.77,0,0,0,1.27,1c1.89.11,3.78,0,5.68,0C-12,91.8-12,91.8-9.64,90.5a5,5,0,0,0,2.15-5.24,31.58,31.58,0,0,1-.07-5.61c-1.95-.76-1.8,1.26-2.65,3-.35-.79-.8-1.3-.72-1.7.47-2.46.9-2.75,3.51-2.9a21.66,21.66,0,0,0,2.53-.5l2.32,2.68L.11,79l.58,1.07c-1.56.51-2.57,2.41-4.49,1.17-.28,2.64,0,3,2.29,4A4.27,4.27,0,0,1,.25,87.34,26.41,26.41,0,0,1,1.37,91L4,90.79l.15.61c-1.16.31-2.32.65-3.5.88-.2,0-.58-.38-.74-.66C-.45,91-.71,90.36-1,89.72-2.1,87.19-2.1,87.19-5.16,87.1A29.39,29.39,0,0,0-6.6,89.93a3.43,3.43,0,0,1-2.81,2.36C-10.73,92.5-10.85,93.17-10.13,94.49Z"></path><path d="M32.07-19.11l4.49,5.61.26-.14c-.95-2.14-1.95-4.26-2.8-6.44a2.35,2.35,0,0,1,.21-1.8,28.82,28.82,0,0,1,2.2-3c.9-1.16,1.45-1.14,2.39.08.66.86,1.27,1.75,2,2.59.82,1,1.56.88,2-.37.32-1,1-1.43,1.78-1.08a2.06,2.06,0,0,1,1,1.67,12.76,12.76,0,0,0,3.9,11.28,33.68,33.68,0,0,1,3.35,4.38,2.44,2.44,0,0,1,.45,1.73c-.07.3-1,.54-1.5.55-4,.07-3.51-.45-3.54,3.59,0,1.19,0,2.39,0,3.58s-.39,1.71-1.62,1.67c-1.79-.06-3.58-.07-5.37,0-1.18,0-1.5-.49-1.47-1.56.05-1.73,0-3.47,0-5.21,0-1.57-1-1.67-2.17-1.68s-2.14.2-2.09,1.74,0,3.37,0,5c0,1.15-.31,1.71-1.56,1.67-1.79-.07-3.58-.06-5.37,0C27.38,4.81,27,4.24,27,3.2c0-1.84,0-3.69,0-5.53,0-1.26-.39-1.83-1.68-1.72a6.59,6.59,0,0,1-1.79,0,2.71,2.71,0,0,1-1.62-.67c-.2-.28.13-1.12.45-1.55,1.75-2.4,3.57-4.76,5.37-7.13Z"></path><path d="M3.65-2.23C1-1.4-1.63-.43-4.33.22a8,8,0,0,1-4-.05A28.7,28.7,0,0,0-19.36-.45,15,15,0,0,1-25-1.4c3.17.89,6.19,0,9.21-.72a11.57,11.57,0,0,1,7.16.54,10.41,10.41,0,0,0,7.1.06C.15-2,1.89-2.29,3.61-2.67Z"></path><path d="M.15.66c-3.55,1.39-7,2.87-11,1.75-1.86-.52-3.94-.27-5.92-.31s-3.76,0-5.58-.17c2.52-.36,5-.76,7.57-1.06a6.71,6.71,0,0,1,3.07,0C-7.71,2.5-3.79,1.58.15.66Z"></path><path d="M-.43,42a25.88,25.88,0,0,1,3.28,2.28,2,2,0,0,1,.29,1.87A2,2,0,0,1,1.45,47a10.35,10.35,0,0,1-3.35-1.65,2.17,2.17,0,0,1-.51-2C-2.22,42.85-1.33,42.58-.43,42Zm3.25,4c-1.58-2-3.32-2.7-4.66-2C-.45,44.89.67,46,2.82,46Z"></path><path d="M-1.69,41.65c-.73-.46-1.88-.79-2.07-1.41a2.62,2.62,0,0,1,1-2.22,6,6,0,0,1,3.13-.93,2.33,2.33,0,0,1,1.74,1.31,2.26,2.26,0,0,1-.85,1.88A14.83,14.83,0,0,1-1.69,41.65ZM-2.81,40.4,1.41,39C-.22,38.06-2.4,38.77-2.81,40.4Z"></path><path d="M14,52.55c0-.41-.05-.72-.05-1,0-.85,0-1.7,0-2.94,1.46,1.43,3.28,2,4,4Z"></path><path class="cls-5" d="M2.82,46C.67,46-.45,44.89-1.84,44-.5,43.31,1.24,44.06,2.82,46Z"></path><path class="cls-5" d="M-2.81,40.4c.4-1.63,2.59-2.34,4.22-1.41Z"></path></g><path class="cls-9" d="M47.76,9.42a8.67,8.67,0,0,1,8.64,8.64V43.53a8.67,8.67,0,0,1-8.64,8.64H22.28a8.67,8.67,0,0,1-8.64-8.64V18.06a8.67,8.67,0,0,1,8.64-8.64H47.76m0-4H22.28A12.65,12.65,0,0,0,9.64,18.06V43.53A12.65,12.65,0,0,0,22.28,56.17H47.76A12.65,12.65,0,0,0,60.4,43.53V18.06A12.65,12.65,0,0,0,47.76,5.42Z"></path><path class="cls-10" d="M47.76,9.42a8.67,8.67,0,0,1,8.64,8.64V43.53a8.67,8.67,0,0,1-8.64,8.64H22.28a8.67,8.67,0,0,1-8.64-8.64V18.06a8.67,8.67,0,0,1,8.64-8.64H47.76m0-2H22.28A10.65,10.65,0,0,0,11.64,18.06V43.53A10.65,10.65,0,0,0,22.28,54.17H47.76A10.65,10.65,0,0,0,58.4,43.53V18.06A10.65,10.65,0,0,0,47.76,7.42Z"></path><path class="cls-11" d="M47.76,9.42a8.67,8.67,0,0,1,8.64,8.64V43.53a8.67,8.67,0,0,1-8.64,8.64H22.28a8.67,8.67,0,0,1-8.64-8.64V18.06a8.67,8.67,0,0,1,8.64-8.64H47.76m0-.5H22.28a9.15,9.15,0,0,0-9.14,9.14V43.53a9.15,9.15,0,0,0,9.14,9.14H47.76a9.15,9.15,0,0,0,9.14-9.14V18.06a9.15,9.15,0,0,0-9.14-9.14Z"></path></g></svg>