<svg xmlns="http://www.w3.org/2000/svg" viewBox="0 0 73.47 57.47"><defs><style>.cls-1{opacity:0.66;}.cls-2,.cls-4{fill:#fff;}.cls-2,.cls-5{stroke:#231f20;stroke-miterlimit:10;}.cls-3{fill:#231f20;}.cls-5{fill:none;stroke-width:1.5px;}.cls-6{fill:#2ed03c;}.cls-7{fill:#aed136;}</style></defs><title>PDC_cyclone_green</title><g id="Layer_7" data-name="Layer 7"><rect class="cls-2" x="14.95" y="9.57" width="42.75" height="42.75" rx="8.64" ry="8.64"/><polygon class="cls-3" points="14.95 41.08 29.45 41.08 29.45 34.44 27.08 34.44 35.57 26.54 44.06 34.44 41.78 34.44 41.78 41.08 57.71 41.08 57.65 44.7 57.32 46.24 56.58 47.94 55.29 49.65 53.43 51.13 51.71 51.91 49.07 52.32 39.49 52.32 31.29 52.32 24.72 52.32 21.77 52.13 19.11 51.05 17.11 49.38 15.87 47.54 14.95 45 14.9 42.78 14.95 41.08"/><rect class="cls-4" x="32.56" y="38.3" width="1.37" height="1.1"/><rect class="cls-4" x="35.1" y="36.27" width="1.37" height="1.1"/><rect class="cls-4" x="32.56" y="36.27" width="1.37" height="1.1"/><rect class="cls-4" x="35.1" y="38.33" width="1.37" height="1.1"/><rect class="cls-4" x="37.65" y="36.27" width="1.37" height="1.1"/><rect class="cls-4" x="37.65" y="38.33" width="1.37" height="1.1"/><ellipse class="cls-5" cx="23.1" cy="27.7" rx="4.79" ry="1.76"/><ellipse class="cls-5" cx="21.82" cy="32.08" rx="3.9" ry="1.46"/><ellipse class="cls-5" cx="22" cy="35.16" rx="2.81" ry="1.11"/><ellipse class="cls-5" cx="21.41" cy="38.48" rx="2.22" ry="1.11"/><path class="cls-5" d="M23.62,38.48c-.28,2.14-4.06,3.81-4.06,3.81"/><path class="cls-5" d="M24.81,35.16s.35,3.52-2.25,4.27"/><path class="cls-5" d="M24.43,35.72s2.82-1.4,1.3-3.64"/><path class="cls-5" d="M27.89,27.7c.55,2.86-2.58,5-2.58,5"/><path class="cls-3" d="M21.6,24a7.47,7.47,0,0,1,2.55-.45,7.56,7.56,0,0,1,2.62.38,4.34,4.34,0,0,1,1.28.68,2.18,2.18,0,0,1,.85,1.45,2.06,2.06,0,0,1-.45,1.48,3.32,3.32,0,0,1-1,.87c.3-.81.57-1.66.34-2.11a2.54,2.54,0,0,0-1.49-1C24.86,24.9,23.24,24.63,21.6,24Z"/><ellipse class="cls-5" cx="49.51" cy="27.7" rx="4.79" ry="1.76"/><ellipse class="cls-5" cx="48.23" cy="32.08" rx="3.9" ry="1.46"/><ellipse class="cls-5" cx="48.41" cy="35.16" rx="2.81" ry="1.11"/><ellipse class="cls-5" cx="47.82" cy="38.48" rx="2.22" ry="1.11"/><path class="cls-5" d="M50,38.48C49.75,40.62,46,42.29,46,42.29"/><path class="cls-5" d="M51.22,35.16s.35,3.52-2.25,4.27"/><path class="cls-5" d="M50.84,35.72s2.82-1.4,1.3-3.64"/><path class="cls-5" d="M54.3,27.7c.55,2.86-2.58,5-2.58,5"/><path class="cls-3" d="M48,24a7.47,7.47,0,0,1,2.55-.45,7.56,7.56,0,0,1,2.62.38,4.34,4.34,0,0,1,1.28.68,2.18,2.18,0,0,1,.85,1.45,2.06,2.06,0,0,1-.45,1.48,3.32,3.32,0,0,1-1,.87c.3-.81.57-1.66.34-2.11a2.54,2.54,0,0,0-1.49-1C51.26,24.9,49.65,24.63,48,24Z"/><path class="cls-6" d="M49.1,9.57a8.67,8.67,0,0,1,8.64,8.64V43.68a8.67,8.67,0,0,1-8.64,8.64H23.62A8.67,8.67,0,0,1,15,43.68V18.21a8.67,8.67,0,0,1,8.64-8.64H49.1m0-4H23.62A12.65,12.65,0,0,0,11,18.21V43.68A12.65,12.65,0,0,0,23.62,56.32H49.1A12.65,12.65,0,0,0,61.74,43.68V18.21A12.65,12.65,0,0,0,49.1,5.57Z"/><path class="cls-7" d="M49.07,9.57a8.67,8.67,0,0,1,8.64,8.64V43.68a8.67,8.67,0,0,1-8.64,8.64H23.59A8.67,8.67,0,0,1,15,43.68V18.21a8.67,8.67,0,0,1,8.64-8.64H49.07m0-2H23.59A10.65,10.65,0,0,0,13,18.21V43.68A10.65,10.65,0,0,0,23.59,54.32H49.07A10.65,10.65,0,0,0,59.71,43.68V18.21A10.65,10.65,0,0,0,49.07,7.57Z"/></g></svg>