<svg xmlns="http://www.w3.org/2000/svg" viewBox="0 0 73.47 61.87"><defs><style>.cls-1{opacity:0.66;}.cls-2,.cls-4{fill:#fff;}.cls-2,.cls-5{stroke:#231f20;stroke-miterlimit:10;}.cls-3{fill:#231f20;}.cls-5{fill:none;stroke-width:1.5px;}.cls-6{fill:#ed1f24;}.cls-7{fill:#c82127;}</style></defs><title>PDC_cyclone_red</title><g id="Layer_7" data-name="Layer 7"><rect class="cls-2" x="15.99" y="9.57" width="42.75" height="42.75" rx="8.64" ry="8.64"/><polygon class="cls-3" points="15.99 41.08 30.48 41.08 30.48 34.44 28.12 34.44 36.61 26.54 45.1 34.44 42.82 34.44 42.82 41.08 58.75 41.08 58.69 44.7 58.36 46.24 57.62 47.94 56.33 49.65 54.47 51.13 52.75 51.91 50.11 52.32 40.53 52.32 32.33 52.32 25.76 52.32 22.81 52.13 20.15 51.05 18.15 49.38 16.91 47.54 15.99 45 15.94 42.78 15.99 41.08"/><rect class="cls-4" x="33.6" y="38.3" width="1.37" height="1.1"/><rect class="cls-4" x="36.14" y="36.27" width="1.37" height="1.1"/><rect class="cls-4" x="33.6" y="36.27" width="1.37" height="1.1"/><rect class="cls-4" x="36.14" y="38.33" width="1.37" height="1.1"/><rect class="cls-4" x="38.69" y="36.27" width="1.37" height="1.1"/><rect class="cls-4" x="38.69" y="38.33" width="1.37" height="1.1"/><ellipse class="cls-5" cx="24.14" cy="27.7" rx="4.79" ry="1.76"/><ellipse class="cls-5" cx="22.86" cy="32.08" rx="3.9" ry="1.46"/><ellipse class="cls-5" cx="23.04" cy="35.16" rx="2.81" ry="1.11"/><ellipse class="cls-5" cx="22.45" cy="38.48" rx="2.22" ry="1.11"/><path class="cls-5" d="M24.66,38.48c-.28,2.14-4.06,3.81-4.06,3.81"/><path class="cls-5" d="M25.85,35.16s.35,3.52-2.25,4.27"/><path class="cls-5" d="M25.47,35.72s2.82-1.4,1.3-3.64"/><path class="cls-5" d="M28.93,27.7c.55,2.86-2.58,5-2.58,5"/><path class="cls-3" d="M22.64,24a7.47,7.47,0,0,1,2.55-.45,7.56,7.56,0,0,1,2.62.38,4.34,4.34,0,0,1,1.28.68,2.18,2.18,0,0,1,.85,1.45,2.06,2.06,0,0,1-.45,1.48,3.32,3.32,0,0,1-1,.87c.3-.81.57-1.66.34-2.11a2.54,2.54,0,0,0-1.49-1C25.9,24.9,24.28,24.63,22.64,24Z"/><ellipse class="cls-5" cx="50.55" cy="27.7" rx="4.79" ry="1.76"/><ellipse class="cls-5" cx="49.27" cy="32.08" rx="3.9" ry="1.46"/><ellipse class="cls-5" cx="49.45" cy="35.16" rx="2.81" ry="1.11"/><ellipse class="cls-5" cx="48.86" cy="38.48" rx="2.22" ry="1.11"/><path class="cls-5" d="M51.07,38.48C50.79,40.62,47,42.29,47,42.29"/><path class="cls-5" d="M52.26,35.16s.35,3.52-2.25,4.27"/><path class="cls-5" d="M51.88,35.72s2.82-1.4,1.3-3.64"/><path class="cls-5" d="M55.34,27.7c.55,2.86-2.58,5-2.58,5"/><path class="cls-3" d="M49,24a7.47,7.47,0,0,1,2.55-.45,7.56,7.56,0,0,1,2.62.38,4.34,4.34,0,0,1,1.28.68,2.18,2.18,0,0,1,.85,1.45,2.06,2.06,0,0,1-.45,1.48,3.32,3.32,0,0,1-1,.87c.3-.81.57-1.66.34-2.11a2.54,2.54,0,0,0-1.49-1C52.3,24.9,50.69,24.63,49,24Z"/><path class="cls-6" d="M50.11,9.57a8.67,8.67,0,0,1,8.64,8.64V43.68a8.67,8.67,0,0,1-8.64,8.64H24.63A8.67,8.67,0,0,1,16,43.68V18.21a8.67,8.67,0,0,1,8.64-8.64H50.11m0-4H24.63A12.65,12.65,0,0,0,12,18.21V43.68A12.65,12.65,0,0,0,24.63,56.32H50.11A12.65,12.65,0,0,0,62.75,43.68V18.21A12.65,12.65,0,0,0,50.11,5.57Z"/><path class="cls-7" d="M50.11,9.57a8.67,8.67,0,0,1,8.64,8.64V43.68a8.67,8.67,0,0,1-8.64,8.64H24.63A8.67,8.67,0,0,1,16,43.68V18.21a8.67,8.67,0,0,1,8.64-8.64H50.11m0-2H24.63A10.65,10.65,0,0,0,14,18.21V43.68A10.65,10.65,0,0,0,24.63,54.32H50.11A10.65,10.65,0,0,0,60.75,43.68V18.21A10.65,10.65,0,0,0,50.11,7.57Z"/></g></svg>