<svg xmlns="http://www.w3.org/2000/svg" viewBox="0 0 73.47 57.77"><defs><style>.cls-1{opacity:0.66;}.cls-2,.cls-4{fill:#fff;}.cls-2,.cls-5{stroke:#231f20;stroke-miterlimit:10;}.cls-3{fill:#231f20;}.cls-5{fill:none;stroke-width:1.5px;}.cls-6{fill:#4995d1;}.cls-7{fill:#31c5f4;}</style></defs><title>PDC_cyclone_blue</title><g id="Layer_7" data-name="Layer 7"><rect class="cls-2" x="16.44" y="9.57" width="42.75" height="42.75" rx="8.64" ry="8.64"/><polygon class="cls-3" points="16.44 41.08 30.93 41.08 30.93 34.44 28.57 34.44 37.06 26.54 45.55 34.44 43.26 34.44 43.26 41.08 59.19 41.08 59.13 44.7 58.8 46.24 58.06 47.94 56.78 49.65 54.91 51.13 53.19 51.91 50.55 52.32 40.97 52.32 32.77 52.32 26.2 52.32 23.26 52.13 20.59 51.05 18.6 49.38 17.35 47.54 16.44 45 16.38 42.78 16.44 41.08"/><rect class="cls-4" x="34.05" y="38.3" width="1.37" height="1.1"/><rect class="cls-4" x="36.58" y="36.27" width="1.37" height="1.1"/><rect class="cls-4" x="34.05" y="36.27" width="1.37" height="1.1"/><rect class="cls-4" x="36.58" y="38.33" width="1.37" height="1.1"/><rect class="cls-4" x="39.14" y="36.27" width="1.37" height="1.1"/><rect class="cls-4" x="39.14" y="38.33" width="1.37" height="1.1"/><ellipse class="cls-5" cx="24.58" cy="27.7" rx="4.79" ry="1.76"/><ellipse class="cls-5" cx="23.31" cy="32.08" rx="3.9" ry="1.46"/><ellipse class="cls-5" cx="23.49" cy="35.16" rx="2.81" ry="1.11"/><ellipse class="cls-5" cx="22.89" cy="38.48" rx="2.22" ry="1.11"/><path class="cls-5" d="M25.11,38.48c-.28,2.14-4.06,3.81-4.06,3.81"/><path class="cls-5" d="M26.3,35.16s.35,3.52-2.25,4.27"/><path class="cls-5" d="M25.91,35.72s2.82-1.4,1.3-3.64"/><path class="cls-5" d="M29.37,27.7c.55,2.86-2.58,5-2.58,5"/><path class="cls-3" d="M23.08,24a7.47,7.47,0,0,1,2.55-.45,7.56,7.56,0,0,1,2.62.38,4.34,4.34,0,0,1,1.28.68,2.18,2.18,0,0,1,.85,1.45,2.06,2.06,0,0,1-.45,1.48,3.32,3.32,0,0,1-1,.87c.3-.81.57-1.66.34-2.11a2.54,2.54,0,0,0-1.49-1C26.34,24.9,24.72,24.63,23.08,24Z"/><ellipse class="cls-5" cx="50.99" cy="27.7" rx="4.79" ry="1.76"/><ellipse class="cls-5" cx="49.72" cy="32.08" rx="3.9" ry="1.46"/><ellipse class="cls-5" cx="49.9" cy="35.16" rx="2.81" ry="1.11"/><ellipse class="cls-5" cx="49.3" cy="38.48" rx="2.22" ry="1.11"/><path class="cls-5" d="M51.52,38.48c-.28,2.14-4.06,3.81-4.06,3.81"/><path class="cls-5" d="M52.71,35.16s.35,3.52-2.25,4.27"/><path class="cls-5" d="M52.32,35.72s2.82-1.4,1.3-3.64"/><path class="cls-5" d="M55.78,27.7c.55,2.86-2.58,5-2.58,5"/><path class="cls-3" d="M49.49,24A7.47,7.47,0,0,1,52,23.59a7.56,7.56,0,0,1,2.62.38,4.34,4.34,0,0,1,1.28.68,2.18,2.18,0,0,1,.85,1.45,2.06,2.06,0,0,1-.45,1.48,3.32,3.32,0,0,1-1,.87c.3-.81.57-1.66.34-2.11a2.54,2.54,0,0,0-1.49-1C52.75,24.9,51.13,24.63,49.49,24Z"/><path class="cls-6" d="M50.74,9.57a8.67,8.67,0,0,1,8.64,8.64V43.68a8.67,8.67,0,0,1-8.64,8.64H25.27a8.67,8.67,0,0,1-8.64-8.64V18.21a8.67,8.67,0,0,1,8.64-8.64H50.74m0-4H25.27A12.65,12.65,0,0,0,12.63,18.21V43.68A12.65,12.65,0,0,0,25.27,56.32H50.74A12.65,12.65,0,0,0,63.38,43.68V18.21A12.65,12.65,0,0,0,50.74,5.57Z"/><path class="cls-7" d="M50.55,9.57a8.67,8.67,0,0,1,8.64,8.64V43.68a8.67,8.67,0,0,1-8.64,8.64H25.08a8.67,8.67,0,0,1-8.64-8.64V18.21a8.67,8.67,0,0,1,8.64-8.64H50.55m0-2H25.08A10.65,10.65,0,0,0,14.44,18.21V43.68A10.65,10.65,0,0,0,25.08,54.32H50.55A10.65,10.65,0,0,0,61.19,43.68V18.21A10.65,10.65,0,0,0,50.55,7.57Z"/></g></svg>