<svg xmlns="http://www.w3.org/2000/svg" viewBox="0 0 73.47 61.87"><defs><style>.cls-1{opacity:0.66;}.cls-2,.cls-4{fill:#fff;}.cls-2,.cls-5{stroke:#231f20;stroke-miterlimit:10;}.cls-3{fill:#231f20;}.cls-5{fill:none;stroke-width:1.5px;}.cls-6{fill:#f7ec13;}.cls-7{fill:#ffce07;}</style></defs><title>PDC_Cyclone_yellow</title><g id="Layer_7" data-name="Layer 7"><rect class="cls-2" x="16.08" y="9.57" width="42.75" height="42.75" rx="8.64" ry="8.64"/><polygon class="cls-3" points="16.07 41.08 30.57 41.08 30.57 34.44 28.2 34.44 36.7 26.54 45.19 34.44 42.9 34.44 42.9 41.08 58.83 41.08 58.77 44.7 58.44 46.24 57.7 47.94 56.41 49.65 54.55 51.13 52.83 51.91 50.19 52.32 40.61 52.32 32.41 52.32 25.84 52.32 22.89 52.13 20.23 51.05 18.23 49.38 16.99 47.54 16.07 45 16.02 42.78 16.07 41.08"/><rect class="cls-4" x="33.68" y="38.3" width="1.37" height="1.1"/><rect class="cls-4" x="36.22" y="36.27" width="1.37" height="1.1"/><rect class="cls-4" x="33.68" y="36.27" width="1.37" height="1.1"/><rect class="cls-4" x="36.22" y="38.33" width="1.37" height="1.1"/><rect class="cls-4" x="38.77" y="36.27" width="1.37" height="1.1"/><rect class="cls-4" x="38.77" y="38.33" width="1.37" height="1.1"/><ellipse class="cls-5" cx="24.22" cy="27.7" rx="4.79" ry="1.76"/><ellipse class="cls-5" cx="22.94" cy="32.08" rx="3.9" ry="1.46"/><ellipse class="cls-5" cx="23.12" cy="35.16" rx="2.81" ry="1.11"/><ellipse class="cls-5" cx="22.53" cy="38.48" rx="2.22" ry="1.11"/><path class="cls-5" d="M24.75,38.48c-.28,2.14-4.06,3.81-4.06,3.81"/><path class="cls-5" d="M25.93,35.16s.35,3.52-2.25,4.27"/><path class="cls-5" d="M25.55,35.72s2.82-1.4,1.3-3.64"/><path class="cls-5" d="M29,27.7c.55,2.86-2.58,5-2.58,5"/><path class="cls-3" d="M22.72,24a7.47,7.47,0,0,1,2.55-.45,7.56,7.56,0,0,1,2.62.38,4.34,4.34,0,0,1,1.28.68A2.18,2.18,0,0,1,30,26.11a2.06,2.06,0,0,1-.45,1.48,3.32,3.32,0,0,1-1,.87c.3-.81.57-1.66.34-2.11a2.54,2.54,0,0,0-1.49-1C26,24.9,24.36,24.63,22.72,24Z"/><ellipse class="cls-5" cx="50.63" cy="27.7" rx="4.79" ry="1.76"/><ellipse class="cls-5" cx="49.35" cy="32.08" rx="3.9" ry="1.46"/><ellipse class="cls-5" cx="49.53" cy="35.16" rx="2.81" ry="1.11"/><ellipse class="cls-5" cx="48.94" cy="38.48" rx="2.22" ry="1.11"/><path class="cls-5" d="M51.15,38.48c-.28,2.14-4.06,3.81-4.06,3.81"/><path class="cls-5" d="M52.34,35.16s.35,3.52-2.25,4.27"/><path class="cls-5" d="M52,35.72s2.82-1.4,1.3-3.64"/><path class="cls-5" d="M55.42,27.7c.55,2.86-2.58,5-2.58,5"/><path class="cls-3" d="M49.13,24a7.47,7.47,0,0,1,2.55-.45A7.56,7.56,0,0,1,54.3,24a4.34,4.34,0,0,1,1.28.68,2.18,2.18,0,0,1,.85,1.45A2.06,2.06,0,0,1,56,27.59a3.32,3.32,0,0,1-1,.87c.3-.81.57-1.66.34-2.11a2.54,2.54,0,0,0-1.49-1C52.39,24.9,50.77,24.63,49.13,24Z"/><path class="cls-6" d="M50.19,9.59a8.67,8.67,0,0,1,8.64,8.64V43.7a8.67,8.67,0,0,1-8.64,8.64H24.72a8.67,8.67,0,0,1-8.64-8.64V18.23a8.67,8.67,0,0,1,8.64-8.64H50.19m0-4H24.72A12.65,12.65,0,0,0,12.08,18.23V43.7A12.65,12.65,0,0,0,24.72,56.34H50.19A12.65,12.65,0,0,0,62.83,43.7V18.23A12.65,12.65,0,0,0,50.19,5.59Z"/><path class="cls-7" d="M50.19,9.59a8.67,8.67,0,0,1,8.64,8.64V43.7a8.67,8.67,0,0,1-8.64,8.64H24.72a8.67,8.67,0,0,1-8.64-8.64V18.23a8.67,8.67,0,0,1,8.64-8.64H50.19m0-2H24.72A10.65,10.65,0,0,0,14.08,18.23V43.7A10.65,10.65,0,0,0,24.72,54.34H50.19A10.65,10.65,0,0,0,60.83,43.7V18.23A10.65,10.65,0,0,0,50.19,7.59Z"/></g></svg>