<svg xmlns="http://www.w3.org/2000/svg" xmlns:xlink="http://www.w3.org/1999/xlink" viewBox="0 0 73.47 61.87"><defs><style>.cls-1,.cls-5{fill:#fff;}.cls-1,.cls-2{stroke:#231f20;stroke-miterlimit:10;}.cls-2,.cls-3{fill:none;}.cls-4{opacity:0.66;}.cls-6{clip-path:url(#clip-path);}.cls-7{clip-path:url(#clip-path-2);}.cls-8{clip-path:url(#clip-path-4);}.cls-9{clip-path:url(#clip-path-5);}.cls-10{clip-path:url(#clip-path-6);}.cls-11{clip-path:url(#clip-path-7);}.cls-12{clip-path:url(#clip-path-8);}.cls-13{clip-path:url(#clip-path-10);}.cls-14{fill:#231f20;}.cls-15{fill:#f7ec13;}.cls-16{fill:#ffce07;}</style><clipPath id="clip-path"><rect class="cls-1" x="109" y="9.42" width="42.75" height="42.75" rx="8.64" ry="8.64"/></clipPath><clipPath id="clip-path-2"><rect class="cls-1" x="14.35" y="9.42" width="42.75" height="42.75" rx="8.64" ry="8.64"/></clipPath><clipPath id="clip-path-4"><rect class="cls-2" x="210.21" y="9.42" width="42.75" height="42.75" rx="8.64" ry="8.64"/></clipPath><clipPath id="clip-path-5"><rect class="cls-2" x="14.35" y="9.42" width="42.75" height="42.75" rx="8.64" ry="8.64"/></clipPath><clipPath id="clip-path-6"><rect class="cls-3" x="14.35" y="9.42" width="42.75" height="42.75" rx="8.64" ry="8.64"/></clipPath><clipPath id="clip-path-7"><rect class="cls-2" x="109" y="9.42" width="42.75" height="42.75" rx="8.64" ry="8.64"/></clipPath><clipPath id="clip-path-8"><rect class="cls-3" x="109" y="9.42" width="42.75" height="42.75" rx="8.64" ry="8.64"/></clipPath><clipPath id="clip-path-10"><rect class="cls-3" x="210.21" y="9.42" width="42.75" height="42.75" rx="8.64" ry="8.64"/></clipPath></defs><title>PDC_drought_yellow</title><g id="Layer_7" data-name="Layer 7"><rect class="cls-5" x="109" y="9.42" width="42.75" height="42.75" rx="8.64" ry="8.64"/><g class="cls-6"><path class="cls-5" d="M-39.24,97.16q0-96.5,0-193h200q0,96.5,0,193Z"/></g><rect class="cls-2" x="109" y="9.42" width="42.75" height="42.75" rx="8.64" ry="8.64"/><rect class="cls-5" x="14.35" y="9.42" width="42.75" height="42.75" rx="8.64" ry="8.64"/><g class="cls-7"><path class="cls-5" d="M-134.24,97.16q0-96.5,0-193h200q0,96.5,0,193Z"/></g><rect class="cls-2" x="14.35" y="9.42" width="42.75" height="42.75" rx="8.64" ry="8.64"/><rect class="cls-5" x="14.35" y="9.42" width="42.75" height="42.75" rx="8.64" ry="8.64"/><g class="cls-7"><path class="cls-5" d="M-134.24,97.16q0-96.5,0-193h200q0,96.5,0,193Z"/></g><rect class="cls-2" x="14.35" y="9.42" width="42.75" height="42.75" rx="8.64" ry="8.64"/><g class="cls-8"><path class="cls-5" d="M61.76,97.16q0-96.5,0-193h200q0,96.5,0,193Z"/></g><rect class="cls-2" x="210.21" y="9.42" width="42.75" height="42.75" rx="8.64" ry="8.64"/><g class="cls-9"><path class="cls-5" d="M-134.24,97.16q0-96.5,0-193h200q0,96.5,0,193Z"/></g><rect class="cls-2" x="14.35" y="9.42" width="42.75" height="42.75" rx="8.64" ry="8.64"/><g class="cls-10"><path class="cls-5" d="M65,96.89H-134.56V-95.85H65ZM11.1,95.14l.1-.54a8.1,8.1,0,0,0-1.5-.28c-5.1,0-10.2,0-15.29,0H-10.3c.43-.85.66-1.79,1-1.81,2.31-.21,3-2,3.86-3.66.3-.62.66-1.21.95-1.73,2.13,0,3.72.5,4.16,2.75a2.41,2.41,0,0,0,.48,1c.43.52,1,1.42,1.39,1.39a14.84,14.84,0,0,0,3.22-.93l-.19-.52L1.91,91a21.45,21.45,0,0,0-1.1-3.75,4.44,4.44,0,0,0-2-2c-1.92-.82-2.44-1.62-1.9-4,1.88,1.26,2.82-.78,4.38-1.13L.64,79a8.34,8.34,0,0,0-1.6.71c-.91.67-1.46.18-2-.48s-1-1.37-1.34-1.76A20.4,20.4,0,0,1-6.81,78c-2.67.16-3,.37-3.53,2.87-.09.42.33.95.63,1.73,1-1.56.72-3.76,3.12-2.74A6.48,6.48,0,0,0-7,85.08a4.73,4.73,0,0,1-2.28,5.57c-2.22,1.2-2.22,1.2-2,3.64-2,0-3.91.07-5.85-.05a1.8,1.8,0,0,1-1.17-1.12c-.85-2.78-1.52-5.61-2.41-8.37a3.46,3.46,0,0,1,.32-3.45,7.76,7.76,0,0,0,.34-9.73c-1.41-2.13-.93-3.87.8-5.48a3.15,3.15,0,0,0,.83-3.61,45.09,45.09,0,0,1-1.19-5.19c-.19-1-.55-1.2-1.55-.91-2.79.8-5.64,1.4-8.42,2.22A2.47,2.47,0,0,0-31,60c-2,6.53-3.93,13.08-5.87,19.63l-4.58,15.47ZM-87.63-54.58c-1.14-2.54-2.26-5-3.35-7.49-.87-2-1.71-4-2.54-5.94-1.69-4-4.9-6.17-8.93-7.34-2.21-.64-2.41-.54-3.24,1.85h-8.49c-1.56-2.83-3.24-3.52-6.56-1.88a20.21,20.21,0,0,0-5.48,3.92c-3.87,4-5.68,9.1-7,14.38-.18.69-.25,1.41-.39,2.19H-131c-.08-2.08,1.61-2.66,3.21-3.41l-3.53-2.15.74-2,1,.3a9.32,9.32,0,0,1-.21-3c.12-.49,1.25-1,2-1,1.34-.07,1.64,1.07,2,2.13a1.85,1.85,0,0,0,1.29,1c1.63.12,2.72.7,2.92,2.45.05.46.18.92.31,1.53l-2.51.82-.34,3.44c3.46-2.16,5.37-4.73,5.59-8.34.09-1.49.47-2.54,2-3.09a3.46,3.46,0,0,0,2.17-3.16c.08-.64.18-1.28.31-1.92.26-1.32,1-2,2.25-1.77a10.42,10.42,0,0,0-.89,2.66,5.59,5.59,0,0,1-2.9,4.91,2.86,2.86,0,0,0-1.33,1.79c-.44,4.26-1.69,8-5.93,10.09l1.37-.15c.08,1.32.82,1.51,1.85,1.32.56-.1,1.49-.42,1.62-.23,1.08,1.63,2.43,1.07,3.68.7.89,1.67,2.48,1.46,3.83,1.31,2.27-.24,1.58-2.44,2.23-3.94ZM32.64-19.09l-3.3,4.34C27.18-11.9,25-9.07,22.89-6.19a2.25,2.25,0,0,0-.33,1.6c0,.25.77.47,1.21.52a10.38,10.38,0,0,0,2.11,0c1.25-.1,1.78.38,1.72,1.68-.08,1.84,0,3.69,0,5.53,0,1.16.45,1.66,1.66,1.62,1.79-.07,3.58-.05,5.37,0,1.06,0,1.46-.42,1.43-1.46,0-1.74,0-3.47,0-5.21-.05-1.52.78-1.79,2.06-1.79s2.27.16,2.22,1.81,0,3.58,0,5.37c0,.89.35,1.28,1.26,1.27,1.9,0,3.8,0,5.7,0,1.06,0,1.48-.49,1.49-1.47,0-1.19,0-2.39,0-3.58,0-3.64,0-3.63,3.67-3.79.49,0,1.27-.23,1.37-.53a2.08,2.08,0,0,0-.32-1.6,33.31,33.31,0,0,0-3.33-4.39c-3.16-3.26-4.77-7-4-11.55A1.24,1.24,0,0,0,45-23.76a1.4,1.4,0,0,0-1.67,1.13c-.44,1.33-1.15,1.4-2,.3-.72-.88-1.36-1.82-2.06-2.71s-1.41-.94-2.11,0-1.68,2.13-2.38,3.28a2.12,2.12,0,0,0-.16,1.66c.87,2.18,1.87,4.3,2.82,6.45A14.2,14.2,0,0,1,35-16.24C34.22-17.16,33.47-18.08,32.64-19.09Zm-146.16-6.84c-4.54-1.6-8.95,2.31-9,5.55,0,1.53-.18,2.76-1.63,3.68a3.85,3.85,0,0,0-1.18,2.07c-1,3.19.89,6.21,3.72,6.24a4.38,4.38,0,0,1,2.18.58c3.76,2.37,7.54,3,11.55.61a1.85,1.85,0,0,1,1.52.12c4,2.15,8.61,1,10.14-3.31,2.62-.33,3.92-1.45,4.26-3.65.43-2.82-.33-4.5-2.55-5.56,0-.19.11-.38.14-.58.74-4.6-1-9.42-7-8.93a4.66,4.66,0,0,1-2.48-.58C-107.8-31.93-112.77-30.1-113.53-25.94ZM36-68.94c.48,2.44.21,5.09,2.31,7a2.5,2.5,0,0,1,.72,1.25c.77,3.73,2.68,6.47,6.44,7.74.39.13.6.78.9,1.19a4.72,4.72,0,0,1-1.66.77,2.38,2.38,0,0,1-1.54-.75c-1.71-1.77-3.62-3.39-4-6.12A4.39,4.39,0,0,0,38-60.58c-2.18-1.72-2.82-4-2.85-6.55a1.35,1.35,0,0,0-.14-.79,10.47,10.47,0,0,0-1.15-1l-.37.35c.84,2.44,1.06,4.82-.31,7.18a3.09,3.09,0,0,0-.25,2,22.56,22.56,0,0,0,1.18,3.67c.71,1.76.35,3.57-1.15,4.42-.4.23-1.51.08-1.61-.18-.39-1-1-2.36-.62-3,1.08-1.65.67-3.33.82-5,.12-1.33.57-2.64.65-4a48.69,48.69,0,0,0-.06-4.94c0-.17-.33-.43-.53-.46s-.63.12-.66.26c-.25,1.15-.8,2.4-.56,3.46a2.66,2.66,0,0,1-1.21,3,7.55,7.55,0,0,0-2.82,5,9.76,9.76,0,0,1-3.13,5.71c-.68.65-2,.69-3,.87-.28,0-.84-.41-.91-.72s.37-.69.68-.93A18.07,18.07,0,0,1,22.45-54,6.69,6.69,0,0,0,26-58.87a5.08,5.08,0,0,1,1-2.51c2.09-2.07,2.27-4.72,2.57-7.36-1.38-.43-2.14.07-2.71,1.42a50.47,50.47,0,0,1-9.4,14.66c-1.51,1.64-3,3.31-4.27,4.75H50.51c-.78,1.18-2.8.84-2.37,2.72.26,1.13.69,2.06,2.1,2.19l-.64-2.44c3.19-1.15,3.19-1.15,4.7-4.07a3.45,3.45,0,0,1,.54-1c.35-.32.84-.74,1.23-.7,1.39.13,2.76.37,3.15,2.14a6.77,6.77,0,0,0,1.05,2.35c.31.45,1,1,1.47.91a15.27,15.27,0,0,0,2.89-1.08l.17-.55c-3.13,1-3.55-1-3.92-3a3.18,3.18,0,0,0-2.78-2.92,1.67,1.67,0,0,1-1.56-1.88c0-.64-.1-1.28-.17-2,1.84,1.4,3-.23,4.37-.9.16-.08,0-.76,0-1.33a13.72,13.72,0,0,0-1.71.79c-1.12.74-1.78.13-2.41-.71-.49-.64-1-1.25-1.28-1.59a15.07,15.07,0,0,1-2.8.67c-3.14.06-2.46.29-3.22,2.77-.29,1-.25,1,.93,1.31.7-1.13.44-3.44,2.52-2.54a29.54,29.54,0,0,0-.21,4c.17,2.1,1.19,4.26-.9,6.11-1-1-2.2-2-3.24-3.07A53.64,53.64,0,0,1,38-67.89C37.61-68.75,37.26-69.49,36-68.94ZM-49.39-13.13-61.14-30.81l-6.77,10.62L-73-24.42-85.3-4.3h40.39l-1.15-1.95c2-.23,3.56-1,3.92-3.08.3-1.73-1.33-4.4-3.08-5.36S-48.07-14.78-49.39-13.13ZM43.69-76.55c1.29.28,2.7.8,3.68-.56s.6-2.88-.25-4.23c-.37-.59-.91-1.07-1.28-1.66a1.51,1.51,0,0,1-.26-1.08c1.16-3.78-1.13-7.18-5.13-7.18a27.7,27.7,0,0,0-5.28.94c-1.19-.46-2.26-1.24-3.28-1.18s-2.09.92-3.3,1.51c-1.52-1.27-3.51-2-5.66-.64-1.93,1.22-2.38,3-1.27,5.2-.69,0-1.17-.08-1.66-.07a7.21,7.21,0,0,0-1.46.11c-1.56.35-2,1.56-.89,2.75a18.07,18.07,0,0,0,1.76,1.53c-2.42,2.8-2,4.47,1.5,5.1a37,37,0,0,0,6.27.17c.72,0,1.45-.09,2.22-.14-.06,1.63,0,3.09-2.15,3.44.82.85,1.61,1.86,2.54,2a42,42,0,0,0,5.91.08c-.56-2.48-1.64-5,1-6.87C38.82-74,41.36-73.72,43.69-76.55ZM-64.11-58.91l.17-.38a26.67,26.67,0,0,1-8.68-13.3A31.69,31.69,0,0,1-82.19-59h4.53a15.82,15.82,0,0,1-6.77,8.28l.08.43,7.43-.73A73.34,73.34,0,0,1-87-41.34c3.53-.32,7-1,10.44-1.29,1.85-.17,3.34-1.38,5.6-.7,4.11,1.24,8.5,1.57,12.78,2.28l.1-.45c-3.63-2.87-7.31-5.69-10.19-9.52l7.36.76c-3.83-3.13-6.41-6.57-6.15-8.63Zm29.48-9.46c-.13,2.24.42,4,2.48,5.11s3.81.22,5.52-.88c.23.49.4.89.61,1.27a4.47,4.47,0,0,0,5.8,2.09,4.51,4.51,0,0,0,2.44-5.56c-.76-2-1.77-4-2.58-5.78.45-.5,1.36-1.08,1.3-1.54a13.86,13.86,0,0,0-1-3c0-1.46.51-3,0-3.81s-2.1-1.12-3.21-1.65c.25-.35.66-.85,1-1.39.5-.83.23-1.44-.64-1.79a4.2,4.2,0,0,0-4.85,1.62c-.28.42-.57.83-.82,1.19L-30-85.05a10.31,10.31,0,0,0-2.71,1.91,40.37,40.37,0,0,0-2.65,4.75l-1.93-1.75c-1.73,2.87-1.57,5.71-1,8.52C-37.8-69-37.32-68.73-34.63-68.37ZM-5.37-48.09c0-1.1,0-2.12,0-3.14,0-3.52,0-3.52,3.46-3.83,1.24-.11,1.52-.63.81-1.69a27.2,27.2,0,0,0-1.79-2.31c-2.76-3.31-5.8-6.48-4.79-11.41.09-.43-.66-1-1-1.55-.5.37-1.19.63-1.45,1.12-.52,1-1,1-1.72.31s-1.35-1.7-2.09-2.48a1.58,1.58,0,0,0-1.2-.53c-1.78.53-2.89,3.89-1.89,5.55a5.77,5.77,0,0,1-3.74,8.84c-1.6.28-3.37-.37-5.36-.64-.25.31-.83,1-1.32,1.66s-1,1.7-1.52,2.55l2.88.59h.16c1.33-.08,1.83.55,1.78,1.87-.08,1.71,0,3.42,0,5.09h7.48c0-1.6.09-3.12,0-4.62s.44-1.88,1.84-1.91,2,.49,1.95,2,0,3,0,4.56ZM-113.13,44.83h3c3.8,0,3.8,0,3.8-3.75,0-3,0-2.93,2.88-3.22a2,2,0,0,0,1.32-.68c.14-.21-.23-.87-.5-1.24-1-1.39-2.1-2.75-3.15-4.12q-3.86-5-7.72-10c-1.21-1.56-1.52-1.55-2.75-.06-.63.77-1.29,1.52-2.09,2.47a7.27,7.27,0,0,0-.9-1.42,2,2,0,0,0-1.27-.65c-.32,0-.71.58-.85,1a3.06,3.06,0,0,0,0,1.45,7.94,7.94,0,0,1-2.4,7,27.8,27.8,0,0,0-2.59,3.32,20.14,20.14,0,0,0-1.25,2.47,14.32,14.32,0,0,0,2.62.44c1.22,0,1.63.43,1.56,1.63a30.56,30.56,0,0,0,0,4.06c0,.43.45,1.18.72,1.19,1.89.08,3.78,0,5.67,0,.13-1.41.27-2.83.4-4.24a3.18,3.18,0,0,0,0-.65c-.16-1.39.63-1.56,1.78-1.59s1.8.37,1.76,1.64C-113.17,41.43-113.13,43-113.13,44.83Zm-13.92,47.79A14.2,14.2,0,0,0-127,95c.07.43.55,1.1.86,1.11,1.88,0,3.75-.08,5.63-.15q.15-2.16.3-4.31a1.87,1.87,0,0,0,0-.32c-.15-1.4.47-1.93,1.88-1.92s1.74.77,1.67,2c0,.86,0,1.73,0,2.6,0,2.2,0,2.2,2.24,2.2,4.6,0,4.6,0,4.59-4.66,0-2.44,0-2.42,2.49-2.48a8,8,0,0,0,1.65-.4A7,7,0,0,0-106.4,87c-3.24-4.26-6.54-8.47-9.79-12.72-2.62-3.43-2.08-3.11-4.54,0-.9,1.15-1.26,1.1-2.07-.12a1.57,1.57,0,0,0-1.23-.67,1.5,1.5,0,0,0-.83,1.11c-.12,1.07.1,2.19-.09,3.24a8.49,8.49,0,0,1-1.12,3.21c-1.44,2.15-3.11,4.15-4.65,6.23a5.75,5.75,0,0,0-.54,1.27,5.4,5.4,0,0,0,1.43.5c2.77.14,2.77.12,2.77,2.87C-127.05,92.18-127.05,92.4-127.05,92.62Zm55.33-76.15-2.52,3c-.56.67-1.31.95-1.6,0s-.9-1.3-1.62-1a1.84,1.84,0,0,0-.67,1.56,9.19,9.19,0,0,1-2.94,8.31,18.22,18.22,0,0,0-2.17,2.82,20.92,20.92,0,0,0-1.11,2.06,10.79,10.79,0,0,0,2.42.47c1.36,0,1.86.48,1.77,1.82s0,2.49,0,3.74.46,1.57,1.54,1.55a29.59,29.59,0,0,0,3.89-.08,2,2,0,0,0,1.32-1.35,18.15,18.15,0,0,0,0-3.89c-.08-1.3.7-1.38,1.64-1.39s1.73.15,1.67,1.4,0,2.5,0,3.74.38,1.6,1.5,1.57,2.49,0,3.74,0c1.09,0,1.59-.46,1.57-1.56,0-1.41,0-2.82,0-4.23,0-.93.4-1.28,1.25-1.29a9.21,9.21,0,0,0,1.46,0,9.75,9.75,0,0,0,1.44-.47,6.34,6.34,0,0,0-.61-1.4q-3.67-4.85-7.4-9.65C-68.62,20.37-70.09,18.54-71.72,16.47ZM-1.62,28a12.31,12.31,0,0,0-13-11.83A12.44,12.44,0,0,0-26.17,30C-25.7,36-19.52,41.3-13.09,40.88A12.38,12.38,0,0,0-1.62,28ZM-64.53-63.27c5.57-2.36,7.77-9.09,5.88-12.58l-3.21,3.52-.43-.32c2.13-2.66,2.54-5.46.65-8.35-1.4-2.15-2.92-4.24-4.6-6.65L-67.49-82c-2.87-3.66-2.59-7.77-1.6-12.24-5,3.62-9,7.55-8.87,14.27l-2.11-3.73c-5.2,6.48-5.1,16,.31,20.35a9.6,9.6,0,0,1,2.42-9.42c1.92-2.11,4.15-3.93,6.24-5.87C-67.16-74.54-63-68.53-64.53-63.27Zm-11,141.78c-1.56-3.93-.33-6.84,2.06-9.3,2-2.07,4.28-3.9,6.68-6.06,2,2.52,4,4.81,5.63,7.32,1.47,2.21,2.48,4.68,1.06,7.5,5-1.93,8.47-6.57,6.41-12.06-1.94,2.78-2.09,2.9-3.61,3.1,2.34-2.75,2.39-5.32.18-8-1.44-1.76-2.84-3.54-4.26-5.33-1.34,1.13-1.27,3-1.29,5.21-3.32-3.57-2.88-7.45-2-11.61-4.9,3.26-9.36,6.5-9.26,13.22L-76.19,59C-82.09,65.44-81.77,71.28-75.52,78.5Zm9.38,10.75c0,1.46,0,3,0,4.49,0,1.06.36,1.61,1.53,1.54a30.43,30.43,0,0,1,3.57,0c1.1.06,1.42-.43,1.37-1.45-.06-1.19,0-2.39,0-3.57s.52-1.77,1.74-1.68a3.09,3.09,0,0,0,1,0A14.19,14.19,0,0,0-55.54,88a5.62,5.62,0,0,0-.55-1.27C-59.61,82.16-63.17,77.6-66.67,73c-.71-.94-1.25-1.1-1.95,0-.42.63-.91,1.21-1.37,1.8-.61.79-1.12.87-1.74-.07-.28-.42-.91-.6-1.39-.9a7.21,7.21,0,0,0-.6,1.45,5.71,5.71,0,0,0,0,1.78,5.5,5.5,0,0,1-1.52,4.58c-1.45,1.67-2.76,3.46-4.11,5.22-.81,1.06-.6,1.59.62,1.73,3.06.37,3.06.37,3.06,3.42q0,.41,0,.81c0,2.45,0,2.45,2.46,2.45,3.91,0,3.91,0,3.91-4C-69.32,88.77-68.84,88.44-66.13,89.25Zm103.06.44c2.19.26,4.11.56,6,.67a1.61,1.61,0,0,0,1.16-1,43,43,0,0,0,.68-5c.1-1.2.68-1.62,1.81-1.5a17.12,17.12,0,0,0,1.78.11c.49,0,1-.08,1.48-.13a6.74,6.74,0,0,0-.45-1.43c-3.06-5.28-6.15-10.54-9.23-15.81-2-3.48-2-3.48-4.83-.74-1.35,1.31-2,1.16-2.74-.57a1.52,1.52,0,0,0-1-.78c-.23,0-.64.56-.76.94-.19.61-.13,1.29-.32,1.91-.49,1.6.2,3.51-1.4,4.83-.45.37-1,1.3-.82,1.61.68,1.24.56,3.3,2.42,3.47A2.8,2.8,0,0,1,33.59,79a3.6,3.6,0,0,0,.52,1.51,3,3,0,0,0,1.38,1.24c2.25.6,2.49.89,2.12,3.21C37.38,86.45,37.18,87.93,36.93,89.69ZM-2.39-4.7c0-1.12.06-1.77,0-2.4C-2.57-8.51-2.05-9.16-.59-9a2.59,2.59,0,0,0,1,0c.49-.13,1.2-.23,1.36-.56s-.16-1-.45-1.39q-4.87-6.39-9.8-12.74c-2.24-2.88-2.26-2.87-4.65-.05l-.11.12c-.73.84-1.31,1.11-1.87-.22a1.62,1.62,0,0,0-1.34-.67c-.31,0-.78.68-.82,1.09a15.19,15.19,0,0,0,0,3.25,4.36,4.36,0,0,1-1.17,3.39c-1.34,1.63-2.64,3.3-3.86,5a14.11,14.11,0,0,0-1.11,2.34A12.43,12.43,0,0,0-21-9c1.24,0,1.84.33,1.7,1.66-.08.84,0,1.7,0,2.59l6.77-1.43c.19-1.08-.48-2.52,1.71-2.51,2.52,0,1.26,1.86,1.91,3.19ZM-49.08,17.07c-2-1.62-4.75-1-5.31,1.2a13.09,13.09,0,0,0-.22,4.81c.41,3.15,1.08,6.26,1.64,9.34A16.49,16.49,0,0,1-58,24.46c-.83-2.89-1.39-5.86-2-8.81a15.32,15.32,0,0,0-4-8c-1.57-1.61-3.94-2.28-5.42-1.57-1.24.6-1.39,1.42-.38,2.37s2,1.65,2.92,2.57c3,3,4.44,6.84,5.89,10.69,1.88,5,3.58,10.06,6.7,14.49,2.18,3.11,5,4.84,8.84,4a16.76,16.76,0,0,0,7.62-4.48c-1.36.2-2.46.46-3.57.51-3.43.15-5.79-.76-6.63-3.41a3.6,3.6,0,0,1,.34-2.93c.44-.54,1.8-.38,2.75-.41.52,0,1,.34,1.56.32a1.65,1.65,0,0,0,1.23-.52A1.45,1.45,0,0,0-42.37,28a4.24,4.24,0,0,0-4-1.68,3.23,3.23,0,0,0-3.18,2.76,40.87,40.87,0,0,0,0,5.09c-1.82-1.61-2.17-3.83-2.5-6C-52.72,24.13-52.49,20.19-49.08,17.07Zm-76.83-56a4.21,4.21,0,0,0-5.46,4,3,3,0,0,1-.83,1.57c-1.52,1.66-1.33,4.18.5,5a21,21,0,0,0,4.65,1.59,9.57,9.57,0,0,0,4-.35,2.61,2.61,0,0,1,2,0,4,4,0,0,0,5.44-1.61,2,2,0,0,1,1-.63c1.86-.68,2.74-3.36,1.34-4.79a3.27,3.27,0,0,1-.83-2.6c-.05-2.58-1.48-3.95-4.06-4a5.48,5.48,0,0,1-2-.45C-122.72-42.4-124.92-41.58-125.92-38.94Zm80-5.6H3v-2.84H-39.55v-4.32l-2-.67-1.85,1.08v3.9l-2.52.17ZM28,28.37l2.95,4.5.25-.08-.49-5.33,3.42.86-1.59-3.08,5.66.34.08-.24L33.31,22.6l3-2.23-3.67-.51L36.24,15l-5.34,2.67-.2-3.18-.59-.35-1.89,2.45-1.78-5.07-.3.05-.67,5.34L22.06,15l1,3.43-5-1.37-.14.31,3.81,3.53-3.09,1.26,3,1.59L17,27.64l5.82-1.31-1.25,4.11L25.16,28l1,3.24ZM17-42.05c-1,1.47-2,2.82-2.93,4.1A1.25,1.25,0,0,0,14.15-36c3.59,3.75,7.12,7.55,10.76,11.42l1.89-3.15,7.35,9.3.26-.18L27.49-34.27l-2.65,3.95ZM49.92,25.23c-1.16-2.46-.6-4.6.6-6.71L48.9,20l-.95-6.88-.3,0v5.7l-.34.13-3.77-4.8c-.35,1.16.24,2.29,1.2,3.35a12.81,12.81,0,0,1,1.81,2.28,21.26,21.26,0,0,1,1.13,2.92l-.49.25-2.1-1.82c-.82,1.24,0,1.94.8,2.77a4.93,4.93,0,0,1,1.48,2.31,19.43,19.43,0,0,1-.32,4l-.59.1-1.79-5.7-.51.09c.29,1.85,0,4,1,5.48a11.8,11.8,0,0,1,1.58,8.07l-1.6.26c.83.95,1.39,2.19,2.09,2.27a64.58,64.58,0,0,0,7.06.1l.18-.42-3.89-3c-.79-1.22.55-2.36,1.51-3.64a5.71,5.71,0,0,0,.53-1.2l-.39-.16L50.23,34a3.52,3.52,0,0,1,1.63-4.38A9.83,9.83,0,0,0,53.75,27l-.33-.22-3.24,2.8c-1.17-2.87,2.35-4.22,2-7.06ZM41.39,91.38C33.27,89.18,25.09,90.48,17,90v5.08c6.52-.14,13,.55,19.34-1.27l.18-1.35Zm-7.72-9.92.44,0c-.56-.91-1.07-1.86-1.72-2.71a1.79,1.79,0,0,0-1.28-.74c-2.18.26-3.43-.81-4.28-2.65a10.34,10.34,0,0,0-.89-1.28c-1.39,1.46-2.7,2.81-4,4.2-.67.73-.58,1.24.52,1.35.7.07,1.38.2,2.08.29,1.23.16,1.83.77,1.58,2.08-.21,1.11-.37,2.23-.51,3.35C25.32,88,25.34,88,28,88.52a12.93,12.93,0,0,0,1.43.23c3.15.22,3.09.21,3.41-3A39.82,39.82,0,0,1,33.67,81.47ZM-119.15,61.15a13.09,13.09,0,0,1,1.76-2,14.36,14.36,0,0,1,10.21-2.82c2.39.21,4.88.67,6,3.36,2.5-2.18,2.22-4.53-.72-6a8,8,0,0,0-1.06-.41,13.77,13.77,0,0,0-8.31-.14,30.31,30.31,0,0,0-6.58,2.92C-119.66,57.15-120.77,59.62-119.15,61.15Zm56.28-42.08c-2.26-4.73-5-9.12-9.87-11.73a9.32,9.32,0,0,0-8.7-.47c-.55.26-.9.95-1.34,1.44a6.22,6.22,0,0,0,1.68,1,28.76,28.76,0,0,1,10.38,3.86C-68,14.93-65.49,17.07-62.87,19.07ZM40.8,94.82H58.75V89.77c-2.37,0-4.63,0-6.9,0-1.22,0-2.28.11-2.5,1.64a.89.89,0,0,1-.65.56C45.79,91.89,43.68,94,40.8,94.82ZM26.56,44.89c4.31,2.3,7.47-.57,11-1.75.16-.05.26-.29.39-.44-2.63-2.56-5.41-4.6-9.25-4.28-.46,0-1.21.45-1.27.79C27,41.16,26.79,43.14,26.56,44.89Zm18.31,3c.74,1.35,1.38,2.59,2.1,3.79.22.37.65.87,1,.88,3.17.07,6.34,0,9.38,0A2.27,2.27,0,0,0,56,49.42a14.58,14.58,0,0,1-1.52-.92C49.89,45.62,49.89,45.62,44.86,47.9ZM21.57,52.52H34c-1.43-4.78-3.81-6.47-7.8-5.62C24.65,47.23,21.37,51.18,21.57,52.52Zm2.89-8.64c-4.39-3.41-6.31-3.75-9.72-1.81-1.37,4,2.28,4.83,4.14,6.84C21,47.41,23.48,46.48,24.46,43.89ZM-102.46,61.82c1-1.84.53-3-1.47-4-3.63-1.71-10.33-.69-13.28,2-1.35,1.25-1.47,2.58-.34,3.91C-114.76,59.71-108.8,58.93-102.46,61.82Zm113-65.24,0-.39C9.24-4.1,8-4.34,6.75-4.7a17.11,17.11,0,0,0-8.29-.2,30.23,30.23,0,0,1-6.34.06,69.71,69.71,0,0,0-7-.21C-17.63-4.83-20.29-4-23-3.78c-1.5.11-3.07-.54-5-.93,3.46,2.12,6.67,2.83,10.21,1.56a12.66,12.66,0,0,1,9.33-.12,9.62,9.62,0,0,0,7.68,0A12.32,12.32,0,0,1,6.5-3.77,34.53,34.53,0,0,0,10.52-3.42Zm33.6,56-3.69-5.4c-1.42-2.08-2.78-2.57-5.16-1.86-1,.29-1.75,1.59-1.34,2.34,1.72,3.13,3.55,6.06,7.94,4.94A10.66,10.66,0,0,1,44.13,52.62Zm-100.91-18c.36,2.72,1.19,5.1,3.3,6.88,3.84,3.24,9.38,2.88,13.5-1,1.16-1.08,2.13-2.36,3.18-3.55-2.38,1.09-4.48,2.42-6.72,3.42A8.55,8.55,0,0,1-53.18,39,34.62,34.62,0,0,1-56.79,34.6Zm-58.63,32.12c4-4.82,8.62-3.23,13.25-1.71.43-1.67-.58-2.53-1.77-3.07a11.73,11.73,0,0,0-11.31.49C-117.49,63.74-117.41,65.53-115.41,66.72ZM-39.3-53.07l6-9-2.24-2.08-6.84,9Zm-86.9-7.37-.61-1.8-.42,0c0,.53,0,1.06,0,1.58a10.77,10.77,0,0,1-.25,2.86c-.14.42-1.09.51-1.58.88a3,3,0,0,0-1.11,1.29c-.43,1.46-.3,3.3-2.89,2.89,2.53,1.43,2.85,1.41,3.62-.85a2.71,2.71,0,0,1,3-2.05,18.71,18.71,0,0,0,1,1.81c.42.64.84,1.55,1.46,1.75,1.32.44,2,.92.88,2.58,2.08-1.35,2.12-2.34.49-3.28-2-1.17-2.44-2.26-2-4.52a15.48,15.48,0,0,0,0-2.94ZM-24.37-1.77l-.11.67c1.88.24,3.8.83,5.65.65A28.69,28.69,0,0,1-7.76.16a8.37,8.37,0,0,0,4.12,0C-1-.46,1.66-1.43,4.31-2.26A15.37,15.37,0,0,0-.76-1.6a10.49,10.49,0,0,1-7.4,0,11.44,11.44,0,0,0-7-.51C-18.2-1.37-21.23-.46-24.37-1.77Zm-88.56,70.88c1.3-2.39,3.5-2.75,5.75-2.47a63.74,63.74,0,0,1,6.45,1.43,7.06,7.06,0,0,0-1.34-1.76,10.82,10.82,0,0,0-10.12-1.47C-114.49,65.58-114.73,67.18-112.92,69.11Zm3,5c2.62-1,4.89-1.09,7.12.23.3.18.93.27,1.11.1.33-.34.72-1,.6-1.33a3.19,3.19,0,0,0-1.25-1.56,8.25,8.25,0,0,0-6.68-.92,2.66,2.66,0,0,0-1.68,1.46C-110.85,72.66-110.2,73.44-109.91,74.11Zm-1.4-3A6.27,6.27,0,0,1-106,69.63a47.16,47.16,0,0,1,5.51,1.78c.59-.76-.11-1.51-.74-2.13-2-2-7-2.66-9.47-1.4C-112.33,68.69-112.5,69.58-111.32,71.08ZM-74-42.8v9.07a5.59,5.59,0,0,0,1.71,0c.42-.17,1-.61,1-1,.09-2.63,0-5.27,0-8.08ZM50.06,43.44c-1.16-1.69-6.49-1.51-10,.56,1.38,1.61,3.12,2,5.18,1.81S48.92,45.44,50.06,43.44Zm7.45,5.35c0-1.91,0-3.52,0-5.12a1.44,1.44,0,0,0-.72-1c-2.26-1-4.08-.34-5.3,2ZM44.61,40.57c-.66-.66-1.33-1.93-2.16-2a47.33,47.33,0,0,0-6.54-.1C38,41.68,40.51,43.58,44.61,40.57ZM-85.94,13.81l.37.48C-81.64,13-77.7,11.81-73.48,13A38.84,38.84,0,0,0-79,10.88a5.81,5.81,0,0,0-5.23.89A9.84,9.84,0,0,0-85.94,13.81Zm71.43,57.28-2.54,1.16c.46.84,1.28,1.63,1.21,2.33-.23,2.33,1.45,2.2,2.86,2.62l1.4-2.32ZM.72.63c-3.94,1-7.86,1.82-11.88.28a6.83,6.83,0,0,0-3.07,0c-2.53.3-5.05.7-7.58,1.06,1.82.16,3.7.13,5.59.17s4.06-.21,5.92.31C-6.28,3.53-2.82,2.05.72.63ZM-121.94,16.79a2.23,2.23,0,0,0,2.19-2.61A3.38,3.38,0,0,0-122.09,12a3.14,3.14,0,0,0-2.49,1.79C-125.05,15.58-123.78,16.77-121.94,16.79Zm13-4.54c-.49.44-.87.82-1.3,1.13s-1,.63-1.34.84c1.55,3.21,1.54,3.16,3.88,2.92,1.85-.19,1.21-1.78,1.32-2.62C-106.2,12.81-108.27,13.25-109,12.25Zm5.07-3.11,2.68,1.73c2.73-2.1,2.79-2.13,1.71-4.29-.92-1.84-2.37-.12-3.57-.57Zm-27.71,13.57c1.33,1,.82,3.07,3,2.89,1.74-.15,2.26-1,2.49-2.58s-1.17-1.65-2-2.08C-130,20-130,22.32-131.62,22.71Zm27.16,2.5c3.28.14,3.28.14,4.29-2.88l-2.42-1.95C-105.53,22.08-105.53,22.08-104.45,25.21ZM22.91-18.95l4.77-.29,0-.32-7-.47L21-18.48h-7.6l0,.09,10.12,1.8ZM.26,42.07,0,42.46c-1.59,0-2.39.9-1.88,2.15a4.68,4.68,0,0,0,4.24,2.46c1.49-.2,2.19-1.56,1.16-2.67A18.45,18.45,0,0,0,.26,42.07Zm-6,3.15a5.81,5.81,0,0,0,1.82-.55c.57-.41,1.29-1.11,1.28-1.66a2.17,2.17,0,0,0-1.33-1.6,8.8,8.8,0,0,0-3.6,0A2.11,2.11,0,0,0-8.79,43c0,.56.66,1.27,1.21,1.66A5.89,5.89,0,0,0-5.7,45.21Zm4.47-3.58a15.73,15.73,0,0,0,3.07-1.35,2.23,2.23,0,0,0,.86-1.87A2.33,2.33,0,0,0,1,37.09,6,6,0,0,0-2.16,38a2.72,2.72,0,0,0-1,2.23C-3.1,40.78-2,41.15-1.23,41.63Zm33.94-82.3h-.18v8.16L34.27-33v6.76h.34l1.11-9.27-2.46.81ZM-106.12,73.89a13.62,13.62,0,0,0-2.61.64c-.36.17-.49.82-.73,1.25a7.25,7.25,0,0,0,1.44.56c1.34.22,2.69.39,4,.49a6.19,6.19,0,0,0,1.53-.27c-.15-.47-.17-1.2-.49-1.37A29,29,0,0,0-106.12,73.89ZM57.81-61a2,2,0,0,0,1.75-2.15,2,2,0,0,0-2.13-1.95A1.94,1.94,0,0,0,55.58-63,2,2,0,0,0,57.81-61ZM-.25,75.5a2.11,2.11,0,0,0-1.89-2,2.06,2.06,0,0,0-2.12,2,1.84,1.84,0,0,0,1.88,2C-1,77.45-.44,76.73-.25,75.5ZM24.82,42.23l.67-.31c-.33-1.12-.34-2.84-1.06-3.21-1.06-.55-2.62-.14-4-.14l-.12.41ZM14.64,48.6v3.94h3.94C17.87,50.57,16,50,14.64,48.6ZM-18-83.12l7,1.9C-12.4-83.69-14.71-84.3-18-83.12Zm2.37-1.67c-1-2.46-3.41-3.1-7.15-2ZM-103.43,78.5c-1.06-1.37-3.46-2.08-4.75-1.34-.26.15-.24.81-.34,1.24,1.57.19,3.15.4,4.73.56C-103.69,79-103.55,78.65-103.43,78.5ZM-6.2-77.34l.13-.51c-1.38-2-3.44-2.44-6.92-1.35Zm-80,95.13,6.05-3.56C-84.27,14-86.42,15.22-86.24,17.79ZM14.67,38.41c-.11,1.9.1,2.08,1.7,1.67.67-.17,1.35-.3,2-.53.28-.1.48-.41.72-.63-.27-.17-.53-.48-.81-.49C17.11,38.38,15.93,38.41,14.67,38.41ZM.44-36.12c.07,1.9-1.47,4,.54,5.91C2.17-32.5.87-34.28.44-36.12ZM-27-13.5c0,1.94-1.33,4,.45,6.06C-25.14-9.76-26.6-11.59-27-13.5Zm19.3-18.55-.67,0c0,1.56,0,3.12,0,4.68,0,.29.51.55.79.82.19-.34.56-.7.53-1C-7.15-29.05-7.43-30.55-7.67-32.05ZM-22.38-17.3c.89-2.2-.25-4-.66-5.84C-23.68-18.15-23.68-18.15-22.38-17.3ZM-127.67-65.73l-.61,0c-.37.55-1.06,1.12-1,1.63s.82,1,1.27,1.48c.44-.45,1.19-.87,1.23-1.36S-127.36-65.16-127.67-65.73Zm130.36,46-.8-5.74C.64-22.45.85-20.53,2.68-19.77ZM-29.49-24.1l.56-.14-.77-5.51C-31-26.83-30.81-24.93-29.49-24.1ZM-19.24-34c-1.35,3-1.1,5.11.74,5.56ZM21.25,75.25a6.71,6.71,0,0,0-1.75.29,2.34,2.34,0,0,0-1,1.06c-.08.16.24.75.46.8a2.71,2.71,0,0,0,1.4-.1,10.41,10.41,0,0,0,1.54-.81Zm32.38,5.61c-.25,2.08,1.23,1.45,2.11,1.35.41,0,1.15-1,1.05-1.16C55.85,79.08,54.7,81,53.63,80.86ZM-130.22,13.38v7.31h.56C-128.86,18.24-130.05,15.8-130.22,13.38Zm19.48-.86.52.05c1-2.46-.27-4.89-.52-7.33Zm-14.91-73.45c1.74-.64,2.38.4,3.1,1.67.17-.78.28-1.79-.1-2.05A16.44,16.44,0,0,0-126-62.65ZM-12.4,70.57a9.75,9.75,0,0,0,2-.05c.2,0,.46-1,.34-1.06a23.28,23.28,0,0,0-2.38-1.59ZM-119.32,5.87c0,2.41-1.44,4.78-.49,7.11h.49Zm19.37,9c-.19,2.19-1.24,4.41-.5,6.68l.5,0ZM-104.31,8c1.24-2.74,0-5-.34-7.3ZM-108,79.28l-.09.68a2.65,2.65,0,0,0,3.23.45l.08-.66Zm95-15.44-.49-.25-1.12,1.84,1.61.78Z"/><path d="M11.1,95.14H-41.48l4.58-15.47C-35,73.11-33,66.56-31,60a2.47,2.47,0,0,1,1.41-1.43c2.79-.82,5.63-1.42,8.42-2.22,1-.29,1.36-.08,1.55.91a45.09,45.09,0,0,0,1.19,5.19,3.15,3.15,0,0,1-.83,3.61c-1.72,1.61-2.21,3.35-.8,5.48a7.76,7.76,0,0,1-.34,9.73,3.46,3.46,0,0,0-.32,3.45c.89,2.76,1.56,5.6,2.41,8.37a1.8,1.8,0,0,0,1.17,1.12c1.94.12,3.89.05,5.85.05-.23-2.44-.23-2.44,2-3.64A4.73,4.73,0,0,0-7,85.08a6.48,6.48,0,0,1,.44-5.22C-9,78.84-8.75,81-9.71,82.59c-.3-.78-.72-1.3-.63-1.73.51-2.49.86-2.71,3.53-2.87a20.4,20.4,0,0,0,2.52-.51c.29.39.81,1.08,1.34,1.76s1.09,1.16,2,.48A8.34,8.34,0,0,1,.64,79l.63,1.11c-1.57.35-2.5,2.39-4.38,1.13-.53,2.33,0,3.14,1.9,4a4.44,4.44,0,0,1,2,2A21.45,21.45,0,0,1,1.91,91l2.62-.2.19.52a14.84,14.84,0,0,1-3.22.93c-.43,0-1-.87-1.39-1.39a2.41,2.41,0,0,1-.48-1c-.44-2.25-2-2.79-4.16-2.75-.29.52-.65,1.11-.95,1.73C-6.3,90.53-7,92.27-9.34,92.48c-.31,0-.53,1-1,1.81H-5.6c5.1,0,10.2,0,15.29,0a8.1,8.1,0,0,1,1.5.28Z"/><path d="M32.64-19.09c.83,1,1.58,1.93,2.32,2.85a14.2,14.2,0,0,0,2.42,2.57c-1-2.15-1.95-4.27-2.82-6.45a2.12,2.12,0,0,1,.16-1.66c.7-1.15,1.57-2.2,2.38-3.28s1.43-.86,2.11,0,1.35,1.83,2.06,2.71c.89,1.1,1.6,1,2-.3A1.4,1.4,0,0,1,45-23.76a1.24,1.24,0,0,1,1.13,1.63c-.79,4.58.82,8.3,4,11.55a33.31,33.31,0,0,1,3.33,4.39,2.08,2.08,0,0,1,.32,1.6c-.1.3-.88.51-1.37.53-3.67.16-3.67.14-3.67,3.79,0,1.19,0,2.39,0,3.58,0,1-.43,1.49-1.49,1.47-1.9,0-3.8,0-5.7,0-.91,0-1.27-.38-1.26-1.27,0-1.79,0-3.58,0-5.37s-.93-1.8-2.22-1.81S36-3.42,36-1.9c.06,1.73,0,3.47,0,5.21,0,1-.37,1.48-1.43,1.46-1.79,0-3.58-.06-5.37,0-1.21,0-1.68-.46-1.66-1.62,0-1.84,0-3.69,0-5.53.05-1.3-.47-1.78-1.72-1.68a10.38,10.38,0,0,1-2.11,0c-.44-.05-1.16-.27-1.21-.52a2.25,2.25,0,0,1,.33-1.6c2.11-2.88,4.29-5.71,6.44-8.56Z"/><path d="M28,28.37l-1.85,2.85-1-3.24-3.61,2.46,1.25-4.11L17,27.64l4.6-3.86-3-1.59,3.09-1.26-3.81-3.53.14-.31,5,1.37-1-3.43,3.4,1.87.67-5.34.3-.05,1.78,5.07,1.89-2.45.59.35.2,3.18L36.24,15l-3.56,4.87,3.67.51-3,2.23,4.94,2.73-.08.24-5.66-.34,1.59,3.08-3.42-.86.49,5.33-.25.08Zm3.52-5.92a4,4,0,0,0-3.8-4,4.13,4.13,0,0,0-4,4,3.86,3.86,0,0,0,3.85,3.95A3.79,3.79,0,0,0,31.49,22.45Z"/><path d="M49.92,25.23l2.29-2.75c.31,2.84-3.21,4.19-2,7.06l3.24-2.8.33.22a9.83,9.83,0,0,1-1.89,2.62A3.52,3.52,0,0,0,50.23,34l1.93-1.45.39.16a5.71,5.71,0,0,1-.53,1.2c-1,1.27-2.3,2.42-1.51,3.64l3.89,3-.18.42a64.58,64.58,0,0,1-7.06-.1c-.69-.08-1.25-1.32-2.09-2.27l1.6-.26a11.8,11.8,0,0,0-1.58-8.07c-.93-1.44-.69-3.63-1-5.48l.51-.09,1.79,5.7.59-.1a19.43,19.43,0,0,0,.32-4,4.93,4.93,0,0,0-1.48-2.31c-.75-.83-1.62-1.52-.8-2.77L47.18,23l.49-.25a21.26,21.26,0,0,0-1.13-2.92,12.81,12.81,0,0,0-1.81-2.28c-1-1.05-1.55-2.19-1.2-3.35L47.31,19l.34-.13v-5.7l.3,0L48.9,20l1.63-1.49C49.32,20.62,48.76,22.77,49.92,25.23Z"/><path d="M26.56,44.89c.24-1.75.45-3.73.83-5.67.07-.34.81-.75,1.27-.79,3.83-.32,6.62,1.71,9.25,4.28-.13.15-.23.38-.39.44C34,44.32,30.87,47.19,26.56,44.89Z"/><path d="M44.86,47.9c5-2.28,5-2.28,9.6.59a14.58,14.58,0,0,0,1.52.92,2.27,2.27,0,0,1,1.35,3.19c-3,0-6.21,0-9.38,0-.34,0-.77-.51-1-.88C46.25,50.5,45.6,49.25,44.86,47.9Z"/><path d="M21.57,52.52c-.2-1.34,3.08-5.29,4.63-5.62,4-.85,6.37.84,7.8,5.62Z"/><path d="M24.46,43.88c-1,2.6-3.45,3.53-5.58,5-1.87-2-5.51-2.79-4.14-6.84C18.15,40.14,20.07,40.47,24.46,43.88Z"/><path d="M44.13,52.62a10.66,10.66,0,0,0-2.26,0c-4.39,1.12-6.22-1.82-7.94-4.94-.41-.74.36-2,1.34-2.34,2.38-.71,3.75-.21,5.16,1.86Z"/><path d="M-24.37-1.77c3.14,1.3,6.17.39,9.2-.36a11.44,11.44,0,0,1,7,.51,10.49,10.49,0,0,0,7.4,0,15.37,15.37,0,0,1,5.07-.67C1.66-1.43-1-.46-3.64.19a8.37,8.37,0,0,1-4.12,0,28.69,28.69,0,0,0-11.07-.6c-1.84.18-3.76-.41-5.65-.65Z"/><path d="M50.06,43.44c-1.14,2-2.91,2.23-4.85,2.37S41.42,45.62,40,44C43.58,41.94,48.9,41.75,50.06,43.44Z"/><path d="M57.51,48.79l-6.05-4.17c1.22-2.31,3-3,5.3-2a1.44,1.44,0,0,1,.72,1C57.56,45.27,57.51,46.88,57.51,48.79Z"/><path d="M44.61,40.57c-4.1,3-6.65,1.11-8.71-2.15a47.33,47.33,0,0,1,6.54.1C43.28,38.64,43.95,39.91,44.61,40.57Z"/><path d="M.72.63c-3.55,1.42-7,2.9-11,1.78-1.86-.52-3.94-.27-5.92-.31s-3.76,0-5.59-.17c2.52-.36,5-.76,7.58-1.06a6.83,6.83,0,0,1,3.07,0C-7.13,2.45-3.22,1.65.72.63Z"/><path d="M.26,42.07a18.45,18.45,0,0,1,3.25,2.32c1,1.12.33,2.48-1.16,2.67A4.68,4.68,0,0,1-1.9,44.61c-.51-1.25.29-2.17,1.88-2.15ZM-.81,43.26a3.19,3.19,0,0,0,4.29,2.21Z"/><path d="M-1.23,41.63c-.73-.48-1.87-.85-2-1.39a2.72,2.72,0,0,1,1-2.23A6,6,0,0,1,1,37.09,2.33,2.33,0,0,1,2.7,38.42a2.23,2.23,0,0,1-.86,1.87A15.73,15.73,0,0,1-1.23,41.63ZM2,39l-.16-.56c-1.71-.38-3.78.38-4.39,2Z"/><path d="M24.82,42.23,20.35,39l.12-.41c1.35,0,2.9-.41,4,.14.72.37.73,2.09,1.06,3.21Z"/><path d="M14.64,48.6c1.4,1.44,3.23,2,3.94,3.94H14.64Z"/><path d="M14.67,38.41c1.27,0,2.44,0,3.62,0,.28,0,.54.32.81.49-.24.22-.44.53-.72.63-.65.23-1.33.36-2,.53C14.77,40.49,14.56,40.31,14.67,38.41Z"/><path class="cls-5" d="M31.49,22.45a3.79,3.79,0,0,1-4,3.92,3.86,3.86,0,0,1-3.85-3.95,4.13,4.13,0,0,1,4-4A4,4,0,0,1,31.49,22.45Z"/><path class="cls-5" d="M-.81,43.26l4.29,2.21A3.19,3.19,0,0,1-.81,43.26Z"/><path class="cls-5" d="M2,39l-4.55,1.44c.61-1.62,2.68-2.38,4.39-2Z"/></g><g class="cls-11"><path class="cls-5" d="M159.66,96.89H-39.91V-95.85H159.66Zm-53.91-1.76.1-.54a8.1,8.1,0,0,0-1.5-.28c-5.1,0-10.2,0-15.29,0H84.35c.43-.85.66-1.79,1-1.81,2.31-.21,3-2,3.86-3.66.3-.62.66-1.21.95-1.73,2.13,0,3.72.5,4.16,2.75a2.41,2.41,0,0,0,.48,1c.43.52,1,1.42,1.39,1.39a14.84,14.84,0,0,0,3.22-.93l-.19-.52-2.62.2a21.45,21.45,0,0,0-1.1-3.75,4.44,4.44,0,0,0-2-2c-1.92-.82-2.44-1.62-1.9-4,1.88,1.26,2.82-.78,4.38-1.13L95.29,79a8.34,8.34,0,0,0-1.6.71c-.91.67-1.46.18-2-.48s-1-1.37-1.34-1.76a20.4,20.4,0,0,1-2.52.51c-2.67.16-3,.37-3.53,2.87-.09.42.33.95.63,1.73,1-1.56.72-3.76,3.12-2.74a6.48,6.48,0,0,0-.44,5.22,4.73,4.73,0,0,1-2.28,5.57c-2.22,1.2-2.22,1.2-2,3.64-2,0-3.91.07-5.85-.05a1.8,1.8,0,0,1-1.17-1.12c-.85-2.78-1.52-5.61-2.41-8.37a3.46,3.46,0,0,1,.32-3.45,7.76,7.76,0,0,0,.34-9.73c-1.41-2.13-.93-3.87.8-5.48a3.15,3.15,0,0,0,.83-3.61A45.09,45.09,0,0,1,75,57.29c-.19-1-.55-1.2-1.55-.91-2.79.8-5.64,1.4-8.42,2.22A2.47,2.47,0,0,0,63.63,60c-2,6.53-3.93,13.08-5.87,19.63L53.17,95.14ZM7-54.58c-1.14-2.54-2.26-5-3.35-7.49C2.8-64,2-66,1.12-68c-1.69-4-4.9-6.17-8.93-7.34-2.21-.64-2.41-.54-3.24,1.85h-8.49c-1.56-2.83-3.24-3.52-6.56-1.88a20.21,20.21,0,0,0-5.48,3.92c-3.87,4-5.68,9.1-7,14.38-.18.69-.25,1.41-.39,2.19h2.61c-.08-2.08,1.61-2.66,3.21-3.41l-3.53-2.15.74-2,1,.3a9.32,9.32,0,0,1-.21-3c.12-.49,1.25-1,2-1,1.34-.07,1.64,1.07,2,2.13a1.85,1.85,0,0,0,1.29,1c1.63.12,2.72.7,2.92,2.45.05.46.18.92.31,1.53l-2.51.82-.34,3.44c3.46-2.16,5.37-4.73,5.59-8.34.09-1.49.47-2.54,2-3.09a3.46,3.46,0,0,0,2.17-3.16c.08-.64.18-1.28.31-1.92.26-1.32,1-2,2.25-1.77a10.42,10.42,0,0,0-.89,2.66A5.59,5.59,0,0,1-21-65.48a2.86,2.86,0,0,0-1.33,1.79c-.44,4.26-1.69,8-5.93,10.09l1.37-.15c.08,1.32.82,1.51,1.85,1.32.56-.1,1.49-.42,1.62-.23,1.08,1.63,2.43,1.07,3.68.7.89,1.67,2.48,1.46,3.83,1.31,2.27-.24,1.58-2.44,2.23-3.94ZM127.29-19.09,124-14.75c-2.16,2.85-4.33,5.68-6.44,8.56a2.25,2.25,0,0,0-.33,1.6c0,.25.77.47,1.21.52a10.38,10.38,0,0,0,2.11,0c1.25-.1,1.78.38,1.72,1.68-.08,1.84,0,3.69,0,5.53,0,1.16.45,1.66,1.66,1.62,1.79-.07,3.58-.05,5.37,0,1.06,0,1.46-.42,1.43-1.46,0-1.74,0-3.47,0-5.21-.05-1.52.78-1.79,2.06-1.79s2.27.16,2.22,1.81,0,3.58,0,5.37c0,.89.35,1.28,1.26,1.27,1.9,0,3.8,0,5.7,0,1.06,0,1.48-.49,1.49-1.47,0-1.19,0-2.39,0-3.58,0-3.64,0-3.63,3.67-3.79.49,0,1.27-.23,1.37-.53a2.08,2.08,0,0,0-.32-1.6,33.31,33.31,0,0,0-3.33-4.39c-3.16-3.26-4.77-7-4-11.55a1.24,1.24,0,0,0-1.13-1.63A1.4,1.4,0,0,0,138-22.64c-.44,1.33-1.15,1.4-2,.3-.72-.88-1.36-1.82-2.06-2.71s-1.41-.94-2.11,0-1.68,2.13-2.38,3.28a2.12,2.12,0,0,0-.16,1.66c.87,2.18,1.87,4.3,2.82,6.45a14.2,14.2,0,0,1-2.42-2.57C128.87-17.16,128.12-18.08,127.29-19.09ZM-18.88-25.94c-4.54-1.6-8.95,2.31-9,5.55,0,1.53-.18,2.76-1.63,3.68a3.85,3.85,0,0,0-1.18,2.07c-1,3.19.89,6.21,3.72,6.24a4.38,4.38,0,0,1,2.18.58c3.76,2.37,7.54,3,11.55.61a1.85,1.85,0,0,1,1.52.12c4,2.15,8.61,1,10.14-3.31,2.62-.33,3.92-1.45,4.26-3.65.43-2.82-.33-4.5-2.55-5.56,0-.19.11-.38.14-.58.74-4.6-1-9.42-7-8.93a4.66,4.66,0,0,1-2.48-.58C-13.15-31.93-18.12-30.1-18.88-25.94Zm149.56-43c.48,2.44.21,5.09,2.31,7a2.5,2.5,0,0,1,.72,1.25c.77,3.73,2.68,6.47,6.44,7.74.39.13.6.78.9,1.19a4.72,4.72,0,0,1-1.66.77,2.38,2.38,0,0,1-1.54-.75c-1.71-1.77-3.62-3.39-4-6.12a4.39,4.39,0,0,0-1.28-2.73c-2.18-1.72-2.82-4-2.85-6.55a1.35,1.35,0,0,0-.14-.79,10.47,10.47,0,0,0-1.15-1l-.37.35c.84,2.44,1.06,4.82-.31,7.18a3.09,3.09,0,0,0-.25,2,22.56,22.56,0,0,0,1.18,3.67c.71,1.76.35,3.57-1.15,4.42-.4.23-1.51.08-1.61-.18-.39-1-1-2.36-.62-3,1.08-1.65.67-3.33.82-5,.12-1.33.57-2.64.65-4a48.69,48.69,0,0,0-.06-4.94c0-.17-.33-.43-.53-.46s-.63.12-.66.26c-.25,1.15-.8,2.4-.56,3.46a2.66,2.66,0,0,1-1.21,3,7.55,7.55,0,0,0-2.82,5,9.76,9.76,0,0,1-3.13,5.71c-.68.65-2,.69-3,.87-.28,0-.84-.41-.91-.72s.37-.69.68-.93A18.07,18.07,0,0,1,117.1-54a6.69,6.69,0,0,0,3.57-4.91,5.08,5.08,0,0,1,1-2.51c2.09-2.07,2.27-4.72,2.57-7.36-1.38-.43-2.14.07-2.71,1.42a50.47,50.47,0,0,1-9.4,14.66c-1.51,1.64-3,3.31-4.27,4.75h37.27c-.78,1.18-2.8.84-2.37,2.72.26,1.13.69,2.06,2.1,2.19l-.64-2.44c3.19-1.15,3.19-1.15,4.7-4.07a3.45,3.45,0,0,1,.54-1c.35-.32.84-.74,1.23-.7,1.39.13,2.76.37,3.15,2.14a6.77,6.77,0,0,0,1.05,2.35c.31.45,1,1,1.47.91a15.27,15.27,0,0,0,2.89-1.08l.17-.55c-3.13,1-3.55-1-3.92-3a3.18,3.18,0,0,0-2.78-2.92,1.67,1.67,0,0,1-1.56-1.88c0-.64-.1-1.28-.17-2,1.84,1.4,3-.23,4.37-.9.16-.08,0-.76,0-1.33a13.72,13.72,0,0,0-1.71.79c-1.12.74-1.78.13-2.41-.71-.49-.64-1-1.25-1.28-1.59a15.07,15.07,0,0,1-2.8.67c-3.14.06-2.46.29-3.22,2.77-.29,1-.25,1,.93,1.31.7-1.13.44-3.44,2.52-2.54a29.54,29.54,0,0,0-.21,4c.17,2.1,1.19,4.26-.9,6.11-1-1-2.2-2-3.24-3.07a53.64,53.64,0,0,1-10.45-16.09C132.26-68.75,131.91-69.49,130.68-68.94ZM45.26-13.13,33.51-30.81,26.74-20.19l-5.06-4.23L9.35-4.3H49.74L48.59-6.24c2-.23,3.56-1,3.92-3.08.3-1.73-1.33-4.4-3.08-5.36S46.58-14.78,45.26-13.13Zm93.08-63.41c1.29.28,2.7.8,3.68-.56s.6-2.88-.25-4.23c-.37-.59-.91-1.07-1.28-1.66a1.51,1.51,0,0,1-.26-1.08c1.16-3.78-1.13-7.18-5.13-7.18a27.7,27.7,0,0,0-5.28.94c-1.19-.46-2.26-1.24-3.28-1.18s-2.09.92-3.3,1.51c-1.52-1.27-3.51-2-5.66-.64-1.93,1.22-2.38,3-1.27,5.2-.69,0-1.17-.08-1.66-.07a7.21,7.21,0,0,0-1.46.11c-1.56.35-2,1.56-.89,2.75a18.07,18.07,0,0,0,1.76,1.53c-2.42,2.8-2,4.47,1.5,5.1a37,37,0,0,0,6.27.17c.72,0,1.45-.09,2.22-.14-.06,1.63,0,3.09-2.15,3.44.82.85,1.61,1.86,2.54,2a42,42,0,0,0,5.91.08c-.56-2.48-1.64-5,1-6.87C133.47-74,136-73.72,138.34-76.55ZM30.54-58.91l.17-.38A26.67,26.67,0,0,1,22-72.58,31.69,31.69,0,0,1,12.46-59H17a15.82,15.82,0,0,1-6.77,8.28l.08.43L17.73-51A73.34,73.34,0,0,1,7.64-41.34c3.53-.32,7-1,10.44-1.29,1.85-.17,3.34-1.38,5.6-.7,4.11,1.24,8.5,1.57,12.78,2.28l.1-.45c-3.63-2.87-7.31-5.69-10.19-9.52l7.36.76c-3.83-3.13-6.41-6.57-6.15-8.63ZM60-68.37c-.13,2.24.42,4,2.48,5.11s3.81.22,5.52-.88c.23.49.4.89.61,1.27a4.47,4.47,0,0,0,5.8,2.09,4.51,4.51,0,0,0,2.44-5.56c-.76-2-1.77-4-2.58-5.78.45-.5,1.36-1.08,1.3-1.54a13.86,13.86,0,0,0-1-3c0-1.46.51-3,0-3.81s-2.1-1.12-3.21-1.65c.25-.35.66-.85,1-1.39.5-.83.23-1.44-.64-1.79a4.2,4.2,0,0,0-4.85,1.62c-.28.42-.57.83-.82,1.19l-1.37-2.52a10.31,10.31,0,0,0-2.71,1.91,40.37,40.37,0,0,0-2.65,4.75l-1.93-1.75c-1.73,2.87-1.57,5.71-1,8.52C56.85-69,57.33-68.73,60-68.37ZM89.28-48.09c0-1.1,0-2.12,0-3.14,0-3.52,0-3.52,3.46-3.83,1.24-.11,1.52-.63.81-1.69a27.2,27.2,0,0,0-1.79-2.31C89-62.36,86-65.53,87-70.46c.09-.43-.66-1-1-1.55-.5.37-1.19.63-1.45,1.12-.52,1-1,1-1.72.31s-1.35-1.7-2.09-2.48a1.58,1.58,0,0,0-1.2-.53c-1.78.53-2.89,3.89-1.89,5.55a5.77,5.77,0,0,1-3.74,8.84c-1.6.28-3.37-.37-5.36-.64-.25.31-.83,1-1.32,1.66s-1,1.7-1.52,2.55l2.88.59h.16c1.33-.08,1.83.55,1.78,1.87-.08,1.71,0,3.42,0,5.09h7.48c0-1.6.09-3.12,0-4.62s.44-1.88,1.84-1.91,2,.49,1.95,2,0,3,0,4.56ZM-18.48,44.83h3c3.8,0,3.8,0,3.8-3.75,0-3,0-2.93,2.88-3.22a2,2,0,0,0,1.32-.68c.14-.21-.23-.87-.5-1.24-1-1.39-2.1-2.75-3.15-4.12q-3.86-5-7.72-10c-1.21-1.56-1.52-1.55-2.75-.06-.63.77-1.29,1.52-2.09,2.47a7.27,7.27,0,0,0-.9-1.42,2,2,0,0,0-1.27-.65c-.32,0-.71.58-.85,1a3.06,3.06,0,0,0,0,1.45,7.94,7.94,0,0,1-2.4,7,27.8,27.8,0,0,0-2.59,3.32A20.14,20.14,0,0,0-33,37.42a14.32,14.32,0,0,0,2.62.44c1.22,0,1.63.43,1.56,1.63a30.56,30.56,0,0,0,0,4.06c0,.43.45,1.18.72,1.19,1.89.08,3.78,0,5.67,0,.13-1.41.27-2.83.4-4.24a3.18,3.18,0,0,0,0-.65c-.16-1.39.63-1.56,1.78-1.59s1.8.37,1.76,1.64C-18.52,41.43-18.48,43-18.48,44.83ZM-32.4,92.62a14.2,14.2,0,0,0,0,2.43c.07.43.55,1.1.86,1.11,1.88,0,3.75-.08,5.63-.15q.15-2.16.3-4.31a1.87,1.87,0,0,0,0-.32c-.15-1.4.47-1.93,1.88-1.92s1.74.77,1.67,2c0,.86,0,1.73,0,2.6,0,2.2,0,2.2,2.24,2.2,4.6,0,4.6,0,4.59-4.66,0-2.44,0-2.42,2.49-2.48a8,8,0,0,0,1.65-.4A7,7,0,0,0-11.75,87c-3.24-4.26-6.54-8.47-9.79-12.72-2.62-3.43-2.08-3.11-4.54,0-.9,1.15-1.26,1.1-2.07-.12a1.57,1.57,0,0,0-1.23-.67,1.5,1.5,0,0,0-.83,1.11c-.12,1.07.1,2.19-.09,3.24a8.49,8.49,0,0,1-1.12,3.21c-1.44,2.15-3.11,4.15-4.65,6.23a5.75,5.75,0,0,0-.54,1.27,5.4,5.4,0,0,0,1.43.5c2.77.14,2.77.12,2.77,2.87C-32.4,92.18-32.4,92.4-32.4,92.62ZM22.93,16.47l-2.52,3c-.56.67-1.31.95-1.6,0s-.9-1.3-1.62-1a1.84,1.84,0,0,0-.67,1.56,9.19,9.19,0,0,1-2.94,8.31,18.22,18.22,0,0,0-2.17,2.82,20.92,20.92,0,0,0-1.11,2.06,10.79,10.79,0,0,0,2.42.47c1.36,0,1.86.48,1.77,1.82s0,2.49,0,3.74.46,1.57,1.54,1.55a29.59,29.59,0,0,0,3.89-.08,2,2,0,0,0,1.32-1.35,18.15,18.15,0,0,0,0-3.89c-.08-1.3.7-1.38,1.64-1.39s1.73.15,1.67,1.4,0,2.5,0,3.74.38,1.6,1.5,1.57,2.49,0,3.74,0c1.09,0,1.59-.46,1.57-1.56,0-1.41,0-2.82,0-4.23,0-.93.4-1.28,1.25-1.29a9.21,9.21,0,0,0,1.46,0,9.75,9.75,0,0,0,1.44-.47,6.34,6.34,0,0,0-.61-1.4q-3.67-4.85-7.4-9.65C26,20.37,24.56,18.54,22.93,16.47ZM93,28A12.31,12.31,0,0,0,80,16.19,12.44,12.44,0,0,0,68.48,30C69,36,75.13,41.3,81.56,40.88A12.38,12.38,0,0,0,93,28ZM30.12-63.27c5.57-2.36,7.77-9.09,5.88-12.58L32.8-72.33l-.43-.32c2.13-2.66,2.54-5.46.65-8.35-1.4-2.15-2.92-4.24-4.6-6.65L27.16-82c-2.87-3.66-2.59-7.77-1.6-12.24-5,3.62-9,7.55-8.87,14.27l-2.11-3.73c-5.2,6.48-5.1,16,.31,20.35a9.6,9.6,0,0,1,2.42-9.42c1.92-2.11,4.15-3.93,6.24-5.87C27.49-74.54,31.64-68.53,30.12-63.27ZM19.13,78.5c-1.56-3.93-.33-6.84,2.06-9.3,2-2.07,4.28-3.9,6.68-6.06,2,2.52,4,4.81,5.63,7.32C35,72.68,36,75.14,34.56,78,39.55,76,43,71.4,41,65.91c-1.94,2.78-2.09,2.9-3.61,3.1,2.34-2.75,2.39-5.32.18-8-1.44-1.76-2.84-3.54-4.26-5.33-1.34,1.13-1.27,3-1.29,5.21-3.32-3.57-2.88-7.45-2-11.61-4.9,3.26-9.36,6.5-9.26,13.22L18.46,59C12.56,65.44,12.88,71.28,19.13,78.5Zm9.38,10.75c0,1.46,0,3,0,4.49,0,1.06.36,1.61,1.53,1.54a30.43,30.43,0,0,1,3.57,0c1.1.06,1.42-.43,1.37-1.45-.06-1.19,0-2.39,0-3.57s.52-1.77,1.74-1.68a3.09,3.09,0,0,0,1,0A14.19,14.19,0,0,0,39.11,88a5.62,5.62,0,0,0-.55-1.27C35,82.16,31.48,77.6,28,73c-.71-.94-1.25-1.1-1.95,0-.42.63-.91,1.21-1.37,1.8-.61.79-1.12.87-1.74-.07-.28-.42-.91-.6-1.39-.9a7.21,7.21,0,0,0-.6,1.45,5.71,5.71,0,0,0,0,1.78,5.5,5.5,0,0,1-1.52,4.58c-1.45,1.67-2.76,3.46-4.11,5.22-.81,1.06-.6,1.59.62,1.73C19,88.94,19,88.94,19,92q0,.41,0,.81c0,2.45,0,2.45,2.46,2.45,3.91,0,3.91,0,3.91-4C25.33,88.77,25.81,88.44,28.52,89.25Zm103.06.44c2.19.26,4.11.56,6,.67a1.61,1.61,0,0,0,1.16-1,43,43,0,0,0,.68-5c.1-1.2.68-1.62,1.81-1.5A17.12,17.12,0,0,0,143,83c.49,0,1-.08,1.48-.13a6.74,6.74,0,0,0-.45-1.43c-3.06-5.28-6.15-10.54-9.23-15.81-2-3.48-2-3.48-4.83-.74-1.35,1.31-2,1.16-2.74-.57a1.52,1.52,0,0,0-1-.78c-.23,0-.64.56-.76.94-.19.61-.13,1.29-.32,1.91-.49,1.6.2,3.51-1.4,4.83-.45.37-1,1.3-.82,1.61.68,1.24.56,3.3,2.42,3.47A2.8,2.8,0,0,1,128.24,79a3.6,3.6,0,0,0,.52,1.51,3,3,0,0,0,1.38,1.24c2.25.6,2.49.89,2.12,3.21C132,86.45,131.83,87.93,131.58,89.69ZM92.26-4.7c0-1.12.06-1.77,0-2.4-.17-1.4.35-2.06,1.81-1.86a2.59,2.59,0,0,0,1,0c.49-.13,1.2-.23,1.36-.56s-.16-1-.45-1.39q-4.87-6.39-9.8-12.74c-2.24-2.88-2.26-2.87-4.65-.05l-.11.12c-.73.84-1.31,1.11-1.87-.22a1.62,1.62,0,0,0-1.34-.67c-.31,0-.78.68-.82,1.09a15.19,15.19,0,0,0,0,3.25,4.36,4.36,0,0,1-1.17,3.39c-1.34,1.63-2.64,3.3-3.86,5a14.11,14.11,0,0,0-1.11,2.34A12.43,12.43,0,0,0,73.66-9c1.24,0,1.84.33,1.7,1.66-.08.84,0,1.7,0,2.59l6.77-1.43c.19-1.08-.48-2.52,1.71-2.51,2.52,0,1.26,1.86,1.91,3.19ZM45.57,17.07c-2-1.62-4.75-1-5.31,1.2A13.09,13.09,0,0,0,40,23.07c.41,3.15,1.08,6.26,1.64,9.34a16.49,16.49,0,0,1-5.05-7.94c-.83-2.89-1.39-5.86-2-8.81a15.32,15.32,0,0,0-4-8c-1.57-1.61-3.94-2.28-5.42-1.57-1.24.6-1.39,1.42-.38,2.37s2,1.65,2.92,2.57c3,3,4.44,6.84,5.89,10.69,1.88,5,3.58,10.06,6.7,14.49,2.18,3.11,5,4.84,8.84,4a16.76,16.76,0,0,0,7.62-4.48c-1.36.2-2.46.46-3.57.51-3.43.15-5.79-.76-6.63-3.41A3.6,3.6,0,0,1,47,29.87c.44-.54,1.8-.38,2.75-.41.52,0,1,.34,1.56.32a1.65,1.65,0,0,0,1.23-.52A1.45,1.45,0,0,0,52.28,28a4.24,4.24,0,0,0-4-1.68,3.23,3.23,0,0,0-3.18,2.76,40.87,40.87,0,0,0,0,5.09c-1.82-1.61-2.17-3.83-2.5-6C41.93,24.13,42.16,20.19,45.57,17.07Zm-76.83-56a4.21,4.21,0,0,0-5.46,4,3,3,0,0,1-.83,1.57c-1.52,1.66-1.33,4.18.5,5a21,21,0,0,0,4.65,1.59,9.57,9.57,0,0,0,4-.35,2.61,2.61,0,0,1,2,0,4,4,0,0,0,5.44-1.61,2,2,0,0,1,1-.63c1.86-.68,2.74-3.36,1.34-4.79a3.27,3.27,0,0,1-.83-2.6c-.05-2.58-1.48-3.95-4.06-4a5.48,5.48,0,0,1-2-.45C-28.07-42.4-30.27-41.58-31.27-38.94Zm80-5.6h49v-2.84H55.1v-4.32l-2-.67-1.85,1.08v3.9l-2.52.17Zm73.94,72.91,2.95,4.5.25-.08-.49-5.33,3.42.86-1.59-3.08,5.66.34.08-.24L128,22.6l3-2.23-3.67-.51L130.89,15l-5.34,2.67-.2-3.18-.59-.35-1.89,2.45-1.78-5.07-.3.05-.67,5.34L116.71,15l1,3.43-5-1.37-.14.31,3.81,3.53-3.09,1.26,3,1.59-4.6,3.86,5.82-1.31-1.25,4.11L119.81,28l1,3.24Zm-11-70.42c-1,1.47-2,2.82-2.93,4.1A1.25,1.25,0,0,0,108.8-36c3.59,3.75,7.12,7.55,10.76,11.42l1.89-3.15,7.35,9.3.26-.18-6.92-15.66-2.65,3.95Zm32.93,67.28c-1.16-2.46-.6-4.6.6-6.71L143.55,20l-.95-6.88-.3,0v5.7L142,19l-3.77-4.8c-.35,1.16.24,2.29,1.2,3.35a12.81,12.81,0,0,1,1.81,2.28,21.26,21.26,0,0,1,1.13,2.92l-.49.25-2.1-1.82c-.82,1.24,0,1.94.8,2.77A4.93,4.93,0,0,1,142,26.22a19.43,19.43,0,0,1-.32,4l-.59.1-1.79-5.7-.51.09c.29,1.85,0,4,1,5.48a11.8,11.8,0,0,1,1.58,8.07l-1.6.26c.83.95,1.39,2.19,2.09,2.27a64.58,64.58,0,0,0,7.06.1l.18-.42-3.89-3c-.79-1.22.55-2.36,1.51-3.64a5.71,5.71,0,0,0,.53-1.2l-.39-.16L144.88,34a3.52,3.52,0,0,1,1.63-4.38A9.83,9.83,0,0,0,148.4,27l-.33-.22-3.24,2.8c-1.17-2.87,2.35-4.22,2-7.06ZM136,91.38c-8.12-2.2-16.29-.9-24.43-1.41v5.08c6.52-.14,13,.55,19.34-1.27l.18-1.35Zm-7.72-9.92.44,0c-.56-.91-1.07-1.86-1.72-2.71a1.79,1.79,0,0,0-1.28-.74c-2.18.26-3.43-.81-4.28-2.65a10.34,10.34,0,0,0-.89-1.28c-1.39,1.46-2.7,2.81-4,4.2-.67.73-.58,1.24.52,1.35.7.07,1.38.2,2.08.29,1.23.16,1.83.77,1.58,2.08-.21,1.11-.37,2.23-.51,3.35C120,88,120,88,122.61,88.52a12.93,12.93,0,0,0,1.43.23c3.15.22,3.09.21,3.41-3A39.82,39.82,0,0,1,128.32,81.47ZM-24.5,61.15a13.09,13.09,0,0,1,1.76-2,14.36,14.36,0,0,1,10.21-2.82c2.39.21,4.88.67,6,3.36,2.5-2.18,2.22-4.53-.72-6a8,8,0,0,0-1.06-.41,13.77,13.77,0,0,0-8.31-.14,30.31,30.31,0,0,0-6.58,2.92C-25,57.15-26.12,59.62-24.5,61.15ZM31.78,19.07c-2.26-4.73-5-9.12-9.87-11.73a9.32,9.32,0,0,0-8.7-.47c-.55.26-.9.95-1.34,1.44a6.22,6.22,0,0,0,1.68,1,28.76,28.76,0,0,1,10.38,3.86C26.66,14.93,29.16,17.07,31.78,19.07ZM135.45,94.82H153.4V89.77c-2.37,0-4.63,0-6.9,0-1.22,0-2.28.11-2.5,1.64a.89.89,0,0,1-.65.56C140.44,91.89,138.33,94,135.45,94.82ZM121.21,44.89c4.31,2.3,7.47-.57,11-1.75.16-.05.26-.29.39-.44-2.63-2.56-5.41-4.6-9.25-4.28-.46,0-1.21.45-1.27.79C121.65,41.16,121.44,43.14,121.21,44.89Zm18.31,3c.74,1.35,1.38,2.59,2.1,3.79.22.37.65.87,1,.88,3.17.07,6.34,0,9.38,0a2.27,2.27,0,0,0-1.35-3.19,14.58,14.58,0,0,1-1.52-.92C144.54,45.62,144.54,45.62,139.51,47.9Zm-23.29,4.62h12.43c-1.43-4.78-3.81-6.47-7.8-5.62C119.3,47.23,116,51.18,116.22,52.52Zm2.89-8.64c-4.39-3.41-6.31-3.75-9.72-1.81-1.37,4,2.28,4.83,4.14,6.84C115.66,47.41,118.13,46.48,119.11,43.89ZM-7.81,61.82c1-1.84.53-3-1.47-4-3.63-1.71-10.33-.69-13.28,2-1.35,1.25-1.47,2.58-.34,3.91C-20.11,59.71-14.15,58.93-7.81,61.82Zm113-65.24,0-.39c-1.25-.29-2.51-.52-3.74-.88a17.11,17.11,0,0,0-8.29-.2,30.23,30.23,0,0,1-6.34.06,69.71,69.71,0,0,0-7-.21C77-4.83,74.36-4,71.65-3.78c-1.5.11-3.07-.54-5-.93,3.46,2.12,6.67,2.83,10.21,1.56a12.66,12.66,0,0,1,9.33-.12,9.62,9.62,0,0,0,7.68,0,12.32,12.32,0,0,1,7.29-.47A34.53,34.53,0,0,0,105.17-3.42Zm33.6,56-3.69-5.4c-1.42-2.08-2.78-2.57-5.16-1.86-1,.29-1.75,1.59-1.34,2.34,1.72,3.13,3.55,6.06,7.94,4.94A10.66,10.66,0,0,1,138.78,52.62ZM37.86,34.6c.36,2.72,1.19,5.1,3.3,6.88,3.84,3.24,9.38,2.88,13.5-1,1.16-1.08,2.13-2.36,3.18-3.55-2.38,1.09-4.48,2.42-6.72,3.42A8.55,8.55,0,0,1,41.47,39,34.62,34.62,0,0,1,37.86,34.6ZM-20.76,66.72c4-4.82,8.62-3.23,13.25-1.71.43-1.67-.58-2.53-1.77-3.07a11.73,11.73,0,0,0-11.31.49C-22.84,63.74-22.76,65.53-20.76,66.72ZM55.35-53.07l6-9-2.24-2.08-6.84,9Zm-86.9-7.37-.61-1.8-.42,0c0,.53,0,1.06,0,1.58a10.77,10.77,0,0,1-.25,2.86c-.14.42-1.09.51-1.58.88a3,3,0,0,0-1.11,1.29c-.43,1.46-.3,3.3-2.89,2.89,2.53,1.43,2.85,1.41,3.62-.85a2.71,2.71,0,0,1,3-2.05,18.71,18.71,0,0,0,1,1.81c.42.64.84,1.55,1.46,1.75,1.32.44,2,.92.88,2.58,2.08-1.35,2.12-2.34.49-3.28-2-1.17-2.44-2.26-2-4.52a15.48,15.48,0,0,0,0-2.94ZM70.28-1.77l-.11.67c1.88.24,3.8.83,5.65.65a28.69,28.69,0,0,1,11.07.6A8.37,8.37,0,0,0,91,.19C93.7-.46,96.31-1.43,99-2.26a15.37,15.37,0,0,0-5.07.67,10.49,10.49,0,0,1-7.4,0,11.44,11.44,0,0,0-7-.51C76.45-1.37,73.42-.46,70.28-1.77ZM-18.27,69.11c1.3-2.39,3.5-2.75,5.75-2.47a63.74,63.74,0,0,1,6.45,1.43,7.06,7.06,0,0,0-1.34-1.76,10.82,10.82,0,0,0-10.12-1.47C-19.84,65.58-20.08,67.18-18.27,69.11Zm3,5c2.62-1,4.89-1.09,7.12.23.3.18.93.27,1.11.1.33-.34.72-1,.6-1.33a3.19,3.19,0,0,0-1.25-1.56,8.25,8.25,0,0,0-6.68-.92,2.66,2.66,0,0,0-1.68,1.46C-16.2,72.66-15.55,73.44-15.26,74.11Zm-1.4-3a6.27,6.27,0,0,1,5.27-1.45,47.16,47.16,0,0,1,5.51,1.78c.59-.76-.11-1.51-.74-2.13-2-2-7-2.66-9.47-1.4C-17.68,68.69-17.85,69.58-16.67,71.08ZM20.65-42.8v9.07a5.59,5.59,0,0,0,1.71,0c.42-.17,1-.61,1-1,.09-2.63,0-5.27,0-8.08ZM144.71,43.44c-1.16-1.69-6.49-1.51-10,.56,1.38,1.61,3.12,2,5.18,1.81S143.57,45.44,144.71,43.44Zm7.45,5.35c0-1.91,0-3.52,0-5.12a1.44,1.44,0,0,0-.72-1c-2.26-1-4.08-.34-5.3,2Zm-12.91-8.22c-.66-.66-1.33-1.93-2.16-2a47.33,47.33,0,0,0-6.54-.1C132.61,41.68,135.16,43.58,139.26,40.57ZM8.71,13.81l.37.48C13,13,17,11.81,21.17,13a38.84,38.84,0,0,0-5.54-2.11,5.81,5.81,0,0,0-5.23.89A9.84,9.84,0,0,0,8.71,13.81ZM80.13,71.09l-2.54,1.16c.46.84,1.28,1.63,1.21,2.33-.23,2.33,1.45,2.2,2.86,2.62l1.4-2.32ZM95.37.63c-3.94,1-7.86,1.82-11.88.28a6.83,6.83,0,0,0-3.07,0c-2.53.3-5.05.7-7.58,1.06,1.82.16,3.7.13,5.59.17s4.06-.21,5.92.31C88.37,3.53,91.83,2.05,95.37.63ZM-27.29,16.79a2.23,2.23,0,0,0,2.19-2.61A3.38,3.38,0,0,0-27.44,12a3.14,3.14,0,0,0-2.49,1.79C-30.4,15.58-29.13,16.77-27.29,16.79Zm13-4.54c-.49.44-.87.82-1.3,1.13s-1,.63-1.34.84c1.55,3.21,1.54,3.16,3.88,2.92,1.85-.19,1.21-1.78,1.32-2.62C-11.55,12.81-13.62,13.25-14.34,12.25Zm5.07-3.11,2.68,1.73c2.73-2.1,2.79-2.13,1.71-4.29C-5.79,4.74-7.24,6.46-8.44,6ZM-37,22.71c1.33,1,.82,3.07,3,2.89,1.74-.15,2.26-1,2.49-2.58s-1.17-1.65-2-2.08C-35.3,20-35.37,22.32-37,22.71Zm27.16,2.5c3.28.14,3.28.14,4.29-2.88l-2.42-1.95C-10.88,22.08-10.88,22.08-9.8,25.21ZM117.56-18.95l4.77-.29,0-.32-7-.47.28,1.55H108l0,.09,10.12,1.8Zm-22.66,61-.27.39c-1.59,0-2.39.9-1.88,2.15A4.68,4.68,0,0,0,97,47.06c1.49-.2,2.19-1.56,1.16-2.67A18.45,18.45,0,0,0,94.91,42.07Zm-6,3.15a5.81,5.81,0,0,0,1.82-.55c.57-.41,1.29-1.11,1.28-1.66a2.17,2.17,0,0,0-1.33-1.6,8.8,8.8,0,0,0-3.6,0A2.11,2.11,0,0,0,85.86,43c0,.56.66,1.27,1.21,1.66A5.89,5.89,0,0,0,89,45.21Zm4.47-3.58a15.73,15.73,0,0,0,3.07-1.35,2.23,2.23,0,0,0,.86-1.87,2.33,2.33,0,0,0-1.73-1.32,6,6,0,0,0-3.13.92,2.72,2.72,0,0,0-1,2.23C91.55,40.78,92.7,41.15,93.42,41.63Zm33.94-82.3h-.18v8.16l1.73-.55v6.76h.34l1.11-9.27-2.46.81ZM-11.47,73.89a13.62,13.62,0,0,0-2.61.64c-.36.17-.49.82-.73,1.25a7.25,7.25,0,0,0,1.44.56c1.34.22,2.69.39,4,.49a6.19,6.19,0,0,0,1.53-.27c-.15-.47-.17-1.2-.49-1.37A29,29,0,0,0-11.47,73.89ZM152.46-61a2,2,0,0,0,1.75-2.15,2,2,0,0,0-2.13-1.95A1.94,1.94,0,0,0,150.23-63,2,2,0,0,0,152.46-61ZM94.4,75.5a2.11,2.11,0,0,0-1.89-2,2.06,2.06,0,0,0-2.12,2,1.84,1.84,0,0,0,1.88,2C93.61,77.45,94.21,76.73,94.4,75.5Zm25.07-33.28.67-.31c-.33-1.12-.34-2.84-1.06-3.21-1.06-.55-2.62-.14-4-.14L115,39ZM109.29,48.6v3.94h3.94C112.52,50.57,110.68,50,109.29,48.6ZM76.61-83.12l7,1.9C82.25-83.69,79.94-84.3,76.61-83.12ZM79-84.78c-1-2.46-3.41-3.1-7.15-2ZM-8.78,78.5c-1.06-1.37-3.46-2.08-4.75-1.34-.26.15-.24.81-.34,1.24,1.57.19,3.15.4,4.73.56C-9,79-8.9,78.65-8.78,78.5ZM88.45-77.34l.13-.51c-1.38-2-3.44-2.44-6.92-1.35Zm-80,95.13,6.05-3.56C10.38,14,8.23,15.22,8.41,17.79ZM109.32,38.41c-.11,1.9.1,2.08,1.7,1.67.67-.17,1.35-.3,2-.53.28-.1.48-.41.72-.63-.27-.17-.53-.48-.81-.49C111.76,38.38,110.58,38.41,109.32,38.41ZM95.09-36.12c.07,1.9-1.47,4,.54,5.91C96.82-32.5,95.52-34.28,95.09-36.12ZM67.68-13.5c0,1.94-1.33,4,.45,6.06C69.51-9.76,68-11.59,67.68-13.5ZM87-32.05l-.67,0c0,1.56,0,3.12,0,4.68,0,.29.51.55.79.82.19-.34.56-.7.53-1C87.5-29.05,87.22-30.55,87-32.05ZM72.27-17.3c.89-2.2-.25-4-.66-5.84C71-18.15,71-18.15,72.27-17.3ZM-33-65.73l-.61,0c-.37.55-1.06,1.12-1,1.63s.82,1,1.27,1.48c.44-.45,1.19-.87,1.23-1.36S-32.71-65.16-33-65.73Zm130.36,46-.8-5.74C95.29-22.45,95.5-20.53,97.33-19.77ZM65.16-24.1l.56-.14L65-29.75C63.67-26.83,63.84-24.93,65.16-24.1ZM75.41-34c-1.35,3-1.1,5.11.74,5.56ZM115.9,75.25a6.71,6.71,0,0,0-1.75.29,2.34,2.34,0,0,0-1,1.06c-.08.16.24.75.46.8a2.71,2.71,0,0,0,1.4-.1,10.41,10.41,0,0,0,1.54-.81Zm32.38,5.61c-.25,2.08,1.23,1.45,2.11,1.35.41,0,1.15-1,1.05-1.16C150.5,79.08,149.35,81,148.28,80.86ZM-35.57,13.38v7.31H-35C-34.21,18.24-35.4,15.8-35.57,13.38Zm19.48-.86.52.05c1-2.46-.27-4.89-.52-7.33ZM-31-60.93c1.74-.64,2.38.4,3.1,1.67.17-.78.28-1.79-.1-2.05a16.44,16.44,0,0,0-3.34-1.33ZM82.25,70.57a9.75,9.75,0,0,0,2-.05c.2,0,.46-1,.34-1.06a23.28,23.28,0,0,0-2.38-1.59ZM-24.67,5.87c0,2.41-1.44,4.78-.49,7.11h.49Zm19.37,9c-.19,2.19-1.24,4.41-.5,6.68l.5,0ZM-9.66,8c1.24-2.74,0-5-.34-7.3Zm-3.68,71.26-.09.68a2.65,2.65,0,0,0,3.23.45l.08-.66Zm95-15.44-.49-.25L80.1,65.43l1.61.78Z"/><path d="M105.75,95.14H53.17l4.58-15.47c1.94-6.55,3.87-13.1,5.87-19.63A2.47,2.47,0,0,1,65,58.6c2.79-.82,5.63-1.42,8.42-2.22,1-.29,1.36-.08,1.55.91a45.09,45.09,0,0,0,1.19,5.19,3.15,3.15,0,0,1-.83,3.61c-1.72,1.61-2.21,3.35-.8,5.48a7.76,7.76,0,0,1-.34,9.73,3.46,3.46,0,0,0-.32,3.45c.89,2.76,1.56,5.6,2.41,8.37a1.8,1.8,0,0,0,1.17,1.12c1.94.12,3.89.05,5.85.05-.23-2.44-.23-2.44,2-3.64a4.73,4.73,0,0,0,2.28-5.57,6.48,6.48,0,0,1,.44-5.22c-2.41-1-2.16,1.18-3.12,2.74-.3-.78-.72-1.3-.63-1.73.51-2.49.86-2.71,3.53-2.87a20.4,20.4,0,0,0,2.52-.51c.29.39.81,1.08,1.34,1.76s1.09,1.16,2,.48a8.34,8.34,0,0,1,1.6-.71l.63,1.11c-1.57.35-2.5,2.39-4.38,1.13-.53,2.33,0,3.14,1.9,4a4.44,4.44,0,0,1,2,2A21.45,21.45,0,0,1,96.56,91l2.62-.2.19.52a14.84,14.84,0,0,1-3.22.93c-.43,0-1-.87-1.39-1.39a2.41,2.41,0,0,1-.48-1c-.44-2.25-2-2.79-4.16-2.75-.29.52-.65,1.11-.95,1.73-.82,1.71-1.55,3.45-3.86,3.66-.31,0-.53,1-1,1.81h4.71c5.1,0,10.2,0,15.29,0a8.1,8.1,0,0,1,1.5.28Z"/><path d="M22.93,16.47c1.63,2.07,3.11,3.91,4.55,5.77q3.72,4.81,7.4,9.65a6.34,6.34,0,0,1,.61,1.4,9.75,9.75,0,0,1-1.44.47,9.21,9.21,0,0,1-1.46,0c-.85,0-1.28.36-1.25,1.29.05,1.41,0,2.82,0,4.23,0,1.1-.49,1.58-1.57,1.56-1.25,0-2.49,0-3.74,0s-1.56-.46-1.5-1.57,0-2.5,0-3.74-.71-1.41-1.67-1.4-1.72.09-1.64,1.39a18.15,18.15,0,0,1,0,3.89,2,2,0,0,1-1.32,1.35,29.59,29.59,0,0,1-3.89.08c-1.08,0-1.6-.41-1.54-1.55s-.05-2.5,0-3.74-.4-1.86-1.77-1.82a10.79,10.79,0,0,1-2.42-.47,20.92,20.92,0,0,1,1.11-2.06,18.22,18.22,0,0,1,2.17-2.82,9.19,9.19,0,0,0,2.94-8.31,1.84,1.84,0,0,1,.67-1.56c.73-.34,1.32-.05,1.62,1s1,.69,1.6,0Z"/><path d="M93,28A12.38,12.38,0,0,1,81.56,40.88C75.13,41.3,69,36,68.48,30A12.44,12.44,0,0,1,80,16.19,12.31,12.31,0,0,1,93,28Zm-7.34,3.44c3.06-.28,5-2.41,5-4.93A5.06,5.06,0,0,0,86,21.7c-3.52-.06-7.05-.08-10.58,0A4.86,4.86,0,0,0,71,27.46c.48,2.53,2.26,3.62,4.56,4.23,0,.85,0,1.61,0,2.36a4.54,4.54,0,0,0,3,4.07,4.68,4.68,0,0,0,5.23-1C85,36.07,86,32.81,85.34,31.58a26.53,26.53,0,0,0-2.53-4.13c-.6-.78-1.58-1.73-2.39-1.74s-1.78,1-2.41,1.73c-.77.94-1.21,2.15-1.92,3.15a1.41,1.41,0,0,1-1.31.3,4,4,0,0,1-2.1-4.35c.28-1.9,1.51-3.44,3.25-3.52,3.19-.15,6.39-.05,9.59,0a2.51,2.51,0,0,1,.91.29A4,4,0,0,1,88.93,27C89,29,88,30.46,85.68,31.45Z"/><path d="M19.13,78.5c-6.25-7.22-6.57-13.06-.68-19.52l2.28,3.5c-.1-6.72,4.36-10,9.26-13.22-.87,4.15-1.32,8,2,11.61,0-2.17-.06-4.08,1.29-5.21,1.43,1.79,2.82,3.57,4.26,5.33,2.21,2.69,2.16,5.27-.18,8,1.52-.2,1.66-.32,3.61-3.1C43,71.4,39.55,76,34.56,78c1.42-2.83.41-5.3-1.06-7.5-1.67-2.51-3.67-4.8-5.63-7.32-2.4,2.16-4.66,4-6.68,6.06C18.8,71.66,17.57,74.57,19.13,78.5Z"/><path d="M45.57,17.07c-3.4,3.13-3.63,7.07-3,11.14.33,2.12.67,4.34,2.5,6a40.87,40.87,0,0,1,0-5.09,3.23,3.23,0,0,1,3.18-2.76,4.24,4.24,0,0,1,4,1.68,1.45,1.45,0,0,1,.22,1.27,1.65,1.65,0,0,1-1.23.52c-.52,0-1-.34-1.56-.32-1,0-2.31-.13-2.75.41a3.6,3.6,0,0,0-.34,2.93c.84,2.65,3.2,3.56,6.63,3.41,1.11,0,2.21-.31,3.57-.51a16.76,16.76,0,0,1-7.62,4.48c-3.88.87-6.65-.87-8.84-4-3.11-4.43-4.81-9.5-6.7-14.49C32.22,17.88,30.74,14,27.78,11c-.91-.92-2-1.68-2.92-2.57S24,6.7,25.24,6.1c1.48-.71,3.85,0,5.42,1.57a15.32,15.32,0,0,1,4,8c.59,3,1.15,5.92,2,8.81a16.49,16.49,0,0,0,5.05,7.94c-.56-3.08-1.23-6.19-1.64-9.34a13.09,13.09,0,0,1,.22-4.81C40.82,16.07,43.53,15.44,45.57,17.07Z"/><path d="M31.78,19.07c-2.61-2-5.12-4.15-7.85-5.95A28.76,28.76,0,0,0,13.55,9.27a6.22,6.22,0,0,1-1.68-1c.44-.49.79-1.18,1.34-1.44a9.32,9.32,0,0,1,8.7.47C26.76,10,29.52,14.34,31.78,19.07Z"/><path d="M37.86,34.6A34.62,34.62,0,0,0,41.47,39a8.55,8.55,0,0,0,9.66,1.41c2.24-1,4.34-2.33,6.72-3.42-1.06,1.19-2,2.47-3.18,3.55-4.12,3.84-9.67,4.2-13.5,1C39.05,39.71,38.22,37.33,37.86,34.6Z"/><path d="M70.28-1.77c3.14,1.3,6.17.39,9.2-.36a11.44,11.44,0,0,1,7,.51,10.49,10.49,0,0,0,7.4,0A15.37,15.37,0,0,1,99-2.26C96.31-1.43,93.7-.46,91,.19a8.37,8.37,0,0,1-4.12,0,28.69,28.69,0,0,0-11.07-.6c-1.84.18-3.76-.41-5.65-.65Z"/><path d="M8.71,13.81a9.84,9.84,0,0,1,1.7-2,5.81,5.81,0,0,1,5.23-.89A38.84,38.84,0,0,1,21.17,13C17,11.81,13,13,9.08,14.29Z"/><path d="M95.37.63c-3.55,1.42-7,2.9-11,1.78-1.86-.52-3.94-.27-5.92-.31s-3.76,0-5.59-.17c2.52-.36,5-.76,7.58-1.06a6.83,6.83,0,0,1,3.07,0C87.52,2.45,91.43,1.65,95.37.63Z"/><path d="M8.41,17.79c-.18-2.58,2-3.78,6.05-3.56Z"/><path class="cls-5" d="M85.68,31.45C88,30.46,89,29,88.93,27a4,4,0,0,0-2.49-3.71,2.51,2.51,0,0,0-.91-.29c-3.2,0-6.4-.12-9.59,0-1.74.08-3,1.63-3.25,3.52a4,4,0,0,0,2.1,4.35,1.41,1.41,0,0,0,1.31-.3c.71-1,1.15-2.21,1.92-3.15.63-.76,1.59-1.73,2.41-1.73s1.79,1,2.39,1.74a26.53,26.53,0,0,1,2.53,4.13c.63,1.23-.31,4.49-1.54,5.56a4.68,4.68,0,0,1-5.23,1,4.54,4.54,0,0,1-3-4.07c-.05-.75,0-1.51,0-2.36C73.29,31.08,71.5,30,71,27.46a4.86,4.86,0,0,1,4.44-5.76c3.52-.08,7.05-.07,10.58,0a5.06,5.06,0,0,1,4.59,4.83C90.67,29,88.74,31.17,85.68,31.45Zm-5.23-3c-2.3,0-4.07,1.94-4.1,4.54a4.34,4.34,0,0,0,4,4.6c2.31,0,4.06-1.93,4.07-4.54S82.73,28.51,80.45,28.49Z"/></g><rect class="cls-2" x="109" y="9.42" width="42.75" height="42.75" rx="8.64" ry="8.64"/><g class="cls-12"><path class="cls-5" d="M-39.24,97.16q0-96.5,0-193h200q0,96.5,0,193Z"/></g><g class="cls-8"><path class="cls-5" d="M61.76,97.16q0-96.5,0-193h200q0,96.5,0,193Z"/></g><rect class="cls-2" x="210.21" y="9.42" width="42.75" height="42.75" rx="8.64" ry="8.64"/><g class="cls-13"><path class="cls-5" d="M61.76,98.16q0-96.5,0-193h200q0,96.5,0,193Z"/></g><path class="cls-14" d="M48.46,9.42a8.67,8.67,0,0,1,8.64,8.64V43.53a8.67,8.67,0,0,1-8.64,8.64H23a8.67,8.67,0,0,1-8.64-8.64V18.06A8.67,8.67,0,0,1,23,9.42H48.46m0-.5H23a9.15,9.15,0,0,0-9.14,9.14V43.53A9.15,9.15,0,0,0,23,52.67H48.46a9.15,9.15,0,0,0,9.14-9.14V18.06a9.15,9.15,0,0,0-9.14-9.14Z"/><path class="cls-15" d="M48.46,9.42a8.67,8.67,0,0,1,8.64,8.64V43.53a8.67,8.67,0,0,1-8.64,8.64H23a8.67,8.67,0,0,1-8.64-8.64V18.06A8.67,8.67,0,0,1,23,9.42H48.46m0-4H23A12.65,12.65,0,0,0,10.35,18.06V43.53A12.65,12.65,0,0,0,23,56.17H48.46A12.65,12.65,0,0,0,61.1,43.53V18.06A12.65,12.65,0,0,0,48.46,5.42Z"/><path class="cls-16" d="M48.46,9.42a8.67,8.67,0,0,1,8.64,8.64V43.53a8.67,8.67,0,0,1-8.64,8.64H23a8.67,8.67,0,0,1-8.64-8.64V18.06A8.67,8.67,0,0,1,23,9.42H48.46m0-2H23A10.65,10.65,0,0,0,12.35,18.06V43.53A10.65,10.65,0,0,0,23,54.17H48.46A10.65,10.65,0,0,0,59.1,43.53V18.06A10.65,10.65,0,0,0,48.46,7.42Z"/><path d="M48.46,9.42a8.67,8.67,0,0,1,8.64,8.64V43.53a8.67,8.67,0,0,1-8.64,8.64H23a8.67,8.67,0,0,1-8.64-8.64V18.06A8.67,8.67,0,0,1,23,9.42H48.46m0-.5H23a9.15,9.15,0,0,0-9.14,9.14V43.53A9.15,9.15,0,0,0,23,52.67H48.46a9.15,9.15,0,0,0,9.14-9.14V18.06a9.15,9.15,0,0,0-9.14-9.14Z"/></g></svg>