<svg xmlns="http://www.w3.org/2000/svg" viewBox="0 0 73.47 61.87"><defs><style>.cls-1{opacity:0.66;}.cls-2,.cls-4{fill:#fff;}.cls-2{stroke:#231f20;stroke-miterlimit:10;}.cls-3{fill:#231f20;}.cls-5{fill:#4995d1;}.cls-6{fill:#31c5f4;}</style></defs><title>PDC_earthquake_blue</title><g id="Layer_7" data-name="Layer 7"><rect class="cls-2" x="13.76" y="6.99" width="42.75" height="42.75" rx="8.64" ry="8.64"/><polygon class="cls-3" points="13.76 31.56 27.3 29.27 26.95 32.11 29.66 33.14 26.67 36.08 29.66 39.34 27.99 43.78 29.66 45.45 30.08 46.98 30.08 49.74 22.4 49.74 20.11 49.43 16.84 47.7 14.84 45.27 14.15 43.68 13.76 39.98 13.76 31.56"/><polygon class="cls-3" points="56.51 30.96 45.59 30.96 46.45 21.88 48.98 22.23 40.65 12.17 30.43 20.1 32.9 20.44 32.15 29.52 30.08 29.52 32.32 32.68 27.9 36.13 31.18 39.11 28.88 43.59 30.71 45.89 30.36 47.21 30.08 49.74 47.87 49.74 50.95 49.16 53.65 47.5 55.06 45.87 56.12 43.65 56.63 40.03 56.51 30.96"/><rect class="cls-4" x="35.78" y="24.02" width="1.37" height="1.1" transform="translate(2.23 -3.03) rotate(4.9)"/><rect class="cls-4" x="35.61" y="26.07" width="1.37" height="1.1" transform="translate(2.41 -3.01) rotate(4.9)"/><rect class="cls-4" x="38.31" y="24.27" width="1.37" height="1.1" transform="translate(2.26 -3.24) rotate(4.9)"/><rect class="cls-4" x="38.13" y="26.32" width="1.37" height="1.1" transform="translate(2.44 -3.22) rotate(4.9)"/><rect class="cls-4" x="40.85" y="24.48" width="1.37" height="1.1" transform="translate(2.29 -3.46) rotate(4.9)"/><rect class="cls-4" x="40.68" y="26.54" width="1.37" height="1.1" transform="translate(2.47 -3.44) rotate(4.9)"/><path class="cls-5" d="M48.06,7a8.67,8.67,0,0,1,8.64,8.64V41.1a8.67,8.67,0,0,1-8.64,8.64H22.59a8.67,8.67,0,0,1-8.64-8.64V15.63A8.67,8.67,0,0,1,22.59,7H48.06m0-4H22.59A12.65,12.65,0,0,0,9.95,15.63V41.1A12.65,12.65,0,0,0,22.59,53.74H48.06A12.65,12.65,0,0,0,60.7,41.1V15.63A12.65,12.65,0,0,0,48.06,3Z"/><path class="cls-6" d="M47.87,7a8.67,8.67,0,0,1,8.64,8.64V41.1a8.67,8.67,0,0,1-8.64,8.64H22.4a8.67,8.67,0,0,1-8.64-8.64V15.63A8.67,8.67,0,0,1,22.4,7H47.87m0-2H22.4A10.65,10.65,0,0,0,11.76,15.63V41.1A10.65,10.65,0,0,0,22.4,51.74H47.87A10.65,10.65,0,0,0,58.51,41.1V15.63A10.65,10.65,0,0,0,47.87,5Z"/></g></svg>