<svg xmlns="http://www.w3.org/2000/svg" viewBox="0 0 73.47 61.87"><defs><style>.cls-1{opacity:0.66;}.cls-2,.cls-4{fill:#fff;}.cls-2{stroke:#231f20;stroke-miterlimit:10;}.cls-3{fill:#231f20;}.cls-5{fill:#ed1f24;}.cls-6{fill:#c82127;}</style></defs><title>PDC_earthquake_red</title><g id="Layer_7" data-name="Layer 7"><rect class="cls-2" x="16.2" y="6.99" width="42.75" height="42.75" rx="8.64" ry="8.64"/><polygon class="cls-3" points="16.2 31.56 29.74 29.27 29.39 32.11 32.1 33.14 29.12 36.08 32.1 39.34 30.44 43.78 32.1 45.45 32.52 46.98 32.52 49.74 24.84 49.74 22.55 49.43 19.28 47.7 17.28 45.27 16.59 43.68 16.2 39.98 16.2 31.56"/><polygon class="cls-3" points="58.95 30.96 48.04 30.96 48.9 21.88 51.43 22.23 43.1 12.17 32.87 20.1 35.34 20.44 34.59 29.52 32.52 29.52 34.77 32.68 30.34 36.13 33.62 39.11 31.32 43.59 33.16 45.89 32.8 47.21 32.52 49.74 50.31 49.74 53.4 49.16 56.09 47.5 57.51 45.87 58.57 43.65 59.08 40.03 58.95 30.96"/><rect class="cls-4" x="38.23" y="24.02" width="1.37" height="1.1" transform="translate(2.24 -3.24) rotate(4.9)"/><rect class="cls-4" x="38.05" y="26.07" width="1.37" height="1.1" transform="translate(2.42 -3.21) rotate(4.9)"/><rect class="cls-4" x="40.75" y="24.27" width="1.37" height="1.1" transform="translate(2.27 -3.45) rotate(4.9)"/><rect class="cls-4" x="40.57" y="26.32" width="1.37" height="1.1" transform="translate(2.45 -3.43) rotate(4.9)"/><rect class="cls-4" x="43.29" y="24.48" width="1.37" height="1.1" transform="translate(2.3 -3.67) rotate(4.9)"/><rect class="cls-4" x="43.12" y="26.54" width="1.37" height="1.1" transform="translate(2.48 -3.65) rotate(4.9)"/><path class="cls-5" d="M50.31,7A8.67,8.67,0,0,1,59,15.63V41.1a8.67,8.67,0,0,1-8.64,8.64H24.84A8.67,8.67,0,0,1,16.2,41.1V15.63A8.67,8.67,0,0,1,24.84,7H50.31m0-4H24.84A12.65,12.65,0,0,0,12.2,15.63V41.1A12.65,12.65,0,0,0,24.84,53.74H50.31A12.65,12.65,0,0,0,63,41.1V15.63A12.65,12.65,0,0,0,50.31,3Z"/><path class="cls-6" d="M50.31,7A8.67,8.67,0,0,1,59,15.63V41.1a8.67,8.67,0,0,1-8.64,8.64H24.84A8.67,8.67,0,0,1,16.2,41.1V15.63A8.67,8.67,0,0,1,24.84,7H50.31m0-2H24.84A10.65,10.65,0,0,0,14.2,15.63V41.1A10.65,10.65,0,0,0,24.84,51.74H50.31A10.65,10.65,0,0,0,61,41.1V15.63A10.65,10.65,0,0,0,50.31,5Z"/></g></svg>