<svg xmlns="http://www.w3.org/2000/svg" viewBox="0 0 73.47 61.87"><defs><style>.cls-1{opacity:0.66;}.cls-2,.cls-4{fill:#fff;}.cls-2{stroke:#231f20;stroke-miterlimit:10;}.cls-3{fill:#231f20;}.cls-5{fill:#2ed03c;}.cls-6{fill:#aed136;}</style></defs><title>PDC_earthquake_green</title><g id="Layer_7" data-name="Layer 7"><rect class="cls-2" x="14.61" y="6.99" width="42.75" height="42.75" rx="8.64" ry="8.64"/><polygon class="cls-3" points="14.61 31.56 28.15 29.27 27.81 32.11 30.52 33.14 27.53 36.08 30.52 39.34 28.85 43.78 30.52 45.45 30.93 46.98 30.93 49.74 23.25 49.74 20.97 49.43 17.69 47.7 15.69 45.27 15.01 43.68 14.61 39.98 14.61 31.56"/><polygon class="cls-3" points="57.37 30.96 46.45 30.96 47.31 21.88 49.84 22.23 41.51 12.17 31.28 20.1 33.75 20.44 33.01 29.52 30.93 29.52 33.18 32.68 28.76 36.13 32.03 39.11 29.73 43.59 31.57 45.89 31.21 47.21 30.93 49.74 48.73 49.74 51.81 49.16 54.51 47.5 55.92 45.87 56.98 43.65 57.49 40.03 57.37 30.96"/><rect class="cls-4" x="36.64" y="24.02" width="1.37" height="1.1" transform="translate(2.24 -3.1) rotate(4.9)"/><rect class="cls-4" x="36.46" y="26.07" width="1.37" height="1.1" transform="translate(2.41 -3.08) rotate(4.9)"/><rect class="cls-4" x="39.16" y="24.27" width="1.37" height="1.1" transform="translate(2.27 -3.32) rotate(4.9)"/><rect class="cls-4" x="38.99" y="26.32" width="1.37" height="1.1" transform="translate(2.44 -3.29) rotate(4.9)"/><rect class="cls-4" x="41.71" y="24.48" width="1.37" height="1.1" transform="translate(2.3 -3.53) rotate(4.9)"/><rect class="cls-4" x="41.53" y="26.54" width="1.37" height="1.1" transform="translate(2.47 -3.51) rotate(4.9)"/><path class="cls-5" d="M48.75,7a8.67,8.67,0,0,1,8.64,8.64V41.1a8.67,8.67,0,0,1-8.64,8.64H23.28a8.67,8.67,0,0,1-8.64-8.64V15.63A8.67,8.67,0,0,1,23.28,7H48.75m0-4H23.28A12.65,12.65,0,0,0,10.64,15.63V41.1A12.65,12.65,0,0,0,23.28,53.74H48.75A12.65,12.65,0,0,0,61.39,41.1V15.63A12.65,12.65,0,0,0,48.75,3Z"/><path class="cls-6" d="M48.73,7a8.67,8.67,0,0,1,8.64,8.64V41.1a8.67,8.67,0,0,1-8.64,8.64H23.25a8.67,8.67,0,0,1-8.64-8.64V15.63A8.67,8.67,0,0,1,23.25,7H48.73m0-2H23.25A10.65,10.65,0,0,0,12.61,15.63V41.1A10.65,10.65,0,0,0,23.25,51.74H48.73A10.65,10.65,0,0,0,59.37,41.1V15.63A10.65,10.65,0,0,0,48.73,5Z"/></g></svg>