<svg xmlns="http://www.w3.org/2000/svg" xmlns:xlink="http://www.w3.org/1999/xlink" viewBox="0 0 73.47 61.87"><defs><style>.cls-1,.cls-2{fill:none;}.cls-1,.cls-4{stroke:#231f20;stroke-miterlimit:10;}.cls-3{opacity:0.66;}.cls-4,.cls-5{fill:#fff;}.cls-6{clip-path:url(#clip-path);}.cls-7{clip-path:url(#clip-path-2);}.cls-8{fill:#ed1f24;}.cls-9{fill:#c82127;}</style><clipPath id="clip-path"><rect class="cls-1" x="13.64" y="-52.4" width="42.75" height="42.75" rx="8.64" ry="8.64"/></clipPath><clipPath id="clip-path-2"><rect class="cls-2" x="13.64" y="-52.4" width="42.75" height="42.75" rx="8.64" ry="8.64"/></clipPath></defs><title>PDC_cyclone_red</title><g id="Layer_7" data-name="Layer 7"><rect class="cls-4" x="13.64" y="10.41" width="42.75" height="42.75" rx="8.64" ry="8.64"/><path class="cls-5" d="M12.43,55.11q0-20.85,0-41.69H57.88q0,20.85,0,41.69Zm5-20c1.91-.61,3.51.05,5.1.84a4,4,0,0,0,1.25.34,6.31,6.31,0,0,0,3.85-.74,4.63,4.63,0,0,1,4.27-.17l.94.4a5.79,5.79,0,0,0,4.91,0,11.28,11.28,0,0,1,1.81-.67c.47-.11.59-.31.58-.77,0-2,0-4.06,0-6.09,0-1.35,0-1.35,1.38-1.35h.83l.07-.13L42,26.53c-1-.89-2-1.81-3-2.66a1.58,1.58,0,0,1-.66-1.44c.05-1,0-2,0-3s0-2.08,0-3.17c-.21,0-.38,0-.54,0-1.23,0-2.47,0-3.7,0-.48,0-.57.18-.55.6,0,.69,0,1.38,0,2.23l-4.75-4.19-13.62,12,.08.15h2.17Zm-3.55,9.43A4.32,4.32,0,0,0,16.4,44a4.77,4.77,0,0,1,4.42-.39c.5.19,1,.43,1.46.63a6.72,6.72,0,0,0,1.18.39,6,6,0,0,0,4-.65,4.81,4.81,0,0,1,4.38-.21l1.05.44a5.6,5.6,0,0,0,4.69,0l1-.41a4.89,4.89,0,0,1,4.54.19,5.34,5.34,0,0,0,3.29.7,10.5,10.5,0,0,0,2.63-.82,5.28,5.28,0,0,1,5.32.22,4.27,4.27,0,0,0,2.37.52v-4.8a5.47,5.47,0,0,1-3.2-.94,3,3,0,0,0-.74-.28,5.44,5.44,0,0,0-4.06.66,5.7,5.7,0,0,1-5.57,0,5.18,5.18,0,0,0-4.91-.08,11.89,11.89,0,0,1-1.21.49,5.43,5.43,0,0,1-4.36-.31,5.7,5.7,0,0,0-5.59,0,5.25,5.25,0,0,1-5.14,0,8.5,8.5,0,0,0-1.31-.55,4.36,4.36,0,0,0-3.44,0,6.62,6.62,0,0,1-3.39,1Zm41.93-8.37a6.5,6.5,0,0,0,.17-1.35,1.71,1.71,0,0,0-.4-1.12,2.33,2.33,0,0,1-.78-1.62c-.11-.54-.22-1.08-.34-1.61a1.5,1.5,0,0,0-1.29-1.26l-5.56-.89a1.5,1.5,0,0,0-1.66.82c-.38.68-.76,1.36-1.18,2a1.59,1.59,0,0,1-.65.54,1.56,1.56,0,0,0-1,1.17q-.21,1.09-.35,2.19a.54.54,0,0,0,.19.45,5.77,5.77,0,0,0,5.25.41c1.52-.69,3-1.35,4.71-.91.4-.72.77-.94,1.26-.76s.67.65.42,1.6Z"/><path d="M17.39,35.15V27H15.22l-.08-.15,13.62-12L33.51,19c0-.85,0-1.54,0-2.23,0-.42.07-.61.55-.6,1.23,0,2.47,0,3.7,0,.17,0,.33,0,.54,0,0,1.08,0,2.12,0,3.17s0,2,0,3a1.58,1.58,0,0,0,.66,1.44c1,.85,2,1.77,3,2.66l.38.31L42.3,27h-.83c-1.38,0-1.38,0-1.38,1.35,0,2,0,4.06,0,6.09,0,.46-.11.65-.58.77a11.28,11.28,0,0,0-1.81.67,5.79,5.79,0,0,1-4.91,0l-.94-.4a4.63,4.63,0,0,0-4.27.17,6.31,6.31,0,0,1-3.85.74A4,4,0,0,1,22.49,36C20.9,35.2,19.3,34.54,17.39,35.15Z"/><path d="M13.85,44.58V39.82a6.62,6.62,0,0,0,3.39-1,4.36,4.36,0,0,1,3.44,0,8.5,8.5,0,0,1,1.31.55,5.25,5.25,0,0,0,5.14,0,5.7,5.7,0,0,1,5.59,0,5.43,5.43,0,0,0,4.36.31,11.89,11.89,0,0,0,1.21-.49,5.18,5.18,0,0,1,4.91.08,5.7,5.7,0,0,0,5.57,0,5.44,5.44,0,0,1,4.06-.66,3,3,0,0,1,.74.28,5.47,5.47,0,0,0,3.2.94v4.8a4.27,4.27,0,0,1-2.37-.52,5.28,5.28,0,0,0-5.32-.22,10.5,10.5,0,0,1-2.63.82,5.34,5.34,0,0,1-3.29-.7,4.89,4.89,0,0,0-4.54-.19l-1,.41a5.6,5.6,0,0,1-4.69,0l-1.05-.44a4.81,4.81,0,0,0-4.38.21,6,6,0,0,1-4,.65,6.72,6.72,0,0,1-1.18-.39c-.49-.2-1-.44-1.46-.63A4.77,4.77,0,0,0,16.4,44,4.32,4.32,0,0,1,13.85,44.58Z"/><path d="M55.78,36.21l-1.2-.33c.26-.94.13-1.39-.42-1.6s-.87,0-1.26.76c-1.7-.45-3.19.21-4.71.91a5.77,5.77,0,0,1-5.25-.41.54.54,0,0,1-.19-.45q.14-1.1.35-2.19a1.56,1.56,0,0,1,1-1.17,1.59,1.59,0,0,0,.65-.54c.42-.65.8-1.33,1.18-2a1.5,1.5,0,0,1,1.66-.82l5.56.89a1.5,1.5,0,0,1,1.29,1.26c.12.54.23,1.08.34,1.61a2.33,2.33,0,0,0,.78,1.62,1.71,1.71,0,0,1,.4,1.12A6.5,6.5,0,0,1,55.78,36.21Zm-10.2-4.4,8.35,1.32c-.16-.79-.32-1.51-.44-2.23a.74.74,0,0,0-.7-.69c-1.74-.27-3.48-.56-5.23-.81a.85.85,0,0,0-.7.22C46.41,30.29,46,31,45.58,31.81Zm.34,1.9a.89.89,0,0,0-.91-.89,1,1,0,0,0-.88.94.94.94,0,0,0,.93.89A.93.93,0,0,0,45.92,33.71Z"/><path class="cls-5" d="M45.58,31.81c.46-.8.83-1.52,1.28-2.19a.85.85,0,0,1,.7-.22c1.75.25,3.48.55,5.23.81a.74.74,0,0,1,.7.69c.12.72.28,1.43.44,2.23Z"/><path class="cls-5" d="M45.92,33.71a.93.93,0,0,1-.87,1,.94.94,0,0,1-.93-.89,1,1,0,0,1,.88-.94A.89.89,0,0,1,45.92,33.71Z"/><rect class="cls-1" x="13.64" y="10.41" width="42.75" height="42.75" rx="8.64" ry="8.64"/><g class="cls-6"><path class="cls-5" d="M64.11-108.82V35.08H-135.46V-157.66H64.11v48.51c-2.87,0-2.91,0-3.64-2.8-.45-1.75-1.28-3-3.19-3.41a2.27,2.27,0,0,1-1.23-1.37,9.28,9.28,0,0,1-.23-2.3c1.37.52,3.74,0,4.42-1,.16-.24-.07-.76-.14-1.26a15.18,15.18,0,0,0-1.73.81c-1.07.69-1.68,0-2.28-.71l-1.3-1.64a19.57,19.57,0,0,1-2.76.68c-2.61.22-2.52.21-3.3,2.71-.35,1.12.12,1.28.88,1.48.8-1.15.43-3.59,2.55-2.67a24.06,24.06,0,0,0-.12,4.3c.31,2.06.9,4.06-1.05,6-1.93-2.09-4-4.15-5.86-6.39A50.9,50.9,0,0,1,37.29-130c-.37-.89-.89-1.27-1.8-.78.29,2.76.47,5.47,2.61,7.5a1.65,1.65,0,0,1,.45.85c.68,3.73,2.64,6.36,6.33,7.62.39.13.58.86.86,1.31a5.4,5.4,0,0,1-1.71.66,2.16,2.16,0,0,1-1.4-.71c-1.69-1.79-3.64-3.38-4-6.11a4.47,4.47,0,0,0-1.27-2.73,7.77,7.77,0,0,1-2.86-6.55,1.35,1.35,0,0,0-.13-.79,10.92,10.92,0,0,0-1.12-1.07c0,2.18.55,4.27-.12,5.82a8.08,8.08,0,0,0,.33,7.55,3.15,3.15,0,0,1-1.13,4.26c-.41.24-1.53.1-1.62-.13-.37-1-1-2.42-.59-3.12.86-1.47.64-2.89.76-4.38s.61-3.06.71-4.6a38,38,0,0,0-.13-4.8c0-.19-.41-.45-.66-.51a.69.69,0,0,0-.55.4c-.23,1.15-.74,2.39-.51,3.46a2.46,2.46,0,0,1-1.09,2.77,7.66,7.66,0,0,0-3,5.05,11.08,11.08,0,0,1-3.07,5.77c-1.3,1.47-2.94,1.43-4.23-.16,1.28-.88,2.5-1.84,3.83-2.62a6.66,6.66,0,0,0,3.11-4.33,6.44,6.44,0,0,1,1.1-2.83c2.07-2.1,2.24-4.75,2.61-7.39-1.37-.46-2.07.09-2.73,1.37a79.22,79.22,0,0,1-5.67,10c-2.46,3.42-5.48,6.43-8.13,9.47h37.4c-.76,1.19-2.79.84-2.38,2.71.25,1.13.68,2.06,2.12,2.25l-.73-2.67a4.79,4.79,0,0,0,4.69-3.69c.56-1.67,1.47-2.13,3.28-1.65,1.51.4,1.54,1.59,1.94,2.52,1.33,3.09,1.17,3.45,5,1.66A1.83,1.83,0,0,0,64.11-108.82ZM-10.13,32.68c-.73-1.32-.6-2,.72-2.2A3.43,3.43,0,0,0-6.6,28.12a29.39,29.39,0,0,1,1.44-2.83c3.05.09,3.05.09,4.17,2.62.28.64.54,1.3.89,1.9.16.28.54.7.74.66,1.18-.23,2.34-.58,3.5-.88L4,29l-2.63.21A26.41,26.41,0,0,0,.25,25.53a4.27,4.27,0,0,0-1.76-2.09c-2.25-1-2.58-1.37-2.29-4,1.93,1.24,2.94-.66,4.49-1.17L.11,17.19l-2.69,1.18L-4.9,15.69a21.66,21.66,0,0,1-2.53.5c-2.6.16-3,.45-3.51,2.9-.08.41.37.91.72,1.7.85-1.69.7-3.71,2.65-3a31.58,31.58,0,0,0,.07,5.61,5,5,0,0,1-2.15,5.24C-12,30-12,30-11.92,32.48c-1.9,0-3.79.07-5.68,0a1.77,1.77,0,0,1-1.27-1c-.86-2.77-1.51-5.61-2.4-8.38a3.77,3.77,0,0,1,.38-3.75,7.54,7.54,0,0,0,.29-9.44c-1.43-2.18-1-4,.79-5.62A3.1,3.1,0,0,0-19,.78c-.49-1.76-.87-3.55-1.23-5.35-.18-.87-.49-1.18-1.44-.91-2.85.79-5.74,1.44-8.58,2.28a2.47,2.47,0,0,0-1.38,1.46c-2.32,7.61-4.57,15.25-6.83,22.88L-42,33.3h52.6a5.57,5.57,0,0,0-.07-.6C3.57,32.68-3.35,32.68-10.13,32.68Zm-98.74-149.13H-88c-.88-1.66-1.78-3.13-2.47-4.7-1.23-2.81-2.33-5.68-3.5-8.52-1.71-4.14-5-6.38-9.15-7.54-2.09-.58-2.34-.46-3.08,1.88h-8.57c-1.15-2.54-2.86-3.35-5.75-2.2A17.39,17.39,0,0,0-125-135c-4.71,3.82-6.85,9.18-8.46,14.8-.32,1.1-.51,2.24-.78,3.47h2.67c-.07-2.06,1.58-2.67,3.24-3.4l-3.57-2.17.8-2,1,.34a9.31,9.31,0,0,1-.24-3c.12-.49,1.24-1,1.94-1,1.34-.09,1.64,1.06,2.05,2.11a2.05,2.05,0,0,0,1.43,1.06c1.56.17,2.59.76,2.78,2.42.05.47.19.92.33,1.54l-2.51.81-.32,3.2a9.44,9.44,0,0,0,5.59-8.22c.11-1.34.37-2.35,1.83-2.86a3.59,3.59,0,0,0,2.34-3.39,8.91,8.91,0,0,1,.35-2.07c.37-1.1,1.09-1.73,2.22-1.45a8.33,8.33,0,0,0-.9,2.43,5.67,5.67,0,0,1-3,5.18,3,3,0,0,0-1.23,2c-.5,4.13-1.78,7.72-5.92,9.78l1.51-.14c-.14,1.43.6,1.64,3.24.94.92,1.34,1.92,1.54,3.89.79.5,1.12,2.06,1.77,3.85,1.39C-108.92-112.87-109.43-114.77-108.87-116.45ZM32.07-80.92l-4.31,5.68c-1.8,2.37-3.62,4.73-5.37,7.13-.31.43-.65,1.27-.45,1.55a2.71,2.71,0,0,0,1.62.67,6.59,6.59,0,0,0,1.79,0c1.29-.12,1.73.46,1.68,1.72-.07,1.84,0,3.69,0,5.53,0,1,.37,1.61,1.53,1.57,1.79-.06,3.58-.07,5.37,0,1.25,0,1.6-.52,1.56-1.67-.06-1.68,0-3.36,0-5s.84-1.76,2.09-1.74,2.2.11,2.17,1.68c0,1.74,0,3.47,0,5.21,0,1.08.28,1.61,1.47,1.56,1.79-.07,3.58-.06,5.37,0,1.23,0,1.64-.55,1.62-1.67s0-2.39,0-3.58c0-4-.48-3.52,3.54-3.59.53,0,1.43-.26,1.5-.55a2.44,2.44,0,0,0-.45-1.73,33.68,33.68,0,0,0-3.35-4.38,12.76,12.76,0,0,1-3.9-11.28,2.06,2.06,0,0,0-1-1.67c-.8-.35-1.46.09-1.78,1.08-.4,1.25-1.14,1.35-2,.37-.69-.83-1.3-1.73-2-2.59-.94-1.21-1.49-1.24-2.39-.08a28.82,28.82,0,0,0-2.2,3A2.35,2.35,0,0,0,34-81.9c.85,2.18,1.86,4.3,2.8,6.44l-.26.14ZM-95.06-81.4c1.44-5.76-1.71-10-6.93-9.53a3.88,3.88,0,0,1-2.19-.48c-3.77-2.25-9.39-.72-10,3.61-4.78-1.59-9.26,2.65-9,6.18a2.8,2.8,0,0,1-1.31,2.82,4.7,4.7,0,0,0-1.42,2.29c-1,3.09.73,6.25,3.48,6.18a4.74,4.74,0,0,1,2.77.9c3.62,2.18,7.31,2.76,11.13.4a1.85,1.85,0,0,1,1.52.08c4.18,2.16,7.53,1.2,9.92-2.86a1.37,1.37,0,0,1,.86-.49A4.07,4.07,0,0,0-92.5-76C-92.15-78.82-92.88-80.41-95.06-81.4ZM-50-74.95-61.71-92.62-68.48-82l-5.06-4.23L-85.87-66.11h40.39l-1.15-1.95c2-.23,3.56-1,3.92-3.08.3-1.73-1.33-4.4-3.08-5.36S-48.64-76.59-50-74.95ZM26.87-134.7l-.21.57c.85.62,1.64,1.63,2.56,1.77a41.06,41.06,0,0,0,5.84.08c-.81-5.23-.76-5.52,1.12-6.77,2.1,3.25,4.63,3.51,7,1,1.25-.13,2.7-.17,3.58-.89,1.09-.89.73-2.4.11-3.6-.39-.76-1-1.38-1.46-2.11a1.81,1.81,0,0,1-.38-1.19c1.13-3.81-1.12-7.19-5.11-7.19a32.6,32.6,0,0,0-5.77,1c-1.78-2-3.82-1.94-5.83.49-1.78-1.54-3.77-2.24-5.91-.89a3.52,3.52,0,0,0-1.3,5.13c-.66,0-1.15,0-1.63,0a8.23,8.23,0,0,0-1.46.11c-1.57.34-2,1.55-.91,2.74a18.13,18.13,0,0,0,1.76,1.54c-2.45,2.84-2,4.36,1.64,5.18a13.62,13.62,0,0,0,3.21.25c1.7,0,3.39-.17,5.16-.27C28.7-136.29,29.08-134.72,26.87-134.7Zm-95.76,21.85,7.38.77.1-.43a15.31,15.31,0,0,1-6.68-8.26h3.51A72.7,72.7,0,0,1-69.76-127a67.62,67.62,0,0,1-3.6-7,31.06,31.06,0,0,1-9.39,13.15h4.5a18.82,18.82,0,0,1-6.67,8.71l7.46-.7a81.46,81.46,0,0,1-10.12,9.69,119.37,119.37,0,0,0,12.74-2,6,6,0,0,1,3.39.05,46.65,46.65,0,0,0,7,1.38c1.91.28,3.85.35,6.09.53C-62.36-106.21-66-109-68.89-112.85Zm48.18-25.48c.08-1.55.6-3,.08-3.9s-2.12-1.21-3.22-1.77c.26-.37.67-.87,1-1.42.5-.86.13-1.45-.72-1.76a4.17,4.17,0,0,0-4.83,1.69c-.27.41-.57.8-.92,1.3l-1.1-3.32a28.28,28.28,0,0,0-3.46,3.38,25.52,25.52,0,0,0-2,4l-2-1.83c-1.49,2.29-1.46,4.53-1.28,6.81.29,3.63.64,4.11,3.86,5.11-.36,4.51,4,7.19,8,4.1.15.28.31.56.45.85,1.42,2.82,4.11,3.7,6.58,2.14,2.29-1.45,2.7-4.4.93-6.79-.19-.26-.61-.61-.55-.76.73-1.63-.57-2.45-1.43-3.43C-18.6-135.2-19.17-137-20.71-138.33Zm14.76,28.44c0-1.22,0-2.25,0-3.27,0-3.43,0-3.43,3.42-3.71h.16c1.11-.06,1.33-.67.79-1.51a27.62,27.62,0,0,0-2-2.58c-2.7-3.28-5.78-6.38-4.71-11.28.1-.44-.64-1.05-1-1.59-.51.35-1.23.59-1.48,1.07-.56,1.08-1.1,1.09-1.81.26s-1.35-1.7-2.09-2.48a1.42,1.42,0,0,0-1.09-.46c-1.67.43-2.77,3.84-2.08,5.43a9.72,9.72,0,0,1,.92,4.28,5.08,5.08,0,0,1-3.24,4.32,6,6,0,0,1-6.25-.71c-.59.73-1.17,1.38-1.66,2.08s-1,1.69-1.55,2.54a19.15,19.15,0,0,0,3,.6c1.29.06,1.88.5,1.82,1.86-.08,1.71,0,3.42,0,5.15h7.48c0-1.64.09-3.2,0-4.75s.54-1.76,1.8-1.77,2.09.19,2,1.75,0,3.19,0,4.78Zm-113,72.36a8.21,8.21,0,0,0-.9-1.54c-.3-.3-.8-.66-1.15-.6s-.76.53-.93.91a2.32,2.32,0,0,0-.06,1.28c.53,3-.6,5.44-2.67,7.58a21.33,21.33,0,0,0-2.27,3,26.79,26.79,0,0,0-1.32,2.46,15.58,15.58,0,0,0,2.71.53c1.11,0,1.56.39,1.49,1.54-.08,1.35,0,2.71,0,4.06,0,.94.31,1.41,1.31,1.38,1.41,0,2.82,0,4.22,0,1,0,1.34-.39,1.3-1.35a35,35,0,0,1,0-3.9,1.67,1.67,0,0,1,.69-1.25c1.76-.7,2.79,0,2.8,1.92,0,.38,0,.76,0,1.14,0,3.42,0,3.42,3.4,3.43s3.39,0,3.41-3.33c0-1-.32-2.37.2-3s1.9-.48,2.9-.64c1.25-.2,1.49-.71.75-1.74-.63-.87-1.33-1.7-2-2.56q-4.55-5.91-9.09-11.82c-1.18-1.53-1.48-1.51-2.74,0C-117.47-39.27-118.09-38.54-118.94-37.52Zm-8.69,68.36c0,.6,0,1.2,0,1.79-.12,1.3.35,1.92,1.75,1.82a32.49,32.49,0,0,1,3.74,0c1,0,1.39-.34,1.36-1.32,0-1.3,0-2.6,0-3.9s.65-1.54,1.74-1.56,1.81.26,1.81,1.5,0,2.6,0,3.9c0,.92.27,1.42,1.3,1.38,1.35-.06,2.71,0,4.06,0,1,0,1.49-.42,1.48-1.44,0-1.46,0-2.93,0-4.39,0-.89.34-1.32,1.24-1.3a8.44,8.44,0,0,0,1.46,0,11.38,11.38,0,0,0,1.48-.42,5.28,5.28,0,0,0-.53-1.41c-3.28-4.3-6.59-8.57-9.89-12.85-2.33-3-2.33-3-4.63-.08-.87,1.12-1.24,1.05-2.07-.16a1.55,1.55,0,0,0-1.25-.64,1.54,1.54,0,0,0-.8,1.13,14,14,0,0,0,0,2.92,4.78,4.78,0,0,1-1.2,3.71c-1.63,1.94-3.13,4-4.64,6a5.32,5.32,0,0,0-.51,1.27,4.88,4.88,0,0,0,1.29.47c2.9.19,2.9.18,2.9,3.06C-127.63,30.51-127.63,30.67-127.63,30.83ZM-72.3-45.34c-.93,1.12-1.67,2-2.42,2.92s-1.3,1.15-1.87-.2a1.61,1.61,0,0,0-1.33-.68c-.31,0-.65.68-.8,1.12a2.73,2.73,0,0,0,0,1.29A7.64,7.64,0,0,1-81-34.15a31.71,31.71,0,0,0-2.61,3.3,22.16,22.16,0,0,0-1.28,2.32,14.6,14.6,0,0,0,2.59.46c1.21,0,1.65.48,1.59,1.66s0,2.6,0,3.9c-.05,1.15.48,1.56,1.56,1.54,1.25,0,2.49,0,3.74,0s1.57-.5,1.53-1.59.06-2.5,0-3.74.72-1.36,1.65-1.37,1.72.17,1.66,1.41,0,2.6,0,3.9c0,1,.41,1.39,1.35,1.39A29.14,29.14,0,0,0-65.27-21a2.08,2.08,0,0,0,1.34-1.36,14.47,14.47,0,0,0,.06-3.08c0-2.51,0-2.48,2.55-2.59a6.57,6.57,0,0,0,1.6-.48,8.41,8.41,0,0,0-.73-1.52q-3.61-4.79-7.29-9.53C-69.2-41.45-70.67-43.29-72.3-45.34ZM-2.18-33.28A12.3,12.3,0,0,0-14.52-45.64,12.38,12.38,0,0,0-26.78-33.2,12.45,12.45,0,0,0-14.51-20.93,12.33,12.33,0,0,0-2.18-33.28Zm-78.05-91.6a9.45,9.45,0,0,1,2-9.36,88.37,88.37,0,0,1,6.68-6.29c3.3,4.45,7.8,8.65,6.48,15.45,5.74-2.55,7.66-9.4,5.66-12.81-1.2,2.45-1.6,2.85-3.4,3.41,2.36-3.51,2.36-6,.12-9-1.36-1.84-2.6-3.77-3.88-5.63-1.27,1.3-1.24,3.35-1.18,5.8-3.21-4.11-2.93-8.23-2.22-12.61a51.46,51.46,0,0,0-6,6,10.61,10.61,0,0,0-2.13,8.05l-.43.1-2.06-3.68A15.06,15.06,0,0,0-80.23-124.88ZM-57.45,7.63l-.42-.42c2.38-2.79,2.38-5.45.11-8.15-1.43-1.69-2.77-3.46-4.16-5.22-1.36,1.13-1.29,3-1.3,5.15a7.52,7.52,0,0,1-2.56-5.48c0-2,.19-3.91.31-5.9-4.65,3.08-9.1,6.33-9,13.06l-2.29-3.5c-5.59,5.9-5.4,14.81.53,19.16-1.43-3.62-.15-6.56,2.3-9,2-2,4.21-3.83,6.58-6,2,2.5,3.95,4.79,5.62,7.3,1.47,2.21,2.52,4.67,1.07,7.5,5-1.87,8.43-6.56,6.5-11.86Zm-9.26,19.74c0,1,0,1.87,0,2.79,0,4,0,3.27,3.17,3.27,3.8,0,3.24.55,3.28-3.24,0-3.06,0-3.07,3.05-3.45,1.11-.14,1.49-.57.71-1.58Q-62,18-67.45,10.91c-.53-.69-1.07-.65-1.58,0s-1.08,1.48-1.66,2.2-1.27.67-1.5-.13c-.36-1.27-1.08-1.06-2.13-.83,0,1.13-.08,2.21,0,3.27a5.2,5.2,0,0,1-1.35,4.15c-1.52,1.75-2.89,3.63-4.3,5.48-.8,1.06-.58,1.57.66,1.71,3,.34,3,.34,3,3.45q0,.41,0,.81c0,2.43,0,2.43,2.49,2.43,3.89,0,3.89,0,3.88-3.82C-69.9,26.93-69.62,26.72-66.71,27.38Zm103.06.5c2.19.26,4.1.56,6,.67a1.61,1.61,0,0,0,1.16-1,42.79,42.79,0,0,0,.68-5c.1-1.2.67-1.62,1.8-1.5a17.4,17.4,0,0,0,1.78.11c.49,0,1-.08,1.48-.12a6.63,6.63,0,0,0-.44-1.43C45.76,14.29,42.63,9,39.53,3.66,37.59.32,37.6.32,34.79,3.06c-1.35,1.31-2,1.16-2.74-.56a1.52,1.52,0,0,0-1-.78c-.23,0-.65.55-.77.93-.19.61-.14,1.29-.32,1.91-.49,1.6.21,3.51-1.39,4.83-.45.37-1,1.32-.83,1.6.74,1.26.56,3.34,2.58,3.52,1.59.14,2.44.78,2.63,2.38a4.41,4.41,0,0,0,.63,1.81,2.85,2.85,0,0,0,1.37,1.24c2.26.6,2.5.89,2.13,3.21C36.8,24.63,36.61,26.12,36.36,27.87ZM-3.2-66.54l.14-.52A1.71,1.71,0,0,0-3-67.37c.07-1-.23-2.36.31-3s1.89-.32,2.88-.45,1.48-.75.79-1.65c-3.84-5-7.73-10-11.59-15-.6-.78-1.14-.66-1.69.07s-1.13,1.45-1.71,2.16-1.25.82-1.51,0-.85-1.42-1.59-1a2.2,2.2,0,0,0-.78,1.8c.25,2.82-.21,5.32-2.31,7.41a23,23,0,0,0-2.61,3.31,20.93,20.93,0,0,0-1.28,2.47,15.43,15.43,0,0,0,2.75.49c1.17,0,1.53.49,1.46,1.58-.06.89,0,1.78,0,2.68L-13.2-68c.46-.92-.57-2.29,1.37-2.52,2.66-.3,1.93,1.58,2.12,3.15ZM-49.42-44.93a9.26,9.26,0,0,0-1.79-.71c-2.53-.32-4.13,1.17-4.14,3.95a37,37,0,0,0,2,12.34,17,17,0,0,1-5.61-9c-.67-2.6-1.12-5.26-1.65-7.89A14.07,14.07,0,0,0-65-54.54c-1.38-1.18-3-2-4.91-1.18-1.29.54-1.44,1.39-.44,2.34.54.52,1.18.95,1.75,1.43C-65.21-49-63.45-45.08-61.9-41c2,5.23,3.8,10.52,6.91,15.28,4.67,7.14,12.17,4.2,16.24-.32a28.19,28.19,0,0,1-3.34.48c-3.35.09-5.63-.76-6.49-3.4a3.63,3.63,0,0,1,.3-2.94c.43-.54,1.79-.41,2.74-.44.57,0,1.15.35,1.72.33a1.65,1.65,0,0,0,1.17-.62c.15-.23,0-.83-.27-1.14a4.27,4.27,0,0,0-4-1.7,3.23,3.23,0,0,0-3.2,2.73,39.25,39.25,0,0,0,0,5.13c-1.82-1.59-2.16-3.81-2.49-5.93C-53.29-37.65-53.09-41.6-49.42-44.93Zm-77.14-55.86a4.31,4.31,0,0,0-5.37,3.5,4.44,4.44,0,0,1-1,2.17c-1.35,1.64-1.15,4.12.6,4.86a22.59,22.59,0,0,0,4.81,1.63,9,9,0,0,0,3.87-.38,2.56,2.56,0,0,1,2,0,4,4,0,0,0,5.44-1.58,2,2,0,0,1,1-.65c1.8-.66,2.74-3.21,1.46-4.65a4.25,4.25,0,0,1-.94-3.06,3.63,3.63,0,0,0-3.86-3.69,6.08,6.08,0,0,1-2.15-.44C-123.32-104.22-125.4-103.44-126.56-100.79Zm80-5.57h49v-2.84H-40.13v-4.32l-2-.68L-44-113.12v3.9l-2.52.17Zm67.46,75,3.66-2.44,1,3.19,1.84-2.81,3,4.49.24-.09-.48-5.33,3.41.85-1.58-3.08,5.66.33.06-.24-4.92-2.73,3-2.24L32.1-42l3.55-4.86-5.32,2.66-.25-3.16-.48-.22L27.73-45l-1.88-5.37h-.28l-.72,5.42-3.38-1.87,1,3.43-5-1.36-.13.32,3.78,3.51L18-39.63,21-38l-4.6,3.86,5.86-1.33Zm3.36-60.75-7.86-11.73c-1.09,1.53-2.12,2.85-3,4.28a1.72,1.72,0,0,0,.11,1.6c3.53,3.87,7.13,7.67,10.81,11.58l1.88-3.16,7.36,9.29.25-.18L26.91-96.1Zm19.8,55-.52.13c.28,1.83,0,4,1,5.41,1.7,2.58,1.87,5.19,1.6,8.09l-1.61.23c.81,1,1.37,2.22,2.05,2.3a64.46,64.46,0,0,0,7.08.1l.24-.5c-1.07-.68-2.15-1.35-3.2-2.06a1.8,1.8,0,0,1-.56-.68c-.85-1.71.53-2.64,1.31-3.8A8.32,8.32,0,0,0,52-29.14l-.38-.17-2,1.43c-.38-2.74-.32-2.67,1.49-4.22a15.78,15.78,0,0,0,2.08-2.73l-.35-.25-3.3,2.81c-1-2.92,2.36-4.24,2.08-7.05l-2.33,2.72c-1.12-2.42-.61-4.56.62-6.68l-1.63,1.47-1-6.89-.28,0V-43l-.35.14-3.9-4.93a11.46,11.46,0,0,0,1.23,3.31c.57,1,1.52,1.72,2.07,2.7A13.29,13.29,0,0,1,47-39l-.47.14-2.11-1.86-.48.35c.42.78.65,1.8,1.29,2.29a4,4,0,0,1,1.45,4.58,17.6,17.6,0,0,0-.24,2l-.56.11ZM16.31,33.22c6.59-.12,13.08.57,19.41-1.26l.16-1.33,5-1.08c-8.14-2.17-16.34-.9-24.53-1.39ZM25.2,12.07c-.84,1-1.59,2-2.31,2.9s-1.22,1.67-1.83,2.51c1,.23,1.92.51,2.9.66,1.32.21,1.9.82,1.59,2.21a30.39,30.39,0,0,0-.48,3.35c-.26,2.54-.25,2.54,2.28,3,.58.1,1.17.19,1.76.24,2.92.23,2.85.22,3.13-2.83a44.62,44.62,0,0,1,.87-4.55A6.35,6.35,0,0,0,31.84,17c-.29-.37-.87-.82-1.26-.77-2.28.31-3.48-.95-4.38-2.76A16.11,16.11,0,0,0,25.2,12.07ZM-119.7-.64c3.34-5.93,16.12-6.59,18-1.54,2.45-2.24,2.13-4.55-.82-6a7.52,7.52,0,0,0-1.06-.39,16.51,16.51,0,0,0-12.26,1.23,14.59,14.59,0,0,0-4,3.18A2.38,2.38,0,0,0-119.7-.64Zm56.26-42.1c-2.22-4.65-4.92-9-9.6-11.6A9.43,9.43,0,0,0-81.89-55c-.6.27-1,1-1.47,1.51a12.12,12.12,0,0,0,1.7,1c3.42,1.26,7,2.14,10.22,3.82C-68.53-47.17-66.09-44.76-63.44-42.74Zm104,75.85H58.17V28c-2.37,0-4.63,0-6.9,0-1.22,0-2.28.11-2.5,1.64a.89.89,0,0,1-.65.56C45.22,30.07,43.11,32.14,40.52,33.12ZM37.38-19.16c-.85-.69-1.62-1.28-2.34-1.92a9.5,9.5,0,0,0-7-2.3c-.43,0-1.14.38-1.2.68-.38,2-.61,4-.87,5.85,4.37,2.08,7.69-.45,11.21-2.08C37.22-19,37.25-19,37.38-19.16Zm19.35,10c.64-1.76-.11-2.58-1.44-3.27-1.53-.79-2.9-1.89-4.43-2.66a4.11,4.11,0,0,0-2.57-.37,28.91,28.91,0,0,0-4,1.56c.77,1.4,1.42,2.71,2.2,3.93a1.77,1.77,0,0,0,1.21.77C50.71-9.17,53.73-9.2,56.73-9.2ZM33.45-9.26c-1.52-4.85-4-6.81-7.8-5.52-1.75.59-3.11,2.44-4.54,3.82-.32.31-.21,1.06-.31,1.7ZM18.36-12.94c2.07-1.45,4.52-2.4,5.61-5.13-2.66-1.19-4.73-4.33-8.33-2.26-.55.32-1.57.63-1.57.94a6.13,6.13,0,0,0,.65,3.43A19.23,19.23,0,0,0,18.36-12.94ZM-118.15,2c2-3.62,9.7-5.16,15.08-2,1-1.78.57-3-1.41-4-3.59-1.72-10.31-.71-13.29,2A2.56,2.56,0,0,0-118.15,2ZM9.93-65.23v-.4c-1.2-.27-2.41-.49-3.58-.83a16.94,16.94,0,0,0-8.6-.2c-2,.43-4.12.08-6.19,0a66.84,66.84,0,0,0-7-.23c-2.71.22-5.37,1.07-8.07,1.27-1.52.11-3.1-.54-4.78-.88a10.31,10.31,0,0,0,9.76,1.55c3.15-1.06,6.35-1.47,9.48-.18a9.65,9.65,0,0,0,7.68,0,12.29,12.29,0,0,1,7.29-.49A34.84,34.84,0,0,0,9.93-65.23Zm33.39,56c0-.25,0-.32,0-.35l-3.38-4.93c-1.55-2.26-2.49-2.63-5.1-2a1.75,1.75,0,0,0-1.17,2.75c.82,1.26,1.61,2.56,2.51,3.76a2.08,2.08,0,0,0,1.39.74C39.46-9.14,41.35-9.19,43.32-9.19ZM-37.45-24.91a75.86,75.86,0,0,1-7.35,3.66c-4.09,1.53-7.83.26-10.45-3.17-.67-.89-1.29-1.82-1.93-2.73A6.1,6.1,0,0,0-57-25c1.14,4.27,5.66,7.53,9.55,6.93C-43-18.76-39.87-21.27-37.45-24.91ZM-102.76,3.19c.49-1.42-.36-2.2-1.3-2.84-3.06-2.05-9.21-1.78-12.16.5-1.83,1.4-1.55,3.22.3,4C-112,.08-107.37,1.68-102.76,3.19ZM-36.12-126c-2.23,3.17-5,6.08-6.9,9.53,1.8-.64,2,1.35,3.1,1.64l6.1-9.18Zm-97.32,11.41c1.9,1.44,2.75,1.51,3.41-.72A2.55,2.55,0,0,1-127-117.4c.29.55.55,1.15.9,1.69s.82,1.63,1.4,1.79c1.42.38,1.9,1,1.17,2.54,1.87-1.34,1.87-2.3.22-3.24-1.95-1.11-2.39-2.29-1.95-4.39a15.08,15.08,0,0,0,0-3l-1.61-.21-.6-1.78-.39.06a11.62,11.62,0,0,1,0,1.61c-.17,1.18.55,2.8-1,3.34a2.77,2.77,0,0,0-2.15,2.46C-131.17-115.21-131.68-114.19-133.43-114.59ZM3.65-64l0-.44c-1.71.38-3.46.65-5.13,1.16a10.41,10.41,0,0,1-7.1-.06,11.57,11.57,0,0,0-7.16-.54c-3,.76-6,1.61-9.21.72a15,15,0,0,0,5.63,1,28.7,28.7,0,0,1,11.07.61,8,8,0,0,0,4,.05C-1.63-62.25,1-63.21,3.65-64ZM-113.66,7.11c4-3.89,8.13-2.45,12.41-.59a6,6,0,0,0-1.47-2.07A10.79,10.79,0,0,0-112.7,3C-115.07,3.73-115.32,5.45-113.66,7.11Zm10.92,5.79c1.53-1,1.57-2.11,0-3.07a8.22,8.22,0,0,0-6.66-1.06,3,3,0,0,0-1.89,1.45c-.19.55.51,1.4.8,2.08A7.67,7.67,0,0,1-102.74,12.89Zm1.35-3c.92-1.06.18-1.84-.51-2.49-2-1.91-6.82-2.6-9.32-1.41-1.7.81-1.89,1.78-.64,3.23C-108.89,7-104.84,7.26-101.39,9.92ZM-71.87-95.62v-8.94h-2.6v8.94ZM39.41-17.88c1.47,1.74,3.25,2,5.29,1.88s3.69-.55,4.84-2.32C48.32-20,43.91-19.89,39.41-17.88ZM56.94-13c0-1.91,0-3.52,0-5.12a1.44,1.44,0,0,0-.74-1c-2.28-1-4.08-.33-5.27,2l2.73,1.89ZM35.15-23.41c4.11,4.52,4.11,4.52,8.66,2.47-1.34-3-.55-2.39-3.65-2.46C38.5-23.44,36.85-23.41,35.15-23.41ZM-73.9-49.07c-2-.66-4-1.36-5.94-1.93a5.71,5.71,0,0,0-5.06,1,9.33,9.33,0,0,0-1.59,2c2.37-.19,4.32-.83,6.32-1.06A56,56,0,0,1-73.9-49.07Zm56.27,59.5c.46.85,1.28,1.64,1.21,2.34-.23,2.34,1.47,2.18,2.86,2.61l1.41-2.33-3-3.77ZM.15-61.16c-3.94.92-7.86,1.84-11.88.25a6.71,6.71,0,0,0-3.07,0c-2.53.3-5.05.7-7.57,1.06,1.82.16,3.7.13,5.58.17s4.06-.21,5.92.31C-6.86-58.28-3.4-59.76.15-61.16ZM-122.56-45c1.2,0,2.69-1.47,2.27-2.72a3.36,3.36,0,0,0-2.32-2.05,3.2,3.2,0,0,0-2.49,1.89C-125.37-45.73-124.55-45.06-122.56-45Zm13.11-4.61c-2.63,2.24-2.75,2.32-2.19,3.13s.27,2.19,1.8,2.08,2.79-.52,2.91-2.61S-109-48.38-109.45-49.63Zm7.64-1.31c3.07-2.44,2.62-1.55,1.83-4-.26-.81-.6-1.21-1.58-1.08-2.23.29-2.24.23-2.85,3.4ZM-132-39.12c1.11,1,.56,3,2.67,2.88a2.44,2.44,0,0,0,2.62-2.43c.25-1.79-1.15-1.79-2-2.22C-130.53-41.81-130.61-39.49-132-39.12Zm28.88-2.31c-3.12,1.73-3.12,1.73-1.81,4.81,3.14.19,3.14.19,4.23-2.84Zm116-38.87v.11L22.9-78.4l-.57-2.35,4.79-.3v-.32l-7-.46.26,1.54ZM-.43-19.81c-.89.58-1.79.85-2,1.37a2.17,2.17,0,0,0,.51,2,10.35,10.35,0,0,0,3.35,1.65,2,2,0,0,0,1.69-.85,2,2,0,0,0-.29-1.87A25.88,25.88,0,0,0-.43-19.81Zm-5.93,3.12c1.75,0,3.39-1.08,3.27-2.22s-2-2.2-3.54-1.9c-1.22.24-2.73.31-2.8,2.1C-9.49-17.62-8.06-16.73-6.36-16.69Zm4.67-3.47a14.83,14.83,0,0,0,3-1.36,2.26,2.26,0,0,0,.85-1.88A2.33,2.33,0,0,0,.39-24.72a6,6,0,0,0-3.13.93,2.62,2.62,0,0,0-1,2.22C-3.57-21-2.43-20.63-1.69-20.17ZM35.15-97.38l-2.46.82-.54-5.93h-.21v8.16l1.79-.56v6.74H34Zm-142,109.44a10.38,10.38,0,0,0-2.47.64c-.38.21-.48.91-.71,1.39a8.67,8.67,0,0,0,1.38.44c1.34.2,2.69.37,4,.47a6.65,6.65,0,0,0,1.54-.24c-.19-.5-.25-1.26-.6-1.45A25.67,25.67,0,0,0-106.81,12.06ZM59-124.67a1.9,1.9,0,0,0-1.8-2.25A1.89,1.89,0,0,0,55-125.19a1.93,1.93,0,0,0,1.7,2.33A2,2,0,0,0,59-124.67ZM-2.8,15.57c1.23.08,1.82-.7,2-1.83a2,2,0,0,0-2-2.1,2.06,2.06,0,0,0-2,2.06A1.84,1.84,0,0,0-2.8,15.57Zm27-35.17.66-.28c-.32-1.11-.33-2.84-1-3.2-1.07-.55-2.62-.14-4-.14l-.07.45ZM14-9.26h4c-.74-2-2.56-2.55-4-4,0,1.24,0,2.09,0,2.94C14-10,14-9.67,14-9.26Zm-32.72-135.9c3.21,1.44,5.58,2,6.82,1.53C-13.32-145.59-15.38-146.07-18.69-145.17Zm2.15-1.5c-1.11-2.51-3.61-3.09-6.58-1.87ZM-104,16.71c-1-1.38-3.39-2.11-4.73-1.37-.26.15-.2.88-.29,1.34,1.5.2,3,.42,4.49.57C-104.37,17.27-104.17,16.9-104,16.71ZM-6.78-139.16l.13-.51c-1.39-2-3.47-2.44-6.92-1.34ZM-86.81-44l6.05-3.56C-84.85-47.8-87-46.6-86.81-44ZM14.13-23.4c-.22,1.83,0,2.09,1.57,1.71a16.46,16.46,0,0,0,2-.55c.31-.12.54-.46.81-.7-.29-.15-.57-.42-.87-.43C16.47-23.43,15.3-23.4,14.13-23.4ZM.25-92.13c1-1.41.64-4.42-.67-5.94C0-96-1.6-94,.25-92.13Zm-27.8,16.88c0,1.95-1.29,3.95.45,6C-25.73-71.54-27.15-73.38-27.55-75.25Zm19.3-18.62-.67,0c0,1.56,0,3.12,0,4.68,0,.29.51.55.79.82.19-.34.56-.7.53-1C-7.72-90.87-8-92.36-8.24-93.87ZM-23-79.11c.89-2.2-.25-4-.66-5.84C-24.26-80-24.26-80-23-79.11Zm-105.29-48.43-.61,0c-.37.55-1.06,1.12-1,1.63s.82,1,1.27,1.48c.44-.45,1.19-.87,1.23-1.36S-127.93-127-128.25-127.55Zm130.36,46-.8-5.74C.06-84.26.27-82.35,2.11-81.58Zm-32.17-4.33.56-.14-.77-5.51C-31.55-88.65-31.39-86.74-30.06-85.92Zm10.25-9.88c-1.35,3-1.1,5.11.74,5.56ZM21.32,14.67l-.62-1.23a6.71,6.71,0,0,0-1.74.26,2.38,2.38,0,0,0-1,1c-.09.16.21.76.42.82a2.57,2.57,0,0,0,1.4,0A9.49,9.49,0,0,0,21.32,14.67ZM53.05,19c-.25,2.08,1.23,1.45,2.11,1.35.41,0,1.15-1,1.05-1.16C55.28,17.26,54.13,19.19,53.05,19ZM-130.79-48.44v7.31h.56C-129.44-43.58-130.63-46-130.79-48.44Zm19.48-.86.52.05c1-2.46-.27-4.89-.52-7.33Zm-14.95-73.65c.8.09,1.56,0,2,.28s.55,1,.8,1.6l.6-.13c-.11-.67,0-1.67-.39-1.94a16.44,16.44,0,0,0-3.34-1.33ZM-13,8.75a9.75,9.75,0,0,0,2-.05c.2,0,.46-1,.34-1.06A23.28,23.28,0,0,0-13,6Zm-106.93-65c-1.18,6.15-1.17,6.7,0,7.44Zm19.38,9.34c-.19,2.19-1.24,4.41-.5,6.68l.5,0Zm-4.36-6.85c1.24-2.74,0-5-.34-7.3Zm-3.68,71.26-.09.68a2.65,2.65,0,0,0,3.23.45l.08-.66ZM-13.52,2-14,1.78l-1.12,1.84,1.61.78Z"/><path d="M-10.13,32.68c6.78,0,13.7,0,20.62,0a5.57,5.57,0,0,1,.07.6H-42l3.6-12.16c2.26-7.63,4.51-15.27,6.83-22.88a2.47,2.47,0,0,1,1.38-1.46c2.83-.84,5.73-1.48,8.58-2.28.95-.26,1.26,0,1.44.91C-19.85-2.78-19.48-1-19,.78a3.1,3.1,0,0,1-.83,3.46c-1.8,1.65-2.22,3.44-.79,5.62a7.54,7.54,0,0,1-.29,9.44A3.77,3.77,0,0,0-21.27,23c.88,2.76,1.54,5.6,2.4,8.38a1.77,1.77,0,0,0,1.27,1c1.89.11,3.78,0,5.68,0C-12,30-12,30-9.64,28.69a5,5,0,0,0,2.15-5.24,31.58,31.58,0,0,1-.07-5.61c-1.95-.76-1.8,1.26-2.65,3-.35-.79-.8-1.3-.72-1.7.47-2.46.9-2.75,3.51-2.9a21.66,21.66,0,0,0,2.53-.5l2.32,2.68L.11,17.19l.58,1.07c-1.56.51-2.57,2.41-4.49,1.17-.28,2.64,0,3,2.29,4A4.27,4.27,0,0,1,.25,25.53a26.41,26.41,0,0,1,1.11,3.66L4,29l.15.61c-1.16.31-2.32.65-3.5.88-.2,0-.58-.38-.74-.66-.34-.61-.61-1.26-.89-1.9-1.11-2.53-1.11-2.53-4.17-2.62A29.39,29.39,0,0,0-6.6,28.12a3.43,3.43,0,0,1-2.81,2.36C-10.73,30.69-10.85,31.36-10.13,32.68Z"/><path d="M36.36,27.87c.25-1.76.45-3.24.68-4.72.37-2.32.13-2.61-2.13-3.21a2.85,2.85,0,0,1-1.37-1.24,4.41,4.41,0,0,1-.63-1.81c-.2-1.6-1-2.23-2.63-2.38-2-.18-1.84-2.27-2.58-3.52-.17-.29.38-1.24.83-1.6,1.6-1.32.9-3.23,1.39-4.83.19-.61.13-1.3.32-1.91.12-.38.54-1,.77-.93a1.52,1.52,0,0,1,1,.78c.76,1.72,1.4,1.87,2.74.56,2.81-2.74,2.8-2.74,4.75.61,3.1,5.32,6.22,10.62,9.31,15.95A6.63,6.63,0,0,1,49.29,21c-.49,0-1,.12-1.48.12A17.4,17.4,0,0,1,46,21c-1.13-.12-1.7.31-1.8,1.5a42.79,42.79,0,0,1-.68,5,1.61,1.61,0,0,1-1.16,1C40.46,28.43,38.55,28.14,36.36,27.87Z"/><path d="M16.31,33.22V28.16c8.19.48,16.39-.78,24.53,1.39l-5,1.08L35.72,32C29.39,33.79,22.9,33.1,16.31,33.22Z"/><path d="M25.2,12.07a16.11,16.11,0,0,1,1,1.43c.91,1.81,2.1,3.07,4.38,2.76.39-.05,1,.39,1.26.77a6.35,6.35,0,0,1,1.25,2.53,44.62,44.62,0,0,0-.87,4.55C32,27.15,32,27.16,29.1,26.93c-.59,0-1.18-.14-1.76-.24-2.53-.45-2.54-.45-2.28-3a30.39,30.39,0,0,1,.48-3.35c.31-1.39-.27-2-1.59-2.21-1-.16-1.93-.44-2.9-.66.61-.84,1.2-1.69,1.83-2.51S24.36,13.12,25.2,12.07Z"/><path d="M40.52,33.12c2.59-1,4.7-3,7.61-3a.89.89,0,0,0,.65-.56c.22-1.53,1.29-1.65,2.5-1.64,2.27,0,4.53,0,6.9,0v5.16H40.52Z"/><path d="M21.32,14.67a9.49,9.49,0,0,1-1.55.85,2.57,2.57,0,0,1-1.4,0c-.21-.06-.51-.65-.42-.82a2.38,2.38,0,0,1,1-1,6.71,6.71,0,0,1,1.74-.26Z"/><path d="M53.05,19c1.08.14,2.23-1.79,3.16.19.09.2-.64,1.12-1.05,1.16C54.28,20.5,52.8,21.12,53.05,19Z"/></g><rect class="cls-1" x="13.64" y="-52.4" width="42.75" height="42.75" rx="8.64" ry="8.64"/><g class="cls-7"><path class="cls-5" d="M64.11-108.82V35.08H-135.46V-157.66H64.11v48.51c-2.87,0-2.91,0-3.64-2.8-.45-1.75-1.28-3-3.19-3.41a2.27,2.27,0,0,1-1.23-1.37,9.28,9.28,0,0,1-.23-2.3c1.37.52,3.74,0,4.42-1,.16-.24-.07-.76-.14-1.26a15.18,15.18,0,0,0-1.73.81c-1.07.69-1.68,0-2.28-.71l-1.3-1.64a19.57,19.57,0,0,1-2.76.68c-2.61.22-2.52.21-3.3,2.71-.35,1.12.12,1.28.88,1.48.8-1.15.43-3.59,2.55-2.67a24.06,24.06,0,0,0-.12,4.3c.31,2.06.9,4.06-1.05,6-1.93-2.09-4-4.15-5.86-6.39A50.9,50.9,0,0,1,37.29-130c-.37-.89-.89-1.27-1.8-.78.29,2.76.47,5.47,2.61,7.5a1.65,1.65,0,0,1,.45.85c.68,3.73,2.64,6.36,6.33,7.62.39.13.58.86.86,1.31a5.4,5.4,0,0,1-1.71.66,2.16,2.16,0,0,1-1.4-.71c-1.69-1.79-3.64-3.38-4-6.11a4.47,4.47,0,0,0-1.27-2.73,7.77,7.77,0,0,1-2.86-6.55,1.35,1.35,0,0,0-.13-.79,10.92,10.92,0,0,0-1.12-1.07c0,2.18.55,4.27-.12,5.82a8.08,8.08,0,0,0,.33,7.55,3.15,3.15,0,0,1-1.13,4.26c-.41.24-1.53.1-1.62-.13-.37-1-1-2.42-.59-3.12.86-1.47.64-2.89.76-4.38s.61-3.06.71-4.6a38,38,0,0,0-.13-4.8c0-.19-.41-.45-.66-.51a.69.69,0,0,0-.55.4c-.23,1.15-.74,2.39-.51,3.46a2.46,2.46,0,0,1-1.09,2.77,7.66,7.66,0,0,0-3,5.05,11.08,11.08,0,0,1-3.07,5.77c-1.3,1.47-2.94,1.43-4.23-.16,1.28-.88,2.5-1.84,3.83-2.62a6.66,6.66,0,0,0,3.11-4.33,6.44,6.44,0,0,1,1.1-2.83c2.07-2.1,2.24-4.75,2.61-7.39-1.37-.46-2.07.09-2.73,1.37a79.22,79.22,0,0,1-5.67,10c-2.46,3.42-5.48,6.43-8.13,9.47h37.4c-.76,1.19-2.79.84-2.38,2.71.25,1.13.68,2.06,2.12,2.25l-.73-2.67a4.79,4.79,0,0,0,4.69-3.69c.56-1.67,1.47-2.13,3.28-1.65,1.51.4,1.54,1.59,1.94,2.52,1.33,3.09,1.17,3.45,5,1.66A1.83,1.83,0,0,0,64.11-108.82ZM-10.13,32.68c-.73-1.32-.6-2,.72-2.2A3.43,3.43,0,0,0-6.6,28.12a29.39,29.39,0,0,1,1.44-2.83c3.05.09,3.05.09,4.17,2.62.28.64.54,1.3.89,1.9.16.28.54.7.74.66,1.18-.23,2.34-.58,3.5-.88L4,29l-2.63.21A26.41,26.41,0,0,0,.25,25.53a4.27,4.27,0,0,0-1.76-2.09c-2.25-1-2.58-1.37-2.29-4,1.93,1.24,2.94-.66,4.49-1.17L.11,17.19l-2.69,1.18L-4.9,15.69a21.66,21.66,0,0,1-2.53.5c-2.6.16-3,.45-3.51,2.9-.08.41.37.91.72,1.7.85-1.69.7-3.71,2.65-3a31.58,31.58,0,0,0,.07,5.61,5,5,0,0,1-2.15,5.24C-12,30-12,30-11.92,32.48c-1.9,0-3.79.07-5.68,0a1.77,1.77,0,0,1-1.27-1c-.86-2.77-1.51-5.61-2.4-8.38a3.77,3.77,0,0,1,.38-3.75,7.54,7.54,0,0,0,.29-9.44c-1.43-2.18-1-4,.79-5.62A3.1,3.1,0,0,0-19,.78c-.49-1.76-.87-3.55-1.23-5.35-.18-.87-.49-1.18-1.44-.91-2.85.79-5.74,1.44-8.58,2.28a2.47,2.47,0,0,0-1.38,1.46c-2.32,7.61-4.57,15.25-6.83,22.88L-42,33.3h52.6a5.57,5.57,0,0,0-.07-.6C3.57,32.68-3.35,32.68-10.13,32.68Zm-98.74-149.13H-88c-.88-1.66-1.78-3.13-2.47-4.7-1.23-2.81-2.33-5.68-3.5-8.52-1.71-4.14-5-6.38-9.15-7.54-2.09-.58-2.34-.46-3.08,1.88h-8.57c-1.15-2.54-2.86-3.35-5.75-2.2A17.39,17.39,0,0,0-125-135c-4.71,3.82-6.85,9.18-8.46,14.8-.32,1.1-.51,2.24-.78,3.47h2.67c-.07-2.06,1.58-2.67,3.24-3.4l-3.57-2.17.8-2,1,.34a9.31,9.31,0,0,1-.24-3c.12-.49,1.24-1,1.94-1,1.34-.09,1.64,1.06,2.05,2.11a2.05,2.05,0,0,0,1.43,1.06c1.56.17,2.59.76,2.78,2.42.05.47.19.92.33,1.54l-2.51.81-.32,3.2a9.44,9.44,0,0,0,5.59-8.22c.11-1.34.37-2.35,1.83-2.86a3.59,3.59,0,0,0,2.34-3.39,8.91,8.91,0,0,1,.35-2.07c.37-1.1,1.09-1.73,2.22-1.45a8.33,8.33,0,0,0-.9,2.43,5.67,5.67,0,0,1-3,5.18,3,3,0,0,0-1.23,2c-.5,4.13-1.78,7.72-5.92,9.78l1.51-.14c-.14,1.43.6,1.64,3.24.94.92,1.34,1.92,1.54,3.89.79.5,1.12,2.06,1.77,3.85,1.39C-108.92-112.87-109.43-114.77-108.87-116.45ZM32.07-80.92l-4.31,5.68c-1.8,2.37-3.62,4.73-5.37,7.13-.31.43-.65,1.27-.45,1.55a2.71,2.71,0,0,0,1.62.67,6.59,6.59,0,0,0,1.79,0c1.29-.12,1.73.46,1.68,1.72-.07,1.84,0,3.69,0,5.53,0,1,.37,1.61,1.53,1.57,1.79-.06,3.58-.07,5.37,0,1.25,0,1.6-.52,1.56-1.67-.06-1.68,0-3.36,0-5s.84-1.76,2.09-1.74,2.2.11,2.17,1.68c0,1.74,0,3.47,0,5.21,0,1.08.28,1.61,1.47,1.56,1.79-.07,3.58-.06,5.37,0,1.23,0,1.64-.55,1.62-1.67s0-2.39,0-3.58c0-4-.48-3.52,3.54-3.59.53,0,1.43-.26,1.5-.55a2.44,2.44,0,0,0-.45-1.73,33.68,33.68,0,0,0-3.35-4.38,12.76,12.76,0,0,1-3.9-11.28,2.06,2.06,0,0,0-1-1.67c-.8-.35-1.46.09-1.78,1.08-.4,1.25-1.14,1.35-2,.37-.69-.83-1.3-1.73-2-2.59-.94-1.21-1.49-1.24-2.39-.08a28.82,28.82,0,0,0-2.2,3A2.35,2.35,0,0,0,34-81.9c.85,2.18,1.86,4.3,2.8,6.44l-.26.14ZM-95.06-81.4c1.44-5.76-1.71-10-6.93-9.53a3.88,3.88,0,0,1-2.19-.48c-3.77-2.25-9.39-.72-10,3.61-4.78-1.59-9.26,2.65-9,6.18a2.8,2.8,0,0,1-1.31,2.82,4.7,4.7,0,0,0-1.42,2.29c-1,3.09.73,6.25,3.48,6.18a4.74,4.74,0,0,1,2.77.9c3.62,2.18,7.31,2.76,11.13.4a1.85,1.85,0,0,1,1.52.08c4.18,2.16,7.53,1.2,9.92-2.86a1.37,1.37,0,0,1,.86-.49A4.07,4.07,0,0,0-92.5-76C-92.15-78.82-92.88-80.41-95.06-81.4ZM-50-74.95-61.71-92.62-68.48-82l-5.06-4.23L-85.87-66.11h40.39l-1.15-1.95c2-.23,3.56-1,3.92-3.08.3-1.73-1.33-4.4-3.08-5.36S-48.64-76.59-50-74.95ZM26.87-134.7l-.21.57c.85.62,1.64,1.63,2.56,1.77a41.06,41.06,0,0,0,5.84.08c-.81-5.23-.76-5.52,1.12-6.77,2.1,3.25,4.63,3.51,7,1,1.25-.13,2.7-.17,3.58-.89,1.09-.89.73-2.4.11-3.6-.39-.76-1-1.38-1.46-2.11a1.81,1.81,0,0,1-.38-1.19c1.13-3.81-1.12-7.19-5.11-7.19a32.6,32.6,0,0,0-5.77,1c-1.78-2-3.82-1.94-5.83.49-1.78-1.54-3.77-2.24-5.91-.89a3.52,3.52,0,0,0-1.3,5.13c-.66,0-1.15,0-1.63,0a8.23,8.23,0,0,0-1.46.11c-1.57.34-2,1.55-.91,2.74a18.13,18.13,0,0,0,1.76,1.54c-2.45,2.84-2,4.36,1.64,5.18a13.62,13.62,0,0,0,3.21.25c1.7,0,3.39-.17,5.16-.27C28.7-136.29,29.08-134.72,26.87-134.7Zm-95.76,21.85,7.38.77.1-.43a15.31,15.31,0,0,1-6.68-8.26h3.51A72.7,72.7,0,0,1-69.76-127a67.62,67.62,0,0,1-3.6-7,31.06,31.06,0,0,1-9.39,13.15h4.5a18.82,18.82,0,0,1-6.67,8.71l7.46-.7a81.46,81.46,0,0,1-10.12,9.69,119.37,119.37,0,0,0,12.74-2,6,6,0,0,1,3.39.05,46.65,46.65,0,0,0,7,1.38c1.91.28,3.85.35,6.09.53C-62.36-106.21-66-109-68.89-112.85Zm48.18-25.48c.08-1.55.6-3,.08-3.9s-2.12-1.21-3.22-1.77c.26-.37.67-.87,1-1.42.5-.86.13-1.45-.72-1.76a4.17,4.17,0,0,0-4.83,1.69c-.27.41-.57.8-.92,1.3l-1.1-3.32a28.28,28.28,0,0,0-3.46,3.38,25.52,25.52,0,0,0-2,4l-2-1.83c-1.49,2.29-1.46,4.53-1.28,6.81.29,3.63.64,4.11,3.86,5.11-.36,4.51,4,7.19,8,4.1.15.28.31.56.45.85,1.42,2.82,4.11,3.7,6.58,2.14,2.29-1.45,2.7-4.4.93-6.79-.19-.26-.61-.61-.55-.76.73-1.63-.57-2.45-1.43-3.43C-18.6-135.2-19.17-137-20.71-138.33Zm14.76,28.44c0-1.22,0-2.25,0-3.27,0-3.43,0-3.43,3.42-3.71h.16c1.11-.06,1.33-.67.79-1.51a27.62,27.62,0,0,0-2-2.58c-2.7-3.28-5.78-6.38-4.71-11.28.1-.44-.64-1.05-1-1.59-.51.35-1.23.59-1.48,1.07-.56,1.08-1.1,1.09-1.81.26s-1.35-1.7-2.09-2.48a1.42,1.42,0,0,0-1.09-.46c-1.67.43-2.77,3.84-2.08,5.43a9.72,9.72,0,0,1,.92,4.28,5.08,5.08,0,0,1-3.24,4.32,6,6,0,0,1-6.25-.71c-.59.73-1.17,1.38-1.66,2.08s-1,1.69-1.55,2.54a19.15,19.15,0,0,0,3,.6c1.29.06,1.88.5,1.82,1.86-.08,1.71,0,3.42,0,5.15h7.48c0-1.64.09-3.2,0-4.75s.54-1.76,1.8-1.77,2.09.19,2,1.75,0,3.19,0,4.78Zm-113,72.36a8.21,8.21,0,0,0-.9-1.54c-.3-.3-.8-.66-1.15-.6s-.76.53-.93.91a2.32,2.32,0,0,0-.06,1.28c.53,3-.6,5.44-2.67,7.58a21.33,21.33,0,0,0-2.27,3,26.79,26.79,0,0,0-1.32,2.46,15.58,15.58,0,0,0,2.71.53c1.11,0,1.56.39,1.49,1.54-.08,1.35,0,2.71,0,4.06,0,.94.31,1.41,1.31,1.38,1.41,0,2.82,0,4.22,0,1,0,1.34-.39,1.3-1.35a35,35,0,0,1,0-3.9,1.67,1.67,0,0,1,.69-1.25c1.76-.7,2.79,0,2.8,1.92,0,.38,0,.76,0,1.14,0,3.42,0,3.42,3.4,3.43s3.39,0,3.41-3.33c0-1-.32-2.37.2-3s1.9-.48,2.9-.64c1.25-.2,1.49-.71.75-1.74-.63-.87-1.33-1.7-2-2.56q-4.55-5.91-9.09-11.82c-1.18-1.53-1.48-1.51-2.74,0C-117.47-39.27-118.09-38.54-118.94-37.52Zm-8.69,68.36c0,.6,0,1.2,0,1.79-.12,1.3.35,1.92,1.75,1.82a32.49,32.49,0,0,1,3.74,0c1,0,1.39-.34,1.36-1.32,0-1.3,0-2.6,0-3.9s.65-1.54,1.74-1.56,1.81.26,1.81,1.5,0,2.6,0,3.9c0,.92.27,1.42,1.3,1.38,1.35-.06,2.71,0,4.06,0,1,0,1.49-.42,1.48-1.44,0-1.46,0-2.93,0-4.39,0-.89.34-1.32,1.24-1.3a8.44,8.44,0,0,0,1.46,0,11.38,11.38,0,0,0,1.48-.42,5.28,5.28,0,0,0-.53-1.41c-3.28-4.3-6.59-8.57-9.89-12.85-2.33-3-2.33-3-4.63-.08-.87,1.12-1.24,1.05-2.07-.16a1.55,1.55,0,0,0-1.25-.64,1.54,1.54,0,0,0-.8,1.13,14,14,0,0,0,0,2.92,4.78,4.78,0,0,1-1.2,3.71c-1.63,1.94-3.13,4-4.64,6a5.32,5.32,0,0,0-.51,1.27,4.88,4.88,0,0,0,1.29.47c2.9.19,2.9.18,2.9,3.06C-127.63,30.51-127.63,30.67-127.63,30.83ZM-72.3-45.34c-.93,1.12-1.67,2-2.42,2.92s-1.3,1.15-1.87-.2a1.61,1.61,0,0,0-1.33-.68c-.31,0-.65.68-.8,1.12a2.73,2.73,0,0,0,0,1.29A7.64,7.64,0,0,1-81-34.15a31.71,31.71,0,0,0-2.61,3.3,22.16,22.16,0,0,0-1.28,2.32,14.6,14.6,0,0,0,2.59.46c1.21,0,1.65.48,1.59,1.66s0,2.6,0,3.9c-.05,1.15.48,1.56,1.56,1.54,1.25,0,2.49,0,3.74,0s1.57-.5,1.53-1.59.06-2.5,0-3.74.72-1.36,1.65-1.37,1.72.17,1.66,1.41,0,2.6,0,3.9c0,1,.41,1.39,1.35,1.39A29.14,29.14,0,0,0-65.27-21a2.08,2.08,0,0,0,1.34-1.36,14.47,14.47,0,0,0,.06-3.08c0-2.51,0-2.48,2.55-2.59a6.57,6.57,0,0,0,1.6-.48,8.41,8.41,0,0,0-.73-1.52q-3.61-4.79-7.29-9.53C-69.2-41.45-70.67-43.29-72.3-45.34ZM-2.18-33.28A12.3,12.3,0,0,0-14.52-45.64,12.38,12.38,0,0,0-26.78-33.2,12.45,12.45,0,0,0-14.51-20.93,12.33,12.33,0,0,0-2.18-33.28Zm-78.05-91.6a9.45,9.45,0,0,1,2-9.36,88.37,88.37,0,0,1,6.68-6.29c3.3,4.45,7.8,8.65,6.48,15.45,5.74-2.55,7.66-9.4,5.66-12.81-1.2,2.45-1.6,2.85-3.4,3.41,2.36-3.51,2.36-6,.12-9-1.36-1.84-2.6-3.77-3.88-5.63-1.27,1.3-1.24,3.35-1.18,5.8-3.21-4.11-2.93-8.23-2.22-12.61a51.46,51.46,0,0,0-6,6,10.61,10.61,0,0,0-2.13,8.05l-.43.1-2.06-3.68A15.06,15.06,0,0,0-80.23-124.88ZM-57.45,7.63l-.42-.42c2.38-2.79,2.38-5.45.11-8.15-1.43-1.69-2.77-3.46-4.16-5.22-1.36,1.13-1.29,3-1.3,5.15a7.52,7.52,0,0,1-2.56-5.48c0-2,.19-3.91.31-5.9-4.65,3.08-9.1,6.33-9,13.06l-2.29-3.5c-5.59,5.9-5.4,14.81.53,19.16-1.43-3.62-.15-6.56,2.3-9,2-2,4.21-3.83,6.58-6,2,2.5,3.95,4.79,5.62,7.3,1.47,2.21,2.52,4.67,1.07,7.5,5-1.87,8.43-6.56,6.5-11.86Zm-9.26,19.74c0,1,0,1.87,0,2.79,0,4,0,3.27,3.17,3.27,3.8,0,3.24.55,3.28-3.24,0-3.06,0-3.07,3.05-3.45,1.11-.14,1.49-.57.71-1.58Q-62,18-67.45,10.91c-.53-.69-1.07-.65-1.58,0s-1.08,1.48-1.66,2.2-1.27.67-1.5-.13c-.36-1.27-1.08-1.06-2.13-.83,0,1.13-.08,2.21,0,3.27a5.2,5.2,0,0,1-1.35,4.15c-1.52,1.75-2.89,3.63-4.3,5.48-.8,1.06-.58,1.57.66,1.71,3,.34,3,.34,3,3.45q0,.41,0,.81c0,2.43,0,2.43,2.49,2.43,3.89,0,3.89,0,3.88-3.82C-69.9,26.93-69.62,26.72-66.71,27.38Zm103.06.5c2.19.26,4.1.56,6,.67a1.61,1.61,0,0,0,1.16-1,42.79,42.79,0,0,0,.68-5c.1-1.2.67-1.62,1.8-1.5a17.4,17.4,0,0,0,1.78.11c.49,0,1-.08,1.48-.12a6.63,6.63,0,0,0-.44-1.43C45.76,14.29,42.63,9,39.53,3.66,37.59.32,37.6.32,34.79,3.06c-1.35,1.31-2,1.16-2.74-.56a1.52,1.52,0,0,0-1-.78c-.23,0-.65.55-.77.93-.19.61-.14,1.29-.32,1.91-.49,1.6.21,3.51-1.39,4.83-.45.37-1,1.32-.83,1.6.74,1.26.56,3.34,2.58,3.52,1.59.14,2.44.78,2.63,2.38a4.41,4.41,0,0,0,.63,1.81,2.85,2.85,0,0,0,1.37,1.24c2.26.6,2.5.89,2.13,3.21C36.8,24.63,36.61,26.12,36.36,27.87ZM-3.2-66.54l.14-.52A1.71,1.71,0,0,0-3-67.37c.07-1-.23-2.36.31-3s1.89-.32,2.88-.45,1.48-.75.79-1.65c-3.84-5-7.73-10-11.59-15-.6-.78-1.14-.66-1.69.07s-1.13,1.45-1.71,2.16-1.25.82-1.51,0-.85-1.42-1.59-1a2.2,2.2,0,0,0-.78,1.8c.25,2.82-.21,5.32-2.31,7.41a23,23,0,0,0-2.61,3.31,20.93,20.93,0,0,0-1.28,2.47,15.43,15.43,0,0,0,2.75.49c1.17,0,1.53.49,1.46,1.58-.06.89,0,1.78,0,2.68L-13.2-68c.46-.92-.57-2.29,1.37-2.52,2.66-.3,1.93,1.58,2.12,3.15ZM-49.42-44.93a9.26,9.26,0,0,0-1.79-.71c-2.53-.32-4.13,1.17-4.14,3.95a37,37,0,0,0,2,12.34,17,17,0,0,1-5.61-9c-.67-2.6-1.12-5.26-1.65-7.89A14.07,14.07,0,0,0-65-54.54c-1.38-1.18-3-2-4.91-1.18-1.29.54-1.44,1.39-.44,2.34.54.52,1.18.95,1.75,1.43C-65.21-49-63.45-45.08-61.9-41c2,5.23,3.8,10.52,6.91,15.28,4.67,7.14,12.17,4.2,16.24-.32a28.19,28.19,0,0,1-3.34.48c-3.35.09-5.63-.76-6.49-3.4a3.63,3.63,0,0,1,.3-2.94c.43-.54,1.79-.41,2.74-.44.57,0,1.15.35,1.72.33a1.65,1.65,0,0,0,1.17-.62c.15-.23,0-.83-.27-1.14a4.27,4.27,0,0,0-4-1.7,3.23,3.23,0,0,0-3.2,2.73,39.25,39.25,0,0,0,0,5.13c-1.82-1.59-2.16-3.81-2.49-5.93C-53.29-37.65-53.09-41.6-49.42-44.93Zm-77.14-55.86a4.31,4.31,0,0,0-5.37,3.5,4.44,4.44,0,0,1-1,2.17c-1.35,1.64-1.15,4.12.6,4.86a22.59,22.59,0,0,0,4.81,1.63,9,9,0,0,0,3.87-.38,2.56,2.56,0,0,1,2,0,4,4,0,0,0,5.44-1.58,2,2,0,0,1,1-.65c1.8-.66,2.74-3.21,1.46-4.65a4.25,4.25,0,0,1-.94-3.06,3.63,3.63,0,0,0-3.86-3.69,6.08,6.08,0,0,1-2.15-.44C-123.32-104.22-125.4-103.44-126.56-100.79Zm80-5.57h49v-2.84H-40.13v-4.32l-2-.68L-44-113.12v3.9l-2.52.17Zm67.46,75,3.66-2.44,1,3.19,1.84-2.81,3,4.49.24-.09-.48-5.33,3.41.85-1.58-3.08,5.66.33.06-.24-4.92-2.73,3-2.24L32.1-42l3.55-4.86-5.32,2.66-.25-3.16-.48-.22L27.73-45l-1.88-5.37h-.28l-.72,5.42-3.38-1.87,1,3.43-5-1.36-.13.32,3.78,3.51L18-39.63,21-38l-4.6,3.86,5.86-1.33Zm3.36-60.75-7.86-11.73c-1.09,1.53-2.12,2.85-3,4.28a1.72,1.72,0,0,0,.11,1.6c3.53,3.87,7.13,7.67,10.81,11.58l1.88-3.16,7.36,9.29.25-.18L26.91-96.1Zm19.8,55-.52.13c.28,1.83,0,4,1,5.41,1.7,2.58,1.87,5.19,1.6,8.09l-1.61.23c.81,1,1.37,2.22,2.05,2.3a64.46,64.46,0,0,0,7.08.1l.24-.5c-1.07-.68-2.15-1.35-3.2-2.06a1.8,1.8,0,0,1-.56-.68c-.85-1.71.53-2.64,1.31-3.8A8.32,8.32,0,0,0,52-29.14l-.38-.17-2,1.43c-.38-2.74-.32-2.67,1.49-4.22a15.78,15.78,0,0,0,2.08-2.73l-.35-.25-3.3,2.81c-1-2.92,2.36-4.24,2.08-7.05l-2.33,2.72c-1.12-2.42-.61-4.56.62-6.68l-1.63,1.47-1-6.89-.28,0V-43l-.35.14-3.9-4.93a11.46,11.46,0,0,0,1.23,3.31c.57,1,1.52,1.72,2.07,2.7A13.29,13.29,0,0,1,47-39l-.47.14-2.11-1.86-.48.35c.42.78.65,1.8,1.29,2.29a4,4,0,0,1,1.45,4.58,17.6,17.6,0,0,0-.24,2l-.56.11ZM16.31,33.22c6.59-.12,13.08.57,19.41-1.26l.16-1.33,5-1.08c-8.14-2.17-16.34-.9-24.53-1.39ZM25.2,12.07c-.84,1-1.59,2-2.31,2.9s-1.22,1.67-1.83,2.51c1,.23,1.92.51,2.9.66,1.32.21,1.9.82,1.59,2.21a30.39,30.39,0,0,0-.48,3.35c-.26,2.54-.25,2.54,2.28,3,.58.1,1.17.19,1.76.24,2.92.23,2.85.22,3.13-2.83a44.62,44.62,0,0,1,.87-4.55A6.35,6.35,0,0,0,31.84,17c-.29-.37-.87-.82-1.26-.77-2.28.31-3.48-.95-4.38-2.76A16.11,16.11,0,0,0,25.2,12.07ZM-119.7-.64c3.34-5.93,16.12-6.59,18-1.54,2.45-2.24,2.13-4.55-.82-6a7.52,7.52,0,0,0-1.06-.39,16.51,16.51,0,0,0-12.26,1.23,14.59,14.59,0,0,0-4,3.18A2.38,2.38,0,0,0-119.7-.64Zm56.26-42.1c-2.22-4.65-4.92-9-9.6-11.6A9.43,9.43,0,0,0-81.89-55c-.6.27-1,1-1.47,1.51a12.12,12.12,0,0,0,1.7,1c3.42,1.26,7,2.14,10.22,3.82C-68.53-47.17-66.09-44.76-63.44-42.74Zm104,75.85H58.17V28c-2.37,0-4.63,0-6.9,0-1.22,0-2.28.11-2.5,1.64a.89.89,0,0,1-.65.56C45.22,30.07,43.11,32.14,40.52,33.12ZM37.38-19.16c-.85-.69-1.62-1.28-2.34-1.92a9.5,9.5,0,0,0-7-2.3c-.43,0-1.14.38-1.2.68-.38,2-.61,4-.87,5.85,4.37,2.08,7.69-.45,11.21-2.08C37.22-19,37.25-19,37.38-19.16Zm19.35,10c.64-1.76-.11-2.58-1.44-3.27-1.53-.79-2.9-1.89-4.43-2.66a4.11,4.11,0,0,0-2.57-.37,28.91,28.91,0,0,0-4,1.56c.77,1.4,1.42,2.71,2.2,3.93a1.77,1.77,0,0,0,1.21.77C50.71-9.17,53.73-9.2,56.73-9.2ZM33.45-9.26c-1.52-4.85-4-6.81-7.8-5.52-1.75.59-3.11,2.44-4.54,3.82-.32.31-.21,1.06-.31,1.7ZM18.36-12.94c2.07-1.45,4.52-2.4,5.61-5.13-2.66-1.19-4.73-4.33-8.33-2.26-.55.32-1.57.63-1.57.94a6.13,6.13,0,0,0,.65,3.43A19.23,19.23,0,0,0,18.36-12.94ZM-118.15,2c2-3.62,9.7-5.16,15.08-2,1-1.78.57-3-1.41-4-3.59-1.72-10.31-.71-13.29,2A2.56,2.56,0,0,0-118.15,2ZM9.93-65.23v-.4c-1.2-.27-2.41-.49-3.58-.83a16.94,16.94,0,0,0-8.6-.2c-2,.43-4.12.08-6.19,0a66.84,66.84,0,0,0-7-.23c-2.71.22-5.37,1.07-8.07,1.27-1.52.11-3.1-.54-4.78-.88a10.31,10.31,0,0,0,9.76,1.55c3.15-1.06,6.35-1.47,9.48-.18a9.65,9.65,0,0,0,7.68,0,12.29,12.29,0,0,1,7.29-.49A34.84,34.84,0,0,0,9.93-65.23Zm33.39,56c0-.25,0-.32,0-.35l-3.38-4.93c-1.55-2.26-2.49-2.63-5.1-2a1.75,1.75,0,0,0-1.17,2.75c.82,1.26,1.61,2.56,2.51,3.76a2.08,2.08,0,0,0,1.39.74C39.46-9.14,41.35-9.19,43.32-9.19ZM-37.45-24.91a75.86,75.86,0,0,1-7.35,3.66c-4.09,1.53-7.83.26-10.45-3.17-.67-.89-1.29-1.82-1.93-2.73A6.1,6.1,0,0,0-57-25c1.14,4.27,5.66,7.53,9.55,6.93C-43-18.76-39.87-21.27-37.45-24.91ZM-102.76,3.19c.49-1.42-.36-2.2-1.3-2.84-3.06-2.05-9.21-1.78-12.16.5-1.83,1.4-1.55,3.22.3,4C-112,.08-107.37,1.68-102.76,3.19ZM-36.12-126c-2.23,3.17-5,6.08-6.9,9.53,1.8-.64,2,1.35,3.1,1.64l6.1-9.18Zm-97.32,11.41c1.9,1.44,2.75,1.51,3.41-.72A2.55,2.55,0,0,1-127-117.4c.29.55.55,1.15.9,1.69s.82,1.63,1.4,1.79c1.42.38,1.9,1,1.17,2.54,1.87-1.34,1.87-2.3.22-3.24-1.95-1.11-2.39-2.29-1.95-4.39a15.08,15.08,0,0,0,0-3l-1.61-.21-.6-1.78-.39.06a11.62,11.62,0,0,1,0,1.61c-.17,1.18.55,2.8-1,3.34a2.77,2.77,0,0,0-2.15,2.46C-131.17-115.21-131.68-114.19-133.43-114.59ZM3.65-64l0-.44c-1.71.38-3.46.65-5.13,1.16a10.41,10.41,0,0,1-7.1-.06,11.57,11.57,0,0,0-7.16-.54c-3,.76-6,1.61-9.21.72a15,15,0,0,0,5.63,1,28.7,28.7,0,0,1,11.07.61,8,8,0,0,0,4,.05C-1.63-62.25,1-63.21,3.65-64ZM-113.66,7.11c4-3.89,8.13-2.45,12.41-.59a6,6,0,0,0-1.47-2.07A10.79,10.79,0,0,0-112.7,3C-115.07,3.73-115.32,5.45-113.66,7.11Zm10.92,5.79c1.53-1,1.57-2.11,0-3.07a8.22,8.22,0,0,0-6.66-1.06,3,3,0,0,0-1.89,1.45c-.19.55.51,1.4.8,2.08A7.67,7.67,0,0,1-102.74,12.89Zm1.35-3c.92-1.06.18-1.84-.51-2.49-2-1.91-6.82-2.6-9.32-1.41-1.7.81-1.89,1.78-.64,3.23C-108.89,7-104.84,7.26-101.39,9.92ZM-71.87-95.62v-8.94h-2.6v8.94ZM39.41-17.88c1.47,1.74,3.25,2,5.29,1.88s3.69-.55,4.84-2.32C48.32-20,43.91-19.89,39.41-17.88ZM56.94-13c0-1.91,0-3.52,0-5.12a1.44,1.44,0,0,0-.74-1c-2.28-1-4.08-.33-5.27,2l2.73,1.89ZM35.15-23.41c4.11,4.52,4.11,4.52,8.66,2.47-1.34-3-.55-2.39-3.65-2.46C38.5-23.44,36.85-23.41,35.15-23.41ZM-73.9-49.07c-2-.66-4-1.36-5.94-1.93a5.71,5.71,0,0,0-5.06,1,9.33,9.33,0,0,0-1.59,2c2.37-.19,4.32-.83,6.32-1.06A56,56,0,0,1-73.9-49.07Zm56.27,59.5c.46.85,1.28,1.64,1.21,2.34-.23,2.34,1.47,2.18,2.86,2.61l1.41-2.33-3-3.77ZM.15-61.16c-3.94.92-7.86,1.84-11.88.25a6.71,6.71,0,0,0-3.07,0c-2.53.3-5.05.7-7.57,1.06,1.82.16,3.7.13,5.58.17s4.06-.21,5.92.31C-6.86-58.28-3.4-59.76.15-61.16ZM-122.56-45c1.2,0,2.69-1.47,2.27-2.72a3.36,3.36,0,0,0-2.32-2.05,3.2,3.2,0,0,0-2.49,1.89C-125.37-45.73-124.55-45.06-122.56-45Zm13.11-4.61c-2.63,2.24-2.75,2.32-2.19,3.13s.27,2.19,1.8,2.08,2.79-.52,2.91-2.61S-109-48.38-109.45-49.63Zm7.64-1.31c3.07-2.44,2.62-1.55,1.83-4-.26-.81-.6-1.21-1.58-1.08-2.23.29-2.24.23-2.85,3.4ZM-132-39.12c1.11,1,.56,3,2.67,2.88a2.44,2.44,0,0,0,2.62-2.43c.25-1.79-1.15-1.79-2-2.22C-130.53-41.81-130.61-39.49-132-39.12Zm28.88-2.31c-3.12,1.73-3.12,1.73-1.81,4.81,3.14.19,3.14.19,4.23-2.84Zm116-38.87v.11L22.9-78.4l-.57-2.35,4.79-.3v-.32l-7-.46.26,1.54ZM-.43-19.81c-.89.58-1.79.85-2,1.37a2.17,2.17,0,0,0,.51,2,10.35,10.35,0,0,0,3.35,1.65,2,2,0,0,0,1.69-.85,2,2,0,0,0-.29-1.87A25.88,25.88,0,0,0-.43-19.81Zm-5.93,3.12c1.75,0,3.39-1.08,3.27-2.22s-2-2.2-3.54-1.9c-1.22.24-2.73.31-2.8,2.1C-9.49-17.62-8.06-16.73-6.36-16.69Zm4.67-3.47a14.83,14.83,0,0,0,3-1.36,2.26,2.26,0,0,0,.85-1.88A2.33,2.33,0,0,0,.39-24.72a6,6,0,0,0-3.13.93,2.62,2.62,0,0,0-1,2.22C-3.57-21-2.43-20.63-1.69-20.17ZM35.15-97.38l-2.46.82-.54-5.93h-.21v8.16l1.79-.56v6.74H34Zm-142,109.44a10.38,10.38,0,0,0-2.47.64c-.38.21-.48.91-.71,1.39a8.67,8.67,0,0,0,1.38.44c1.34.2,2.69.37,4,.47a6.65,6.65,0,0,0,1.54-.24c-.19-.5-.25-1.26-.6-1.45A25.67,25.67,0,0,0-106.81,12.06ZM59-124.67a1.9,1.9,0,0,0-1.8-2.25A1.89,1.89,0,0,0,55-125.19a1.93,1.93,0,0,0,1.7,2.33A2,2,0,0,0,59-124.67ZM-2.8,15.57c1.23.08,1.82-.7,2-1.83a2,2,0,0,0-2-2.1,2.06,2.06,0,0,0-2,2.06A1.84,1.84,0,0,0-2.8,15.57Zm27-35.17.66-.28c-.32-1.11-.33-2.84-1-3.2-1.07-.55-2.62-.14-4-.14l-.07.45ZM14-9.26h4c-.74-2-2.56-2.55-4-4,0,1.24,0,2.09,0,2.94C14-10,14-9.67,14-9.26Zm-32.72-135.9c3.21,1.44,5.58,2,6.82,1.53C-13.32-145.59-15.38-146.07-18.69-145.17Zm2.15-1.5c-1.11-2.51-3.61-3.09-6.58-1.87ZM-104,16.71c-1-1.38-3.39-2.11-4.73-1.37-.26.15-.2.88-.29,1.34,1.5.2,3,.42,4.49.57C-104.37,17.27-104.17,16.9-104,16.71ZM-6.78-139.16l.13-.51c-1.39-2-3.47-2.44-6.92-1.34ZM-86.81-44l6.05-3.56C-84.85-47.8-87-46.6-86.81-44ZM14.13-23.4c-.22,1.83,0,2.09,1.57,1.71a16.46,16.46,0,0,0,2-.55c.31-.12.54-.46.81-.7-.29-.15-.57-.42-.87-.43C16.47-23.43,15.3-23.4,14.13-23.4ZM.25-92.13c1-1.41.64-4.42-.67-5.94C0-96-1.6-94,.25-92.13Zm-27.8,16.88c0,1.95-1.29,3.95.45,6C-25.73-71.54-27.15-73.38-27.55-75.25Zm19.3-18.62-.67,0c0,1.56,0,3.12,0,4.68,0,.29.51.55.79.82.19-.34.56-.7.53-1C-7.72-90.87-8-92.36-8.24-93.87ZM-23-79.11c.89-2.2-.25-4-.66-5.84C-24.26-80-24.26-80-23-79.11Zm-105.29-48.43-.61,0c-.37.55-1.06,1.12-1,1.63s.82,1,1.27,1.48c.44-.45,1.19-.87,1.23-1.36S-127.93-127-128.25-127.55Zm130.36,46-.8-5.74C.06-84.26.27-82.35,2.11-81.58Zm-32.17-4.33.56-.14-.77-5.51C-31.55-88.65-31.39-86.74-30.06-85.92Zm10.25-9.88c-1.35,3-1.1,5.11.74,5.56ZM21.32,14.67l-.62-1.23a6.71,6.71,0,0,0-1.74.26,2.38,2.38,0,0,0-1,1c-.09.16.21.76.42.82a2.57,2.57,0,0,0,1.4,0A9.49,9.49,0,0,0,21.32,14.67ZM53.05,19c-.25,2.08,1.23,1.45,2.11,1.35.41,0,1.15-1,1.05-1.16C55.28,17.26,54.13,19.19,53.05,19ZM-130.79-48.44v7.31h.56C-129.44-43.58-130.63-46-130.79-48.44Zm19.48-.86.52.05c1-2.46-.27-4.89-.52-7.33Zm-14.95-73.65c.8.09,1.56,0,2,.28s.55,1,.8,1.6l.6-.13c-.11-.67,0-1.67-.39-1.94a16.44,16.44,0,0,0-3.34-1.33ZM-13,8.75a9.75,9.75,0,0,0,2-.05c.2,0,.46-1,.34-1.06A23.28,23.28,0,0,0-13,6Zm-106.93-65c-1.18,6.15-1.17,6.7,0,7.44Zm19.38,9.34c-.19,2.19-1.24,4.41-.5,6.68l.5,0Zm-4.36-6.85c1.24-2.74,0-5-.34-7.3Zm-3.68,71.26-.09.68a2.65,2.65,0,0,0,3.23.45l.08-.66ZM-13.52,2-14,1.78l-1.12,1.84,1.61.78Z"/><path d="M-10.13,32.68c6.78,0,13.7,0,20.62,0a5.57,5.57,0,0,1,.07.6H-42l3.6-12.16c2.26-7.63,4.51-15.27,6.83-22.88a2.47,2.47,0,0,1,1.38-1.46c2.83-.84,5.73-1.48,8.58-2.28.95-.26,1.26,0,1.44.91C-19.85-2.78-19.48-1-19,.78a3.1,3.1,0,0,1-.83,3.46c-1.8,1.65-2.22,3.44-.79,5.62a7.54,7.54,0,0,1-.29,9.44A3.77,3.77,0,0,0-21.27,23c.88,2.76,1.54,5.6,2.4,8.38a1.77,1.77,0,0,0,1.27,1c1.89.11,3.78,0,5.68,0C-12,30-12,30-9.64,28.69a5,5,0,0,0,2.15-5.24,31.58,31.58,0,0,1-.07-5.61c-1.95-.76-1.8,1.26-2.65,3-.35-.79-.8-1.3-.72-1.7.47-2.46.9-2.75,3.51-2.9a21.66,21.66,0,0,0,2.53-.5l2.32,2.68L.11,17.19l.58,1.07c-1.56.51-2.57,2.41-4.49,1.17-.28,2.64,0,3,2.29,4A4.27,4.27,0,0,1,.25,25.53a26.41,26.41,0,0,1,1.11,3.66L4,29l.15.61c-1.16.31-2.32.65-3.5.88-.2,0-.58-.38-.74-.66-.34-.61-.61-1.26-.89-1.9-1.11-2.53-1.11-2.53-4.17-2.62A29.39,29.39,0,0,0-6.6,28.12a3.43,3.43,0,0,1-2.81,2.36C-10.73,30.69-10.85,31.36-10.13,32.68Z"/><path d="M36.36,27.87c.25-1.76.45-3.24.68-4.72.37-2.32.13-2.61-2.13-3.21a2.85,2.85,0,0,1-1.37-1.24,4.41,4.41,0,0,1-.63-1.81c-.2-1.6-1-2.23-2.63-2.38-2-.18-1.84-2.27-2.58-3.52-.17-.29.38-1.24.83-1.6,1.6-1.32.9-3.23,1.39-4.83.19-.61.13-1.3.32-1.91.12-.38.54-1,.77-.93a1.52,1.52,0,0,1,1,.78c.76,1.72,1.4,1.87,2.74.56,2.81-2.74,2.8-2.74,4.75.61,3.1,5.32,6.22,10.62,9.31,15.95A6.63,6.63,0,0,1,49.29,21c-.49,0-1,.12-1.48.12A17.4,17.4,0,0,1,46,21c-1.13-.12-1.7.31-1.8,1.5a42.79,42.79,0,0,1-.68,5,1.61,1.61,0,0,1-1.16,1C40.46,28.43,38.55,28.14,36.36,27.87Z"/><path d="M16.31,33.22V28.16c8.19.48,16.39-.78,24.53,1.39l-5,1.08L35.72,32C29.39,33.79,22.9,33.1,16.31,33.22Z"/><path d="M25.2,12.07a16.11,16.11,0,0,1,1,1.43c.91,1.81,2.1,3.07,4.38,2.76.39-.05,1,.39,1.26.77a6.35,6.35,0,0,1,1.25,2.53,44.62,44.62,0,0,0-.87,4.55C32,27.15,32,27.16,29.1,26.93c-.59,0-1.18-.14-1.76-.24-2.53-.45-2.54-.45-2.28-3a30.39,30.39,0,0,1,.48-3.35c.31-1.39-.27-2-1.59-2.21-1-.16-1.93-.44-2.9-.66.61-.84,1.2-1.69,1.83-2.51S24.36,13.12,25.2,12.07Z"/><path d="M40.52,33.12c2.59-1,4.7-3,7.61-3a.89.89,0,0,0,.65-.56c.22-1.53,1.29-1.65,2.5-1.64,2.27,0,4.53,0,6.9,0v5.16H40.52Z"/><path d="M21.32,14.67a9.49,9.49,0,0,1-1.55.85,2.57,2.57,0,0,1-1.4,0c-.21-.06-.51-.65-.42-.82a2.38,2.38,0,0,1,1-1,6.71,6.71,0,0,1,1.74-.26Z"/><path d="M53.05,19c1.08.14,2.23-1.79,3.16.19.09.2-.64,1.12-1.05,1.16C54.28,20.5,52.8,21.12,53.05,19Z"/></g><g class="cls-6"><path class="cls-5" d="M64.11-108.82V35.08H-135.46V-157.66H64.11v48.51c-2.87,0-2.91,0-3.64-2.8-.45-1.75-1.28-3-3.19-3.41a2.27,2.27,0,0,1-1.23-1.37,9.28,9.28,0,0,1-.23-2.3c1.37.52,3.74,0,4.42-1,.16-.24-.07-.76-.14-1.26a15.18,15.18,0,0,0-1.73.81c-1.07.69-1.68,0-2.28-.71l-1.3-1.64a19.57,19.57,0,0,1-2.76.68c-2.61.22-2.52.21-3.3,2.71-.35,1.12.12,1.28.88,1.48.8-1.15.43-3.59,2.55-2.67a24.06,24.06,0,0,0-.12,4.3c.31,2.06.9,4.06-1.05,6-1.93-2.09-4-4.15-5.86-6.39A50.9,50.9,0,0,1,37.29-130c-.37-.89-.89-1.27-1.8-.78.29,2.76.47,5.47,2.61,7.5a1.65,1.65,0,0,1,.45.85c.68,3.73,2.64,6.36,6.33,7.62.39.13.58.86.86,1.31a5.4,5.4,0,0,1-1.71.66,2.16,2.16,0,0,1-1.4-.71c-1.69-1.79-3.64-3.38-4-6.11a4.47,4.47,0,0,0-1.27-2.73,7.77,7.77,0,0,1-2.86-6.55,1.35,1.35,0,0,0-.13-.79,10.92,10.92,0,0,0-1.12-1.07c0,2.18.55,4.27-.12,5.82a8.08,8.08,0,0,0,.33,7.55,3.15,3.15,0,0,1-1.13,4.26c-.41.24-1.53.1-1.62-.13-.37-1-1-2.42-.59-3.12.86-1.47.64-2.89.76-4.38s.61-3.06.71-4.6a38,38,0,0,0-.13-4.8c0-.19-.41-.45-.66-.51a.69.69,0,0,0-.55.4c-.23,1.15-.74,2.39-.51,3.46a2.46,2.46,0,0,1-1.09,2.77,7.66,7.66,0,0,0-3,5.05,11.08,11.08,0,0,1-3.07,5.77c-1.3,1.47-2.94,1.43-4.23-.16,1.28-.88,2.5-1.84,3.83-2.62a6.66,6.66,0,0,0,3.11-4.33,6.44,6.44,0,0,1,1.1-2.83c2.07-2.1,2.24-4.75,2.61-7.39-1.37-.46-2.07.09-2.73,1.37a79.22,79.22,0,0,1-5.67,10c-2.46,3.42-5.48,6.43-8.13,9.47h37.4c-.76,1.19-2.79.84-2.38,2.71.25,1.13.68,2.06,2.12,2.25l-.73-2.67a4.79,4.79,0,0,0,4.69-3.69c.56-1.67,1.47-2.13,3.28-1.65,1.51.4,1.54,1.59,1.94,2.52,1.33,3.09,1.17,3.45,5,1.66A1.83,1.83,0,0,0,64.11-108.82ZM-10.13,32.68c-.73-1.32-.6-2,.72-2.2A3.43,3.43,0,0,0-6.6,28.12a29.39,29.39,0,0,1,1.44-2.83c3.05.09,3.05.09,4.17,2.62.28.64.54,1.3.89,1.9.16.28.54.7.74.66,1.18-.23,2.34-.58,3.5-.88L4,29l-2.63.21A26.41,26.41,0,0,0,.25,25.53a4.27,4.27,0,0,0-1.76-2.09c-2.25-1-2.58-1.37-2.29-4,1.93,1.24,2.94-.66,4.49-1.17L.11,17.19l-2.69,1.18L-4.9,15.69a21.66,21.66,0,0,1-2.53.5c-2.6.16-3,.45-3.51,2.9-.08.41.37.91.72,1.7.85-1.69.7-3.71,2.65-3a31.58,31.58,0,0,0,.07,5.61,5,5,0,0,1-2.15,5.24C-12,30-12,30-11.92,32.48c-1.9,0-3.79.07-5.68,0a1.77,1.77,0,0,1-1.27-1c-.86-2.77-1.51-5.61-2.4-8.38a3.77,3.77,0,0,1,.38-3.75,7.54,7.54,0,0,0,.29-9.44c-1.43-2.18-1-4,.79-5.62A3.1,3.1,0,0,0-19,.78c-.49-1.76-.87-3.55-1.23-5.35-.18-.87-.49-1.18-1.44-.91-2.85.79-5.74,1.44-8.58,2.28a2.47,2.47,0,0,0-1.38,1.46c-2.32,7.61-4.57,15.25-6.83,22.88L-42,33.3h52.6a5.57,5.57,0,0,0-.07-.6C3.57,32.68-3.35,32.68-10.13,32.68Zm-98.74-149.13H-88c-.88-1.66-1.78-3.13-2.47-4.7-1.23-2.81-2.33-5.68-3.5-8.52-1.71-4.14-5-6.38-9.15-7.54-2.09-.58-2.34-.46-3.08,1.88h-8.57c-1.15-2.54-2.86-3.35-5.75-2.2A17.39,17.39,0,0,0-125-135c-4.71,3.82-6.85,9.18-8.46,14.8-.32,1.1-.51,2.24-.78,3.47h2.67c-.07-2.06,1.58-2.67,3.24-3.4l-3.57-2.17.8-2,1,.34a9.31,9.31,0,0,1-.24-3c.12-.49,1.24-1,1.94-1,1.34-.09,1.64,1.06,2.05,2.11a2.05,2.05,0,0,0,1.43,1.06c1.56.17,2.59.76,2.78,2.42.05.47.19.92.33,1.54l-2.51.81-.32,3.2a9.44,9.44,0,0,0,5.59-8.22c.11-1.34.37-2.35,1.83-2.86a3.59,3.59,0,0,0,2.34-3.39,8.91,8.91,0,0,1,.35-2.07c.37-1.1,1.09-1.73,2.22-1.45a8.33,8.33,0,0,0-.9,2.43,5.67,5.67,0,0,1-3,5.18,3,3,0,0,0-1.23,2c-.5,4.13-1.78,7.72-5.92,9.78l1.51-.14c-.14,1.43.6,1.64,3.24.94.92,1.34,1.92,1.54,3.89.79.5,1.12,2.06,1.77,3.85,1.39C-108.92-112.87-109.43-114.77-108.87-116.45ZM32.07-80.92l-4.31,5.68c-1.8,2.37-3.62,4.73-5.37,7.13-.31.43-.65,1.27-.45,1.55a2.71,2.71,0,0,0,1.62.67,6.59,6.59,0,0,0,1.79,0c1.29-.12,1.73.46,1.68,1.72-.07,1.84,0,3.69,0,5.53,0,1,.37,1.61,1.53,1.57,1.79-.06,3.58-.07,5.37,0,1.25,0,1.6-.52,1.56-1.67-.06-1.68,0-3.36,0-5s.84-1.76,2.09-1.74,2.2.11,2.17,1.68c0,1.74,0,3.47,0,5.21,0,1.08.28,1.61,1.47,1.56,1.79-.07,3.58-.06,5.37,0,1.23,0,1.64-.55,1.62-1.67s0-2.39,0-3.58c0-4-.48-3.52,3.54-3.59.53,0,1.43-.26,1.5-.55a2.44,2.44,0,0,0-.45-1.73,33.68,33.68,0,0,0-3.35-4.38,12.76,12.76,0,0,1-3.9-11.28,2.06,2.06,0,0,0-1-1.67c-.8-.35-1.46.09-1.78,1.08-.4,1.25-1.14,1.35-2,.37-.69-.83-1.3-1.73-2-2.59-.94-1.21-1.49-1.24-2.39-.08a28.82,28.82,0,0,0-2.2,3A2.35,2.35,0,0,0,34-81.9c.85,2.18,1.86,4.3,2.8,6.44l-.26.14ZM-95.06-81.4c1.44-5.76-1.71-10-6.93-9.53a3.88,3.88,0,0,1-2.19-.48c-3.77-2.25-9.39-.72-10,3.61-4.78-1.59-9.26,2.65-9,6.18a2.8,2.8,0,0,1-1.31,2.82,4.7,4.7,0,0,0-1.42,2.29c-1,3.09.73,6.25,3.48,6.18a4.74,4.74,0,0,1,2.77.9c3.62,2.18,7.31,2.76,11.13.4a1.85,1.85,0,0,1,1.52.08c4.18,2.16,7.53,1.2,9.92-2.86a1.37,1.37,0,0,1,.86-.49A4.07,4.07,0,0,0-92.5-76C-92.15-78.82-92.88-80.41-95.06-81.4ZM-50-74.95-61.71-92.62-68.48-82l-5.06-4.23L-85.87-66.11h40.39l-1.15-1.95c2-.23,3.56-1,3.92-3.08.3-1.73-1.33-4.4-3.08-5.36S-48.64-76.59-50-74.95ZM26.87-134.7l-.21.57c.85.62,1.64,1.63,2.56,1.77a41.06,41.06,0,0,0,5.84.08c-.81-5.23-.76-5.52,1.12-6.77,2.1,3.25,4.63,3.51,7,1,1.25-.13,2.7-.17,3.58-.89,1.09-.89.73-2.4.11-3.6-.39-.76-1-1.38-1.46-2.11a1.81,1.81,0,0,1-.38-1.19c1.13-3.81-1.12-7.19-5.11-7.19a32.6,32.6,0,0,0-5.77,1c-1.78-2-3.82-1.94-5.83.49-1.78-1.54-3.77-2.24-5.91-.89a3.52,3.52,0,0,0-1.3,5.13c-.66,0-1.15,0-1.63,0a8.23,8.23,0,0,0-1.46.11c-1.57.34-2,1.55-.91,2.74a18.13,18.13,0,0,0,1.76,1.54c-2.45,2.84-2,4.36,1.64,5.18a13.62,13.62,0,0,0,3.21.25c1.7,0,3.39-.17,5.16-.27C28.7-136.29,29.08-134.72,26.87-134.7Zm-95.76,21.85,7.38.77.1-.43a15.31,15.31,0,0,1-6.68-8.26h3.51A72.7,72.7,0,0,1-69.76-127a67.62,67.62,0,0,1-3.6-7,31.06,31.06,0,0,1-9.39,13.15h4.5a18.82,18.82,0,0,1-6.67,8.71l7.46-.7a81.46,81.46,0,0,1-10.12,9.69,119.37,119.37,0,0,0,12.74-2,6,6,0,0,1,3.39.05,46.65,46.65,0,0,0,7,1.38c1.91.28,3.85.35,6.09.53C-62.36-106.21-66-109-68.89-112.85Zm48.18-25.48c.08-1.55.6-3,.08-3.9s-2.12-1.21-3.22-1.77c.26-.37.67-.87,1-1.42.5-.86.13-1.45-.72-1.76a4.17,4.17,0,0,0-4.83,1.69c-.27.41-.57.8-.92,1.3l-1.1-3.32a28.28,28.28,0,0,0-3.46,3.38,25.52,25.52,0,0,0-2,4l-2-1.83c-1.49,2.29-1.46,4.53-1.28,6.81.29,3.63.64,4.11,3.86,5.11-.36,4.51,4,7.19,8,4.1.15.28.31.56.45.85,1.42,2.82,4.11,3.7,6.58,2.14,2.29-1.45,2.7-4.4.93-6.79-.19-.26-.61-.61-.55-.76.73-1.63-.57-2.45-1.43-3.43C-18.6-135.2-19.17-137-20.71-138.33Zm14.76,28.44c0-1.22,0-2.25,0-3.27,0-3.43,0-3.43,3.42-3.71h.16c1.11-.06,1.33-.67.79-1.51a27.62,27.62,0,0,0-2-2.58c-2.7-3.28-5.78-6.38-4.71-11.28.1-.44-.64-1.05-1-1.59-.51.35-1.23.59-1.48,1.07-.56,1.08-1.1,1.09-1.81.26s-1.35-1.7-2.09-2.48a1.42,1.42,0,0,0-1.09-.46c-1.67.43-2.77,3.84-2.08,5.43a9.72,9.72,0,0,1,.92,4.28,5.08,5.08,0,0,1-3.24,4.32,6,6,0,0,1-6.25-.71c-.59.73-1.17,1.38-1.66,2.08s-1,1.69-1.55,2.54a19.15,19.15,0,0,0,3,.6c1.29.06,1.88.5,1.82,1.86-.08,1.71,0,3.42,0,5.15h7.48c0-1.64.09-3.2,0-4.75s.54-1.76,1.8-1.77,2.09.19,2,1.75,0,3.19,0,4.78Zm-113,72.36a8.21,8.21,0,0,0-.9-1.54c-.3-.3-.8-.66-1.15-.6s-.76.53-.93.91a2.32,2.32,0,0,0-.06,1.28c.53,3-.6,5.44-2.67,7.58a21.33,21.33,0,0,0-2.27,3,26.79,26.79,0,0,0-1.32,2.46,15.58,15.58,0,0,0,2.71.53c1.11,0,1.56.39,1.49,1.54-.08,1.35,0,2.71,0,4.06,0,.94.31,1.41,1.31,1.38,1.41,0,2.82,0,4.22,0,1,0,1.34-.39,1.3-1.35a35,35,0,0,1,0-3.9,1.67,1.67,0,0,1,.69-1.25c1.76-.7,2.79,0,2.8,1.92,0,.38,0,.76,0,1.14,0,3.42,0,3.42,3.4,3.43s3.39,0,3.41-3.33c0-1-.32-2.37.2-3s1.9-.48,2.9-.64c1.25-.2,1.49-.71.75-1.74-.63-.87-1.33-1.7-2-2.56q-4.55-5.91-9.09-11.82c-1.18-1.53-1.48-1.51-2.74,0C-117.47-39.27-118.09-38.54-118.94-37.52Zm-8.69,68.36c0,.6,0,1.2,0,1.79-.12,1.3.35,1.92,1.75,1.82a32.49,32.49,0,0,1,3.74,0c1,0,1.39-.34,1.36-1.32,0-1.3,0-2.6,0-3.9s.65-1.54,1.74-1.56,1.81.26,1.81,1.5,0,2.6,0,3.9c0,.92.27,1.42,1.3,1.38,1.35-.06,2.71,0,4.06,0,1,0,1.49-.42,1.48-1.44,0-1.46,0-2.93,0-4.39,0-.89.34-1.32,1.24-1.3a8.44,8.44,0,0,0,1.46,0,11.38,11.38,0,0,0,1.48-.42,5.28,5.28,0,0,0-.53-1.41c-3.28-4.3-6.59-8.57-9.89-12.85-2.33-3-2.33-3-4.63-.08-.87,1.12-1.24,1.05-2.07-.16a1.55,1.55,0,0,0-1.25-.64,1.54,1.54,0,0,0-.8,1.13,14,14,0,0,0,0,2.92,4.78,4.78,0,0,1-1.2,3.71c-1.63,1.94-3.13,4-4.64,6a5.32,5.32,0,0,0-.51,1.27,4.88,4.88,0,0,0,1.29.47c2.9.19,2.9.18,2.9,3.06C-127.63,30.51-127.63,30.67-127.63,30.83ZM-72.3-45.34c-.93,1.12-1.67,2-2.42,2.92s-1.3,1.15-1.87-.2a1.61,1.61,0,0,0-1.33-.68c-.31,0-.65.68-.8,1.12a2.73,2.73,0,0,0,0,1.29A7.64,7.64,0,0,1-81-34.15a31.71,31.71,0,0,0-2.61,3.3,22.16,22.16,0,0,0-1.28,2.32,14.6,14.6,0,0,0,2.59.46c1.21,0,1.65.48,1.59,1.66s0,2.6,0,3.9c-.05,1.15.48,1.56,1.56,1.54,1.25,0,2.49,0,3.74,0s1.57-.5,1.53-1.59.06-2.5,0-3.74.72-1.36,1.65-1.37,1.72.17,1.66,1.41,0,2.6,0,3.9c0,1,.41,1.39,1.35,1.39A29.14,29.14,0,0,0-65.27-21a2.08,2.08,0,0,0,1.34-1.36,14.47,14.47,0,0,0,.06-3.08c0-2.51,0-2.48,2.55-2.59a6.57,6.57,0,0,0,1.6-.48,8.41,8.41,0,0,0-.73-1.52q-3.61-4.79-7.29-9.53C-69.2-41.45-70.67-43.29-72.3-45.34ZM-2.18-33.28A12.3,12.3,0,0,0-14.52-45.64,12.38,12.38,0,0,0-26.78-33.2,12.45,12.45,0,0,0-14.51-20.93,12.33,12.33,0,0,0-2.18-33.28Zm-78.05-91.6a9.45,9.45,0,0,1,2-9.36,88.37,88.37,0,0,1,6.68-6.29c3.3,4.45,7.8,8.65,6.48,15.45,5.74-2.55,7.66-9.4,5.66-12.81-1.2,2.45-1.6,2.85-3.4,3.41,2.36-3.51,2.36-6,.12-9-1.36-1.84-2.6-3.77-3.88-5.63-1.27,1.3-1.24,3.35-1.18,5.8-3.21-4.11-2.93-8.23-2.22-12.61a51.46,51.46,0,0,0-6,6,10.61,10.61,0,0,0-2.13,8.05l-.43.1-2.06-3.68A15.06,15.06,0,0,0-80.23-124.88ZM-57.45,7.63l-.42-.42c2.38-2.79,2.38-5.45.11-8.15-1.43-1.69-2.77-3.46-4.16-5.22-1.36,1.13-1.29,3-1.3,5.15a7.52,7.52,0,0,1-2.56-5.48c0-2,.19-3.91.31-5.9-4.65,3.08-9.1,6.33-9,13.06l-2.29-3.5c-5.59,5.9-5.4,14.81.53,19.16-1.43-3.62-.15-6.56,2.3-9,2-2,4.21-3.83,6.58-6,2,2.5,3.95,4.79,5.62,7.3,1.47,2.21,2.52,4.67,1.07,7.5,5-1.87,8.43-6.56,6.5-11.86Zm-9.26,19.74c0,1,0,1.87,0,2.79,0,4,0,3.27,3.17,3.27,3.8,0,3.24.55,3.28-3.24,0-3.06,0-3.07,3.05-3.45,1.11-.14,1.49-.57.71-1.58Q-62,18-67.45,10.91c-.53-.69-1.07-.65-1.58,0s-1.08,1.48-1.66,2.2-1.27.67-1.5-.13c-.36-1.27-1.08-1.06-2.13-.83,0,1.13-.08,2.21,0,3.27a5.2,5.2,0,0,1-1.35,4.15c-1.52,1.75-2.89,3.63-4.3,5.48-.8,1.06-.58,1.57.66,1.71,3,.34,3,.34,3,3.45q0,.41,0,.81c0,2.43,0,2.43,2.49,2.43,3.89,0,3.89,0,3.88-3.82C-69.9,26.93-69.62,26.72-66.71,27.38Zm103.06.5c2.19.26,4.1.56,6,.67a1.61,1.61,0,0,0,1.16-1,42.79,42.79,0,0,0,.68-5c.1-1.2.67-1.62,1.8-1.5a17.4,17.4,0,0,0,1.78.11c.49,0,1-.08,1.48-.12a6.63,6.63,0,0,0-.44-1.43C45.76,14.29,42.63,9,39.53,3.66,37.59.32,37.6.32,34.79,3.06c-1.35,1.31-2,1.16-2.74-.56a1.52,1.52,0,0,0-1-.78c-.23,0-.65.55-.77.93-.19.61-.14,1.29-.32,1.91-.49,1.6.21,3.51-1.39,4.83-.45.37-1,1.32-.83,1.6.74,1.26.56,3.34,2.58,3.52,1.59.14,2.44.78,2.63,2.38a4.41,4.41,0,0,0,.63,1.81,2.85,2.85,0,0,0,1.37,1.24c2.26.6,2.5.89,2.13,3.21C36.8,24.63,36.61,26.12,36.36,27.87ZM-3.2-66.54l.14-.52A1.71,1.71,0,0,0-3-67.37c.07-1-.23-2.36.31-3s1.89-.32,2.88-.45,1.48-.75.79-1.65c-3.84-5-7.73-10-11.59-15-.6-.78-1.14-.66-1.69.07s-1.13,1.45-1.71,2.16-1.25.82-1.51,0-.85-1.42-1.59-1a2.2,2.2,0,0,0-.78,1.8c.25,2.82-.21,5.32-2.31,7.41a23,23,0,0,0-2.61,3.31,20.93,20.93,0,0,0-1.28,2.47,15.43,15.43,0,0,0,2.75.49c1.17,0,1.53.49,1.46,1.58-.06.89,0,1.78,0,2.68L-13.2-68c.46-.92-.57-2.29,1.37-2.52,2.66-.3,1.93,1.58,2.12,3.15ZM-49.42-44.93a9.26,9.26,0,0,0-1.79-.71c-2.53-.32-4.13,1.17-4.14,3.95a37,37,0,0,0,2,12.34,17,17,0,0,1-5.61-9c-.67-2.6-1.12-5.26-1.65-7.89A14.07,14.07,0,0,0-65-54.54c-1.38-1.18-3-2-4.91-1.18-1.29.54-1.44,1.39-.44,2.34.54.52,1.18.95,1.75,1.43C-65.21-49-63.45-45.08-61.9-41c2,5.23,3.8,10.52,6.91,15.28,4.67,7.14,12.17,4.2,16.24-.32a28.19,28.19,0,0,1-3.34.48c-3.35.09-5.63-.76-6.49-3.4a3.63,3.63,0,0,1,.3-2.94c.43-.54,1.79-.41,2.74-.44.57,0,1.15.35,1.72.33a1.65,1.65,0,0,0,1.17-.62c.15-.23,0-.83-.27-1.14a4.27,4.27,0,0,0-4-1.7,3.23,3.23,0,0,0-3.2,2.73,39.25,39.25,0,0,0,0,5.13c-1.82-1.59-2.16-3.81-2.49-5.93C-53.29-37.65-53.09-41.6-49.42-44.93Zm-77.14-55.86a4.31,4.31,0,0,0-5.37,3.5,4.44,4.44,0,0,1-1,2.17c-1.35,1.64-1.15,4.12.6,4.86a22.59,22.59,0,0,0,4.81,1.63,9,9,0,0,0,3.87-.38,2.56,2.56,0,0,1,2,0,4,4,0,0,0,5.44-1.58,2,2,0,0,1,1-.65c1.8-.66,2.74-3.21,1.46-4.65a4.25,4.25,0,0,1-.94-3.06,3.63,3.63,0,0,0-3.86-3.69,6.08,6.08,0,0,1-2.15-.44C-123.32-104.22-125.4-103.44-126.56-100.79Zm80-5.57h49v-2.84H-40.13v-4.32l-2-.68L-44-113.12v3.9l-2.52.17Zm67.46,75,3.66-2.44,1,3.19,1.84-2.81,3,4.49.24-.09-.48-5.33,3.41.85-1.58-3.08,5.66.33.06-.24-4.92-2.73,3-2.24L32.1-42l3.55-4.86-5.32,2.66-.25-3.16-.48-.22L27.73-45l-1.88-5.37h-.28l-.72,5.42-3.38-1.87,1,3.43-5-1.36-.13.32,3.78,3.51L18-39.63,21-38l-4.6,3.86,5.86-1.33Zm3.36-60.75-7.86-11.73c-1.09,1.53-2.12,2.85-3,4.28a1.72,1.72,0,0,0,.11,1.6c3.53,3.87,7.13,7.67,10.81,11.58l1.88-3.16,7.36,9.29.25-.18L26.91-96.1Zm19.8,55-.52.13c.28,1.83,0,4,1,5.41,1.7,2.58,1.87,5.19,1.6,8.09l-1.61.23c.81,1,1.37,2.22,2.05,2.3a64.46,64.46,0,0,0,7.08.1l.24-.5c-1.07-.68-2.15-1.35-3.2-2.06a1.8,1.8,0,0,1-.56-.68c-.85-1.71.53-2.64,1.31-3.8A8.32,8.32,0,0,0,52-29.14l-.38-.17-2,1.43c-.38-2.74-.32-2.67,1.49-4.22a15.78,15.78,0,0,0,2.08-2.73l-.35-.25-3.3,2.81c-1-2.92,2.36-4.24,2.08-7.05l-2.33,2.72c-1.12-2.42-.61-4.56.62-6.68l-1.63,1.47-1-6.89-.28,0V-43l-.35.14-3.9-4.93a11.46,11.46,0,0,0,1.23,3.31c.57,1,1.52,1.72,2.07,2.7A13.29,13.29,0,0,1,47-39l-.47.14-2.11-1.86-.48.35c.42.78.65,1.8,1.29,2.29a4,4,0,0,1,1.45,4.58,17.6,17.6,0,0,0-.24,2l-.56.11ZM16.31,33.22c6.59-.12,13.08.57,19.41-1.26l.16-1.33,5-1.08c-8.14-2.17-16.34-.9-24.53-1.39ZM25.2,12.07c-.84,1-1.59,2-2.31,2.9s-1.22,1.67-1.83,2.51c1,.23,1.92.51,2.9.66,1.32.21,1.9.82,1.59,2.21a30.39,30.39,0,0,0-.48,3.35c-.26,2.54-.25,2.54,2.28,3,.58.1,1.17.19,1.76.24,2.92.23,2.85.22,3.13-2.83a44.62,44.62,0,0,1,.87-4.55A6.35,6.35,0,0,0,31.84,17c-.29-.37-.87-.82-1.26-.77-2.28.31-3.48-.95-4.38-2.76A16.11,16.11,0,0,0,25.2,12.07ZM-119.7-.64c3.34-5.93,16.12-6.59,18-1.54,2.45-2.24,2.13-4.55-.82-6a7.52,7.52,0,0,0-1.06-.39,16.51,16.51,0,0,0-12.26,1.23,14.59,14.59,0,0,0-4,3.18A2.38,2.38,0,0,0-119.7-.64Zm56.26-42.1c-2.22-4.65-4.92-9-9.6-11.6A9.43,9.43,0,0,0-81.89-55c-.6.27-1,1-1.47,1.51a12.12,12.12,0,0,0,1.7,1c3.42,1.26,7,2.14,10.22,3.82C-68.53-47.17-66.09-44.76-63.44-42.74Zm104,75.85H58.17V28c-2.37,0-4.63,0-6.9,0-1.22,0-2.28.11-2.5,1.64a.89.89,0,0,1-.65.56C45.22,30.07,43.11,32.14,40.52,33.12ZM37.38-19.16c-.85-.69-1.62-1.28-2.34-1.92a9.5,9.5,0,0,0-7-2.3c-.43,0-1.14.38-1.2.68-.38,2-.61,4-.87,5.85,4.37,2.08,7.69-.45,11.21-2.08C37.22-19,37.25-19,37.38-19.16Zm19.35,10c.64-1.76-.11-2.58-1.44-3.27-1.53-.79-2.9-1.89-4.43-2.66a4.11,4.11,0,0,0-2.57-.37,28.91,28.91,0,0,0-4,1.56c.77,1.4,1.42,2.71,2.2,3.93a1.77,1.77,0,0,0,1.21.77C50.71-9.17,53.73-9.2,56.73-9.2ZM33.45-9.26c-1.52-4.85-4-6.81-7.8-5.52-1.75.59-3.11,2.44-4.54,3.82-.32.31-.21,1.06-.31,1.7ZM18.36-12.94c2.07-1.45,4.52-2.4,5.61-5.13-2.66-1.19-4.73-4.33-8.33-2.26-.55.32-1.57.63-1.57.94a6.13,6.13,0,0,0,.65,3.43A19.23,19.23,0,0,0,18.36-12.94ZM-118.15,2c2-3.62,9.7-5.16,15.08-2,1-1.78.57-3-1.41-4-3.59-1.72-10.31-.71-13.29,2A2.56,2.56,0,0,0-118.15,2ZM9.93-65.23v-.4c-1.2-.27-2.41-.49-3.58-.83a16.94,16.94,0,0,0-8.6-.2c-2,.43-4.12.08-6.19,0a66.84,66.84,0,0,0-7-.23c-2.71.22-5.37,1.07-8.07,1.27-1.52.11-3.1-.54-4.78-.88a10.31,10.31,0,0,0,9.76,1.55c3.15-1.06,6.35-1.47,9.48-.18a9.65,9.65,0,0,0,7.68,0,12.29,12.29,0,0,1,7.29-.49A34.84,34.84,0,0,0,9.93-65.23Zm33.39,56c0-.25,0-.32,0-.35l-3.38-4.93c-1.55-2.26-2.49-2.63-5.1-2a1.75,1.75,0,0,0-1.17,2.75c.82,1.26,1.61,2.56,2.51,3.76a2.08,2.08,0,0,0,1.39.74C39.46-9.14,41.35-9.19,43.32-9.19ZM-37.45-24.91a75.86,75.86,0,0,1-7.35,3.66c-4.09,1.53-7.83.26-10.45-3.17-.67-.89-1.29-1.82-1.93-2.73A6.1,6.1,0,0,0-57-25c1.14,4.27,5.66,7.53,9.55,6.93C-43-18.76-39.87-21.27-37.45-24.91ZM-102.76,3.19c.49-1.42-.36-2.2-1.3-2.84-3.06-2.05-9.21-1.78-12.16.5-1.83,1.4-1.55,3.22.3,4C-112,.08-107.37,1.68-102.76,3.19ZM-36.12-126c-2.23,3.17-5,6.08-6.9,9.53,1.8-.64,2,1.35,3.1,1.64l6.1-9.18Zm-97.32,11.41c1.9,1.44,2.75,1.51,3.41-.72A2.55,2.55,0,0,1-127-117.4c.29.55.55,1.15.9,1.69s.82,1.63,1.4,1.79c1.42.38,1.9,1,1.17,2.54,1.87-1.34,1.87-2.3.22-3.24-1.95-1.11-2.39-2.29-1.95-4.39a15.08,15.08,0,0,0,0-3l-1.61-.21-.6-1.78-.39.06a11.62,11.62,0,0,1,0,1.61c-.17,1.18.55,2.8-1,3.34a2.77,2.77,0,0,0-2.15,2.46C-131.17-115.21-131.68-114.19-133.43-114.59ZM3.65-64l0-.44c-1.71.38-3.46.65-5.13,1.16a10.41,10.41,0,0,1-7.1-.06,11.57,11.57,0,0,0-7.16-.54c-3,.76-6,1.61-9.21.72a15,15,0,0,0,5.63,1,28.7,28.7,0,0,1,11.07.61,8,8,0,0,0,4,.05C-1.63-62.25,1-63.21,3.65-64ZM-113.66,7.11c4-3.89,8.13-2.45,12.41-.59a6,6,0,0,0-1.47-2.07A10.79,10.79,0,0,0-112.7,3C-115.07,3.73-115.32,5.45-113.66,7.11Zm10.92,5.79c1.53-1,1.57-2.11,0-3.07a8.22,8.22,0,0,0-6.66-1.06,3,3,0,0,0-1.89,1.45c-.19.55.51,1.4.8,2.08A7.67,7.67,0,0,1-102.74,12.89Zm1.35-3c.92-1.06.18-1.84-.51-2.49-2-1.91-6.82-2.6-9.32-1.41-1.7.81-1.89,1.78-.64,3.23C-108.89,7-104.84,7.26-101.39,9.92ZM-71.87-95.62v-8.94h-2.6v8.94ZM39.41-17.88c1.47,1.74,3.25,2,5.29,1.88s3.69-.55,4.84-2.32C48.32-20,43.91-19.89,39.41-17.88ZM56.94-13c0-1.91,0-3.52,0-5.12a1.44,1.44,0,0,0-.74-1c-2.28-1-4.08-.33-5.27,2l2.73,1.89ZM35.15-23.41c4.11,4.52,4.11,4.52,8.66,2.47-1.34-3-.55-2.39-3.65-2.46C38.5-23.44,36.85-23.41,35.15-23.41ZM-73.9-49.07c-2-.66-4-1.36-5.94-1.93a5.71,5.71,0,0,0-5.06,1,9.33,9.33,0,0,0-1.59,2c2.37-.19,4.32-.83,6.32-1.06A56,56,0,0,1-73.9-49.07Zm56.27,59.5c.46.85,1.28,1.64,1.21,2.34-.23,2.34,1.47,2.18,2.86,2.61l1.41-2.33-3-3.77ZM.15-61.16c-3.94.92-7.86,1.84-11.88.25a6.71,6.71,0,0,0-3.07,0c-2.53.3-5.05.7-7.57,1.06,1.82.16,3.7.13,5.58.17s4.06-.21,5.92.31C-6.86-58.28-3.4-59.76.15-61.16ZM-122.56-45c1.2,0,2.69-1.47,2.27-2.72a3.36,3.36,0,0,0-2.32-2.05,3.2,3.2,0,0,0-2.49,1.89C-125.37-45.73-124.55-45.06-122.56-45Zm13.11-4.61c-2.63,2.24-2.75,2.32-2.19,3.13s.27,2.19,1.8,2.08,2.79-.52,2.91-2.61S-109-48.38-109.45-49.63Zm7.64-1.31c3.07-2.44,2.62-1.55,1.83-4-.26-.81-.6-1.21-1.58-1.08-2.23.29-2.24.23-2.85,3.4ZM-132-39.12c1.11,1,.56,3,2.67,2.88a2.44,2.44,0,0,0,2.62-2.43c.25-1.79-1.15-1.79-2-2.22C-130.53-41.81-130.61-39.49-132-39.12Zm28.88-2.31c-3.12,1.73-3.12,1.73-1.81,4.81,3.14.19,3.14.19,4.23-2.84Zm116-38.87v.11L22.9-78.4l-.57-2.35,4.79-.3v-.32l-7-.46.26,1.54ZM-.43-19.81c-.89.58-1.79.85-2,1.37a2.17,2.17,0,0,0,.51,2,10.35,10.35,0,0,0,3.35,1.65,2,2,0,0,0,1.69-.85,2,2,0,0,0-.29-1.87A25.88,25.88,0,0,0-.43-19.81Zm-5.93,3.12c1.75,0,3.39-1.08,3.27-2.22s-2-2.2-3.54-1.9c-1.22.24-2.73.31-2.8,2.1C-9.49-17.62-8.06-16.73-6.36-16.69Zm4.67-3.47a14.83,14.83,0,0,0,3-1.36,2.26,2.26,0,0,0,.85-1.88A2.33,2.33,0,0,0,.39-24.72a6,6,0,0,0-3.13.93,2.62,2.62,0,0,0-1,2.22C-3.57-21-2.43-20.63-1.69-20.17ZM35.15-97.38l-2.46.82-.54-5.93h-.21v8.16l1.79-.56v6.74H34Zm-142,109.44a10.38,10.38,0,0,0-2.47.64c-.38.21-.48.91-.71,1.39a8.67,8.67,0,0,0,1.38.44c1.34.2,2.69.37,4,.47a6.65,6.65,0,0,0,1.54-.24c-.19-.5-.25-1.26-.6-1.45A25.67,25.67,0,0,0-106.81,12.06ZM59-124.67a1.9,1.9,0,0,0-1.8-2.25A1.89,1.89,0,0,0,55-125.19a1.93,1.93,0,0,0,1.7,2.33A2,2,0,0,0,59-124.67ZM-2.8,15.57c1.23.08,1.82-.7,2-1.83a2,2,0,0,0-2-2.1,2.06,2.06,0,0,0-2,2.06A1.84,1.84,0,0,0-2.8,15.57Zm27-35.17.66-.28c-.32-1.11-.33-2.84-1-3.2-1.07-.55-2.62-.14-4-.14l-.07.45ZM14-9.26h4c-.74-2-2.56-2.55-4-4,0,1.24,0,2.09,0,2.94C14-10,14-9.67,14-9.26Zm-32.72-135.9c3.21,1.44,5.58,2,6.82,1.53C-13.32-145.59-15.38-146.07-18.69-145.17Zm2.15-1.5c-1.11-2.51-3.61-3.09-6.58-1.87ZM-104,16.71c-1-1.38-3.39-2.11-4.73-1.37-.26.15-.2.88-.29,1.34,1.5.2,3,.42,4.49.57C-104.37,17.27-104.17,16.9-104,16.71ZM-6.78-139.16l.13-.51c-1.39-2-3.47-2.44-6.92-1.34ZM-86.81-44l6.05-3.56C-84.85-47.8-87-46.6-86.81-44ZM14.13-23.4c-.22,1.83,0,2.09,1.57,1.71a16.46,16.46,0,0,0,2-.55c.31-.12.54-.46.81-.7-.29-.15-.57-.42-.87-.43C16.47-23.43,15.3-23.4,14.13-23.4ZM.25-92.13c1-1.41.64-4.42-.67-5.94C0-96-1.6-94,.25-92.13Zm-27.8,16.88c0,1.95-1.29,3.95.45,6C-25.73-71.54-27.15-73.38-27.55-75.25Zm19.3-18.62-.67,0c0,1.56,0,3.12,0,4.68,0,.29.51.55.79.82.19-.34.56-.7.53-1C-7.72-90.87-8-92.36-8.24-93.87ZM-23-79.11c.89-2.2-.25-4-.66-5.84C-24.26-80-24.26-80-23-79.11Zm-105.29-48.43-.61,0c-.37.55-1.06,1.12-1,1.63s.82,1,1.27,1.48c.44-.45,1.19-.87,1.23-1.36S-127.93-127-128.25-127.55Zm130.36,46-.8-5.74C.06-84.26.27-82.35,2.11-81.58Zm-32.17-4.33.56-.14-.77-5.51C-31.55-88.65-31.39-86.74-30.06-85.92Zm10.25-9.88c-1.35,3-1.1,5.11.74,5.56ZM21.32,14.67l-.62-1.23a6.71,6.71,0,0,0-1.74.26,2.38,2.38,0,0,0-1,1c-.09.16.21.76.42.82a2.57,2.57,0,0,0,1.4,0A9.49,9.49,0,0,0,21.32,14.67ZM53.05,19c-.25,2.08,1.23,1.45,2.11,1.35.41,0,1.15-1,1.05-1.16C55.28,17.26,54.13,19.19,53.05,19ZM-130.79-48.44v7.31h.56C-129.44-43.58-130.63-46-130.79-48.44Zm19.48-.86.52.05c1-2.46-.27-4.89-.52-7.33Zm-14.95-73.65c.8.09,1.56,0,2,.28s.55,1,.8,1.6l.6-.13c-.11-.67,0-1.67-.39-1.94a16.44,16.44,0,0,0-3.34-1.33ZM-13,8.75a9.75,9.75,0,0,0,2-.05c.2,0,.46-1,.34-1.06A23.28,23.28,0,0,0-13,6Zm-106.93-65c-1.18,6.15-1.17,6.7,0,7.44Zm19.38,9.34c-.19,2.19-1.24,4.41-.5,6.68l.5,0Zm-4.36-6.85c1.24-2.74,0-5-.34-7.3Zm-3.68,71.26-.09.68a2.65,2.65,0,0,0,3.23.45l.08-.66ZM-13.52,2-14,1.78l-1.12,1.84,1.61.78Z"/><path d="M-10.13,32.68c6.78,0,13.7,0,20.62,0a5.57,5.57,0,0,1,.07.6H-42l3.6-12.16c2.26-7.63,4.51-15.27,6.83-22.88a2.47,2.47,0,0,1,1.38-1.46c2.83-.84,5.73-1.48,8.58-2.28.95-.26,1.26,0,1.44.91C-19.85-2.78-19.48-1-19,.78a3.1,3.1,0,0,1-.83,3.46c-1.8,1.65-2.22,3.44-.79,5.62a7.54,7.54,0,0,1-.29,9.44A3.77,3.77,0,0,0-21.27,23c.88,2.76,1.54,5.6,2.4,8.38a1.77,1.77,0,0,0,1.27,1c1.89.11,3.78,0,5.68,0C-12,30-12,30-9.64,28.69a5,5,0,0,0,2.15-5.24,31.58,31.58,0,0,1-.07-5.61c-1.95-.76-1.8,1.26-2.65,3-.35-.79-.8-1.3-.72-1.7.47-2.46.9-2.75,3.51-2.9a21.66,21.66,0,0,0,2.53-.5l2.32,2.68L.11,17.19l.58,1.07c-1.56.51-2.57,2.41-4.49,1.17-.28,2.64,0,3,2.29,4A4.27,4.27,0,0,1,.25,25.53a26.41,26.41,0,0,1,1.11,3.66L4,29l.15.61c-1.16.31-2.32.65-3.5.88-.2,0-.58-.38-.74-.66-.34-.61-.61-1.26-.89-1.9-1.11-2.53-1.11-2.53-4.17-2.62A29.39,29.39,0,0,0-6.6,28.12a3.43,3.43,0,0,1-2.81,2.36C-10.73,30.69-10.85,31.36-10.13,32.68Z"/><path d="M36.36,27.87c.25-1.76.45-3.24.68-4.72.37-2.32.13-2.61-2.13-3.21a2.85,2.85,0,0,1-1.37-1.24,4.41,4.41,0,0,1-.63-1.81c-.2-1.6-1-2.23-2.63-2.38-2-.18-1.84-2.27-2.58-3.52-.17-.29.38-1.24.83-1.6,1.6-1.32.9-3.23,1.39-4.83.19-.61.13-1.3.32-1.91.12-.38.54-1,.77-.93a1.52,1.52,0,0,1,1,.78c.76,1.72,1.4,1.87,2.74.56,2.81-2.74,2.8-2.74,4.75.61,3.1,5.32,6.22,10.62,9.31,15.95A6.63,6.63,0,0,1,49.29,21c-.49,0-1,.12-1.48.12A17.4,17.4,0,0,1,46,21c-1.13-.12-1.7.31-1.8,1.5a42.79,42.79,0,0,1-.68,5,1.61,1.61,0,0,1-1.16,1C40.46,28.43,38.55,28.14,36.36,27.87Z"/><path d="M16.31,33.22V28.16c8.19.48,16.39-.78,24.53,1.39l-5,1.08L35.72,32C29.39,33.79,22.9,33.1,16.31,33.22Z"/><path d="M25.2,12.07a16.11,16.11,0,0,1,1,1.43c.91,1.81,2.1,3.07,4.38,2.76.39-.05,1,.39,1.26.77a6.35,6.35,0,0,1,1.25,2.53,44.62,44.62,0,0,0-.87,4.55C32,27.15,32,27.16,29.1,26.93c-.59,0-1.18-.14-1.76-.24-2.53-.45-2.54-.45-2.28-3a30.39,30.39,0,0,1,.48-3.35c.31-1.39-.27-2-1.59-2.21-1-.16-1.93-.44-2.9-.66.61-.84,1.2-1.69,1.83-2.51S24.36,13.12,25.2,12.07Z"/><path d="M40.52,33.12c2.59-1,4.7-3,7.61-3a.89.89,0,0,0,.65-.56c.22-1.53,1.29-1.65,2.5-1.64,2.27,0,4.53,0,6.9,0v5.16H40.52Z"/><path d="M21.32,14.67a9.49,9.49,0,0,1-1.55.85,2.57,2.57,0,0,1-1.4,0c-.21-.06-.51-.65-.42-.82a2.38,2.38,0,0,1,1-1,6.71,6.71,0,0,1,1.74-.26Z"/><path d="M53.05,19c1.08.14,2.23-1.79,3.16.19.09.2-.64,1.12-1.05,1.16C54.28,20.5,52.8,21.12,53.05,19Z"/></g><rect class="cls-1" x="13.64" y="-52.4" width="42.75" height="42.75" rx="8.64" ry="8.64"/><path class="cls-8" d="M47.76,10.41A8.67,8.67,0,0,1,56.4,19V44.52a8.67,8.67,0,0,1-8.64,8.64H22.28a8.67,8.67,0,0,1-8.64-8.64V19a8.67,8.67,0,0,1,8.64-8.64H47.76m0-4H22.28A12.65,12.65,0,0,0,9.64,19V44.52A12.65,12.65,0,0,0,22.28,57.16H47.76A12.65,12.65,0,0,0,60.4,44.52V19A12.65,12.65,0,0,0,47.76,6.41Z"/><path class="cls-9" d="M47.76,10.41A8.67,8.67,0,0,1,56.4,19V44.52a8.67,8.67,0,0,1-8.64,8.64H22.28a8.67,8.67,0,0,1-8.64-8.64V19a8.67,8.67,0,0,1,8.64-8.64H47.76m0-2H22.28A10.65,10.65,0,0,0,11.64,19V44.52A10.65,10.65,0,0,0,22.28,55.16H47.76A10.65,10.65,0,0,0,58.4,44.52V19A10.65,10.65,0,0,0,47.76,8.41Z"/></g></svg>