<?xml version="1.0" standalone="no"?><!-- Generator: Gravit.io --><svg xmlns="http://www.w3.org/2000/svg" xmlns:xlink="http://www.w3.org/1999/xlink" style="isolation:isolate" viewBox="0 0 73 61" width="73" height="61"><defs><clipPath id="_clipPath_zQ10hAze37SJOvIHzpnhqklnF0zDGLWX"><rect width="73" height="61"/></clipPath></defs><g clip-path="url(#_clipPath_zQ10hAze37SJOvIHzpnhqklnF0zDGLWX)"><path d="M 22.125 9.288 L 47.476 9.288 C 52.111 9.288 55.875 13.051 55.875 17.686 L 55.875 43.038 C 55.875 47.673 52.111 51.436 47.476 51.436 L 22.125 51.436 C 17.489 51.436 13.726 47.673 13.726 43.038 L 13.726 17.686 C 13.726 13.051 17.489 9.288 22.125 9.288 Z" style="stroke:none;fill:#FFFFFF;stroke-miterlimit:10;"/><clipPath id="_clipPath_sEWLFHnslqKhbJPba8eVPdqlt31Xz3H4"><path d="M 22.125 9.288 L 47.476 9.288 C 52.111 9.288 55.875 13.051 55.875 17.686 L 55.875 43.038 C 55.875 47.673 52.111 51.436 47.476 51.436 L 22.125 51.436 C 17.489 51.436 13.726 47.673 13.726 43.038 L 13.726 17.686 C 13.726 13.051 17.489 9.288 22.125 9.288 Z" style="stroke:black;fill:white;stroke-miterlimit:10;"/></clipPath><g clip-path="url(#_clipPath_sEWLFHnslqKhbJPba8eVPdqlt31Xz3H4)"><g id="Group"><path d=" M -132.824 95.794 Q -132.824 0.651 -132.824 -94.492 L 64.364 -94.492 Q 64.364 0.651 64.364 95.794 L -132.824 95.794 Z " fill="rgb(255,255,255)"/></g></g><clipPath id="_clipPath_vg1CM5F0SDWYakTR8cLXWbjE9P37h02l"><path d="M 22.125 9.288 L 47.476 9.288 C 52.111 9.288 55.875 13.051 55.875 17.686 L 55.875 43.038 C 55.875 47.673 52.111 51.436 47.476 51.436 L 22.125 51.436 C 17.489 51.436 13.726 47.673 13.726 43.038 L 13.726 17.686 C 13.726 13.051 17.489 9.288 22.125 9.288 Z" style="stroke:black;fill:white;stroke-miterlimit:10;"/></clipPath><g clip-path="url(#_clipPath_vg1CM5F0SDWYakTR8cLXWbjE9P37h02l)"><g id="Group"><path d=" M 63.486 -46.339 L 63.486 95.528 L -133.278 95.528 L -133.278 -94.502 L 63.486 -94.502 L 63.486 -46.674 C 60.656 -46.674 60.617 -46.674 59.897 -49.435 C 59.454 -51.16 58.635 -52.393 56.752 -52.797 C 56.175 -53.056 55.735 -53.546 55.539 -54.148 C 55.37 -54.891 55.293 -55.653 55.313 -56.415 C 56.663 -55.903 59 -56.415 59.671 -57.401 C 59.828 -57.638 59.602 -58.151 59.532 -58.644 C 58.948 -58.413 58.378 -58.147 57.827 -57.845 C 56.772 -57.165 56.17 -57.845 55.579 -58.545 L 54.297 -60.162 C 53.408 -59.873 52.498 -59.649 51.576 -59.492 C 49.003 -59.275 49.091 -59.284 48.322 -56.82 C 47.977 -55.715 48.441 -55.558 49.19 -55.36 C 49.979 -56.494 49.614 -58.9 51.704 -57.993 C 51.538 -56.586 51.499 -55.167 51.586 -53.753 C 51.891 -51.722 52.473 -49.75 50.551 -47.838 C 48.648 -49.898 46.607 -51.929 44.773 -54.138 C 41.555 -58.054 38.949 -62.435 37.043 -67.133 C 36.678 -68.01 36.166 -68.385 35.269 -67.902 C 35.554 -65.18 35.732 -62.508 37.842 -60.507 C 38.07 -60.278 38.224 -59.986 38.286 -59.669 C 38.956 -55.991 40.888 -53.398 44.527 -52.156 C 44.911 -52.028 45.098 -51.308 45.374 -50.865 C 44.84 -50.574 44.26 -50.377 43.659 -50.283 C 43.127 -50.335 42.635 -50.585 42.279 -50.983 C 40.612 -52.748 38.69 -54.315 38.335 -57.007 C 38.241 -58.022 37.799 -58.973 37.083 -59.699 C 35.15 -61.265 34.098 -63.674 34.263 -66.156 C 34.3 -66.423 34.255 -66.695 34.135 -66.935 C 33.816 -67.324 33.47 -67.69 33.099 -68.03 C 33.099 -65.88 33.642 -63.82 32.981 -62.292 C 31.851 -59.909 31.973 -57.122 33.307 -54.848 C 34.139 -53.378 33.644 -51.512 32.192 -50.648 C 31.788 -50.411 30.684 -50.549 30.595 -50.776 C 30.23 -51.762 29.609 -53.162 30.013 -53.852 C 30.861 -55.301 30.644 -56.701 30.763 -58.17 C 30.881 -59.639 31.364 -61.187 31.463 -62.706 C 31.52 -64.284 31.477 -65.865 31.335 -67.438 C 31.335 -67.626 30.93 -67.882 30.684 -67.941 C 30.446 -67.914 30.241 -67.764 30.142 -67.547 C 29.915 -66.413 29.412 -65.19 29.639 -64.135 C 29.935 -63.087 29.495 -61.97 28.564 -61.404 C 26.956 -60.204 25.892 -58.412 25.606 -56.425 C 25.192 -54.268 24.138 -52.285 22.58 -50.736 C 21.298 -49.287 19.681 -49.326 18.409 -50.894 C 19.671 -51.762 20.874 -52.708 22.185 -53.477 C 23.757 -54.411 24.868 -55.959 25.251 -57.746 C 25.385 -58.75 25.757 -59.706 26.336 -60.537 C 28.377 -62.607 28.544 -65.22 28.909 -67.823 C 27.559 -68.276 26.868 -67.734 26.218 -66.472 C 24.595 -63.054 22.727 -59.759 20.627 -56.613 C 18.232 -53.241 15.254 -50.283 12.641 -47.256 L 49.515 -47.256 C 48.766 -46.083 46.765 -46.428 47.169 -44.584 C 47.415 -43.47 47.839 -42.553 49.259 -42.366 L 48.539 -44.998 C 50.74 -44.985 52.658 -46.494 53.163 -48.636 C 53.706 -50.283 54.603 -50.746 56.387 -50.283 C 57.876 -49.888 57.906 -48.715 58.3 -47.798 C 59.611 -44.752 59.454 -44.397 63.23 -46.162 C 63.32 -46.213 63.406 -46.273 63.486 -46.339 Z  M -9.71 93.161 C -10.43 91.86 -10.302 91.189 -9 90.992 C -7.704 90.817 -6.626 89.911 -6.23 88.665 C -5.807 87.71 -5.333 86.779 -4.81 85.875 C -1.803 85.964 -1.803 85.964 -0.698 88.458 C -0.422 89.089 -0.166 89.74 0.179 90.332 C 0.337 90.608 0.711 91.022 0.909 90.982 C 2.072 90.756 3.216 90.411 4.359 90.115 L 4.221 89.513 L 1.628 89.72 C 1.348 88.492 0.979 87.286 0.524 86.112 C 0.187 85.253 -0.423 84.53 -1.211 84.051 C -3.43 83.065 -3.755 82.701 -3.469 80.107 C -1.566 81.33 -0.57 79.457 0.958 78.954 L 0.386 77.889 L -2.266 79.053 L -4.553 76.42 C -5.374 76.634 -6.207 76.798 -7.048 76.913 C -9.611 77.071 -10.006 77.357 -10.509 79.772 C -10.587 80.176 -10.144 80.669 -9.799 81.448 C -8.961 79.782 -9.109 77.791 -7.186 78.491 C -7.327 80.333 -7.304 82.184 -7.117 84.022 C -6.666 86.027 -7.507 88.102 -9.227 89.227 C -11.554 90.509 -11.554 90.509 -11.475 92.964 C -13.348 92.964 -15.211 93.033 -17.075 92.964 C -17.627 92.856 -18.093 92.489 -18.327 91.978 C -19.175 89.247 -19.816 86.447 -20.693 83.716 C -21.238 82.505 -21.095 81.096 -20.319 80.019 C -18.051 77.368 -17.933 73.497 -20.033 70.711 C -21.443 68.562 -21.019 66.768 -19.254 65.171 C -18.276 64.306 -17.955 62.916 -18.455 61.71 C -18.938 59.975 -19.313 58.21 -19.668 56.435 C -19.845 55.577 -20.151 55.272 -21.088 55.538 C -23.898 56.317 -26.747 56.958 -29.547 57.786 C -30.184 58.051 -30.679 58.574 -30.908 59.225 C -33.195 66.728 -35.413 74.261 -37.642 81.784 L -41.132 93.773 L 10.729 93.773 C 10.716 93.574 10.693 93.377 10.66 93.181 C 3.797 93.161 -3.025 93.161 -9.71 93.161 Z  M -107.061 -53.872 L -86.485 -53.872 C -87.353 -55.508 -88.24 -56.958 -88.92 -58.506 C -90.133 -61.276 -91.217 -64.106 -92.371 -66.906 C -94.057 -70.988 -97.301 -73.196 -101.392 -74.34 C -103.453 -74.912 -103.699 -74.793 -104.429 -72.486 L -112.879 -72.486 C -114.012 -74.99 -115.698 -75.789 -118.548 -74.655 C -120.137 -74.041 -121.625 -73.194 -122.965 -72.141 C -127.608 -68.375 -129.718 -63.09 -131.306 -57.549 C -131.621 -56.465 -131.809 -55.341 -132.075 -54.128 L -129.442 -54.128 C -129.511 -56.159 -127.885 -56.76 -126.248 -57.48 L -129.768 -59.62 L -128.979 -61.592 L -127.993 -61.256 C -128.232 -62.223 -128.312 -63.222 -128.23 -64.214 C -128.111 -64.697 -127.007 -65.2 -126.317 -65.2 C -124.996 -65.289 -124.7 -64.155 -124.296 -63.12 C -124.018 -62.609 -123.532 -62.242 -122.965 -62.114 C -121.427 -61.947 -120.411 -61.365 -120.224 -59.728 C -120.174 -59.265 -120.036 -58.821 -119.898 -58.21 L -122.373 -57.411 L -122.689 -54.256 C -119.463 -55.693 -117.328 -58.832 -117.177 -62.361 C -117.069 -63.682 -116.812 -64.678 -115.373 -65.18 C -113.978 -65.699 -113.056 -67.034 -113.066 -68.523 C -113.032 -69.214 -112.916 -69.899 -112.721 -70.564 C -112.356 -71.648 -111.646 -72.269 -110.532 -71.993 C -110.951 -71.246 -111.25 -70.437 -111.419 -69.597 C -111.353 -67.471 -112.5 -65.491 -114.377 -64.49 C -115.033 -64.025 -115.47 -63.313 -115.59 -62.518 C -116.083 -58.446 -117.345 -54.907 -121.427 -52.876 L -119.938 -53.014 C -120.076 -51.604 -119.346 -51.397 -116.743 -52.087 C -115.836 -50.766 -114.85 -50.569 -112.908 -51.308 C -112.415 -50.204 -110.877 -49.563 -109.112 -49.938 C -107.111 -50.342 -107.614 -52.255 -107.061 -53.872 Z  M 31.897 -18.841 L 27.647 -13.241 C 25.912 -10.895 24.078 -8.578 22.353 -6.202 C 22.047 -5.778 21.712 -4.949 21.909 -4.673 C 22.354 -4.282 22.915 -4.05 23.506 -4.013 C 24.092 -3.933 24.686 -3.933 25.271 -4.013 C 26.543 -4.131 26.977 -3.559 26.928 -2.317 C 26.898 -0.483 26.898 1.331 26.898 3.155 C 26.898 4.141 27.263 4.742 28.406 4.703 C 30.171 4.644 31.936 4.634 33.701 4.703 C 34.933 4.703 35.278 4.19 35.239 3.056 C 35.18 1.4 35.239 -0.256 35.239 -1.873 C 35.239 -3.49 36.067 -3.609 37.3 -3.589 C 38.532 -3.569 39.469 -3.48 39.439 -1.932 C 39.439 -0.217 39.439 1.489 39.439 3.204 C 39.439 4.269 39.715 4.792 40.888 4.742 C 42.653 4.673 44.418 4.683 46.183 4.742 C 47.396 4.742 47.8 4.2 47.78 3.096 C 47.76 1.992 47.78 0.739 47.78 -0.434 C 47.78 -4.378 47.307 -3.904 51.27 -3.973 C 51.793 -3.973 52.68 -4.23 52.749 -4.516 C 52.822 -5.12 52.664 -5.729 52.306 -6.221 C 51.324 -7.749 50.22 -9.193 49.003 -10.54 C 45.939 -13.382 44.487 -17.561 45.128 -21.691 C 45.096 -22.37 44.726 -22.988 44.142 -23.337 C 43.353 -23.682 42.703 -23.248 42.387 -22.272 C 41.993 -21.04 41.263 -20.941 40.415 -21.908 C 39.735 -22.726 39.133 -23.613 38.443 -24.461 C 37.516 -25.654 36.974 -25.684 36.087 -24.54 C 35.301 -23.602 34.576 -22.614 33.918 -21.582 C 33.614 -21.042 33.54 -20.403 33.711 -19.807 C 34.549 -17.658 35.545 -15.568 36.471 -13.458 L 36.215 -13.32 L 31.897 -18.841 Z  M -93.436 -19.305 C -92.016 -24.984 -95.122 -29.164 -100.268 -28.701 C -101.019 -28.643 -101.77 -28.807 -102.428 -29.174 C -106.145 -31.392 -111.686 -29.884 -112.287 -25.615 C -117 -27.182 -121.417 -23.002 -121.16 -19.522 C -120.988 -18.436 -121.476 -17.352 -122.403 -16.761 C -123.08 -16.161 -123.566 -15.376 -123.803 -14.503 C -124.789 -11.457 -123.083 -8.341 -120.372 -8.41 C -119.391 -8.408 -118.435 -8.098 -117.641 -7.523 C -114.072 -5.373 -110.433 -4.802 -106.667 -7.128 C -106.179 -7.318 -105.634 -7.29 -105.168 -7.049 C -101.047 -4.93 -97.735 -5.827 -95.358 -9.859 C -95.146 -10.12 -94.843 -10.293 -94.511 -10.342 C -92.582 -10.526 -91.06 -12.06 -90.892 -13.99 C -90.577 -16.761 -91.296 -18.338 -93.446 -19.305 L -93.436 -19.305 Z  M -49.019 -12.945 L -60.565 -30.377 L -67.239 -19.906 L -72.228 -24.077 L -84.385 -4.24 L -44.563 -4.24 L -45.697 -6.162 C -43.725 -6.389 -42.187 -7.148 -41.832 -9.199 C -41.536 -10.904 -43.143 -13.537 -44.869 -14.483 C -46.594 -15.43 -47.678 -14.572 -49.019 -12.945 Z  M 26.77 -71.855 L 26.563 -71.293 C 27.401 -70.682 28.18 -69.686 29.087 -69.548 C 31.002 -69.385 32.926 -69.359 34.845 -69.469 C 34.046 -74.626 34.095 -74.912 35.949 -76.144 C 38.019 -72.94 40.514 -72.683 42.85 -75.158 C 44.083 -75.286 45.512 -75.326 46.38 -76.036 C 47.455 -76.913 47.1 -78.402 46.489 -79.585 C 46.104 -80.334 45.503 -80.946 45.049 -81.665 C 44.767 -82.008 44.623 -82.444 44.645 -82.888 C 45.759 -86.644 43.541 -89.977 39.607 -89.977 C 37.685 -89.819 35.781 -89.489 33.918 -88.991 C 32.163 -90.963 30.152 -90.904 28.17 -88.508 C 26.415 -90.026 24.453 -90.716 22.343 -89.385 C 21.453 -88.931 20.802 -88.115 20.556 -87.147 C 20.311 -86.178 20.495 -85.151 21.061 -84.327 C 20.41 -84.327 19.927 -84.327 19.454 -84.327 C 18.972 -84.334 18.49 -84.298 18.015 -84.219 C 16.467 -83.884 16.043 -82.691 17.117 -81.517 C 17.663 -80.974 18.242 -80.467 18.853 -79.999 C 16.437 -77.199 16.881 -75.7 20.47 -74.892 C 21.511 -74.685 22.573 -74.602 23.634 -74.645 C 25.311 -74.645 26.977 -74.813 28.722 -74.912 C 28.574 -73.423 28.949 -71.875 26.77 -71.855 Z  M -67.644 -50.283 L -60.367 -49.524 L -60.269 -49.948 C -63.384 -51.807 -65.726 -54.726 -66.865 -58.17 L -63.404 -58.17 C -65.216 -60.125 -66.918 -62.179 -68.501 -64.323 C -69.818 -66.552 -71.003 -68.857 -72.051 -71.224 C -73.925 -66.129 -77.12 -61.624 -81.309 -58.17 L -76.872 -58.17 C -78.163 -54.718 -80.452 -51.729 -83.448 -49.583 L -76.093 -50.273 C -79.139 -46.808 -82.477 -43.611 -86.071 -40.719 C -81.851 -41.15 -77.658 -41.808 -73.51 -42.691 C -72.414 -42.996 -71.254 -42.979 -70.168 -42.642 C -67.905 -42.013 -65.598 -41.558 -63.266 -41.281 C -61.383 -41.005 -59.47 -40.936 -57.262 -40.759 C -61.206 -43.766 -64.794 -46.556 -67.644 -50.283 Z  M -20.141 -75.405 C -20.062 -76.933 -19.55 -78.362 -20.062 -79.25 C -20.575 -80.137 -22.152 -80.443 -23.237 -80.995 C -22.981 -81.36 -22.576 -81.853 -22.251 -82.395 C -21.758 -83.243 -22.123 -83.824 -22.961 -84.13 C -24.743 -84.728 -26.703 -84.042 -27.723 -82.464 C -27.989 -82.06 -28.285 -81.675 -28.63 -81.182 L -29.715 -84.455 C -30.945 -83.444 -32.086 -82.329 -33.126 -81.123 C -33.897 -79.869 -34.557 -78.549 -35.098 -77.179 L -37.07 -78.984 C -38.539 -76.726 -38.509 -74.517 -38.332 -72.269 C -38.046 -68.69 -37.701 -68.217 -34.526 -67.231 C -34.881 -62.785 -30.582 -60.142 -26.639 -63.189 C -26.491 -62.913 -26.333 -62.637 -26.195 -62.351 C -24.795 -59.57 -22.143 -58.703 -19.707 -60.241 C -17.45 -61.67 -17.045 -64.579 -18.79 -66.935 C -18.978 -67.192 -19.392 -67.537 -19.333 -67.685 C -18.613 -69.292 -19.895 -70.1 -20.743 -71.066 C -18.061 -72.358 -18.623 -74.133 -20.141 -75.444 L -20.141 -75.405 Z  M -5.579 -47.394 C -5.579 -48.597 -5.579 -49.612 -5.579 -50.618 C -5.579 -54 -5.579 -54 -2.207 -54.276 L -2.049 -54.276 C -0.955 -54.335 -0.738 -54.936 -1.27 -55.765 C -1.877 -56.651 -2.535 -57.5 -3.242 -58.308 C -5.904 -61.542 -8.941 -64.599 -7.886 -69.43 C -7.787 -69.864 -8.517 -70.465 -8.872 -70.997 C -9.375 -70.652 -10.085 -70.416 -10.331 -69.942 C -10.883 -68.878 -11.416 -68.868 -12.116 -69.686 C -12.816 -70.504 -13.447 -71.362 -14.176 -72.131 C -14.451 -72.432 -14.844 -72.597 -15.251 -72.585 C -16.897 -72.161 -17.982 -68.799 -17.302 -67.231 C -16.682 -65.912 -16.372 -64.469 -16.395 -63.011 C -16.554 -61.096 -17.795 -59.441 -19.589 -58.752 C -21.611 -57.804 -23.994 -58.074 -25.751 -59.452 C -26.333 -58.732 -26.905 -58.091 -27.388 -57.401 C -27.871 -56.711 -28.374 -55.735 -28.916 -54.897 C -27.947 -54.621 -26.958 -54.423 -25.958 -54.305 C -24.686 -54.246 -24.105 -53.813 -24.164 -52.472 C -24.243 -50.786 -24.164 -49.1 -24.164 -47.394 L -16.789 -47.394 C -16.789 -49.011 -16.7 -50.549 -16.789 -52.077 C -16.878 -53.605 -16.257 -53.813 -15.014 -53.822 C -13.772 -53.832 -12.954 -53.635 -13.042 -52.097 C -13.131 -50.559 -13.042 -48.952 -13.042 -47.384 L -5.579 -47.394 Z  M -116.99 23.948 C -117.23 23.412 -117.527 22.902 -117.877 22.43 C -118.173 22.134 -118.666 21.779 -119.011 21.839 C -119.356 21.898 -119.76 22.361 -119.928 22.736 C -120.066 23.143 -120.086 23.58 -119.987 23.998 C -119.465 26.956 -120.579 29.361 -122.62 31.471 C -123.451 32.389 -124.2 33.379 -124.858 34.429 C -125.333 35.214 -125.768 36.024 -126.159 36.854 C -125.286 37.107 -124.392 37.282 -123.487 37.377 C -122.393 37.377 -121.949 37.761 -122.018 38.895 C -122.097 40.226 -122.018 41.567 -122.018 42.898 C -122.018 43.825 -121.713 44.288 -120.727 44.259 C -119.336 44.259 -117.946 44.259 -116.566 44.259 C -115.58 44.259 -115.245 43.874 -115.284 42.928 C -115.356 41.647 -115.356 40.363 -115.284 39.083 C -115.253 38.591 -115.004 38.138 -114.604 37.85 C -112.869 37.16 -111.853 37.85 -111.843 39.743 C -111.843 40.118 -111.843 40.492 -111.843 40.867 C -111.843 44.239 -111.843 44.239 -108.491 44.249 C -105.139 44.259 -105.149 44.249 -105.129 40.966 C -105.129 39.98 -105.445 38.629 -104.932 38.008 C -104.419 37.387 -103.059 37.535 -102.073 37.377 C -100.84 37.18 -100.604 36.677 -101.333 35.661 C -101.954 34.804 -102.644 33.985 -103.305 33.137 Q -107.791 27.31 -112.267 21.484 C -113.431 19.975 -113.726 19.995 -114.969 21.484 C -115.541 22.223 -116.152 22.943 -116.99 23.948 Z  M -125.558 91.347 C -125.558 91.939 -125.558 92.53 -125.558 93.112 C -125.676 94.394 -125.213 95.005 -123.832 94.906 C -122.604 94.836 -121.373 94.836 -120.145 94.906 C -119.159 94.906 -118.774 94.571 -118.804 93.605 C -118.804 92.323 -118.804 91.042 -118.804 89.76 C -118.804 88.478 -118.163 88.241 -117.088 88.222 C -116.014 88.202 -115.304 88.478 -115.304 89.701 C -115.304 90.923 -115.304 92.264 -115.304 93.546 C -115.304 94.453 -115.038 94.946 -114.022 94.906 C -112.691 94.847 -111.35 94.906 -110.019 94.906 C -109.033 94.906 -108.55 94.492 -108.56 93.487 C -108.56 92.047 -108.56 90.598 -108.56 89.158 C -108.56 88.281 -108.225 87.857 -107.338 87.877 C -106.859 87.918 -106.377 87.918 -105.898 87.877 C -105.403 87.772 -104.915 87.633 -104.439 87.463 C -104.546 86.977 -104.722 86.508 -104.961 86.072 C -108.195 81.833 -111.459 77.623 -114.712 73.403 C -117.01 70.445 -117.01 70.445 -119.277 73.324 C -120.135 74.428 -120.5 74.359 -121.318 73.166 C -121.605 72.771 -122.063 72.537 -122.551 72.535 C -122.975 72.761 -123.268 73.174 -123.339 73.65 C -123.44 74.607 -123.44 75.572 -123.339 76.529 C -123.196 77.861 -123.626 79.191 -124.522 80.186 C -126.13 82.099 -127.608 84.13 -129.097 86.102 C -129.318 86.496 -129.487 86.917 -129.6 87.354 C -129.2 87.568 -128.772 87.724 -128.328 87.818 C -125.469 88.005 -125.469 87.995 -125.469 90.834 C -125.558 91.022 -125.558 91.18 -125.558 91.347 Z  M -71.006 16.238 C -71.923 17.343 -72.652 18.21 -73.392 19.117 C -74.131 20.024 -74.673 20.251 -75.235 18.92 C -75.536 18.495 -76.026 18.245 -76.547 18.25 C -76.852 18.25 -77.188 18.92 -77.335 19.354 C -77.437 19.772 -77.437 20.208 -77.335 20.626 C -76.941 23.079 -77.782 25.569 -79.583 27.281 C -80.527 28.316 -81.4 29.412 -82.196 30.564 C -82.662 31.301 -83.083 32.065 -83.458 32.851 C -82.622 33.079 -81.768 33.231 -80.905 33.305 C -79.712 33.305 -79.278 33.778 -79.337 34.942 C -79.396 36.105 -79.337 37.505 -79.337 38.787 C -79.386 39.921 -78.864 40.325 -77.799 40.305 C -76.566 40.305 -75.344 40.305 -74.111 40.305 C -72.879 40.305 -72.564 39.812 -72.603 38.738 C -72.642 37.663 -72.544 36.273 -72.603 35.05 C -72.662 33.828 -71.893 33.709 -70.976 33.699 C -70.059 33.69 -69.28 33.867 -69.34 35.09 C -69.399 36.312 -69.34 37.653 -69.34 38.935 C -69.34 39.921 -68.935 40.305 -68.008 40.305 C -66.674 40.375 -65.337 40.352 -64.006 40.236 C -63.374 40.03 -62.882 39.53 -62.684 38.895 C -62.557 37.888 -62.537 36.87 -62.625 35.859 C -62.625 33.384 -62.625 33.413 -60.111 33.305 C -59.567 33.215 -59.037 33.056 -58.534 32.832 C -58.723 32.309 -58.964 31.807 -59.253 31.333 Q -62.813 26.61 -66.441 21.937 C -67.949 20.074 -69.399 18.269 -71.006 16.238 Z  M -1.872 28.139 C -1.853 24.904 -3.128 21.795 -5.413 19.505 C -7.698 17.215 -10.803 15.932 -14.038 15.943 C -20.76 16.008 -26.164 21.495 -26.126 28.218 C -26.03 34.859 -20.67 40.22 -14.028 40.315 C -10.801 40.315 -7.706 39.032 -5.425 36.747 C -3.145 34.463 -1.867 31.366 -1.872 28.139 Z  M -78.824 -62.173 C -79.889 -65.379 -79.134 -68.91 -76.852 -71.402 C -74.766 -73.581 -72.568 -75.651 -70.266 -77.603 C -67.013 -73.216 -62.576 -69.075 -63.877 -62.37 C -58.218 -64.885 -56.325 -71.638 -58.297 -75 C -59.48 -72.585 -59.874 -72.19 -61.649 -71.638 C -59.322 -75.099 -59.322 -77.554 -61.531 -80.512 C -62.872 -82.326 -64.094 -84.229 -65.356 -86.063 C -66.608 -84.781 -66.579 -82.76 -66.52 -80.344 C -69.685 -84.396 -69.409 -88.458 -68.709 -92.777 C -70.84 -90.971 -72.818 -88.993 -74.624 -86.861 C -76.376 -84.612 -77.135 -81.746 -76.724 -78.924 L -77.148 -78.826 L -79.179 -82.454 C -84.416 -76.654 -84.261 -67.787 -78.824 -62.173 Z  M -56.365 68.473 L -56.779 68.059 C -54.432 65.309 -54.432 62.686 -56.67 60.024 C -58.08 58.358 -59.401 56.613 -60.772 54.877 C -62.113 55.991 -62.044 57.835 -62.053 59.955 C -63.614 58.587 -64.529 56.627 -64.577 54.552 C -64.577 52.58 -64.39 50.697 -64.272 48.735 C -68.856 51.772 -73.244 54.976 -73.145 61.611 L -75.413 58.17 C -80.924 63.987 -80.737 72.772 -74.89 77.061 C -76.3 73.492 -75.038 70.593 -72.623 68.187 C -70.651 66.216 -68.472 64.411 -66.135 62.272 C -64.163 64.737 -62.241 66.995 -60.594 69.469 C -59.145 71.648 -58.11 74.074 -59.539 76.864 C -54.61 75.02 -51.228 70.396 -53.131 65.171 L -56.365 68.473 Z  M -65.494 87.936 C -65.494 88.922 -65.494 89.78 -65.494 90.687 C -65.494 94.63 -65.494 93.911 -62.369 93.911 C -58.622 93.911 -59.174 94.453 -59.135 90.716 C -59.135 87.699 -59.135 87.689 -56.128 87.315 C -55.034 87.177 -54.659 86.753 -55.428 85.757 Q -60.841 78.737 -66.273 71.697 C -66.796 71.017 -67.328 71.057 -67.831 71.697 C -68.334 72.338 -68.896 73.157 -69.468 73.866 C -70.04 74.576 -70.72 74.527 -70.947 73.738 C -71.302 72.486 -72.011 72.693 -73.047 72.92 C -73.047 74.034 -73.126 75.099 -73.047 76.144 C -72.869 77.637 -73.355 79.133 -74.378 80.236 C -75.876 81.961 -77.227 83.815 -78.617 85.639 C -79.406 86.684 -79.189 87.187 -77.966 87.325 C -75.009 87.66 -75.009 87.66 -75.009 90.726 Q -75.009 91.13 -75.009 91.525 C -75.009 93.92 -75.009 93.92 -72.554 93.92 C -68.718 93.92 -68.718 93.92 -68.728 90.154 C -68.639 87.492 -68.363 87.285 -65.494 87.936 L -65.494 87.936 Z  M 36.116 88.429 C 38.276 88.685 40.159 88.981 42.032 89.089 C 42.555 88.975 42.985 88.604 43.176 88.103 C 43.496 86.475 43.72 84.829 43.846 83.174 C 43.945 81.991 44.507 81.577 45.621 81.695 C 46.204 81.761 46.789 81.797 47.376 81.803 C 47.859 81.803 48.362 81.724 48.835 81.685 C 48.744 81.2 48.599 80.727 48.401 80.275 C 45.355 75.03 42.279 69.795 39.222 64.549 C 37.3 61.256 37.309 61.246 34.539 63.948 C 33.208 65.24 32.567 65.092 31.837 63.396 C 31.637 63.008 31.277 62.727 30.852 62.627 C 30.625 62.627 30.211 63.169 30.092 63.544 C 29.905 64.145 29.954 64.816 29.777 65.427 C 29.294 67.004 29.984 68.888 28.406 70.189 C 27.963 70.554 27.42 71.49 27.588 71.766 C 28.318 73.009 28.14 75.059 30.132 75.237 C 31.699 75.375 32.537 76.006 32.725 77.583 C 32.799 78.217 33.011 78.826 33.346 79.368 C 33.648 79.914 34.123 80.344 34.697 80.591 C 36.925 81.182 37.162 81.468 36.797 83.755 C 36.56 85.225 36.373 86.694 36.126 88.429 L 36.116 88.429 Z  M -2.877 -4.663 L -2.739 -5.176 C -2.71 -5.276 -2.69 -5.378 -2.68 -5.482 C -2.611 -6.468 -2.907 -7.809 -2.375 -8.44 C -1.842 -9.071 -0.491 -8.706 0.485 -8.873 C 1.461 -9.041 1.944 -9.613 1.264 -10.5 C -2.522 -15.43 -6.358 -20.36 -10.163 -25.289 C -10.755 -26.058 -11.287 -25.94 -11.83 -25.22 C -12.372 -24.501 -12.944 -23.791 -13.516 -23.091 C -14.088 -22.391 -14.748 -22.282 -15.004 -23.091 C -15.261 -23.899 -15.842 -24.491 -16.572 -24.077 C -17.093 -23.638 -17.377 -22.981 -17.341 -22.302 C -17.095 -19.522 -17.548 -17.057 -19.619 -14.996 C -20.573 -14.021 -21.438 -12.962 -22.202 -11.831 C -22.676 -11.048 -23.098 -10.235 -23.464 -9.396 C -22.578 -9.14 -21.67 -8.965 -20.752 -8.873 C -19.599 -8.873 -19.244 -8.39 -19.313 -7.316 C -19.372 -6.438 -19.313 -5.561 -19.313 -4.673 L -12.727 -6.064 C -12.273 -6.971 -13.289 -8.321 -11.376 -8.548 C -8.754 -8.873 -9.473 -6.98 -9.286 -5.433 L -2.877 -4.663 Z  M -48.447 16.643 C -49.01 16.349 -49.601 16.114 -50.212 15.943 C -52.707 15.627 -54.284 17.096 -54.294 19.837 C -54.332 23.975 -53.665 28.089 -52.322 32.004 C -55.065 29.711 -57.003 26.602 -57.853 23.13 C -58.514 20.567 -58.958 17.944 -59.48 15.351 C -59.945 12.212 -61.473 9.327 -63.808 7.178 C -65.169 6.014 -66.766 5.206 -68.649 6.014 C -69.921 6.547 -70.069 7.385 -69.083 8.321 C -68.551 8.834 -67.92 9.258 -67.358 9.731 C -63.986 12.6 -62.251 16.485 -60.722 20.488 C -58.751 25.644 -56.976 30.86 -53.91 35.553 C -49.305 42.593 -41.911 39.694 -37.898 35.237 C -38.985 35.461 -40.085 35.619 -41.191 35.711 C -44.494 35.799 -46.742 34.961 -47.59 32.358 C -47.907 31.394 -47.799 30.34 -47.294 29.46 C -46.87 28.927 -45.529 29.056 -44.592 29.026 C -44.03 29.026 -43.459 29.371 -42.897 29.351 C -42.444 29.318 -42.025 29.096 -41.743 28.74 C -41.595 28.513 -41.743 27.922 -42.009 27.616 C -42.92 26.38 -44.431 25.738 -45.953 25.94 C -47.52 25.923 -48.866 27.048 -49.128 28.592 C -49.238 30.276 -49.238 31.966 -49.128 33.65 C -50.922 32.082 -51.257 29.894 -51.583 27.803 C -52.263 23.82 -52.066 19.936 -48.447 16.643 Z  M -124.503 -38.452 C -125.667 -38.762 -126.909 -38.564 -127.919 -37.906 C -128.929 -37.248 -129.611 -36.192 -129.797 -35.001 C -129.924 -34.211 -130.265 -33.471 -130.783 -32.861 C -132.114 -31.244 -131.917 -28.799 -130.192 -28.07 C -128.676 -27.357 -127.085 -26.818 -125.449 -26.463 C -124.165 -26.308 -122.863 -26.436 -121.634 -26.837 C -121.004 -27.105 -120.292 -27.105 -119.662 -26.837 C -118.744 -26.331 -117.663 -26.211 -116.657 -26.503 C -115.65 -26.795 -114.802 -27.476 -114.298 -28.395 C -114.042 -28.704 -113.699 -28.928 -113.312 -29.036 C -111.538 -29.687 -110.611 -32.201 -111.873 -33.62 C -112.563 -34.467 -112.896 -35.549 -112.8 -36.637 C -112.781 -37.638 -113.182 -38.6 -113.905 -39.291 C -114.628 -39.982 -115.607 -40.339 -116.605 -40.276 C -117.332 -40.29 -118.051 -40.437 -118.725 -40.709 C -121.308 -41.814 -123.359 -41.035 -124.503 -38.452 Z  M -45.628 -43.943 L 2.683 -43.943 L 2.683 -46.743 L -39.288 -46.743 L -39.288 -51.003 L -41.26 -51.673 L -43.104 -50.588 L -43.104 -46.743 L -45.588 -46.576 L -45.628 -43.943 Z  M 20.884 30.002 L 24.522 27.606 L 25.508 30.751 L 27.322 27.981 L 30.28 32.408 L 30.516 32.319 L 30.043 27.064 L 33.405 27.902 L 31.847 24.865 L 37.428 25.191 L 37.487 24.954 L 32.636 22.262 L 35.594 20.054 L 31.976 19.561 L 35.436 14.789 L 30.191 17.412 L 29.944 14.296 L 29.471 14.079 L 27.618 16.633 L 25.764 11.338 L 25.488 11.338 L 24.778 16.682 L 21.456 14.789 L 22.441 18.171 L 17.512 16.83 L 17.384 17.145 L 21.11 20.606 L 18.024 21.868 L 20.982 23.446 L 16.447 27.251 L 22.225 25.94 L 20.884 30.002 Z  M 24.196 -29.894 L 16.467 -41.409 C 15.392 -39.901 14.377 -38.599 13.509 -37.19 C 13.283 -36.678 13.323 -36.088 13.617 -35.612 C 17.098 -31.797 20.647 -28.05 24.275 -24.195 L 26.129 -27.31 L 33.385 -18.151 L 33.632 -18.329 L 26.809 -33.808 L 24.196 -29.894 Z  M 43.718 24.333 L 43.205 24.461 C 43.481 26.265 43.205 28.405 44.191 29.795 C 45.867 32.339 46.035 34.912 45.769 37.771 L 44.181 37.998 C 44.98 38.984 45.532 40.187 46.203 40.266 C 48.526 40.426 50.856 40.459 53.183 40.364 L 53.42 39.871 C 52.365 39.201 51.3 38.54 50.265 37.84 C 50.028 37.666 49.838 37.436 49.713 37.17 C 48.874 35.484 50.235 34.567 51.004 33.423 C 51.217 33.038 51.398 32.635 51.546 32.22 L 51.172 32.053 L 49.2 33.463 C 48.825 30.761 48.884 30.83 50.669 29.302 C 51.458 28.487 52.156 27.587 52.749 26.62 L 52.404 26.374 L 49.151 29.144 C 48.165 26.265 51.477 24.964 51.201 22.193 L 48.914 24.846 C 47.81 22.46 48.313 20.35 49.525 18.26 L 47.918 19.719 L 46.932 12.926 L 46.656 12.926 L 46.656 18.565 L 46.311 18.703 L 42.515 13.803 C 42.748 14.947 43.157 16.048 43.728 17.067 C 44.29 18.053 45.227 18.762 45.769 19.729 C 46.151 20.608 46.435 21.528 46.617 22.47 L 46.153 22.608 L 44.073 20.774 L 43.6 21.119 C 44.014 21.888 44.241 22.893 44.872 23.377 C 46.3 24.396 46.882 26.237 46.301 27.892 C 46.185 28.544 46.106 29.203 46.065 29.864 L 45.512 29.973 L 43.718 24.333 Z  M 16.358 93.664 C 22.856 93.546 29.254 94.226 35.495 92.422 L 35.653 91.111 L 40.583 90.046 C 32.518 87.946 24.433 89.188 16.358 88.734 L 16.358 93.664 Z  M 25.123 72.841 C 24.295 73.827 23.556 74.813 22.846 75.7 C 22.136 76.588 21.643 77.347 21.041 78.175 C 22.027 78.402 22.934 78.678 23.901 78.826 C 25.202 79.033 25.774 79.634 25.468 81.005 C 25.249 82.096 25.091 83.199 24.995 84.308 C 24.739 86.812 24.749 86.812 27.243 87.265 C 27.815 87.364 28.397 87.453 28.978 87.502 C 31.828 87.749 31.828 87.749 32.054 84.702 C 32.262 83.193 32.549 81.695 32.912 80.216 C 32.694 79.303 32.272 78.45 31.68 77.722 C 31.394 77.357 30.822 76.913 30.437 76.962 C 28.19 77.268 27.006 76.026 26.119 74.241 C 25.813 73.757 25.48 73.289 25.123 72.841 L 25.123 72.841 Z  M -117.739 60.31 C -114.446 54.463 -101.846 53.813 -99.992 58.791 C -97.577 56.583 -97.892 54.305 -100.801 52.876 C -101.139 52.722 -101.488 52.593 -101.846 52.491 C -105.881 51.321 -110.212 51.755 -113.933 53.704 C -115.422 54.509 -116.757 55.57 -117.877 56.839 C -118.349 57.303 -118.602 57.944 -118.576 58.605 C -118.55 59.266 -118.246 59.885 -117.739 60.31 L -117.739 60.31 Z  M -62.27 18.802 C -64.459 14.217 -67.121 9.928 -71.735 7.365 C -74.351 5.711 -77.619 5.467 -80.451 6.714 C -81.043 6.98 -81.437 7.7 -81.9 8.203 C -81.369 8.577 -80.809 8.906 -80.224 9.189 C -76.852 10.431 -73.323 11.299 -70.148 12.955 C -67.289 14.434 -64.883 16.81 -62.27 18.812 L -62.27 18.802 Z  M 40.267 93.585 L 57.63 93.585 L 57.63 88.508 C 55.293 88.508 53.065 88.508 50.827 88.508 C 49.624 88.508 48.579 88.616 48.362 90.125 C 48.257 90.406 48.015 90.615 47.721 90.677 C 44.862 90.598 42.781 92.678 40.228 93.595 L 40.267 93.585 Z  M 37.132 42.05 C 36.294 41.37 35.535 40.788 34.825 40.157 C 32.923 38.504 30.435 37.686 27.923 37.89 C 27.499 37.89 26.799 38.264 26.74 38.56 C 26.366 40.532 26.139 42.504 25.882 44.328 C 30.191 46.379 33.464 43.884 36.935 42.277 C 36.974 42.257 37.004 42.198 37.132 42.05 Z  M 56.21 51.91 C 56.841 50.174 56.101 49.366 54.79 48.686 C 53.282 47.907 51.931 46.822 50.422 46.063 C 49.639 45.671 48.75 45.543 47.889 45.698 C 46.538 46.112 45.219 46.627 43.945 47.236 C 44.704 48.617 45.345 49.908 46.114 51.111 C 46.387 51.521 46.82 51.797 47.307 51.87 C 50.275 51.91 53.252 51.88 56.21 51.88 L 56.21 51.91 Z  M 33.257 51.85 C 31.759 47.069 29.313 45.136 25.567 46.408 C 23.842 46.99 22.501 48.814 21.091 50.174 C 20.775 50.48 20.884 51.219 20.785 51.85 L 33.257 51.85 Z  M 18.379 48.193 C 20.42 46.763 22.836 45.826 23.911 43.135 C 21.288 41.962 19.247 38.866 15.698 40.907 C 15.155 41.222 14.15 41.528 14.15 41.833 C 14.031 42.999 14.254 44.174 14.791 45.215 C 15.86 46.352 17.065 47.352 18.379 48.193 Z  M -116.211 62.873 C -114.239 59.304 -106.647 57.786 -101.343 60.901 C -100.357 59.146 -100.781 57.944 -102.733 56.958 C -106.273 55.262 -112.898 56.258 -115.836 58.93 C -116.485 59.349 -116.906 60.042 -116.979 60.811 C -117.052 61.579 -116.769 62.339 -116.211 62.873 Z  M 10.068 -3.362 L 10.068 -3.756 C 8.885 -4.023 7.692 -4.24 6.538 -4.575 C 3.776 -5.369 0.855 -5.437 -1.941 -4.772 C -3.913 -4.348 -6.003 -4.693 -8.044 -4.772 C -10.339 -4.968 -12.642 -5.044 -14.945 -4.999 C -17.617 -4.782 -20.24 -3.944 -22.902 -3.747 C -24.4 -3.638 -25.958 -4.279 -27.615 -4.614 C -24.876 -2.501 -21.25 -1.925 -17.992 -3.086 C -14.886 -4.131 -11.731 -4.535 -8.645 -3.263 C -6.23 -2.216 -3.488 -2.216 -1.073 -3.263 C 1.218 -4.149 3.725 -4.318 6.114 -3.747 C 7.424 -3.542 8.744 -3.414 10.068 -3.362 L 10.068 -3.362 Z  M 42.988 51.85 C 42.988 51.604 42.988 51.535 42.988 51.505 L 39.656 46.645 C 38.128 44.417 37.201 44.052 34.628 44.673 C 34.032 44.76 33.525 45.151 33.29 45.705 C 33.054 46.258 33.124 46.895 33.474 47.384 C 34.283 48.626 35.062 49.908 35.949 51.091 C 36.292 51.505 36.785 51.767 37.319 51.821 C 39.183 51.929 41.046 51.88 42.988 51.88 L 42.988 51.85 Z  M -36.646 36.391 C -38.994 37.724 -41.414 38.928 -43.892 40 C -47.925 41.508 -51.612 40.256 -54.195 36.874 C -54.856 35.997 -55.467 35.08 -56.098 34.182 C -56.164 34.891 -56.104 35.605 -55.921 36.292 C -54.797 40.502 -50.34 43.717 -46.505 43.125 C -42.118 42.445 -39.032 39.98 -36.646 36.391 Z  M -101.037 64.086 C -100.554 62.686 -101.392 61.917 -102.319 61.286 C -105.336 59.265 -111.4 59.531 -114.308 61.779 C -116.112 63.159 -115.836 64.954 -114.012 65.723 C -110.147 61.03 -105.583 62.607 -101.037 64.086 Z  M -35.334 -63.278 C -37.533 -60.152 -40.264 -57.283 -42.137 -53.882 C -40.363 -54.513 -40.166 -52.551 -39.081 -52.265 L -33.067 -61.316 L -35.334 -63.278 Z  M -131.286 -52.028 C -129.413 -50.608 -128.575 -50.539 -127.924 -52.738 C -127.814 -53.414 -127.434 -54.016 -126.87 -54.405 C -126.306 -54.794 -125.608 -54.936 -124.937 -54.798 C -124.651 -54.256 -124.394 -53.665 -124.049 -53.132 C -123.704 -52.6 -123.241 -51.525 -122.669 -51.367 C -121.269 -50.993 -120.796 -50.381 -121.515 -48.863 C -119.672 -50.184 -119.672 -51.131 -121.298 -52.058 C -123.221 -53.152 -123.655 -54.315 -123.221 -56.386 C -123.123 -57.369 -123.123 -58.36 -123.221 -59.344 L -124.808 -59.551 L -125.4 -61.306 L -125.784 -61.246 C -125.748 -60.718 -125.748 -60.188 -125.784 -59.659 C -125.952 -58.496 -125.242 -56.898 -126.77 -56.366 C -127.91 -56.107 -128.758 -55.152 -128.88 -53.99 C -129.048 -52.649 -129.551 -51.634 -131.276 -52.028 L -131.286 -52.028 Z  M 3.876 -2.199 L 3.876 -2.632 C 2.141 -2.258 0.425 -1.972 -1.221 -1.489 C -3.489 -0.688 -5.967 -0.708 -8.221 -1.548 C -10.458 -2.47 -12.93 -2.656 -15.281 -2.08 C -18.238 -1.331 -21.196 -0.493 -24.361 -1.37 C -22.591 -0.689 -20.707 -0.354 -18.81 -0.385 C -15.174 -0.91 -11.47 -0.723 -7.906 0.168 C -6.616 0.518 -5.259 0.535 -3.962 0.217 C -1.329 -0.424 1.264 -1.38 3.876 -2.199 Z  M -111.784 67.951 C -107.84 64.116 -103.768 65.535 -99.549 67.369 C -99.881 66.593 -100.375 65.897 -100.998 65.328 C -103.844 63.247 -107.537 62.712 -110.857 63.899 C -113.174 64.618 -113.421 66.314 -111.784 67.951 Z  M -101.018 73.659 C -99.509 72.674 -99.47 71.579 -101.018 70.633 C -102.956 69.361 -105.347 68.981 -107.584 69.588 C -108.36 69.787 -109.021 70.292 -109.418 70.988 C -109.605 71.53 -108.915 72.368 -108.629 73.038 C -106.166 71.855 -103.256 72.092 -101.018 73.659 L -101.018 73.659 Z  M -99.687 70.702 C -98.78 69.657 -99.509 68.888 -100.19 68.247 C -102.161 66.364 -106.914 65.683 -109.378 66.856 C -111.055 67.655 -111.242 68.611 -110.009 70.041 C -107.081 67.852 -103.088 68.099 -99.687 70.731 L -99.687 70.702 Z  M -70.582 -33.325 L -70.582 -42.139 L -73.145 -42.139 L -73.145 -33.325 L -70.582 -33.325 Z  M 39.133 43.322 C 40.583 45.038 42.338 45.294 44.349 45.176 C 46.36 45.057 47.987 44.633 49.121 42.888 C 47.918 41.193 43.57 41.34 39.133 43.322 Z  M 56.417 48.094 C 56.417 46.211 56.417 44.624 56.417 43.046 C 56.336 42.624 56.067 42.261 55.687 42.06 C 53.439 41.074 51.665 41.735 50.491 44.032 L 53.183 45.895 L 56.417 48.094 Z  M 34.933 37.87 C 38.986 42.326 38.986 42.326 43.472 40.305 C 42.15 37.347 42.929 37.949 39.873 37.88 C 38.236 37.83 36.609 37.87 34.933 37.87 Z  M -72.583 12.561 C -74.555 11.91 -76.527 11.22 -78.44 10.658 C -80.165 10.174 -82.017 10.54 -83.429 11.644 C -84.039 12.226 -84.567 12.89 -84.996 13.616 C -82.66 13.428 -80.737 12.797 -78.765 12.571 C -76.706 12.452 -74.642 12.449 -72.583 12.561 L -72.583 12.561 Z  M -17.104 71.224 C -16.651 72.062 -15.842 72.841 -15.912 73.531 C -16.138 75.838 -14.462 75.681 -13.092 76.105 L -11.702 73.807 L -14.659 70.09 L -17.104 71.224 Z  M 0.425 0.651 C -3.459 1.558 -7.324 2.465 -11.287 0.897 C -12.283 0.663 -13.319 0.663 -14.314 0.897 C -16.809 1.193 -19.293 1.587 -21.778 1.942 C -19.983 2.1 -18.13 2.07 -16.276 2.11 C -14.423 2.149 -12.273 1.903 -10.44 2.416 C -6.486 3.48 -3.075 2.021 0.425 0.651 Z  M -120.559 16.554 C -119.376 16.554 -117.907 15.105 -118.321 13.872 C -118.704 12.859 -119.558 12.097 -120.608 11.831 C -121.695 11.983 -122.625 12.689 -123.063 13.695 C -123.329 15.864 -122.521 16.524 -120.559 16.554 Z  M -107.633 12.009 C -110.226 14.217 -110.345 14.296 -109.793 15.095 C -109.24 15.893 -109.526 17.254 -108.018 17.145 C -106.509 17.037 -105.267 16.633 -105.149 14.572 C -105.03 12.512 -107.19 13.241 -107.633 12.019 L -107.633 12.009 Z  M -100.101 10.717 C -97.074 8.311 -97.518 9.189 -98.297 6.773 C -98.553 5.975 -98.888 5.58 -99.854 5.709 C -102.053 5.995 -102.063 5.935 -102.664 9.061 L -100.101 10.717 Z  M -129.866 22.381 C -128.772 23.367 -129.314 25.339 -127.234 25.22 C -126.567 25.27 -125.91 25.039 -125.42 24.585 C -124.93 24.131 -124.652 23.493 -124.651 22.824 C -124.404 21.06 -125.784 21.06 -126.623 20.636 C -128.417 19.719 -128.496 22.006 -129.866 22.381 Z  M -101.392 20.103 C -104.468 21.809 -104.468 21.809 -103.177 24.846 C -100.081 25.033 -100.081 25.033 -99.006 22.046 L -101.392 20.103 Z  M 12.976 -18.22 L 12.976 -18.112 L 22.856 -16.357 L 22.294 -18.674 L 27.016 -18.969 L 27.016 -19.285 L 20.115 -19.738 L 20.371 -18.22 L 12.976 -18.22 Z  M -0.146 41.409 C -1.024 41.981 -1.911 42.247 -2.118 42.76 C -2.294 43.46 -2.105 44.202 -1.615 44.732 C -0.615 45.465 0.511 46.01 1.707 46.339 C 2.368 46.357 2.994 46.042 3.373 45.501 C 3.593 44.877 3.486 44.185 3.088 43.657 C 2.069 42.826 0.988 42.074 -0.146 41.409 L -0.146 41.409 Z  M -5.993 44.486 C -4.277 44.515 -2.68 43.381 -2.779 42.297 C -2.877 41.212 -4.751 40.128 -6.269 40.423 C -7.472 40.66 -8.961 40.729 -9.03 42.494 C -9.079 43.569 -7.669 44.456 -5.993 44.486 Z  M -1.389 41.064 C -0.356 40.729 0.636 40.279 1.569 39.723 C 2.131 39.277 2.443 38.587 2.407 37.87 C 2.081 37.17 1.425 36.682 0.662 36.568 C -0.43 36.577 -1.498 36.888 -2.424 37.466 C -3.092 37.989 -3.461 38.807 -3.41 39.654 C -3.242 40.276 -2.118 40.601 -1.389 41.064 Z  M 34.933 -35.06 L 32.508 -34.251 L 31.976 -40.098 L 31.768 -40.098 L 31.768 -32.053 L 33.523 -32.536 L 33.523 -25.891 L 33.799 -25.891 L 34.933 -35.06 Z  M -105.07 72.841 C -105.905 72.951 -106.722 73.162 -107.505 73.472 C -107.88 73.679 -107.978 74.369 -108.205 74.843 C -107.765 75.025 -107.309 75.17 -106.845 75.276 C -105.523 75.474 -104.192 75.641 -102.901 75.74 C -102.387 75.721 -101.878 75.641 -101.382 75.503 C -101.57 75.01 -101.629 74.261 -101.974 74.074 C -102.965 73.597 -103.986 73.185 -105.03 72.841 L -105.07 72.841 Z  M 58.448 -61.976 C 58.549 -62.513 58.411 -63.066 58.07 -63.493 C 57.729 -63.919 57.219 -64.175 56.673 -64.194 C 56.154 -64.282 55.621 -64.145 55.208 -63.818 C 54.794 -63.492 54.539 -63.005 54.504 -62.479 C 54.376 -61.939 54.49 -61.37 54.815 -60.921 C 55.141 -60.472 55.647 -60.188 56.2 -60.142 C 56.746 -60.064 57.299 -60.218 57.726 -60.566 C 58.153 -60.915 58.415 -61.426 58.448 -61.976 Z  M -2.483 76.302 C -1.27 76.381 -0.689 75.612 -0.511 74.497 C -0.484 73.958 -0.68 73.43 -1.053 73.039 C -1.425 72.648 -1.943 72.426 -2.483 72.427 C -3.582 72.459 -4.455 73.359 -4.455 74.458 C -4.465 74.973 -4.256 75.468 -3.88 75.82 C -3.504 76.171 -2.996 76.347 -2.483 76.302 L -2.483 76.302 Z  M 24.137 41.626 L 24.788 41.35 C 24.473 40.256 24.463 38.55 23.802 38.195 C 22.747 37.653 21.219 38.057 19.858 38.057 L 19.789 38.501 L 24.137 41.626 Z  M 14.081 51.811 L 18.024 51.811 C 17.295 49.839 15.5 49.297 14.081 47.867 C 14.081 49.09 14.081 49.928 14.081 50.766 C 14.081 51.101 14.081 51.407 14.081 51.811 Z  M -18.15 -82.178 C -14.985 -80.758 -12.648 -80.206 -11.425 -80.669 C -12.855 -82.592 -14.886 -83.075 -18.15 -82.178 Z  M -16.03 -83.657 C -17.124 -86.132 -19.589 -86.703 -22.517 -85.501 L -16.03 -83.657 Z  M -102.26 77.416 C -103.246 76.055 -105.602 75.336 -106.923 76.065 C -107.18 76.213 -107.121 76.933 -107.209 77.386 C -105.73 77.583 -104.252 77.8 -102.783 77.948 C -102.625 77.978 -102.428 77.603 -102.26 77.416 Z  M -6.407 -76.252 L -6.279 -76.755 C -7.649 -78.727 -9.7 -79.161 -13.102 -78.076 L -6.407 -76.252 Z  M -85.282 17.54 L -79.317 14.03 C -83.379 13.803 -85.499 15.006 -85.312 17.54 L -85.282 17.54 Z  M 14.209 37.87 C 13.992 39.674 14.209 39.93 15.757 39.556 C 16.425 39.417 17.083 39.236 17.729 39.014 C 18.034 38.895 18.261 38.56 18.527 38.323 C 18.241 38.176 17.965 37.909 17.67 37.899 C 16.516 37.84 15.362 37.87 14.209 37.87 Z  M 0.524 -29.884 C 1.51 -31.274 1.155 -34.242 -0.136 -35.74 C 0.278 -33.739 -1.3 -31.747 0.524 -29.884 Z  M -26.885 -13.241 C -26.885 -11.319 -28.157 -9.347 -26.441 -7.326 C -25.091 -9.583 -26.491 -11.407 -26.885 -13.251 L -26.885 -13.241 Z  M -7.856 -31.599 L -8.517 -31.599 C -8.517 -30.061 -8.517 -28.523 -8.517 -26.985 C -8.517 -26.699 -8.014 -26.443 -7.738 -26.177 C -7.551 -26.512 -7.186 -26.867 -7.216 -27.163 C -7.334 -28.642 -7.61 -30.12 -7.847 -31.599 L -7.856 -31.599 Z  M -22.399 -17.057 C -21.521 -19.226 -22.645 -21 -23.05 -22.815 C -23.641 -17.895 -23.641 -17.895 -22.399 -17.057 Z  M -126.169 -64.806 L -126.77 -64.806 C -127.135 -64.263 -127.815 -63.701 -127.756 -63.199 C -127.697 -62.696 -126.948 -62.213 -126.504 -61.739 C -126.07 -62.183 -125.331 -62.597 -125.291 -63.08 C -125.252 -63.563 -125.853 -64.244 -126.169 -64.806 Z  M 2.358 -19.453 L 1.569 -25.112 C 0.337 -22.134 0.544 -20.241 2.358 -19.492 L 2.358 -19.453 Z  M -29.36 -23.761 L -28.808 -23.899 L -29.567 -29.332 C -30.829 -26.453 -30.671 -24.579 -29.36 -23.761 Z  M -19.254 -33.522 C -20.585 -30.564 -20.338 -28.484 -18.524 -28.04 L -19.254 -33.522 Z  M 21.298 75.414 L 20.687 74.202 C 20.106 74.211 19.529 74.298 18.971 74.458 C 18.55 74.679 18.206 75.023 17.985 75.444 C 17.896 75.602 18.192 76.193 18.399 76.252 C 18.85 76.38 19.328 76.38 19.779 76.252 C 20.31 76.021 20.819 75.74 21.298 75.414 L 21.298 75.414 Z  M 52.582 79.723 C 52.335 81.774 53.794 81.153 54.662 81.054 C 55.066 81.054 55.796 80.068 55.697 79.91 C 54.78 77.968 53.646 79.861 52.582 79.723 Z  M -128.673 13.192 L -128.673 20.399 L -128.121 20.399 C -127.342 17.984 -128.516 15.578 -128.673 13.192 Z  M -109.467 12.344 L -108.955 12.393 C -107.969 9.968 -109.221 7.572 -109.467 5.166 L -109.467 12.344 Z  M -124.207 -60.27 C -123.418 -60.182 -122.669 -60.27 -122.235 -59.994 C -121.801 -59.718 -121.693 -59.008 -121.446 -58.417 L -120.855 -58.545 C -120.963 -59.206 -120.855 -60.192 -121.239 -60.458 C -122.286 -61.014 -123.39 -61.454 -124.532 -61.769 L -124.207 -60.27 Z  M -12.54 69.578 C -11.882 69.629 -11.222 69.612 -10.568 69.528 C -10.371 69.528 -10.114 68.542 -10.233 68.483 C -10.969 67.911 -11.739 67.384 -12.54 66.906 L -12.54 69.578 Z  M -117.966 5.492 C -119.129 11.555 -119.12 12.097 -117.966 12.827 L -117.966 5.492 Z  M -98.858 14.7 C -99.046 16.86 -100.081 19.048 -99.351 21.286 L -98.858 21.286 L -98.858 14.7 Z  M -103.128 7.888 C -101.905 5.186 -103.128 2.958 -103.463 0.69 L -103.128 7.888 Z  M -106.756 78.145 L -106.845 78.816 C -106.011 79.677 -104.698 79.86 -103.66 79.26 L -103.581 78.609 L -106.756 78.145 Z  M -13.092 62.923 L -13.575 62.676 L -14.679 64.49 L -13.092 65.259 L -13.092 62.923 Z " fill="rgb(255,255,255)"/><path d=" M -9.71 93.161 C -3.025 93.161 3.797 93.161 10.62 93.161 C 10.654 93.357 10.677 93.555 10.689 93.753 L -41.132 93.753 L -37.622 81.833 C -35.394 74.31 -33.175 66.778 -30.888 59.275 C -30.659 58.624 -30.164 58.101 -29.527 57.835 C -26.737 57.007 -23.878 56.376 -21.068 55.587 C -20.131 55.331 -19.826 55.587 -19.648 56.484 C -19.293 58.249 -18.919 60.024 -18.436 61.759 C -17.964 62.955 -18.291 64.319 -19.254 65.171 C -21.029 66.797 -21.443 68.562 -20.033 70.711 C -17.933 73.497 -18.051 77.368 -20.319 80.019 C -21.095 81.096 -21.238 82.505 -20.693 83.716 C -19.826 86.437 -19.175 89.237 -18.327 91.978 C -18.093 92.489 -17.627 92.856 -17.075 92.964 C -15.211 93.073 -13.348 92.964 -11.475 92.964 C -11.554 90.509 -11.554 90.509 -9.227 89.227 C -7.519 88.11 -6.676 86.056 -7.107 84.061 C -7.294 82.223 -7.317 80.372 -7.176 78.53 C -9.099 77.781 -8.951 79.772 -9.789 81.488 C -10.134 80.709 -10.578 80.206 -10.499 79.812 C -10.035 77.386 -9.611 77.1 -7.038 76.952 C -6.198 76.838 -5.365 76.673 -4.544 76.46 L -2.256 79.102 L 0.386 77.889 L 0.958 78.944 C -0.58 79.447 -1.576 81.32 -3.469 80.098 C -3.745 82.701 -3.469 83.055 -1.211 84.041 C -0.421 84.522 0.189 85.25 0.524 86.112 C 0.979 87.286 1.348 88.492 1.628 89.72 L 4.221 89.513 L 4.369 90.115 C 3.226 90.42 2.082 90.756 0.918 90.982 C 0.721 90.982 0.347 90.608 0.189 90.332 C -0.166 89.72 -0.422 89.089 -0.708 88.458 C -1.793 85.964 -1.793 85.964 -4.81 85.875 C -5.333 86.779 -5.807 87.71 -6.23 88.665 C -6.626 89.911 -7.704 90.817 -9 90.992 C -10.302 91.199 -10.42 91.86 -9.71 93.161 Z " fill="rgb(0,0,0)"/><path d=" M 31.897 -18.841 L 36.324 -13.31 L 36.58 -13.448 C 35.643 -15.558 34.657 -17.648 33.819 -19.798 C 33.648 -20.393 33.723 -21.032 34.026 -21.572 C 34.685 -22.604 35.409 -23.592 36.195 -24.53 C 37.083 -25.674 37.625 -25.654 38.552 -24.451 C 39.202 -23.603 39.804 -22.726 40.524 -21.898 C 41.332 -20.912 42.062 -21.03 42.495 -22.262 C 42.811 -23.248 43.481 -23.672 44.25 -23.327 C 44.834 -22.978 45.204 -22.36 45.236 -21.681 C 44.599 -17.566 46.038 -13.402 49.082 -10.559 C 50.299 -9.213 51.403 -7.768 52.384 -6.241 C 52.743 -5.749 52.901 -5.14 52.828 -4.535 C 52.759 -4.24 51.842 -4.003 51.349 -3.993 C 47.405 -3.924 47.889 -4.437 47.859 -0.454 C 47.859 0.72 47.859 1.903 47.859 3.076 C 47.859 4.249 47.474 4.762 46.262 4.723 C 44.497 4.663 42.732 4.654 40.967 4.723 C 39.804 4.723 39.488 4.24 39.518 3.185 C 39.567 1.479 39.518 -0.237 39.518 -1.952 C 39.518 -3.5 38.532 -3.599 37.378 -3.609 C 36.225 -3.618 35.269 -3.411 35.318 -1.893 C 35.367 -0.375 35.318 1.43 35.318 3.037 C 35.318 4.171 35.012 4.723 33.78 4.683 C 32.015 4.614 30.25 4.624 28.485 4.683 C 27.273 4.742 26.898 4.18 26.898 3.155 C 26.898 1.341 26.898 -0.483 26.898 -2.297 C 26.898 -3.54 26.513 -4.102 25.242 -3.993 C 24.656 -3.913 24.062 -3.913 23.477 -3.993 C 22.886 -4.03 22.324 -4.263 21.88 -4.654 C 21.682 -4.93 22.008 -5.758 22.323 -6.182 C 24.049 -8.548 25.843 -10.875 27.618 -13.212 L 31.897 -18.841 Z " fill="rgb(0,0,0)"/><path d=" M 3.876 -2.199 C 1.264 -1.38 -1.329 -0.424 -3.992 0.217 C -5.289 0.535 -6.646 0.518 -7.935 0.168 C -11.486 -0.738 -15.18 -0.946 -18.81 -0.444 C -20.707 -0.396 -22.595 -0.714 -24.371 -1.38 C -21.245 -0.503 -18.268 -1.38 -15.29 -2.09 C -12.94 -2.666 -10.468 -2.479 -8.231 -1.558 C -5.977 -0.718 -3.499 -0.697 -1.231 -1.499 C 0.425 -1.972 2.141 -2.258 3.837 -2.632 L 3.876 -2.199 Z " fill="rgb(0,0,0)"/><path d=" M 0.425 0.651 C -3.075 2.021 -6.476 3.48 -10.42 2.376 C -12.254 1.863 -14.304 2.11 -16.257 2.07 C -18.209 2.031 -19.964 2.07 -21.758 1.903 C -19.274 1.548 -16.828 1.154 -14.295 0.858 C -13.299 0.624 -12.263 0.624 -11.268 0.858 C -7.324 2.465 -3.459 1.558 0.425 0.651 Z " fill="rgb(0,0,0)"/><path d=" M -0.146 41.409 C 0.988 42.074 2.069 42.826 3.088 43.657 C 3.486 44.185 3.593 44.877 3.373 45.501 C 2.994 46.042 2.368 46.357 1.707 46.339 C 0.517 46.002 -0.602 45.45 -1.596 44.712 C -2.085 44.182 -2.274 43.44 -2.099 42.74 C -1.911 42.247 -1.034 41.981 -0.146 41.409 Z  M 3.058 45.353 C 1.5 43.381 -0.215 42.691 -1.537 43.381 C -0.166 44.259 0.938 45.353 3.058 45.353 Z " fill="rgb(0,0,0)"/><path d=" M -1.389 41.064 C -2.108 40.611 -3.242 40.285 -3.43 39.674 C -3.48 38.827 -3.112 38.009 -2.444 37.485 C -1.519 36.9 -0.451 36.583 0.642 36.568 C 1.393 36.689 2.035 37.172 2.358 37.86 C 2.393 38.577 2.081 39.267 1.52 39.714 C 0.603 40.269 -0.373 40.722 -1.389 41.064 Z  M -2.493 39.832 L 1.668 38.452 C 0.061 37.525 -2.089 38.225 -2.493 39.832 Z " fill="rgb(0,0,0)"/><path d=" M 14.081 51.811 C 14.081 51.407 14.031 51.101 14.031 50.825 C 14.031 49.987 14.031 49.149 14.031 47.926 C 15.471 49.336 17.265 49.898 17.975 51.87 L 14.081 51.811 Z " fill="rgb(0,0,0)"/><path d=" M 30.763 22.174 C 30.792 23.219 30.382 24.228 29.633 24.957 C 28.883 25.686 27.863 26.067 26.819 26.009 C 25.794 25.996 24.817 25.571 24.11 24.828 C 23.403 24.086 23.025 23.09 23.063 22.065 C 23.122 19.946 24.8 18.229 26.918 18.122 C 27.965 18.147 28.96 18.589 29.681 19.349 C 30.403 20.11 30.792 21.126 30.763 22.174 Z " fill="rgb(255,255,255)"/><path d=" M 3.058 45.353 C 0.938 45.353 -0.166 44.259 -1.537 43.381 C -0.215 42.701 1.5 43.44 3.058 45.353 Z " fill="rgb(255,255,255)"/><path d=" M -2.493 39.832 C -2.099 38.225 0.061 37.525 1.668 38.442 L -2.493 39.832 Z " fill="rgb(255,255,255)"/></g></g><clipPath id="_clipPath_weqn2U0UUAVdTq53z175wUW46bhbTiCl"><path d="M 22.125 9.288 L 47.476 9.288 C 52.111 9.288 55.875 13.051 55.875 17.686 L 55.875 43.038 C 55.875 47.673 52.111 51.436 47.476 51.436 L 22.125 51.436 C 17.489 51.436 13.726 47.673 13.726 43.038 L 13.726 17.686 C 13.726 13.051 17.489 9.288 22.125 9.288 Z" style="stroke:black;fill:white;stroke-miterlimit:10;"/></clipPath><g clip-path="url(#_clipPath_weqn2U0UUAVdTq53z175wUW46bhbTiCl)"><g id="Group"><path d=" M 63.486 -46.339 L 63.486 95.528 L -133.278 95.528 L -133.278 -94.502 L 63.486 -94.502 L 63.486 -46.674 C 60.656 -46.674 60.617 -46.674 59.897 -49.435 C 59.454 -51.16 58.635 -52.393 56.752 -52.797 C 56.175 -53.056 55.735 -53.546 55.539 -54.148 C 55.37 -54.891 55.293 -55.653 55.313 -56.415 C 56.663 -55.903 59 -56.415 59.671 -57.401 C 59.828 -57.638 59.602 -58.151 59.532 -58.644 C 58.948 -58.413 58.378 -58.147 57.827 -57.845 C 56.772 -57.165 56.17 -57.845 55.579 -58.545 L 54.297 -60.162 C 53.408 -59.873 52.498 -59.649 51.576 -59.492 C 49.003 -59.275 49.091 -59.284 48.322 -56.82 C 47.977 -55.715 48.441 -55.558 49.19 -55.36 C 49.979 -56.494 49.614 -58.9 51.704 -57.993 C 51.538 -56.586 51.499 -55.167 51.586 -53.753 C 51.891 -51.722 52.473 -49.75 50.551 -47.838 C 48.648 -49.898 46.607 -51.929 44.773 -54.138 C 41.555 -58.054 38.949 -62.435 37.043 -67.133 C 36.678 -68.01 36.166 -68.385 35.269 -67.902 C 35.554 -65.18 35.732 -62.508 37.842 -60.507 C 38.07 -60.278 38.224 -59.986 38.286 -59.669 C 38.956 -55.991 40.888 -53.398 44.527 -52.156 C 44.911 -52.028 45.098 -51.308 45.374 -50.865 C 44.84 -50.574 44.26 -50.377 43.659 -50.283 C 43.127 -50.335 42.635 -50.585 42.279 -50.983 C 40.612 -52.748 38.69 -54.315 38.335 -57.007 C 38.241 -58.022 37.799 -58.973 37.083 -59.699 C 35.15 -61.265 34.098 -63.674 34.263 -66.156 C 34.3 -66.423 34.255 -66.695 34.135 -66.935 C 33.816 -67.324 33.47 -67.69 33.099 -68.03 C 33.099 -65.88 33.642 -63.82 32.981 -62.292 C 31.851 -59.909 31.973 -57.122 33.307 -54.848 C 34.139 -53.378 33.644 -51.512 32.192 -50.648 C 31.788 -50.411 30.684 -50.549 30.595 -50.776 C 30.23 -51.762 29.609 -53.162 30.013 -53.852 C 30.861 -55.301 30.644 -56.701 30.763 -58.17 C 30.881 -59.639 31.364 -61.187 31.463 -62.706 C 31.52 -64.284 31.477 -65.865 31.335 -67.438 C 31.335 -67.626 30.93 -67.882 30.684 -67.941 C 30.446 -67.914 30.241 -67.764 30.142 -67.547 C 29.915 -66.413 29.412 -65.19 29.639 -64.135 C 29.935 -63.087 29.495 -61.97 28.564 -61.404 C 26.956 -60.204 25.892 -58.412 25.606 -56.425 C 25.192 -54.268 24.138 -52.285 22.58 -50.736 C 21.298 -49.287 19.681 -49.326 18.409 -50.894 C 19.671 -51.762 20.874 -52.708 22.185 -53.477 C 23.757 -54.411 24.868 -55.959 25.251 -57.746 C 25.385 -58.75 25.757 -59.706 26.336 -60.537 C 28.377 -62.607 28.544 -65.22 28.909 -67.823 C 27.559 -68.276 26.868 -67.734 26.218 -66.472 C 24.595 -63.054 22.727 -59.759 20.627 -56.613 C 18.232 -53.241 15.254 -50.283 12.641 -47.256 L 49.515 -47.256 C 48.766 -46.083 46.765 -46.428 47.169 -44.584 C 47.415 -43.47 47.839 -42.553 49.259 -42.366 L 48.539 -44.998 C 50.74 -44.985 52.658 -46.494 53.163 -48.636 C 53.706 -50.283 54.603 -50.746 56.387 -50.283 C 57.876 -49.888 57.906 -48.715 58.3 -47.798 C 59.611 -44.752 59.454 -44.397 63.23 -46.162 C 63.32 -46.213 63.406 -46.273 63.486 -46.339 Z  M -9.71 93.161 C -10.43 91.86 -10.302 91.189 -9 90.992 C -7.704 90.817 -6.626 89.911 -6.23 88.665 C -5.807 87.71 -5.333 86.779 -4.81 85.875 C -1.803 85.964 -1.803 85.964 -0.698 88.458 C -0.422 89.089 -0.166 89.74 0.179 90.332 C 0.337 90.608 0.711 91.022 0.909 90.982 C 2.072 90.756 3.216 90.411 4.359 90.115 L 4.221 89.513 L 1.628 89.72 C 1.348 88.492 0.979 87.286 0.524 86.112 C 0.187 85.253 -0.423 84.53 -1.211 84.051 C -3.43 83.065 -3.755 82.701 -3.469 80.107 C -1.566 81.33 -0.57 79.457 0.958 78.954 L 0.386 77.889 L -2.266 79.053 L -4.553 76.42 C -5.374 76.634 -6.207 76.798 -7.048 76.913 C -9.611 77.071 -10.006 77.357 -10.509 79.772 C -10.587 80.176 -10.144 80.669 -9.799 81.448 C -8.961 79.782 -9.109 77.791 -7.186 78.491 C -7.327 80.333 -7.304 82.184 -7.117 84.022 C -6.666 86.027 -7.507 88.102 -9.227 89.227 C -11.554 90.509 -11.554 90.509 -11.475 92.964 C -13.348 92.964 -15.211 93.033 -17.075 92.964 C -17.627 92.856 -18.093 92.489 -18.327 91.978 C -19.175 89.247 -19.816 86.447 -20.693 83.716 C -21.238 82.505 -21.095 81.096 -20.319 80.019 C -18.051 77.368 -17.933 73.497 -20.033 70.711 C -21.443 68.562 -21.019 66.768 -19.254 65.171 C -18.276 64.306 -17.955 62.916 -18.455 61.71 C -18.938 59.975 -19.313 58.21 -19.668 56.435 C -19.845 55.577 -20.151 55.272 -21.088 55.538 C -23.898 56.317 -26.747 56.958 -29.547 57.786 C -30.184 58.051 -30.679 58.574 -30.908 59.225 C -33.195 66.728 -35.413 74.261 -37.642 81.784 L -41.132 93.773 L 10.729 93.773 C 10.716 93.574 10.693 93.377 10.66 93.181 C 3.797 93.161 -3.025 93.161 -9.71 93.161 Z  M -107.061 -53.872 L -86.485 -53.872 C -87.353 -55.508 -88.24 -56.958 -88.92 -58.506 C -90.133 -61.276 -91.217 -64.106 -92.371 -66.906 C -94.057 -70.988 -97.301 -73.196 -101.392 -74.34 C -103.453 -74.912 -103.699 -74.793 -104.429 -72.486 L -112.879 -72.486 C -114.012 -74.99 -115.698 -75.789 -118.548 -74.655 C -120.137 -74.041 -121.625 -73.194 -122.965 -72.141 C -127.608 -68.375 -129.718 -63.09 -131.306 -57.549 C -131.621 -56.465 -131.809 -55.341 -132.075 -54.128 L -129.442 -54.128 C -129.511 -56.159 -127.885 -56.76 -126.248 -57.48 L -129.768 -59.62 L -128.979 -61.592 L -127.993 -61.256 C -128.232 -62.223 -128.312 -63.222 -128.23 -64.214 C -128.111 -64.697 -127.007 -65.2 -126.317 -65.2 C -124.996 -65.289 -124.7 -64.155 -124.296 -63.12 C -124.018 -62.609 -123.532 -62.242 -122.965 -62.114 C -121.427 -61.947 -120.411 -61.365 -120.224 -59.728 C -120.174 -59.265 -120.036 -58.821 -119.898 -58.21 L -122.373 -57.411 L -122.689 -54.256 C -119.463 -55.693 -117.328 -58.832 -117.177 -62.361 C -117.069 -63.682 -116.812 -64.678 -115.373 -65.18 C -113.978 -65.699 -113.056 -67.034 -113.066 -68.523 C -113.032 -69.214 -112.916 -69.899 -112.721 -70.564 C -112.356 -71.648 -111.646 -72.269 -110.532 -71.993 C -110.951 -71.246 -111.25 -70.437 -111.419 -69.597 C -111.353 -67.471 -112.5 -65.491 -114.377 -64.49 C -115.033 -64.025 -115.47 -63.313 -115.59 -62.518 C -116.083 -58.446 -117.345 -54.907 -121.427 -52.876 L -119.938 -53.014 C -120.076 -51.604 -119.346 -51.397 -116.743 -52.087 C -115.836 -50.766 -114.85 -50.569 -112.908 -51.308 C -112.415 -50.204 -110.877 -49.563 -109.112 -49.938 C -107.111 -50.342 -107.614 -52.255 -107.061 -53.872 Z  M 31.897 -18.841 L 27.647 -13.241 C 25.912 -10.895 24.078 -8.578 22.353 -6.202 C 22.047 -5.778 21.712 -4.949 21.909 -4.673 C 22.354 -4.282 22.915 -4.05 23.506 -4.013 C 24.092 -3.933 24.686 -3.933 25.271 -4.013 C 26.543 -4.131 26.977 -3.559 26.928 -2.317 C 26.898 -0.483 26.898 1.331 26.898 3.155 C 26.898 4.141 27.263 4.742 28.406 4.703 C 30.171 4.644 31.936 4.634 33.701 4.703 C 34.933 4.703 35.278 4.19 35.239 3.056 C 35.18 1.4 35.239 -0.256 35.239 -1.873 C 35.239 -3.49 36.067 -3.609 37.3 -3.589 C 38.532 -3.569 39.469 -3.48 39.439 -1.932 C 39.439 -0.217 39.439 1.489 39.439 3.204 C 39.439 4.269 39.715 4.792 40.888 4.742 C 42.653 4.673 44.418 4.683 46.183 4.742 C 47.396 4.742 47.8 4.2 47.78 3.096 C 47.76 1.992 47.78 0.739 47.78 -0.434 C 47.78 -4.378 47.307 -3.904 51.27 -3.973 C 51.793 -3.973 52.68 -4.23 52.749 -4.516 C 52.822 -5.12 52.664 -5.729 52.306 -6.221 C 51.324 -7.749 50.22 -9.193 49.003 -10.54 C 45.939 -13.382 44.487 -17.561 45.128 -21.691 C 45.096 -22.37 44.726 -22.988 44.142 -23.337 C 43.353 -23.682 42.703 -23.248 42.387 -22.272 C 41.993 -21.04 41.263 -20.941 40.415 -21.908 C 39.735 -22.726 39.133 -23.613 38.443 -24.461 C 37.516 -25.654 36.974 -25.684 36.087 -24.54 C 35.301 -23.602 34.576 -22.614 33.918 -21.582 C 33.614 -21.042 33.54 -20.403 33.711 -19.807 C 34.549 -17.658 35.545 -15.568 36.471 -13.458 L 36.215 -13.32 M -89.117 -13.783 C -87.698 -19.462 -90.803 -23.643 -95.95 -23.179 C -96.701 -23.121 -97.452 -23.286 -98.109 -23.653 C -101.826 -25.871 -107.367 -24.363 -107.969 -20.093 C -112.681 -21.661 -117.098 -17.481 -116.842 -14 C -117.604 -12.465 -119.467 -11.838 -121.003 -12.6 C -122.538 -13.363 -123.165 -15.225 -122.403 -16.761 C -123.08 -16.161 -123.566 -15.376 -123.803 -14.503 C -124.789 -11.457 -123.083 -8.341 -120.372 -8.41 C -119.391 -8.408 -118.435 -8.098 -117.641 -7.523 C -114.072 -5.373 -110.433 -4.802 -106.667 -7.128 C -106.179 -7.318 -105.634 -7.29 -105.168 -7.049 C -101.047 -4.93 -97.735 -5.827 -95.358 -9.859 C -95.146 -10.12 -94.843 -10.293 -94.511 -10.342 C -92.582 -10.526 -91.06 -12.06 -90.892 -13.99 C -90.577 -16.761 -91.296 -18.338 -93.446 -19.305 M -49.019 -12.945 L -60.565 -30.377 L -67.239 -19.906 L -72.228 -24.077 L -84.385 -4.24 L -44.563 -4.24 L -45.697 -6.162 C -43.725 -6.389 -42.187 -7.148 -41.832 -9.199 C -41.536 -10.904 -43.143 -13.537 -44.869 -14.483 C -46.594 -15.43 -47.678 -14.572 -49.019 -12.945 Z  M 26.77 -71.855 L 26.563 -71.293 C 27.401 -70.682 28.18 -69.686 29.087 -69.548 C 31.002 -69.385 32.926 -69.359 34.845 -69.469 C 34.046 -74.626 34.095 -74.912 35.949 -76.144 C 38.019 -72.94 40.514 -72.683 42.85 -75.158 C 44.083 -75.286 45.512 -75.326 46.38 -76.036 C 47.455 -76.913 47.1 -78.402 46.489 -79.585 C 46.104 -80.334 45.503 -80.946 45.049 -81.665 C 44.767 -82.008 44.623 -82.444 44.645 -82.888 C 45.759 -86.644 43.541 -89.977 39.607 -89.977 C 37.685 -89.819 35.781 -89.489 33.918 -88.991 C 32.163 -90.963 30.152 -90.904 28.17 -88.508 C 26.415 -90.026 24.453 -90.716 22.343 -89.385 C 21.453 -88.931 20.802 -88.115 20.556 -87.147 C 20.311 -86.178 20.495 -85.151 21.061 -84.327 C 20.41 -84.327 19.927 -84.327 19.454 -84.327 C 18.972 -84.334 18.49 -84.298 18.015 -84.219 C 16.467 -83.884 16.043 -82.691 17.117 -81.517 C 17.663 -80.974 18.242 -80.467 18.853 -79.999 C 16.437 -77.199 16.881 -75.7 20.47 -74.892 C 21.511 -74.685 22.573 -74.602 23.634 -74.645 C 25.311 -74.645 26.977 -74.813 28.722 -74.912 C 28.574 -73.423 28.949 -71.875 26.77 -71.855 Z  M -67.644 -50.283 L -60.367 -49.524 L -60.269 -49.948 C -63.384 -51.807 -65.726 -54.726 -66.865 -58.17 L -63.404 -58.17 C -65.216 -60.125 -66.918 -62.179 -68.501 -64.323 C -69.818 -66.552 -71.003 -68.857 -72.051 -71.224 C -73.925 -66.129 -77.12 -61.624 -81.309 -58.17 L -76.872 -58.17 C -78.163 -54.718 -80.452 -51.729 -83.448 -49.583 L -76.093 -50.273 C -79.139 -46.808 -82.477 -43.611 -86.071 -40.719 C -81.851 -41.15 -77.658 -41.808 -73.51 -42.691 C -72.414 -42.996 -71.254 -42.979 -70.168 -42.642 C -67.905 -42.013 -65.598 -41.558 -63.266 -41.281 C -61.383 -41.005 -59.47 -40.936 -57.262 -40.759 C -61.206 -43.766 -64.794 -46.556 -67.644 -50.283 Z  M -20.141 -75.405 C -20.062 -76.933 -19.55 -78.362 -20.062 -79.25 C -20.575 -80.137 -22.152 -80.443 -23.237 -80.995 C -22.981 -81.36 -22.576 -81.853 -22.251 -82.395 C -21.758 -83.243 -22.123 -83.824 -22.961 -84.13 C -24.743 -84.728 -26.703 -84.042 -27.723 -82.464 C -27.989 -82.06 -28.285 -81.675 -28.63 -81.182 L -29.715 -84.455 C -30.945 -83.444 -32.086 -82.329 -33.126 -81.123 C -33.897 -79.869 -34.557 -78.549 -35.098 -77.179 L -37.07 -78.984 C -38.539 -76.726 -38.509 -74.517 -38.332 -72.269 C -38.046 -68.69 -37.701 -68.217 -34.526 -67.231 C -34.881 -62.785 -30.582 -60.142 -26.639 -63.189 C -26.491 -62.913 -26.333 -62.637 -26.195 -62.351 C -24.795 -59.57 -22.143 -58.703 -19.707 -60.241 C -17.45 -61.67 -17.045 -64.579 -18.79 -66.935 C -18.978 -67.192 -19.392 -67.537 -19.333 -67.685 C -18.613 -69.292 -19.895 -70.1 -20.743 -71.066 C -18.061 -72.358 -18.623 -74.133 -20.141 -75.444 M -5.579 -47.394 C -5.579 -48.597 -5.579 -49.612 -5.579 -50.618 C -5.579 -54 -5.579 -54 -2.207 -54.276 L -2.049 -54.276 C -0.955 -54.335 -0.738 -54.936 -1.27 -55.765 C -1.877 -56.651 -2.535 -57.5 -3.242 -58.308 C -5.904 -61.542 -8.941 -64.599 -7.886 -69.43 C -7.787 -69.864 -8.517 -70.465 -8.872 -70.997 C -9.375 -70.652 -10.085 -70.416 -10.331 -69.942 C -10.883 -68.878 -11.416 -68.868 -12.116 -69.686 C -12.816 -70.504 -13.447 -71.362 -14.176 -72.131 C -14.451 -72.432 -14.844 -72.597 -15.251 -72.585 C -16.897 -72.161 -17.982 -68.799 -17.302 -67.231 C -16.682 -65.912 -16.372 -64.469 -16.395 -63.011 C -16.554 -61.096 -17.795 -59.441 -19.589 -58.752 C -21.611 -57.804 -23.994 -58.074 -25.751 -59.452 C -26.333 -58.732 -26.905 -58.091 -27.388 -57.401 C -27.871 -56.711 -28.374 -55.735 -28.916 -54.897 C -27.947 -54.621 -26.958 -54.423 -25.958 -54.305 C -24.686 -54.246 -24.105 -53.813 -24.164 -52.472 C -24.243 -50.786 -24.164 -49.1 -24.164 -47.394 L -16.789 -47.394 C -16.789 -49.011 -16.7 -50.549 -16.789 -52.077 C -16.878 -53.605 -16.257 -53.813 -15.014 -53.822 C -13.772 -53.832 -12.954 -53.635 -13.042 -52.097 C -13.131 -50.559 -13.042 -48.952 -13.042 -47.384 M -124.453 23.958 C -124.693 23.421 -124.991 22.912 -125.341 22.44 C -125.637 22.144 -126.13 21.789 -126.475 21.848 C -126.82 21.908 -127.224 22.371 -127.392 22.746 C -127.529 23.152 -127.55 23.59 -127.451 24.008 C -126.928 26.965 -128.042 29.371 -130.083 31.481 C -130.915 32.399 -131.664 33.389 -132.321 34.439 C -132.797 35.224 -133.231 36.034 -133.623 36.864 C -132.749 37.117 -131.855 37.292 -130.951 37.387 C -129.856 37.387 -129.413 37.771 -129.482 38.905 C -129.561 40.236 -129.482 41.577 -129.482 42.908 C -129.482 43.835 -129.176 44.298 -128.19 44.269 C -126.8 44.269 -125.41 44.269 -124.029 44.269 C -123.044 44.269 -122.708 43.884 -122.748 42.938 C -122.819 41.657 -122.819 40.373 -122.748 39.092 C -122.717 38.601 -122.467 38.148 -122.067 37.86 C -120.332 37.17 -119.317 37.86 -119.307 39.753 C -119.307 40.128 -119.307 40.502 -119.307 40.877 C -119.307 44.249 -119.307 44.249 -115.955 44.259 C -112.602 44.269 -112.612 44.259 -112.593 40.976 C -112.593 39.99 -112.908 38.639 -112.395 38.018 C -111.883 37.397 -110.522 37.545 -109.536 37.387 C -108.304 37.19 -108.067 36.687 -108.797 35.671 C -109.418 34.813 -110.108 33.995 -110.769 33.147 Q -115.255 27.32 -119.731 21.493 C -120.894 19.985 -121.19 20.005 -122.432 21.493 C -115.541 22.223 -116.152 22.943 -116.99 23.948 M -125.558 91.347 C -125.558 91.939 -125.558 92.53 -125.558 93.112 C -125.676 94.394 -125.213 95.005 -123.832 94.906 C -122.604 94.836 -121.373 94.836 -120.145 94.906 C -119.159 94.906 -118.774 94.571 -118.804 93.605 C -118.804 92.323 -118.804 91.042 -118.804 89.76 C -118.804 88.478 -118.163 88.241 -117.088 88.222 C -116.014 88.202 -115.304 88.478 -115.304 89.701 C -115.304 90.923 -115.304 92.264 -115.304 93.546 C -115.304 94.453 -115.038 94.946 -114.022 94.906 C -112.691 94.847 -111.35 94.906 -110.019 94.906 C -109.033 94.906 -108.55 94.492 -108.56 93.487 C -108.56 92.047 -108.56 90.598 -108.56 89.158 C -108.56 88.281 -108.225 87.857 -107.338 87.877 C -106.859 87.918 -106.377 87.918 -105.898 87.877 C -105.403 87.772 -104.915 87.633 -104.439 87.463 C -104.546 86.977 -104.722 86.508 -104.961 86.072 C -108.195 81.833 -111.459 77.623 -114.712 73.403 C -117.01 70.445 -117.01 70.445 -119.277 73.324 C -120.135 74.428 -120.5 74.359 -121.318 73.166 C -121.605 72.771 -122.063 72.537 -122.551 72.535 C -122.975 72.761 -123.268 73.174 -123.339 73.65 C -123.44 74.607 -123.44 75.572 -123.339 76.529 C -123.196 77.861 -123.626 79.191 -124.522 80.186 C -126.13 82.099 -127.608 84.13 -129.097 86.102 C -129.318 86.496 -129.487 86.917 -129.6 87.354 C -129.2 87.568 -128.772 87.724 -128.328 87.818 C -125.469 88.005 -125.469 87.995 -125.469 90.834 C -125.558 91.022 -125.558 91.18 -125.558 91.347 Z  M -71.006 16.238 C -71.923 17.343 -72.652 18.21 -73.392 19.117 C -74.131 20.024 -74.673 20.251 -75.235 18.92 C -75.536 18.495 -76.026 18.245 -76.547 18.25 C -76.852 18.25 -77.188 18.92 -77.335 19.354 C -77.437 19.772 -77.437 20.208 -77.335 20.626 C -76.941 23.079 -77.782 25.569 -79.583 27.281 C -80.527 28.316 -81.4 29.412 -82.196 30.564 C -82.662 31.301 -83.083 32.065 -83.458 32.851 C -82.622 33.079 -81.768 33.231 -80.905 33.305 C -79.712 33.305 -79.278 33.778 -79.337 34.942 C -79.396 36.105 -79.337 37.505 -79.337 38.787 C -79.386 39.921 -78.864 40.325 -77.799 40.305 C -76.566 40.305 -75.344 40.305 -74.111 40.305 C -72.879 40.305 -72.564 39.812 -72.603 38.738 C -72.642 37.663 -72.544 36.273 -72.603 35.05 C -72.662 33.828 -71.893 33.709 -70.976 33.699 C -70.059 33.69 -69.28 33.867 -69.34 35.09 C -69.399 36.312 -69.34 37.653 -69.34 38.935 C -69.34 39.921 -68.935 40.305 -68.008 40.305 C -66.674 40.375 -65.337 40.352 -64.006 40.236 C -63.374 40.03 -62.882 39.53 -62.684 38.895 C -62.557 37.888 -62.537 36.87 -62.625 35.859 C -62.625 33.384 -62.625 33.413 -60.111 33.305 C -59.567 33.215 -59.037 33.056 -58.534 32.832 C -58.723 32.309 -58.964 31.807 -59.253 31.333 Q -62.813 26.61 -66.441 21.937 C -67.949 20.074 -69.399 18.269 -71.006 16.238 Z  M -1.872 28.139 C -1.853 24.904 -3.128 21.795 -5.413 19.505 C -7.698 17.215 -10.803 15.932 -14.038 15.943 C -20.76 16.008 -26.164 21.495 -26.126 28.218 C -26.03 34.859 -20.67 40.22 -14.028 40.315 C -10.801 40.315 -7.706 39.032 -5.425 36.747 C -3.145 34.463 -1.867 31.366 -1.872 28.139 Z  M -78.824 -62.173 C -79.889 -65.379 -79.134 -68.91 -76.852 -71.402 C -74.766 -73.581 -72.568 -75.651 -70.266 -77.603 C -67.013 -73.216 -62.576 -69.075 -63.877 -62.37 C -58.218 -64.885 -56.325 -71.638 -58.297 -75 C -59.48 -72.585 -59.874 -72.19 -61.649 -71.638 C -59.322 -75.099 -59.322 -77.554 -61.531 -80.512 C -62.872 -82.326 -64.094 -84.229 -65.356 -86.063 C -66.608 -84.781 -66.579 -82.76 -66.52 -80.344 C -69.685 -84.396 -69.409 -88.458 -68.709 -92.777 C -70.84 -90.971 -72.818 -88.993 -74.624 -86.861 C -76.376 -84.612 -77.135 -81.746 -76.724 -78.924 L -77.148 -78.826 L -79.179 -82.454 C -84.416 -76.654 -84.261 -67.787 -78.824 -62.173 Z  M -56.365 68.473 L -56.779 68.059 C -54.432 65.309 -54.432 62.686 -56.67 60.024 C -58.08 58.358 -59.401 56.613 -60.772 54.877 C -62.113 55.991 -62.044 57.835 -62.053 59.955 C -63.614 58.587 -64.529 56.627 -64.577 54.552 C -64.577 52.58 -64.39 50.697 -64.272 48.735 C -68.856 51.772 -73.244 54.976 -73.145 61.611 L -75.413 58.17 C -80.924 63.987 -80.737 72.772 -74.89 77.061 C -76.3 73.492 -75.038 70.593 -72.623 68.187 C -70.651 66.216 -68.472 64.411 -66.135 62.272 C -64.163 64.737 -62.241 66.995 -60.594 69.469 C -59.145 71.648 -58.11 74.074 -59.539 76.864 C -54.61 75.02 -51.228 70.396 -53.131 65.171 M -62.26 84.633 C -62.26 85.619 -62.26 86.477 -62.26 87.384 C -62.26 91.327 -62.26 90.608 -59.135 90.608 C -55.388 90.608 -55.941 91.15 -55.901 87.413 C -55.901 84.396 -55.901 84.386 -52.894 84.012 C -51.8 83.874 -51.425 83.45 -52.194 82.454 Q -57.607 75.434 -63.039 68.395 C -63.562 67.714 -64.094 67.754 -64.597 68.395 C -65.1 69.035 -65.662 69.854 -66.234 70.564 C -66.806 71.273 -67.486 71.224 -67.713 70.435 C -68.068 69.183 -68.778 69.39 -69.813 69.617 C -69.813 70.731 -69.892 71.796 -69.813 72.841 C -69.635 74.334 -70.122 75.83 -71.144 76.933 C -72.642 78.658 -73.993 80.512 -75.383 82.336 C -76.172 83.381 -75.955 83.884 -74.733 84.022 C -71.775 84.357 -71.775 84.357 -71.775 87.423 Q -71.775 87.827 -71.775 88.222 C -71.775 90.618 -71.775 90.618 -69.32 90.618 C -65.484 90.618 -65.484 90.618 -65.494 86.851 C -68.639 87.492 -68.363 87.285 -65.494 87.936 M 36.116 88.429 C 38.276 88.685 40.159 88.981 42.032 89.089 C 42.555 88.975 42.985 88.604 43.176 88.103 C 43.496 86.475 43.72 84.829 43.846 83.174 C 43.945 81.991 44.507 81.577 45.621 81.695 C 46.204 81.761 46.789 81.797 47.376 81.803 C 47.859 81.803 48.362 81.724 48.835 81.685 C 48.744 81.2 48.599 80.727 48.401 80.275 C 45.355 75.03 42.279 69.795 39.222 64.549 C 37.3 61.256 37.309 61.246 34.539 63.948 C 33.208 65.24 32.567 65.092 31.837 63.396 C 31.637 63.008 31.277 62.727 30.852 62.627 C 30.625 62.627 30.211 63.169 30.092 63.544 C 29.905 64.145 29.954 64.816 29.777 65.427 C 29.294 67.004 29.984 68.888 28.406 70.189 C 27.963 70.554 27.42 71.49 27.588 71.766 C 28.318 73.009 28.14 75.059 30.132 75.237 C 31.699 75.375 32.537 76.006 32.725 77.583 C 32.799 78.217 33.011 78.826 33.346 79.368 C 33.648 79.914 34.123 80.344 34.697 80.591 C 36.925 81.182 37.162 81.468 36.797 83.755 C 36.56 85.225 36.373 86.694 36.126 88.429 M -2.877 -4.663 L -2.739 -5.176 C -2.71 -5.276 -2.69 -5.378 -2.68 -5.482 C -2.611 -6.468 -2.907 -7.809 -2.375 -8.44 C -1.842 -9.071 -0.491 -8.706 0.485 -8.873 C 1.461 -9.041 1.944 -9.613 1.264 -10.5 C -2.522 -15.43 -6.358 -20.36 -10.163 -25.289 C -10.755 -26.058 -11.287 -25.94 -11.83 -25.22 C -12.372 -24.501 -12.944 -23.791 -13.516 -23.091 C -14.088 -22.391 -14.748 -22.282 -15.004 -23.091 C -15.261 -23.899 -15.842 -24.491 -16.572 -24.077 C -17.093 -23.638 -17.377 -22.981 -17.341 -22.302 C -17.095 -19.522 -17.548 -17.057 -19.619 -14.996 C -20.573 -14.021 -21.438 -12.962 -22.202 -11.831 C -22.676 -11.048 -23.098 -10.235 -23.464 -9.396 C -22.578 -9.14 -21.67 -8.965 -20.752 -8.873 C -19.599 -8.873 -19.244 -8.39 -19.313 -7.316 C -19.372 -6.438 -19.313 -5.561 -19.313 -4.673 L -12.727 -6.064 C -12.273 -6.971 -13.289 -8.321 -11.376 -8.548 C -8.754 -8.873 -9.473 -6.98 -9.286 -5.433 M -48.447 16.643 C -49.01 16.349 -49.601 16.114 -50.212 15.943 C -52.707 15.627 -54.284 17.096 -54.294 19.837 C -54.332 23.975 -53.665 28.089 -52.322 32.004 C -55.065 29.711 -57.003 26.602 -57.853 23.13 C -58.514 20.567 -58.958 17.944 -59.48 15.351 C -59.945 12.212 -61.473 9.327 -63.808 7.178 C -65.169 6.014 -66.766 5.206 -68.649 6.014 C -69.921 6.547 -70.069 7.385 -69.083 8.321 C -68.551 8.834 -67.92 9.258 -67.358 9.731 C -63.986 12.6 -62.251 16.485 -60.722 20.488 C -58.751 25.644 -56.976 30.86 -53.91 35.553 C -49.305 42.593 -41.911 39.694 -37.898 35.237 C -38.985 35.461 -40.085 35.619 -41.191 35.711 C -44.494 35.799 -46.742 34.961 -47.59 32.358 C -47.907 31.394 -47.799 30.34 -47.294 29.46 C -46.87 28.927 -45.529 29.056 -44.592 29.026 C -44.03 29.026 -43.459 29.371 -42.897 29.351 C -42.444 29.318 -42.025 29.096 -41.743 28.74 C -41.595 28.513 -41.743 27.922 -42.009 27.616 C -42.92 26.38 -44.431 25.738 -45.953 25.94 C -47.52 25.923 -48.866 27.048 -49.128 28.592 C -49.238 30.276 -49.238 31.966 -49.128 33.65 C -50.922 32.082 -51.257 29.894 -51.583 27.803 C -52.263 23.82 -52.066 19.936 -48.447 16.643 Z  M -124.503 -38.452 C -125.667 -38.762 -126.909 -38.564 -127.919 -37.906 C -128.929 -37.248 -129.611 -36.192 -129.797 -35.001 C -129.924 -34.211 -130.265 -33.471 -130.783 -32.861 C -132.114 -31.244 -131.917 -28.799 -130.192 -28.07 C -128.676 -27.357 -127.085 -26.818 -125.449 -26.463 C -124.165 -26.308 -122.863 -26.436 -121.634 -26.837 C -121.004 -27.105 -120.292 -27.105 -119.662 -26.837 C -118.744 -26.331 -117.663 -26.211 -116.657 -26.503 C -115.65 -26.795 -114.802 -27.476 -114.298 -28.395 C -114.042 -28.704 -113.699 -28.928 -113.312 -29.036 C -111.538 -29.687 -110.611 -32.201 -111.873 -33.62 C -112.563 -34.467 -112.896 -35.549 -112.8 -36.637 C -112.781 -37.638 -113.182 -38.6 -113.905 -39.291 C -114.628 -39.982 -115.607 -40.339 -116.605 -40.276 C -117.332 -40.29 -118.051 -40.437 -118.725 -40.709 C -121.308 -41.814 -123.359 -41.035 -124.503 -38.452 Z  M -45.628 -43.943 L 2.683 -43.943 L 2.683 -46.743 L -39.288 -46.743 L -39.288 -51.003 L -41.26 -51.673 L -43.104 -50.588 L -43.104 -46.743 L -45.588 -46.576 M 20.923 27.37 L 24.522 27.606 L 25.508 30.751 L 27.322 27.981 L 30.28 32.408 L 30.516 32.319 L 30.043 27.064 L 33.405 27.902 L 31.847 24.865 L 37.428 25.191 L 37.487 24.954 L 32.636 22.262 L 35.594 20.054 L 31.976 19.561 L 35.436 14.789 L 30.191 17.412 L 29.944 14.296 L 29.471 14.079 L 27.618 16.633 L 25.764 11.338 L 25.488 11.338 L 24.778 16.682 L 21.456 14.789 L 22.441 18.171 L 17.512 16.83 L 17.384 17.145 L 21.11 20.606 L 18.024 21.868 L 20.982 23.446 L 16.447 27.251 L 22.225 25.94 M 25.537 -33.956 L 16.467 -41.409 C 15.392 -39.901 14.377 -38.599 13.509 -37.19 C 13.283 -36.678 13.323 -36.088 13.617 -35.612 C 17.098 -31.797 20.647 -28.05 24.275 -24.195 L 26.129 -27.31 L 33.385 -18.151 L 33.632 -18.329 L 26.809 -33.808 M 46.331 20.419 L 45.818 20.547 C 46.094 22.351 45.818 24.491 46.804 25.881 C 48.48 28.425 48.648 30.998 48.382 33.857 L 46.794 34.084 C 47.593 35.07 48.145 36.273 48.815 36.352 C 51.139 36.512 53.469 36.545 55.796 36.45 L 56.032 35.957 C 54.977 35.287 53.913 34.626 52.877 33.926 C 52.641 33.752 52.451 33.521 52.325 33.256 C 51.487 31.57 52.848 30.653 53.617 29.509 C 52.744 30.258 52.039 31.182 51.546 32.22 L 51.172 32.053 L 49.2 33.463 C 48.825 30.761 48.884 30.83 50.669 29.302 C 51.458 28.487 52.156 27.587 52.749 26.62 L 52.404 26.374 L 49.151 29.144 C 48.165 26.265 51.477 24.964 51.201 22.193 L 48.914 24.846 C 47.81 22.46 48.313 20.35 49.525 18.26 L 47.918 19.719 L 46.932 12.926 L 46.656 12.926 L 46.656 18.565 L 46.311 18.703 L 42.515 13.803 C 42.748 14.947 43.157 16.048 43.728 17.067 C 44.29 18.053 45.227 18.762 45.769 19.729 C 46.151 20.608 46.435 21.528 46.617 22.47 L 46.153 22.608 L 44.073 20.774 L 43.6 21.119 C 44.014 21.888 44.241 22.893 44.872 23.377 C 46.3 24.396 46.882 26.237 46.301 27.892 C 46.185 28.544 46.106 29.203 46.065 29.864 L 45.512 29.973 M 16.358 93.664 C 22.856 93.546 29.254 94.226 35.495 92.422 L 35.653 91.111 L 40.583 90.046 C 32.518 87.946 24.433 89.188 16.358 88.734 M 25.123 72.841 C 24.295 73.827 23.556 74.813 22.846 75.7 C 22.136 76.588 21.643 77.347 21.041 78.175 C 22.027 78.402 22.934 78.678 23.901 78.826 C 25.202 79.033 25.774 79.634 25.468 81.005 C 25.249 82.096 25.091 83.199 24.995 84.308 C 24.739 86.812 24.749 86.812 27.243 87.265 C 27.815 87.364 28.397 87.453 28.978 87.502 C 31.828 87.749 31.828 87.749 32.054 84.702 C 32.262 83.193 32.549 81.695 32.912 80.216 C 32.694 79.303 32.272 78.45 31.68 77.722 C 31.394 77.357 30.822 76.913 30.437 76.962 C 28.19 77.268 27.006 76.026 26.119 74.241 C 25.813 73.757 25.48 73.289 25.123 72.841 M -117.739 60.31 C -114.446 54.463 -101.846 53.813 -99.992 58.791 C -97.577 56.583 -97.892 54.305 -100.801 52.876 C -101.139 52.722 -101.488 52.593 -101.846 52.491 C -105.881 51.321 -110.212 51.755 -113.933 53.704 C -115.422 54.509 -116.757 55.57 -117.877 56.839 C -118.349 57.303 -118.602 57.944 -118.576 58.605 C -118.55 59.266 -118.246 59.885 -117.739 60.31 M -62.27 18.802 C -64.459 14.217 -67.121 9.928 -71.735 7.365 C -74.351 5.711 -77.619 5.467 -80.451 6.714 C -81.043 6.98 -81.437 7.7 -81.9 8.203 C -81.369 8.577 -80.809 8.906 -80.224 9.189 C -76.852 10.431 -73.323 11.299 -70.148 12.955 C -67.289 14.434 -64.883 16.81 -62.27 18.812 M 40.267 93.595 L 57.63 93.595 L 57.63 88.508 C 55.293 88.508 53.065 88.508 50.827 88.508 C 49.624 88.508 48.579 88.616 48.362 90.125 C 48.257 90.406 48.015 90.615 47.721 90.677 C 44.862 90.598 42.781 92.678 40.228 93.595 M 37.132 42.05 C 36.294 41.37 35.535 40.788 34.825 40.157 C 32.923 38.504 30.435 37.686 27.923 37.89 C 27.499 37.89 26.799 38.264 26.74 38.56 C 26.366 40.532 26.139 42.504 25.882 44.328 C 30.191 46.379 33.464 43.884 36.935 42.277 C 36.974 42.257 37.004 42.198 37.132 42.05 Z  M 56.21 51.91 C 56.841 50.174 56.101 49.366 54.79 48.686 C 53.282 47.907 51.931 46.822 50.422 46.063 C 49.639 45.671 48.75 45.543 47.889 45.698 C 46.538 46.112 45.219 46.627 43.945 47.236 C 44.704 48.617 45.345 49.908 46.114 51.111 C 46.387 51.521 46.82 51.797 47.307 51.87 C 50.275 51.91 53.252 51.88 56.21 51.88 M 33.257 51.821 C 31.759 47.039 29.313 45.107 25.567 46.379 C 23.842 46.96 22.501 48.784 21.091 50.145 C 20.775 50.45 20.884 51.19 20.785 51.821 M 18.379 48.193 C 20.42 46.763 22.836 45.826 23.911 43.135 C 21.288 41.962 19.247 38.866 15.698 40.907 C 15.155 41.222 14.15 41.528 14.15 41.833 C 14.031 42.999 14.254 44.174 14.791 45.215 C 15.86 46.352 17.065 47.352 18.379 48.193 Z  M -116.211 62.873 C -114.239 59.304 -106.647 57.786 -101.343 60.901 C -100.357 59.146 -100.781 57.944 -102.733 56.958 C -106.273 55.262 -112.898 56.258 -115.836 58.93 C -116.485 59.349 -116.906 60.042 -116.979 60.811 C -117.052 61.579 -116.769 62.339 -116.211 62.873 Z  M 10.068 -3.362 L 10.068 -3.756 C 8.885 -4.023 7.692 -4.24 6.538 -4.575 C 3.776 -5.369 0.855 -5.437 -1.941 -4.772 C -3.913 -4.348 -6.003 -4.693 -8.044 -4.772 C -10.339 -4.968 -12.642 -5.044 -14.945 -4.999 C -17.617 -4.782 -20.24 -3.944 -22.902 -3.747 C -24.4 -3.638 -25.958 -4.279 -27.615 -4.614 C -24.876 -2.501 -21.25 -1.925 -17.992 -3.086 C -14.886 -4.131 -11.731 -4.535 -8.645 -3.263 C -6.23 -2.216 -3.488 -2.216 -1.073 -3.263 C 1.218 -4.149 3.725 -4.318 6.114 -3.747 C 7.424 -3.542 8.744 -3.414 10.068 -3.362 M 42.988 51.85 C 42.988 51.604 42.988 51.535 42.988 51.505 L 39.656 46.645 C 38.128 44.417 37.201 44.052 34.628 44.673 C 34.032 44.76 33.525 45.151 33.29 45.705 C 33.054 46.258 33.124 46.895 33.474 47.384 C 34.283 48.626 35.062 49.908 35.949 51.091 C 36.292 51.505 36.785 51.767 37.319 51.821 C 39.183 51.929 41.046 51.88 42.988 51.88 M -36.646 36.391 C -38.994 37.724 -41.414 38.928 -43.892 40 C -47.925 41.508 -51.612 40.256 -54.195 36.874 C -54.856 35.997 -55.467 35.08 -56.098 34.182 C -56.164 34.891 -56.104 35.605 -55.921 36.292 C -54.797 40.502 -50.34 43.717 -46.505 43.125 C -42.118 42.445 -39.032 39.98 -36.646 36.391 Z  M -101.037 64.086 C -100.554 62.686 -101.392 61.917 -102.319 61.286 C -105.336 59.265 -111.4 59.531 -114.308 61.779 C -116.112 63.159 -115.836 64.954 -114.012 65.723 C -110.147 61.03 -105.583 62.607 -101.037 64.086 Z  M -35.334 -63.278 C -37.533 -60.152 -40.264 -57.283 -42.137 -53.882 C -40.363 -54.513 -40.166 -52.551 -39.081 -52.265 L -33.067 -61.316 M -129.018 -50.066 C -127.145 -48.646 -126.307 -48.577 -125.656 -50.776 C -126.221 -51.357 -126.472 -52.174 -126.329 -52.972 C -126.187 -53.77 -125.668 -54.45 -124.937 -54.798 C -124.651 -54.256 -124.394 -53.665 -124.049 -53.132 C -123.704 -52.6 -123.241 -51.525 -122.669 -51.367 C -121.269 -50.993 -120.796 -50.381 -121.515 -48.863 C -119.672 -50.184 -119.672 -51.131 -121.298 -52.058 C -123.221 -53.152 -123.655 -54.315 -123.221 -56.386 C -123.123 -57.369 -123.123 -58.36 -123.221 -59.344 L -124.808 -59.551 L -125.4 -61.306 L -125.784 -61.246 C -125.748 -60.718 -125.748 -60.188 -125.784 -59.659 C -125.952 -58.496 -125.242 -56.898 -126.77 -56.366 C -127.91 -56.107 -128.758 -55.152 -128.88 -53.99 C -129.048 -52.649 -129.551 -51.634 -131.276 -52.028 M 3.876 -2.199 L 3.876 -2.632 C 2.141 -2.258 0.425 -1.972 -1.221 -1.489 C -3.489 -0.688 -5.967 -0.708 -8.221 -1.548 C -10.458 -2.47 -12.93 -2.656 -15.281 -2.08 C -18.238 -1.331 -21.196 -0.493 -24.361 -1.37 C -22.591 -0.689 -20.707 -0.354 -18.81 -0.385 C -15.174 -0.91 -11.47 -0.723 -7.906 0.168 C -6.616 0.518 -5.259 0.535 -3.962 0.217 C -1.329 -0.424 1.264 -1.38 3.876 -2.199 Z  M -111.784 67.951 C -107.84 64.116 -103.768 65.535 -99.549 67.369 C -99.881 66.593 -100.375 65.897 -100.998 65.328 C -103.844 63.247 -107.537 62.712 -110.857 63.899 C -113.174 64.618 -113.421 66.314 -111.784 67.951 Z  M -101.018 73.659 C -99.509 72.674 -99.47 71.579 -101.018 70.633 C -102.956 69.361 -105.347 68.981 -107.584 69.588 C -108.36 69.787 -109.021 70.292 -109.418 70.988 C -109.605 71.53 -108.915 72.368 -108.629 73.038 C -106.166 71.855 -103.256 72.092 -101.018 73.659 M -99.687 70.702 C -98.78 69.657 -99.509 68.888 -100.19 68.247 C -102.161 66.364 -106.914 65.683 -109.378 66.856 C -111.055 67.655 -111.242 68.611 -110.009 70.041 C -107.081 67.852 -103.088 68.099 -99.687 70.731 M -70.582 -33.325 L -70.582 -42.139 L -73.145 -42.139 L -73.145 -33.325 M 39.133 43.322 C 40.583 45.038 42.338 45.294 44.349 45.176 C 46.36 45.057 47.987 44.633 49.121 42.888 C 47.918 41.193 43.57 41.34 39.133 43.322 Z  M 56.417 48.094 C 56.417 46.211 56.417 44.624 56.417 43.046 C 56.336 42.624 56.067 42.261 55.687 42.06 C 53.439 41.074 51.665 41.735 50.491 44.032 L 53.183 45.895 M 34.933 37.87 C 38.986 42.326 38.986 42.326 43.472 40.305 C 42.15 37.347 42.929 37.949 39.873 37.88 C 38.236 37.83 36.609 37.87 34.933 37.87 Z  M -72.583 12.561 C -74.555 11.91 -76.527 11.22 -78.44 10.658 C -80.165 10.174 -82.017 10.54 -83.429 11.644 C -84.039 12.226 -84.567 12.89 -84.996 13.616 C -82.66 13.428 -80.737 12.797 -78.765 12.571 C -76.706 12.452 -74.642 12.449 -72.583 12.561 M -17.104 71.224 C -16.651 72.062 -15.842 72.841 -15.912 73.531 C -16.138 75.838 -14.462 75.681 -13.092 76.105 L -11.702 73.807 L -14.659 70.09 M 0.425 0.651 C -3.459 1.558 -7.324 2.465 -11.287 0.897 C -12.283 0.663 -13.319 0.663 -14.314 0.897 C -16.809 1.193 -19.293 1.587 -21.778 1.942 C -19.983 2.1 -18.13 2.07 -16.276 2.11 C -14.423 2.149 -12.273 1.903 -10.44 2.416 C -6.486 3.48 -3.075 2.021 0.425 0.651 Z  M -120.559 16.554 C -119.376 16.554 -117.907 15.105 -118.321 13.872 C -118.704 12.859 -119.558 12.097 -120.608 11.831 C -121.695 11.983 -122.625 12.689 -123.063 13.695 C -123.329 15.864 -122.521 16.524 -120.559 16.554 Z  M -107.633 12.009 C -110.226 14.217 -110.345 14.296 -109.793 15.095 C -109.24 15.893 -109.526 17.254 -108.018 17.145 C -106.509 17.037 -105.267 16.633 -105.149 14.572 C -105.03 12.512 -107.19 13.241 -107.633 12.019 M -100.101 10.727 C -97.074 8.321 -97.518 9.199 -98.297 6.783 C -98.553 5.985 -98.888 5.59 -99.854 5.718 C -102.053 6.004 -102.063 5.945 -102.664 9.071 M -129.866 22.381 C -128.772 23.367 -129.314 25.339 -127.234 25.22 C -126.567 25.27 -125.91 25.039 -125.42 24.585 C -124.93 24.131 -124.652 23.493 -124.651 22.824 C -124.404 21.06 -125.784 21.06 -126.623 20.636 C -128.417 19.719 -128.496 22.006 -129.866 22.381 Z  M -101.392 20.103 C -104.468 21.809 -104.468 21.809 -103.177 24.846 C -100.081 25.033 -100.081 25.033 -99.006 22.046 M 15.362 -16.278 L 15.362 -16.169 L 22.856 -16.357 L 22.294 -18.674 L 27.016 -18.969 L 27.016 -19.285 L 20.115 -19.738 L 20.371 -18.22 M -0.146 41.409 C -1.024 41.981 -1.911 42.247 -2.118 42.76 C -2.294 43.46 -2.105 44.202 -1.615 44.732 C -0.615 45.465 0.511 46.01 1.707 46.339 C 2.368 46.357 2.994 46.042 3.373 45.501 C 3.593 44.877 3.486 44.185 3.088 43.657 C 2.069 42.826 0.988 42.074 -0.146 41.409 M -5.993 44.486 C -4.277 44.515 -2.68 43.381 -2.779 42.297 C -2.877 41.212 -4.751 40.128 -6.269 40.423 C -7.472 40.66 -8.961 40.729 -9.03 42.494 C -9.079 43.569 -7.669 44.456 -5.993 44.486 Z  M -1.389 41.064 C -0.356 40.729 0.636 40.279 1.569 39.723 C 2.131 39.277 2.443 38.587 2.407 37.87 C 2.081 37.17 1.425 36.682 0.662 36.568 C -0.43 36.577 -1.498 36.888 -2.424 37.466 C -3.092 37.989 -3.461 38.807 -3.41 39.654 C -3.242 40.276 -2.118 40.601 -1.389 41.064 Z  M 34.933 -35.06 L 32.508 -34.251 L 31.976 -40.098 L 31.768 -40.098 L 31.768 -32.053 L 33.523 -32.536 L 33.523 -25.891 L 33.799 -25.891 M -106.204 82.01 C -107.038 82.12 -107.856 82.332 -108.639 82.641 C -109.014 82.848 -109.112 83.539 -109.339 84.012 C -108.898 84.194 -108.443 84.339 -107.978 84.446 C -106.657 84.643 -105.326 84.81 -104.035 84.909 C -103.521 84.89 -103.011 84.81 -102.516 84.672 C -102.704 84.179 -102.763 83.43 -103.108 83.243 C -103.009 79.679 -103.664 76.134 -105.03 72.841 M 58.448 -61.976 C 58.549 -62.513 58.411 -63.066 58.07 -63.493 C 57.729 -63.919 57.219 -64.175 56.673 -64.194 C 56.154 -64.282 55.621 -64.145 55.208 -63.818 C 54.794 -63.492 54.539 -63.005 54.504 -62.479 C 54.376 -61.939 54.49 -61.37 54.815 -60.921 C 55.141 -60.472 55.647 -60.188 56.2 -60.142 C 56.746 -60.064 57.299 -60.218 57.726 -60.566 C 58.153 -60.915 58.415 -61.426 58.448 -61.976 Z  M -2.483 76.302 C -1.27 76.381 -0.689 75.612 -0.511 74.497 C -0.484 73.958 -0.68 73.43 -1.053 73.039 C -1.425 72.648 -1.943 72.426 -2.483 72.427 C -3.582 72.459 -4.455 73.359 -4.455 74.458 C -4.465 74.973 -4.256 75.468 -3.88 75.82 C -3.504 76.171 -2.996 76.347 -2.483 76.302 M 24.137 41.626 L 24.788 41.35 C 24.473 40.256 24.463 38.55 23.802 38.195 C 22.747 37.653 21.219 38.057 19.858 38.057 L 19.789 38.501 M 14.081 51.811 L 18.024 51.811 C 17.295 49.839 15.5 49.297 14.081 47.867 C 14.081 49.09 14.081 49.928 14.081 50.766 C 14.081 51.101 14.081 51.407 14.081 51.811 Z  M -18.15 -82.178 C -14.985 -80.758 -12.648 -80.206 -11.425 -80.669 C -12.855 -82.592 -14.886 -83.075 -18.15 -82.178 Z  M -16.03 -83.657 C -17.124 -86.132 -19.589 -86.703 -22.517 -85.501 M -102.26 77.416 C -103.246 76.055 -105.602 75.336 -106.923 76.065 C -107.18 76.213 -107.121 76.933 -107.209 77.386 C -105.73 77.583 -104.252 77.8 -102.783 77.948 C -102.625 77.978 -102.428 77.603 -102.26 77.416 Z  M -6.407 -76.252 L -6.279 -76.755 C -7.649 -78.727 -9.7 -79.161 -13.102 -78.076 M -91.977 15.716 L -86.012 12.206 C -83.379 13.803 -85.499 15.006 -85.312 17.54 M 14.209 37.87 C 13.992 39.674 14.209 39.93 15.757 39.556 C 16.425 39.417 17.083 39.236 17.729 39.014 C 18.034 38.895 18.261 38.56 18.527 38.323 C 18.241 38.176 17.965 37.909 17.67 37.899 C 16.516 37.84 15.362 37.87 14.209 37.87 Z  M 0.524 -29.884 C 1.51 -31.274 1.155 -34.242 -0.136 -35.74 C 0.278 -33.739 -1.3 -31.747 0.524 -29.884 Z  M -26.885 -13.241 C -26.885 -11.319 -28.157 -9.347 -26.441 -7.326 C -25.091 -9.583 -26.491 -11.407 -26.885 -13.251 M -7.856 -31.609 L -8.517 -31.609 C -8.517 -30.071 -8.517 -28.533 -8.517 -26.995 C -8.517 -26.709 -8.014 -26.453 -7.738 -26.187 C -7.551 -26.522 -7.186 -26.877 -7.216 -27.172 C -7.334 -28.642 -7.61 -30.12 -7.847 -31.599 M -22.399 -17.057 C -21.521 -19.226 -22.645 -21 -23.05 -22.815 C -23.641 -17.895 -23.641 -17.895 -22.399 -17.057 Z  M -126.169 -64.806 L -126.77 -64.806 C -127.135 -64.263 -127.815 -63.701 -127.756 -63.199 C -127.697 -62.696 -126.948 -62.213 -126.504 -61.739 C -126.07 -62.183 -125.331 -62.597 -125.291 -63.08 C -125.252 -63.563 -125.853 -64.244 -126.169 -64.806 Z  M 2.358 -19.453 L 1.569 -25.112 C 0.337 -22.134 0.544 -20.241 2.358 -19.492 M -29.36 -23.761 L -28.808 -23.899 L -29.567 -29.332 C -30.829 -26.453 -30.671 -24.579 -29.36 -23.761 Z  M -19.254 -33.522 C -20.585 -30.564 -20.338 -28.484 -18.524 -28.04 M 21.298 75.414 L 20.687 74.202 C 20.106 74.211 19.529 74.298 18.971 74.458 C 18.55 74.679 18.206 75.023 17.985 75.444 C 17.896 75.602 18.192 76.193 18.399 76.252 C 18.85 76.38 19.328 76.38 19.779 76.252 C 20.31 76.021 20.819 75.74 21.298 75.414 M 52.582 79.723 C 52.335 81.774 53.794 81.153 54.662 81.054 C 55.066 81.054 55.796 80.068 55.697 79.91 C 54.78 77.968 53.646 79.861 52.582 79.723 Z  M -128.673 13.192 L -128.673 20.399 L -128.121 20.399 C -127.342 17.984 -128.516 15.578 -128.673 13.192 Z  M -109.467 12.344 L -108.955 12.393 C -107.969 9.968 -109.221 7.572 -109.467 5.166 M -124.207 -67.448 C -123.418 -67.359 -122.669 -67.448 -122.235 -67.172 C -121.801 -66.896 -121.693 -66.186 -121.446 -65.594 L -120.855 -65.723 C -120.963 -66.383 -120.855 -67.369 -121.239 -67.635 C -122.286 -68.192 -123.39 -68.631 -124.532 -68.947 M -12.54 69.578 C -11.882 69.629 -11.222 69.612 -10.568 69.528 C -10.371 69.528 -10.114 68.542 -10.233 68.483 C -10.969 67.911 -11.739 67.384 -12.54 66.906 M -117.966 2.82 C -119.129 8.883 -119.12 9.426 -117.966 10.155 M -98.858 19.364 C -99.046 21.523 -100.081 23.712 -99.351 25.95 L -98.858 25.95 M -103.128 7.888 C -101.905 5.186 -103.128 2.958 -103.463 0.69 M -107.091 70.948 L -107.18 71.619 C -106.346 72.479 -105.033 72.662 -103.995 72.062 L -103.916 71.412 M -10.252 56.189 L -10.735 55.942 L -11.84 57.756 L -10.252 58.525 L -10.252 56.189 Z " fill="rgb(255,255,255)"/><path d=" M -9.71 93.161 C -3.025 93.161 3.797 93.161 10.62 93.161 C 10.654 93.357 10.677 93.555 10.689 93.753 L -41.132 93.753 L -37.622 81.833 C -35.394 74.31 -33.175 66.778 -30.888 59.275 C -30.659 58.624 -30.164 58.101 -29.527 57.835 C -26.737 57.007 -23.878 56.376 -21.068 55.587 C -20.131 55.331 -19.826 55.587 -19.648 56.484 C -19.293 58.249 -18.919 60.024 -18.436 61.759 C -17.964 62.955 -18.291 64.319 -19.254 65.171 C -21.029 66.797 -21.443 68.562 -20.033 70.711 C -17.933 73.497 -18.051 77.368 -20.319 80.019 C -21.095 81.096 -21.238 82.505 -20.693 83.716 C -19.826 86.437 -19.175 89.237 -18.327 91.978 C -18.093 92.489 -17.627 92.856 -17.075 92.964 C -15.211 93.073 -13.348 92.964 -11.475 92.964 C -11.554 90.509 -11.554 90.509 -9.227 89.227 C -7.519 88.11 -6.676 86.056 -7.107 84.061 C -7.294 82.223 -7.317 80.372 -7.176 78.53 C -9.099 77.781 -8.951 79.772 -9.789 81.488 C -10.134 80.709 -10.578 80.206 -10.499 79.812 C -10.035 77.386 -9.611 77.1 -7.038 76.952 C -6.198 76.838 -5.365 76.673 -4.544 76.46 L -2.256 79.102 L 0.386 77.889 L 0.958 78.944 C -0.58 79.447 -1.576 81.32 -3.469 80.098 C -3.745 82.701 -3.469 83.055 -1.211 84.041 C -0.421 84.522 0.189 85.25 0.524 86.112 C 0.979 87.286 1.348 88.492 1.628 89.72 L 4.221 89.513 L 4.369 90.115 C 3.226 90.42 2.082 90.756 0.918 90.982 C 0.721 90.982 0.347 90.608 0.189 90.332 C -0.166 89.72 -0.422 89.089 -0.708 88.458 C -1.793 85.964 -1.793 85.964 -4.81 85.875 C -5.333 86.779 -5.807 87.71 -6.23 88.665 C -6.626 89.911 -7.704 90.817 -9 90.992 C -10.302 91.199 -10.42 91.86 -9.71 93.161 Z " fill="rgb(0,0,0)"/><path d=" M 31.897 -18.841 L 36.324 -13.31 L 36.58 -13.448 C 35.643 -15.558 34.657 -17.648 33.819 -19.798 C 33.648 -20.393 33.723 -21.032 34.026 -21.572 C 34.685 -22.604 35.409 -23.592 36.195 -24.53 C 37.083 -25.674 37.625 -25.654 38.552 -24.451 C 39.202 -23.603 39.804 -22.726 40.524 -21.898 C 41.332 -20.912 42.062 -21.03 42.495 -22.262 C 42.811 -23.248 43.481 -23.672 44.25 -23.327 C 44.834 -22.978 45.204 -22.36 45.236 -21.681 C 44.599 -17.566 46.038 -13.402 49.082 -10.559 C 50.299 -9.213 51.403 -7.768 52.384 -6.241 C 52.743 -5.749 52.901 -5.14 52.828 -4.535 C 52.759 -4.24 51.842 -4.003 51.349 -3.993 C 47.405 -3.924 47.889 -4.437 47.859 -0.454 C 47.859 0.72 47.859 1.903 47.859 3.076 C 47.859 4.249 47.474 4.762 46.262 4.723 C 44.497 4.663 42.732 4.654 40.967 4.723 C 39.804 4.723 39.488 4.24 39.518 3.185 C 39.567 1.479 39.518 -0.237 39.518 -1.952 C 39.518 -3.5 38.532 -3.599 37.378 -3.609 C 36.225 -3.618 35.269 -3.411 35.318 -1.893 C 35.367 -0.375 35.318 1.43 35.318 3.037 C 35.318 4.171 35.012 4.723 33.78 4.683 C 32.015 4.614 30.25 4.624 28.485 4.683 C 27.273 4.742 26.898 4.18 26.898 3.155 C 26.898 1.341 26.898 -0.483 26.898 -2.297 C 26.898 -3.54 26.513 -4.102 25.242 -3.993 C 24.656 -3.913 24.062 -3.913 23.477 -3.993 C 22.886 -4.03 22.324 -4.263 21.88 -4.654 C 21.682 -4.93 22.008 -5.758 22.323 -6.182 C 24.049 -8.548 25.843 -10.875 27.618 -13.212 L 31.897 -18.841 Z " fill="rgb(0,0,0)"/><path d=" M 3.876 -2.199 C 1.264 -1.38 -1.329 -0.424 -3.992 0.217 C -5.289 0.535 -6.646 0.518 -7.935 0.168 C -11.486 -0.738 -15.18 -0.946 -18.81 -0.444 C -20.707 -0.396 -22.595 -0.714 -24.371 -1.38 C -21.245 -0.503 -18.268 -1.38 -15.29 -2.09 C -12.94 -2.666 -10.468 -2.479 -8.231 -1.558 C -5.977 -0.718 -3.499 -0.697 -1.231 -1.499 C 0.425 -1.972 2.141 -2.258 3.837 -2.632 L 3.876 -2.199 Z " fill="rgb(0,0,0)"/><path d=" M 0.425 0.651 C -3.075 2.021 -6.476 3.48 -10.42 2.376 C -12.254 1.863 -14.304 2.11 -16.257 2.07 C -18.209 2.031 -19.964 2.07 -21.758 1.903 C -19.274 1.548 -16.828 1.154 -14.295 0.858 C -13.299 0.624 -12.263 0.624 -11.268 0.858 C -7.324 2.465 -3.459 1.558 0.425 0.651 Z " fill="rgb(0,0,0)"/><path d=" M -0.146 41.409 C 0.988 42.074 2.069 42.826 3.088 43.657 C 3.486 44.185 3.593 44.877 3.373 45.501 C 2.994 46.042 2.368 46.357 1.707 46.339 C 0.517 46.002 -0.602 45.45 -1.596 44.712 C -2.085 44.182 -2.274 43.44 -2.099 42.74 C -1.911 42.247 -1.034 41.981 -0.146 41.409 Z  M 3.058 45.353 C 1.5 43.381 -0.215 42.691 -1.537 43.381 C -0.166 44.259 0.938 45.353 3.058 45.353 Z " fill="rgb(0,0,0)"/><path d=" M -1.389 41.064 C -2.108 40.611 -3.242 40.285 -3.43 39.674 C -3.48 38.827 -3.112 38.009 -2.444 37.485 C -1.519 36.9 -0.451 36.583 0.642 36.568 C 1.393 36.689 2.035 37.172 2.358 37.86 C 2.393 38.577 2.081 39.267 1.52 39.714 C 0.603 40.269 -0.373 40.722 -1.389 41.064 Z  M -2.493 39.832 L 1.668 38.452 C 0.061 37.525 -2.089 38.225 -2.493 39.832 Z " fill="rgb(0,0,0)"/><path d=" M 14.081 51.811 C 14.081 51.407 14.031 51.101 14.031 50.825 C 14.031 49.987 14.031 49.149 14.031 47.926 C 15.471 49.336 17.265 49.898 17.975 51.87 L 14.081 51.811 Z " fill="rgb(0,0,0)"/><path d=" M 3.058 45.353 C 0.938 45.353 -0.166 44.259 -1.537 43.381 C -0.215 42.701 1.5 43.44 3.058 45.353 Z " fill="rgb(255,255,255)"/><path d=" M -2.493 39.832 C -2.099 38.225 0.061 37.525 1.668 38.442 L -2.493 39.832 Z " fill="rgb(255,255,255)"/></g></g><path d=" M 47.366 9.288 C 52.064 9.304 55.868 13.108 55.885 17.806 L 55.885 42.918 C 55.868 47.616 52.064 51.42 47.366 51.436 L 22.244 51.436 C 17.546 51.42 13.742 47.616 13.726 42.918 L 13.726 17.806 C 13.742 13.108 17.546 9.304 22.244 9.288 L 47.366 9.288 Z  M 47.366 5.344 L 22.244 5.344 C 15.364 5.349 9.787 10.926 9.782 17.806 L 9.782 42.918 C 9.787 49.798 15.364 55.375 22.244 55.38 L 47.366 55.38 C 54.246 55.375 59.823 49.798 59.828 42.918 L 59.828 17.806 C 59.823 10.926 54.246 5.349 47.366 5.344 L 47.366 5.344 Z " fill="rgb(237,31,36)"/><path d=" M 47.366 9.288 C 52.064 9.304 55.868 13.108 55.885 17.806 L 55.885 42.918 C 55.868 47.616 52.064 51.42 47.366 51.436 L 22.244 51.436 C 17.546 51.42 13.742 47.616 13.726 42.918 L 13.726 17.806 C 13.742 13.108 17.546 9.304 22.244 9.288 L 47.366 9.288 Z  M 47.366 7.316 L 22.244 7.316 C 16.453 7.321 11.759 12.015 11.754 17.806 L 11.754 42.918 C 11.759 48.709 16.453 53.403 22.244 53.408 L 47.366 53.408 C 53.157 53.403 57.851 48.709 57.856 42.918 L 57.856 17.806 C 57.851 12.015 53.157 7.321 47.366 7.316 L 47.366 7.316 Z " fill="rgb(200,33,39)"/><path d=" M 47.366 9.288 C 52.064 9.304 55.868 13.108 55.885 17.806 L 55.885 42.918 C 55.868 47.616 52.064 51.42 47.366 51.436 L 22.244 51.436 C 17.546 51.42 13.742 47.616 13.726 42.918 L 13.726 17.806 C 13.742 13.108 17.546 9.304 22.244 9.288 L 47.366 9.288 Z  M 47.366 8.795 L 22.244 8.795 C 17.27 8.8 13.238 12.831 13.233 17.806 L 13.233 42.918 C 13.238 47.893 17.27 51.924 22.244 51.929 L 47.366 51.929 C 52.341 51.924 56.372 47.893 56.377 42.918 L 56.377 17.806 C 56.372 12.831 52.341 8.8 47.366 8.795 L 47.366 8.795 Z " fill="rgb(35,31,32)"/><path d=" M 32.392 22.952 C 33.032 22.309 34.024 22.176 34.81 22.629 C 35.595 23.082 35.978 24.007 35.742 24.883 C 35.505 25.759 34.709 26.366 33.802 26.362 L 24.802 26.362 M 35.392 37.772 C 36.032 38.415 37.024 38.548 37.81 38.095 C 38.595 37.642 38.978 36.716 38.742 35.841 C 38.505 34.965 37.709 34.358 36.802 34.362 L 24.802 34.362 M 40.532 26.092 C 41.333 25.294 42.569 25.132 43.548 25.697 C 44.527 26.263 45.005 27.415 44.713 28.507 C 44.421 29.599 43.433 30.36 42.302 30.362 L 24.802 30.362" fill="none" vector-effect="non-scaling-stroke" stroke-width="2" stroke="rgb(0,0,0)" stroke-linejoin="round" stroke-linecap="round" stroke-miterlimit="4"/></g></svg>