<?xml version="1.0" standalone="yes"?><svg xmlns="http://www.w3.org/2000/svg" viewBox="0 0 73.47 61.87" style="zoom: 1;"><defs><style>.cls-1{opacity:0.66;}.cls-2,.cls-4{fill:#fff;}.cls-2,.cls-5{stroke:#231f20;stroke-miterlimit:10;}.cls-3{fill:#231f20;}.cls-5{fill:none;stroke-width:1.5px;}.cls-6{fill:#f7ec13;}.cls-7{fill:#ffce07;}</style></defs><title>PDC_Cyclone_yellow</title><g id="Layer_7" data-name="Layer 7"><rect class="cls-2" x="16.08" y="9.57" width="42.75" height="42.75" rx="8.64" ry="8.64"></rect><rect class="cls-4" x="33.68" y="38.3" width="1.37" height="1.1"></rect><rect class="cls-4" x="36.22" y="36.27" width="1.37" height="1.1"></rect><rect class="cls-4" x="33.68" y="36.27" width="1.37" height="1.1"></rect><rect class="cls-4" x="36.22" y="38.33" width="1.37" height="1.1"></rect><rect class="cls-4" x="38.77" y="36.27" width="1.37" height="1.1"></rect><rect class="cls-4" x="38.77" y="38.33" width="1.37" height="1.1"></rect><path class="cls-6" d="M50.19,9.59a8.67,8.67,0,0,1,8.64,8.64V43.7a8.67,8.67,0,0,1-8.64,8.64H24.72a8.67,8.67,0,0,1-8.64-8.64V18.23a8.67,8.67,0,0,1,8.64-8.64H50.19m0-4H24.72A12.65,12.65,0,0,0,12.08,18.23V43.7A12.65,12.65,0,0,0,24.72,56.34H50.19A12.65,12.65,0,0,0,62.83,43.7V18.23A12.65,12.65,0,0,0,50.19,5.59Z"></path><path class="cls-7" d="M50.19,9.59a8.67,8.67,0,0,1,8.64,8.64V43.7a8.67,8.67,0,0,1-8.64,8.64H24.72a8.67,8.67,0,0,1-8.64-8.64V18.23a8.67,8.67,0,0,1,8.64-8.64H50.19m0-2H24.72A10.65,10.65,0,0,0,14.08,18.23V43.7A10.65,10.65,0,0,0,24.72,54.34H50.19A10.65,10.65,0,0,0,60.83,43.7V18.23A10.65,10.65,0,0,0,50.19,7.59Z"></path></g><circle stroke="#000000" id="circle1" stroke-width="3px" cy="30.990145px" fill="#ffffff" r="7.168539px" cx="37.506996px" transform=""></circle></svg>