<svg xmlns="http://www.w3.org/2000/svg" viewBox="0 0 73.47 61.87"><defs><style>.cls-1{opacity:0.66;}.cls-2,.cls-4{fill:#fff;}.cls-2{stroke:#231f20;stroke-miterlimit:10;}.cls-3{fill:#231f20;}.cls-5{fill:#f7ec13;}.cls-6{fill:#ffce07;}</style></defs><title>PDC_volcano_yellow</title><g id="Layer_7" data-name="Layer 7"><rect class="cls-2" x="16.02" y="8.42" width="42.75" height="42.75" rx="8.64" ry="8.64"/><polygon class="cls-3" points="16.02 40.82 24.48 40.82 27.77 38.37 29.28 38.37 31.83 35.57 33.44 35.57 37.08 30.11 39.52 30.11 40.44 30.11 43.94 35.99 44.85 35.99 49.4 39.98 56.46 41.31 58.77 41.31 58.77 43.2 58.49 44.72 57.52 46.98 56.13 48.74 54.44 50.01 53.17 50.61 50.13 51.17 41.77 51.17 27.28 51.17 22.01 50.75 19.5 49.44 17.95 47.96 16.64 45.73 16.02 43.62 16.02 40.82"/><path class="cls-4" d="M28.51,44.93c-.07-1.21-.09-2.41-.1-3.62v-.07l.07,0c.79-.36,1.6-.7,2.41-1l0,0q.28-.72.53-1.44v0h0c.58,0,1.15,0,1.73,0l0,0,.71-1h0l.93-.69,0,.07.48-2.68v-.07l.06,0,1.51-.72-.06.05.93-1.76v0c.15-.61.31-1.22.48-1.82h0c-.11.62-.23,1.24-.36,1.85h0l-.85,1.8,0,0,0,0-1.5.73.07-.09-.52,2.67v0l0,0-1,.65,0,0-.74,1,0,0h0c-.58,0-1.15,0-1.73,0l0,0q-.25.73-.47,1.46v0h0c-.79.38-1.58.75-2.38,1.09l.06-.1c0,1.21,0,2.41-.1,3.62Z"/><path class="cls-4" d="M28.52,47.31A21.24,21.24,0,0,1,30.7,45.2l0,.06a20.48,20.48,0,0,0,0-2.67v0l0,0c.71-.68,1.45-1.34,2.21-2l0,.08c.07-.61.16-1.22.27-1.83h0c0,.62,0,1.23-.06,1.85v0l0,0c-.73.67-1.47,1.31-2.25,1.93l0-.07a20.48,20.48,0,0,0,0,2.67v0l0,0a21.24,21.24,0,0,1-2.28,2Z"/><path class="cls-4" d="M34.59,47.78c-.43-.38-.82-.78-1.21-1.19s-.74-.85-1.1-1.29l0,0,0,0c.79-.64,1.47-1.39,2.23-2.06l0,.14c-.26-.68-.48-1.37-.69-2.07l0,0c-.29-.2-.57-.41-.85-.62v0l.93.49h0v0c.27.68.53,1.36.76,2l0,.08-.06.05c-.76.67-1.6,1.25-2.33,1.95v-.07c.4.4.82.78,1.18,1.21s.74.86,1.07,1.32Z"/><path class="cls-4" d="M37.38,39.41a17.4,17.4,0,0,1-.09-2.17l0,.08c-.23-.19-.44-.39-.66-.59l0,0,0,0A22.27,22.27,0,0,0,38,34.56l0,.06c0-.56,0-1.11,0-1.67h0c0-.71-.07-1.42-.05-2.13h0c.13.7.21,1.41.28,2.11h0c0,.56,0,1.11,0,1.67v0l0,0a22.27,22.27,0,0,0-1.46,2v-.08c.24.17.48.34.71.52l0,0v.05a17.4,17.4,0,0,1-.09,2.17Z"/><path class="cls-4" d="M39.34,30.11c.22,1.37.38,2.74.47,4.11v0c.26.53.51,1.06.79,1.58h0q0,1,0,2.06v0l0,0c-.53.72-1.08,1.44-1.63,2.15L39,40V41L39,41c.28.48.53,1,.8,1.47s.53,1,.77,1.48h0c-.31-.46-.61-.94-.9-1.41s-.59-.94-.87-1.43l0,0V39.92l0,0c.56-.7,1.13-1.4,1.71-2.08l0,.05q0-1,0-2.06v0c-.28-.52-.58-1-.88-1.53h0v0c-.17-1.37-.27-2.75-.31-4.13Z"/><path class="cls-4" d="M44.28,38.81A4.46,4.46,0,0,1,43.2,38a4.83,4.83,0,0,0-1-.88h0a7.6,7.6,0,0,1-1.62-1.29v0a7.6,7.6,0,0,1,1.72,1.16h0a4.83,4.83,0,0,0,1,.9,4.46,4.46,0,0,1,1,.95Z"/><path class="cls-4" d="M39.54,32.16a6.17,6.17,0,0,1,.6.82,9.75,9.75,0,0,1,.46.9l0,0c.5.12,1,.12,1.52.2h0l0,0a9.67,9.67,0,0,1,1,1.68h0A9.67,9.67,0,0,1,42,34.25l.08.05c-.5-.1-1-.29-1.49-.35h0v0a9.75,9.75,0,0,1-.57-.83,6.17,6.17,0,0,1-.43-.92Z"/><path class="cls-3" d="M18.43,19.67s-.75-2.41,2.79-2.36l1.07.21s-1.56-2.79.75-3.38c0,0,1.61-.43,2.25,0,0,0-.05-1.34.91-1.34,0,0,2.58-1.34,3.76,1.82,0,0,4.29-1.39,5.2,1.88,0,0,.7-.59,1.18.05,0,0,.41-2.47,2.54-1.88,0,0,3.09-2.74,5.08,1.07,0,0,2.31-3.29,5,.34,0,0,2.9-1,2.79,2,0,0,2.47-1,2.47,1,0,0,3.22.62,1.07,2.17,0,0-2.31.8-3.59,0a4.18,4.18,0,0,1-3,0s-2.09-.38-2.47.8a1.62,1.62,0,0,1-2.31-.32s-3.11-1.72-4,2.31l-.82,6.09h-.75L37.3,24s-.5-4-3.38-2.47c0,0-2.1,1.42-3-.75,0,0-.49-1.64-2.75-.07,0,0-2.09,2.06-3.28-.14,0,0-2.09,2.06-3.31.1C21.58,20.72,17.53,22.46,18.43,19.67Z"/><path class="cls-4" d="M23.93,19.67a1.8,1.8,0,0,1,.12-1.47,1.09,1.09,0,0,1,.61-.46,2.74,2.74,0,0,1,.74-.12l0,0a2.56,2.56,0,0,1,.35-1.87,1.25,1.25,0,0,1,.87-.49,2,2,0,0,1,.95.12v0a2.88,2.88,0,0,0-.9.05,1.21,1.21,0,0,0-.7.45,2.85,2.85,0,0,0-.47,1.7v0h0a1.38,1.38,0,0,0-.69.15,1.18,1.18,0,0,0-.48.47A2.71,2.71,0,0,0,24,19.67Z"/><path class="cls-4" d="M28,18.26A1.73,1.73,0,0,1,27.94,17a1,1,0,0,1,1.12-.48l.6.11c.2,0,.37,0,.39-.09a2.15,2.15,0,0,0,0-.56.53.53,0,0,1,.09-.34c.09-.12.24-.08.33-.07v0c-.25,0-.27.17-.22.37a1.37,1.37,0,0,1,0,.66.39.39,0,0,1-.33.26,1,1,0,0,1-.35,0c-.22-.05-.4-.15-.59-.21a.77.77,0,0,0-.58,0,.58.58,0,0,0-.32.43A4.91,4.91,0,0,0,28,18.26Z"/><path class="cls-4" d="M22.87,16.93a1.25,1.25,0,0,1-.31-.81,3,3,0,0,1,.23-.85,1.13,1.13,0,0,1,.68-.57,1.69,1.69,0,0,1,.87,0v0l-.78.25a1.71,1.71,0,0,0-.65.4.76.76,0,0,0-.14.76l.12.81Z"/><path class="cls-4" d="M29,15.37a8,8,0,0,1-.44-.86,1.44,1.44,0,0,0-.53-.78,1.71,1.71,0,0,0-.82-.33,2.65,2.65,0,0,0-.91.14v0a1.3,1.3,0,0,1,.94-.38,1.26,1.26,0,0,1,.9.49l.62.79a2,2,0,0,1,.28.95Z"/><path class="cls-4" d="M22.66,18.77a9.35,9.35,0,0,1-.89-.31,1.29,1.29,0,0,0-.9-.17,1.71,1.71,0,0,0-.78.37,3.31,3.31,0,0,0-.57.71h0a1.38,1.38,0,0,1,.42-.89,1.24,1.24,0,0,1,.95-.32c.33,0,.64.06,1,.11a1.8,1.8,0,0,1,.84.48Z"/><path class="cls-4" d="M31.81,17.91a4.65,4.65,0,0,0-.18.83.54.54,0,0,0,.37.66c.54.17,1.11.13,1.71.26v0a2.07,2.07,0,0,1-1.78-.16,1.19,1.19,0,0,1-.51-.78,1.09,1.09,0,0,1,.37-.84Z"/><path class="cls-4" d="M31.51,15.79a2.66,2.66,0,0,1,1-.47,1.39,1.39,0,0,1,1.79.87,3.13,3.13,0,0,1,.22,1.06l-.17-.1a3.14,3.14,0,0,1,1.24-.4,1.54,1.54,0,0,1,.67.08,1,1,0,0,1,.5.42h0A1.23,1.23,0,0,0,35.58,17a4.54,4.54,0,0,0-1.16.37l-.17.07v-.18c0-.17,0-.34,0-.51a3.65,3.65,0,0,0-.09-.5,1,1,0,0,0-.65-.71,3.6,3.6,0,0,0-2,.3Z"/><path class="cls-4" d="M37,19.69a9.1,9.1,0,0,0,.11,1.05.91.91,0,0,0,.55.82,2.58,2.58,0,0,0,1,.11c.35,0,.7-.08,1.07-.11v0a2.91,2.91,0,0,1-1.06.34,1.69,1.69,0,0,1-1.1-.25,2,2,0,0,1-.68-.89,1.67,1.67,0,0,1,.06-1.11Z"/><path class="cls-4" d="M39.51,19.69c-.06-.29-.1-.56-.14-.82a.72.72,0,0,0-.37-.68,1.4,1.4,0,0,0-.76-.07c-.26,0-.53.11-.82.15v0a1.82,1.82,0,0,1,.79-.39,1,1,0,0,1,.88.21,2.38,2.38,0,0,1,.49.75,1.33,1.33,0,0,1,0,.87Z"/><path class="cls-4" d="M40.76,20.74c.23-.18.46-.34.68-.49a.75.75,0,0,0,.47-.63,1.3,1.3,0,0,0-.26-.72c-.16-.22-.34-.43-.51-.67l0,0a1.79,1.79,0,0,1,.71.54,1,1,0,0,1,.19.89,2.59,2.59,0,0,1-.47.77,1.38,1.38,0,0,1-.81.36Z"/><path class="cls-4" d="M37.71,16.69a1,1,0,0,1,.17-.58.72.72,0,0,1,.56-.3,1.76,1.76,0,0,1,1.13.43l-.13,0A8.82,8.82,0,0,1,40.18,15a1.84,1.84,0,0,1,.53-.53,1.21,1.21,0,0,1,.37-.16,1.42,1.42,0,0,1,.41,0,2,2,0,0,1,1.12,1,6.41,6.41,0,0,1,.58,1.35h0c-.26-.42-.47-.84-.75-1.23a2.2,2.2,0,0,0-1-.9,1.18,1.18,0,0,0-1.16.5,3.28,3.28,0,0,0-.66,1.26l0,.09-.1,0c-.17-.08-.34-.18-.51-.25a1.38,1.38,0,0,0-.52-.12.79.79,0,0,0-.72.68Z"/><path class="cls-4" d="M45,16.3a1.47,1.47,0,0,1,.63-.68,5.66,5.66,0,0,1,.89-.27,1.16,1.16,0,0,1,.92.21,1.61,1.61,0,0,1,.57.74h0a8.31,8.31,0,0,0-.69-.54,1.61,1.61,0,0,0-.77-.29,1,1,0,0,0-.79.31l-.72.52Z"/><path class="cls-4" d="M43.7,20.74c.27,0,.52,0,.78,0a3.64,3.64,0,0,0,.76.05.64.64,0,0,0,.54-.42,1.46,1.46,0,0,0,0-.69l0,.06a.38.38,0,0,1-.13-.31.34.34,0,0,1,.2-.26,1.1,1.1,0,0,1,.5-.07v0a1.86,1.86,0,0,0-.41.2c-.05,0-.08.08-.07.11a.28.28,0,0,0,.07.11l0,0v0a1.14,1.14,0,0,1,0,.85,1,1,0,0,1-.71.42,2.29,2.29,0,0,1-.8.08,2.12,2.12,0,0,1-.76-.24Z"/><path class="cls-4" d="M46.55,16.91a1.24,1.24,0,0,1,.92.1,1.78,1.78,0,0,1,.59.74,1.41,1.41,0,0,1,0,.94,2.25,2.25,0,0,1-.45.8h0c.06-.31.15-.58.23-.86a2.48,2.48,0,0,0,.1-.84.69.69,0,0,0-.55-.59c-.26-.1-.53-.18-.83-.26Z"/><path class="cls-4" d="M52,20.43a2.9,2.9,0,0,1,.55-.39c.19-.07.43-.24.36-.44s-.09-.12-.19-.23a.39.39,0,0,1-.1-.44.44.44,0,0,1,.39-.19,1.5,1.5,0,0,1,.35,0v0c-.2.1-.49.17-.52.24a.35.35,0,0,0,.07.18.66.66,0,0,1,.13.36,1.33,1.33,0,0,1-.38.63,1.08,1.08,0,0,1-.66.24Z"/><path class="cls-4" d="M49.89,17.24A1,1,0,0,1,51,17.6a1.33,1.33,0,0,1,.18.6l0,.6v0a2.38,2.38,0,0,1,.4.59.62.62,0,0,1-.11.77,1,1,0,0,1-.74.13,2.85,2.85,0,0,1-.67-.19v0c.23,0,.46,0,.68,0a1.08,1.08,0,0,0,.57-.13c.12-.08.12-.29.06-.49a2.33,2.33,0,0,0-.27-.6v0h0a1.78,1.78,0,0,0,0-.58,1.67,1.67,0,0,0-.26-.49,1.24,1.24,0,0,0-1-.46Z"/><path class="cls-5" d="M50.16,8.42a8.67,8.67,0,0,1,8.64,8.64V42.53a8.67,8.67,0,0,1-8.64,8.64H24.69A8.67,8.67,0,0,1,16,42.53V17.06a8.67,8.67,0,0,1,8.64-8.64H50.16m0-4H24.69A12.65,12.65,0,0,0,12,17.06V42.53A12.65,12.65,0,0,0,24.69,55.17H50.16A12.65,12.65,0,0,0,62.8,42.53V17.06A12.65,12.65,0,0,0,50.16,4.42Z"/><path class="cls-6" d="M50.13,8.42a8.67,8.67,0,0,1,8.64,8.64V42.53a8.67,8.67,0,0,1-8.64,8.64H24.66A8.67,8.67,0,0,1,16,42.53V17.06a8.67,8.67,0,0,1,8.64-8.64H50.13m0-2H24.66A10.65,10.65,0,0,0,14,17.06V42.53A10.65,10.65,0,0,0,24.66,53.17H50.13A10.65,10.65,0,0,0,60.77,42.53V17.06A10.65,10.65,0,0,0,50.13,6.42Z"/></g></svg>