<svg xmlns="http://www.w3.org/2000/svg" viewBox="0 0 73.47 61.87"><defs><style>.cls-1{opacity:0.66;}.cls-2{fill:#fff;stroke:#231f20;stroke-miterlimit:10;}.cls-3{fill:#231f20;}.cls-4{fill:#4995d1;}.cls-5{fill:#31c5f4;}</style></defs><title>PDC_fire_blue</title><g id="Layer_7" data-name="Layer 7"><rect class="cls-2" x="13.91" y="11.78" width="42.75" height="42.75" rx="8.64" ry="8.64"/><polygon class="cls-3" points="13.86 42.51 56.58 42.51 56.66 45.89 56.14 48.37 55.26 50.66 53.67 52.69 51.37 54.01 48.02 54.53 30.29 54.63 21.82 54.54 18.38 53.48 15.91 51.45 14.8 49.68 13.86 47.05 13.86 42.51"/><path class="cls-3" d="M22.53,43.08a3.61,3.61,0,0,0,2.25-4.94,6.33,6.33,0,0,1-.66-5S25.05,33,25.38,35c0,0,.82,3.5,1.42.93,0,0,.27-.77.82-.93,0,0,.88-.88,0-2.68,0,0-.6-2.67,1.1.8,0,0,1.86,3.63-1.2,6.1,0,0,.38,2,2.35-.49a3.75,3.75,0,0,1-.64,2.07s-.81.58.16,1.68Z"/><path class="cls-3" d="M22.08,44S23.77,41,21,37a1.37,1.37,0,0,1,2.13.26s-2.88-2.83-1.91-4.34c0,0,.93,1.43,1.91.85,0,0,.8-2.93,0-3.86,0,0,.93.07,1.46,1.5,0,0-1.15-3.72,1.06-4.25,0,0-1.33,2.81,1.33,3.8a2.23,2.23,0,0,0,1-2.82s.89-.35,1.51,3.5c0,0,1.51.44,1.51-1.46a5.07,5.07,0,0,1-.44,5.1s-1.46,2.53.75,1.68c0,0,.18,0-.44,2,0,0-.62,1.11-.13,1.86,0,0,.4.22-.49,1.77h1.64a6.4,6.4,0,0,0,1.64-4.37c0-2.77-1.15-2.6.58-3.57,0,0-.75-.53-1.33,0,0,0-.93-1,.75-3.61a6.52,6.52,0,0,0-2.62-6.77s1.42,2.57-.18,3.15c0,0-1.86-.18-2.22-6.21,0,0-1.37,2.75-1,4.88,0,0-3-.49-.51-5.81,0,0-3.77.94-3.1,6.07,0,0-1.37.68-1.82-3,0,0-1.84,1.9-.71,6.25,0,0-1.24,1.24-1.55-1.91,0,0-3.18,3.54.93,7.23,0,0-1.55-1.06-2.62-.58,0,0,2.39.71,1.91,4.48,0,0-.8,2.62.89,4.34Z"/><path class="cls-3" d="M47.13,27.22s-2,4.18-4.43,0c0,0-2.15-3.61,2.21-3.29,0,0-.63-5.44,2.66-2.15,0,0,1.08-3.23,4.56-.7,0,0,1.58,2,2.72-.25,0,0,1.49-1.4,1.82-.41V32.47s-1,2.78-4.22,0a2.61,2.61,0,0,1,.47-3.92s-3.06,1.58-2.74-2.21C50.16,26.34,49,29.69,47.13,27.22Z"/><path class="cls-3" d="M39.64,24.09a21.64,21.64,0,0,1,.65,3.46l0-.15c.23.46.45.92.65,1.39s.34,1,.51,1.45.32,1,.51,1.45.41.93.65,1.39v.05c.2,1.12.49,2.23.65,3.36s.36,2.25.45,3.38l-.06-.19a34.78,34.78,0,0,1,2,4.74l-.09,0a34.78,34.78,0,0,1-2.83-4.29l0-.07,0-.12c-.16-1.13-.22-2.26-.31-3.4s-.05-2.28-.11-3.42l0,.05c-.18-.48-.4-.94-.62-1.4s-.5-.9-.76-1.34-.54-.88-.76-1.33-.43-.93-.63-1.4l0-.08v-.06a21.64,21.64,0,0,1,.11-3.52Z"/><path class="cls-3" d="M35.66,32.86a4.12,4.12,0,0,1,1.79,0c.57.1,1.06.59,1.63.69h0l0,0a6,6,0,0,0,1.11.71,12,12,0,0,1,1.05.77,6.31,6.31,0,0,1,.89.95,5.36,5.36,0,0,1,.69,1.16l-.07.07a5.36,5.36,0,0,1-1.21-.6,6.31,6.31,0,0,1-1-.81,12,12,0,0,1-.85-1,6,6,0,0,0-.8-1l.07,0c-.56-.16-1.21.06-1.77-.11A4.12,4.12,0,0,1,35.64,33Z"/><path class="cls-3" d="M38.38,31.16a1.94,1.94,0,0,1,.82,1.15,1.92,1.92,0,0,1-.15,1.4,1.92,1.92,0,0,1-.82-1.15A1.94,1.94,0,0,1,38.38,31.16Z"/><path class="cls-3" d="M36.23,28.88a6,6,0,0,1,2.57.22,6,6,0,0,1,2.29,1.18,6,6,0,0,1-2.57-.22A6,6,0,0,1,36.23,28.88Z"/><path class="cls-3" d="M37.31,26.55a2.07,2.07,0,0,1,1.46.05,2,2,0,0,1,1.09,1,2,2,0,0,1-1.46-.05A2.07,2.07,0,0,1,37.31,26.55Z"/><path class="cls-3" d="M42.41,33.15a6.85,6.85,0,0,1,.69-2.66,6.77,6.77,0,0,1,1.59-2.24A6.77,6.77,0,0,1,44,30.91,6.85,6.85,0,0,1,42.41,33.15Z"/><path class="cls-3" d="M42.89,36.44a5.73,5.73,0,0,1,2,.83l.08,0,.06.09c.38.56.45,1.32.85,1.88a6.53,6.53,0,0,0,1.35,1.56l0,0,0,.25a7.58,7.58,0,0,1-.17,2.06,8.11,8.11,0,0,1-.67,2h-.1a8.11,8.11,0,0,1-.22-2.11A7.58,7.58,0,0,1,46.43,41l.07.29a6.53,6.53,0,0,0-.84-1.88c-.34-.59-1-1-1.35-1.56l.14.14a5.73,5.73,0,0,1-1.61-1.5Z"/><path class="cls-3" d="M52.15,44a13.6,13.6,0,0,1-.48-2.54c0-.43-.08-.85-.08-1.28a12.37,12.37,0,0,1,.08-1.28V39a10.47,10.47,0,0,0-.6-2.36c-.29-.76-.68-1.48-1-2.24l0,0v-.1a31.15,31.15,0,0,1,.1-3.6c.06-.6.14-1.2.24-1.79a17.19,17.19,0,0,1,.39-1.79h.1a17.19,17.19,0,0,1,.21,1.82c0,.6.06,1.21.06,1.81a31.15,31.15,0,0,1-.26,3.6l0-.15c.19.79.3,1.61.49,2.39a10.47,10.47,0,0,0,.87,2.27h0v.08a12.35,12.35,0,0,1,.19,1.27c0,.43,0,.85,0,1.28A13.6,13.6,0,0,1,52.25,44Z"/><path class="cls-3" d="M45.85,27.58A8.33,8.33,0,0,1,48.55,29a8.23,8.23,0,0,1,2.1,2.19A8.23,8.23,0,0,1,48,29.77,8.33,8.33,0,0,1,45.85,27.58Z"/><path class="cls-3" d="M53.41,32.09a4.16,4.16,0,0,1-.9,1.92,4.11,4.11,0,0,1-1.68,1.3,4.11,4.11,0,0,1,.9-1.92A4.16,4.16,0,0,1,53.41,32.09Z"/><path class="cls-3" d="M44.91,32.05a7.5,7.5,0,0,1,1.84,1.34,4.38,4.38,0,0,1,.73.86c.21.32.4.65.64.94l.05.06v.05a5.42,5.42,0,0,0,.08,1.46,13.35,13.35,0,0,1,.21,1.46v.11a13.26,13.26,0,0,1-.52,2.34,10.93,10.93,0,0,1-1,2.22l-.1,0A10.93,10.93,0,0,1,47,40.44a13.26,13.26,0,0,1,.6-2.32v.11a13.37,13.37,0,0,1,.21-1.46,5.42,5.42,0,0,0,.08-1.46l0,.12c-.28-.25-.61-.45-.92-.67a4.38,4.38,0,0,1-.84-.75,7.5,7.5,0,0,1-1.28-1.88Z"/><path class="cls-3" d="M47.95,35.3a1.66,1.66,0,0,1-.2-.67,1.76,1.76,0,0,1,.06-.62,3.24,3.24,0,0,1,.36-.55,1,1,0,0,0,.13-.6l0,.17a6.67,6.67,0,0,1-.66-.39,4.07,4.07,0,0,1-.54-.49,2.57,2.57,0,0,1-.57-1.42l.08-.06a2.57,2.57,0,0,1,1.31.79,4.07,4.07,0,0,1,.4.61,6.67,6.67,0,0,1,.28.71l.06.14,0,0a1,1,0,0,0-.12.6,3.24,3.24,0,0,1,.11.65,1.75,1.75,0,0,1-.19.59,1.66,1.66,0,0,1-.44.54Z"/><path class="cls-3" d="M48,38.81a2.56,2.56,0,0,1,.17-1,3.47,3.47,0,0,1,.45-.83l.15-.19.18,0a2.92,2.92,0,0,1,.76,0,2.41,2.41,0,0,1,.8.23,2.4,2.4,0,0,1-.68.48,2.92,2.92,0,0,1-.72.25l.33-.22a3.47,3.47,0,0,1-.58.75A2.56,2.56,0,0,1,48,38.81Z"/><path class="cls-4" d="M48.22,11.78a8.67,8.67,0,0,1,8.64,8.64V45.89a8.67,8.67,0,0,1-8.64,8.64H22.74a8.67,8.67,0,0,1-8.64-8.64V20.42a8.67,8.67,0,0,1,8.64-8.64H48.22m0-4H22.74A12.65,12.65,0,0,0,10.1,20.42V45.89A12.65,12.65,0,0,0,22.74,58.53H48.22A12.65,12.65,0,0,0,60.86,45.89V20.42A12.65,12.65,0,0,0,48.22,7.78Z"/><path class="cls-5" d="M48,11.78a8.67,8.67,0,0,1,8.64,8.64V45.89A8.67,8.67,0,0,1,48,54.53H22.55a8.67,8.67,0,0,1-8.64-8.64V20.42a8.67,8.67,0,0,1,8.64-8.64H48m0-2H22.55A10.65,10.65,0,0,0,11.91,20.42V45.89A10.65,10.65,0,0,0,22.55,56.53H48A10.65,10.65,0,0,0,58.67,45.89V20.42A10.65,10.65,0,0,0,48,9.78Z"/></g></svg>