<svg xmlns="http://www.w3.org/2000/svg" viewBox="0 0 286.51 326.1"><defs><style>.cls-1{opacity:0.66;}.cls-2,.cls-6{fill:#ed1c24;}.cls-2,.cls-4,.cls-5{fill-rule:evenodd;}.cls-3,.cls-5{fill:#fff;}.cls-4{fill:#231f20;stroke:#fff;stroke-miterlimit:10;stroke-width:3.12px;}</style></defs><title>ACCESS Report Icon</title><g id="Layer_2" data-name="Layer 2"><path class="cls-2" d="M145.88,302c-18.81,0-34.12-3.57-34.12-8s15.31-8,34.12-8S180,289.62,180,294,164.7,302,145.88,302Z"/><path class="cls-3" d="M145.88,286.2c18.42,0,34,3.58,34,7.81s-15.56,7.81-34,7.81-34-3.58-34-7.81,15.56-7.81,34-7.81m0-.29c-18.92,0-34.27,3.63-34.27,8.1s15.34,8.1,34.27,8.1,34.27-3.63,34.27-8.1-15.34-8.1-34.27-8.1Z"/><path class="cls-4" d="M169,136.47a57.47,57.47,0,1,0-43.5,1.12l.3,1.78,20,143.84L168.66,138.9Z"/><path class="cls-5" d="M145.88,120.29a37.61,37.61,0,1,1,37.61-37.61A37.65,37.65,0,0,1,145.88,120.29Z"/><path class="cls-6" d="M145.88,52.07a30.61,30.61,0,1,1-30.61,30.61,30.65,30.65,0,0,1,30.61-30.61m0-14a44.61,44.61,0,1,0,44.61,44.61,44.61,44.61,0,0,0-44.61-44.61Z"/></g></svg>