<svg xmlns="http://www.w3.org/2000/svg" viewBox="0 0 286.51 326.1"><defs><style>.cls-1{opacity:0.66;}.cls-2,.cls-6{fill:#ed1c24;}.cls-2,.cls-4,.cls-5{fill-rule:evenodd;}.cls-3,.cls-5{fill:#fff;}.cls-4{fill:#231f20;stroke:#fff;stroke-miterlimit:10;stroke-width:3.12px;}</style></defs><title>NEW REPORT ICON</title><g id="Layer_2" data-name="Layer 2"><path class="cls-2" d="M145.88,304.62c-25.09,0-45.5-4.76-45.5-10.61s20.41-10.61,45.5-10.61,45.5,4.76,45.5,10.61S171,304.62,145.88,304.62Z"/><path class="cls-3" d="M145.88,283.6c24.56,0,45.3,4.77,45.3,10.41s-20.75,10.41-45.3,10.41-45.3-4.77-45.3-10.41,20.75-10.41,45.3-10.41m0-.39c-25.23,0-45.69,4.84-45.69,10.8s20.46,10.8,45.69,10.8S191.57,300,191.57,294s-20.46-10.8-45.69-10.8Z"/><path class="cls-4" d="M169,136.47a57.47,57.47,0,1,0-43.5,1.12l.3,1.78,20,143.84L168.66,138.9Z"/><path class="cls-5" d="M145.88,122.61a39.94,39.94,0,1,1,39.94-39.94A40,40,0,0,1,145.88,122.61Z"/><path class="cls-6" d="M145.88,47.41a35.26,35.26,0,1,1-35.26,35.26,35.3,35.3,0,0,1,35.26-35.26m0-9.35a44.61,44.61,0,1,0,44.61,44.61,44.61,44.61,0,0,0-44.61-44.61Z"/></g></svg>