<svg xmlns="http://www.w3.org/2000/svg" viewBox="0 0 286.51 326.1"><defs><style>.cls-1{opacity:0.66;}.cls-2,.cls-3{fill:#231f20;}.cls-3{fill-rule:evenodd;}.cls-4{fill:none;stroke:#231f20;stroke-miterlimit:10;stroke-width:8px;}</style></defs><title>REPORT_VERIFIED_BASIC</title><g id="Layer_2" data-name="Layer 2"><path class="cls-2" d="M149.36,64.85a44.51,44.51,0,1,1-44.51,44.51,44.56,44.56,0,0,1,44.51-44.51m0-4a48.51,48.51,0,1,0,48.51,48.51,48.51,48.51,0,0,0-48.51-48.51Z"/><path class="cls-3" d="M149.36,155.87a46.51,46.51,0,1,1,46.51-46.51A46.57,46.57,0,0,1,149.36,155.87Z"/><path class="cls-2" d="M149.36,64.85a44.51,44.51,0,1,1-44.51,44.51,44.56,44.56,0,0,1,44.51-44.51m0-4a48.51,48.51,0,1,0,48.51,48.51,48.51,48.51,0,0,0-48.51-48.51Z"/><line class="cls-4" x1="149.36" y1="300.38" x2="149.36" y2="157.87"/></g></svg>