<svg xmlns="http://www.w3.org/2000/svg" viewBox="0 0 286.51 326.1"><defs><style>.cls-1{opacity:0.66;}.cls-2{fill:#231f20;}.cls-3{fill:#fff;fill-rule:evenodd;}.cls-4{fill:none;stroke:#231f20;stroke-miterlimit:10;stroke-width:4px;}</style></defs><title>REPORT_UNVERIFIED_BASIC</title><g id="Layer_2" data-name="Layer 2"><path class="cls-2" d="M143.25,64.85a44.51,44.51,0,1,1-44.51,44.51,44.56,44.56,0,0,1,44.51-44.51m0-4a48.51,48.51,0,1,0,48.51,48.51,48.51,48.51,0,0,0-48.51-48.51Z"/><path class="cls-3" d="M143.25,149.87a40.51,40.51,0,1,1,40.51-40.51A40.56,40.56,0,0,1,143.25,149.87Z"/><path class="cls-2" d="M143.25,76.85a32.51,32.51,0,1,1-32.51,32.51,32.55,32.55,0,0,1,32.51-32.51m0-16a48.51,48.51,0,1,0,48.51,48.51,48.51,48.51,0,0,0-48.51-48.51Z"/><line class="cls-4" x1="143.25" y1="300.38" x2="143.25" y2="157.87"/></g></svg>