<svg xmlns="http://www.w3.org/2000/svg" viewBox="0 0 286.51 326.1"><defs><style>.cls-1{opacity:0.66;}.cls-2{fill:#fff200;}.cls-3{fill:#231f20;stroke:#fff;stroke-miterlimit:10;stroke-width:3.12px;}.cls-3,.cls-4{fill-rule:evenodd;}.cls-4{fill:#fff;}</style></defs><title>SECURITY Report Icon</title><g id="Layer_2" data-name="Layer 2"><ellipse class="cls-2" cx="145.88" cy="294.01" rx="34.27" ry="8.1"/><path class="cls-3" d="M169,136.47a57.47,57.47,0,1,0-43.5,1.12l.3,1.78,20,143.84L168.66,138.9Z"/><path class="cls-4" d="M145.88,120.29a37.61,37.61,0,1,1,37.61-37.61A37.65,37.65,0,0,1,145.88,120.29Z"/><path class="cls-2" d="M145.88,52.07a30.61,30.61,0,1,1-30.61,30.61,30.65,30.65,0,0,1,30.61-30.61m0-14a44.61,44.61,0,1,0,44.61,44.61,44.61,44.61,0,0,0-44.61-44.61Z"/></g></svg>