<svg xmlns="http://www.w3.org/2000/svg" viewBox="0 0 60.88 64.05"><defs><style>.cls-1{opacity:0.66;}.cls-2{fill:none;stroke:#231f20;stroke-miterlimit:10;}.cls-3,.cls-5{fill:#231f20;}.cls-4{fill:#fff;}.cls-5{font-size:12px;font-family:Helvetica, Helvetica;}</style></defs><title>DISPLACEMENT</title><g id="Layer_7" data-name="Layer 7"><rect class="cls-2" x="8.68" y="10.12" width="42.75" height="42.75" rx="8.64" ry="8.64"/><circle class="cls-3" cx="13.82" cy="23.37" r="2.98"/><circle class="cls-3" cx="31.28" cy="23.22" r="2.98"/><circle class="cls-3" cx="25.65" cy="30.71" r="2.19"/><path class="cls-3" d="M28.27,38.61l1.89-5.71a.63.63,0,0,0-.17-.83s-.76-.37-1,.31l-1.86,5.41s-.37.75,0,1l.48.19A.51.51,0,0,0,28.27,38.61Z"/><path class="cls-3" d="M28,33.33a1.52,1.52,0,0,1,0-1.52l.36-.43s.34-.45.63-.47h1a1.53,1.53,0,0,1,1.15.59l1.94,2.22a.52.52,0,0,1-.13.57s-.27.38.09.38a.49.49,0,0,1,.57.32s1,1.58.21,2.58c0,0-.82.66-.83,1,0,0-.27,1.58.27,2.22l1.49,1.6s.77.61.25,1.2l-.54.57a.69.69,0,0,1-1,0l-1.83-1.74s-.83-.79-.29-1.49c0,0,.11-.16-.22-.29a1.05,1.05,0,0,1-.36-.37s-.14-.29-.47-.05a1.83,1.83,0,0,0-.29,2.22s.81.86.36,1.45l-.36.4a.78.78,0,0,1-1.15,0,2.54,2.54,0,0,1-.9-2.27V40.89a3.26,3.26,0,0,1,.68-2l1.43-1.54s.54-.27,0-.91a1.3,1.3,0,0,1-.27-1.51S31.49,33,30.24,32a1.07,1.07,0,0,0-1.64.53,3.42,3.42,0,0,0-.3.84S28.14,33.61,28,33.33Z"/><path class="cls-3" d="M40.36,44.25a1.43,1.43,0,0,1-1.82,0,7.15,7.15,0,0,1-1.25-3V38.78a12.15,12.15,0,0,0,5.57-1s.27,2.1,3,3.42c0,0,1.32.82.74,1.69a1.57,1.57,0,0,1-2.53.44s-2.74-1.89-3.55-4l-.34-.77-.26,0a6,6,0,0,0,.27,3.58S41.51,43.56,40.36,44.25Z"/><path class="cls-3" d="M36.22,38.5A14.53,14.53,0,0,0,47.7,33.89l-3.28-5.36s-1,1.74-2.46.69l-3.62-3.36s-.43-.23-.38.78c0,0,.52,4.41-1.13,4.26,0,0-1,.08-.26,1.42,0,0,2,2.41,1.13,2.87,0,0-1.07.17-.93,1,0,0,.26,1.48-.35,1.68C36.42,37.89,36.17,38,36.22,38.5Z"/><path class="cls-3" d="M35.6,28.53s-.32-3.86.61-4h-1.1S33.57,24.83,35.6,28.53Z"/><path class="cls-3" d="M34.67,24.16s.57-2.5,4.27-2.88h2.17a6.23,6.23,0,0,1,4.39,2.42s1.3,1.4-.24,3.33L44,28.53s-1,1.5-2.54,0c0,0-3.49-3.84-5.16-4.45a1.41,1.41,0,0,0-1.13,0S34.71,24.51,34.67,24.16Z"/><path class="cls-3" d="M37.65,26s.28,3.45-.41,4.31l-3.41,2.05s-.87.69-1.32,0c0,0-.83-.89,0-1.44l2.87-1.71s.54-.2.54-.67c0,0-.28-3.84.69-3.84C36.62,24.69,37.6,24.55,37.65,26Z"/><path class="cls-4" d="M15.3,26.42s-.89-1.43-.12-2A1.56,1.56,0,0,1,16.92,24l.07.17-.32,1.64-1,.75Z"/><path class="cls-3" d="M15.55,26.2s-1-1.83.85-2c0,0,.3-.1.59.36l1.34,2.81.44-1.95a.51.51,0,0,1,.62-.41l.7.11s.49.11.37.88l-1.23,4.58s-.73,1.38-1.73,0Z"/><path class="cls-3" d="M17.3,24.46l.92,2s.16-1.69.73-1.76a2.23,2.23,0,0,1,1.14.06l.12-.16a2.5,2.5,0,0,0-1.46-.76H17.3S17.1,24,17.3,24.46Z"/><path class="cls-3" d="M17.55,23.58s-.37,0-.25-.54a4.85,4.85,0,0,1,4-2.34H24s3.09,0,4,2.67c0,0,.67,2.3-.29,3.12l-1.15,1.32a1,1,0,0,1-.73.46H24.8s-.41.09-1.23-.82c0,0-3.13-3.87-4.57-3.87Z"/><path class="cls-4" d="M21.2,21.87s-1.15,0-.45-.3a5.33,5.33,0,0,1,1.45-.29H23s2.67.14,3.58,1.62c0,0,.05.23-.4.11a3.75,3.75,0,0,0-2.48-.85.37.37,0,0,1-.37-.27s0-.31-1.48-.05A4,4,0,0,1,21.2,21.87Z"/><path class="cls-3" d="M16.65,39.33V37.94s.83-4.46,3.83-6c0,0,.39-.18-.34-.73l-.2-.14A.93.93,0,0,1,19.66,30l1-3.77a1.84,1.84,0,0,0,.06-.82l.12-.15,3,3s.38.37-.12.86a2.37,2.37,0,0,0,0,3.22s1.21.87.8,1.42l-.55.69s-.18.32-.53,0c0,0-.22-.21-.41.14l-.82,1s-.13.29.46.27a.69.69,0,0,1,.48.84,2.58,2.58,0,0,0,.44,2.65,15.12,15.12,0,0,0,2.12,1.95s1.93.84,1.23,2.12L26,44.45s-.5.57-1.78-.23c0,0-3.65-1.81-4.12-5.38h-.25a8.79,8.79,0,0,0,.21,3.28s.46,1.11.06,1.51l-.76.8s-.44.57-1.78-.19a3.83,3.83,0,0,1-1-2.71V40.48"/><text class="cls-5" transform="translate(13.08 -5.18)">Displacement</text><path class="cls-3" d="M21.35,35.86l.78,1.33,1-.52A6.4,6.4,0,0,1,24,34.46c.55-.69-.83-.75-.83-.75l-.9,1.13Z"/></g></svg>
