<svg xmlns="http://www.w3.org/2000/svg" xmlns:xlink="http://www.w3.org/1999/xlink" viewBox="0 0 49.69 48.98"><defs><style>.cls-1{fill:none;stroke:#231f20;stroke-miterlimit:10;}.cls-2{opacity:0.66;}.cls-3{clip-path:url(#clip-path);}.cls-4{fill:#fff;}</style><clipPath id="clip-path"><rect class="cls-1" x="3.97" y="4.04" width="42.75" height="42.75" rx="8.64" ry="8.64"/></clipPath></defs><title>DROUGHT</title><g id="Layer_7" data-name="Layer 7"><g class="cls-3"><path class="cls-4" d="M54.41-52.29V91.29H-145.16V-101.45H54.41v48.84c-2.87,0-2.91,0-3.64-2.8-.45-1.75-1.28-3-3.19-3.41a2.27,2.27,0,0,1-1.23-1.37,9.28,9.28,0,0,1-.23-2.3c1.37.52,3.74,0,4.42-1,.16-.24-.07-.76-.14-1.26a15.18,15.18,0,0,0-1.73.81c-1.07.69-1.68,0-2.28-.71l-1.3-1.64a19.56,19.56,0,0,1-2.76.68c-2.61.22-2.52.21-3.3,2.71-.35,1.12.12,1.28.88,1.48.8-1.15.43-3.59,2.55-2.67a24.06,24.06,0,0,0-.12,4.3c.31,2.06.9,4.06-1.05,6-1.93-2.09-4-4.15-5.86-6.39a50.9,50.9,0,0,1-7.84-13.18c-.37-.89-.89-1.27-1.8-.78.29,2.76.47,5.47,2.61,7.5a1.65,1.65,0,0,1,.45.85c.68,3.73,2.64,6.36,6.33,7.62.39.13.58.86.86,1.31a5.4,5.4,0,0,1-1.71.66,2.16,2.16,0,0,1-1.4-.71c-1.69-1.79-3.64-3.38-4-6.11a4.47,4.47,0,0,0-1.27-2.73,7.77,7.77,0,0,1-2.86-6.55,1.35,1.35,0,0,0-.13-.79,10.92,10.92,0,0,0-1.12-1.07c0,2.18.55,4.27-.12,5.82a8.08,8.08,0,0,0,.33,7.55,3.15,3.15,0,0,1-1.13,4.26c-.41.24-1.53.1-1.62-.13-.37-1-1-2.42-.59-3.12.86-1.47.64-2.89.76-4.38s.61-3.06.71-4.6a38,38,0,0,0-.13-4.8c0-.19-.41-.45-.66-.51a.69.69,0,0,0-.55.4c-.23,1.15-.74,2.39-.51,3.46A2.46,2.46,0,0,1,19-67.52a7.66,7.66,0,0,0-3,5.05A11.08,11.08,0,0,1,13-56.7c-1.3,1.47-2.94,1.43-4.23-.16,1.28-.88,2.5-1.84,3.83-2.62a6.66,6.66,0,0,0,3.11-4.33,6.44,6.44,0,0,1,1.1-2.83c2.07-2.1,2.24-4.75,2.61-7.39-1.37-.46-2.07.09-2.73,1.37a79.22,79.22,0,0,1-5.67,10c-2.46,3.42-5.48,6.43-8.13,9.47h37.4c-.76,1.19-2.79.84-2.38,2.71.25,1.13.68,2.06,2.12,2.25l-.73-2.67a4.79,4.79,0,0,0,4.69-3.69c.56-1.67,1.47-2.13,3.28-1.65,1.51.4,1.54,1.59,1.94,2.52,1.33,3.09,1.17,3.45,5,1.66A1.83,1.83,0,0,0,54.41-52.29ZM-51.75,89.88h53c-.53-.47-.72-.78-1-.84A5.79,5.79,0,0,0-1,89H-20.64c.5-.87.75-1.8,1.12-1.85,2.12-.26,2.87-1.79,3.66-3.43,1.1-2.26,1.16-2.26,3.5-1.55a1.93,1.93,0,0,1,1,.84c.42.75.71,1.57,1.07,2.35,1,2.12,3.09,2.23,4.68.12l-2.59.2a1.42,1.42,0,0,1-.22-.31,22,22,0,0,0-1-3.38,4.32,4.32,0,0,0-1.81-2c-2.17-1-2.59-1.49-2.2-3.9a4.63,4.63,0,0,0,4.12-1.14c.17-.24-.07-.77-.13-1.25l-2.79,1.23-2.31-2.68a22.67,22.67,0,0,1-2.61.51c-2.63.17-2.85.28-3.41,2.81-.1.44.27,1,.54,1.87,1-1.58.72-3.87,2.69-3a28.66,28.66,0,0,0,.06,5.37c.5,2.52-.14,4.54-2.53,5.73-1.51.75-2.68,1.49-1.39,3.55-2.31,0-4.31.06-6.3,0-.38,0-.92-.62-1.07-1.06-.61-1.84-.91-3.79-1.67-5.56a8.84,8.84,0,0,1,1-9.33A3.11,3.11,0,0,0-29,69.46a43.22,43.22,0,0,1-2.11-5.07,1.94,1.94,0,0,1,.19-1.68c2.49-2.29,2.78-4.95,1.64-8a16.33,16.33,0,0,1-.66-2.83c-.17-.92-.57-1.09-1.48-.84-2.8.78-5.62,1.47-8.44,2.17a1.94,1.94,0,0,0-1.56,1.58c-1.18,4.19-2.48,8.35-3.71,12.52C-47.32,74.82-49.51,82.29-51.75,89.88Zm-46-149.68c-1-2-2-3.7-2.76-5.51-1-2.27-1.83-4.61-2.75-6.91a13.53,13.53,0,0,0-9.72-8.5c-2-.52-2.32-.39-2.92,1.89h-8.65c-1.25-2.57-2.86-3.27-5.84-2.16a14.93,14.93,0,0,0-3,1.5c-4.6,3.06-7,7.66-8.81,12.68-.74,2.1-1.25,4.29-1.91,6.59h2.83c-.12-2.12,1.69-2.61,3.15-3.43l-3.49-2.08.76-2,1.39.47c-.9-1-1.36-2.12-.6-3.22a2.83,2.83,0,0,1,2-1c1.34,0,1.59,1.15,2,2.2a1.82,1.82,0,0,0,1.34,1,2.62,2.62,0,0,1,2.88,2.51c.06.42.17.83.29,1.43l-2.52.83L-134.4-60c3.52-2.24,5.43-4.89,5.6-8.58a2.71,2.71,0,0,1,1.9-2.81,3.56,3.56,0,0,0,2.25-3.28,15.17,15.17,0,0,1,.31-1.92c.3-1.28,1-1.92,2.27-1.69a9.19,9.19,0,0,0-.9,2.54,5.71,5.71,0,0,1-3,5.05,3.29,3.29,0,0,0-1.3,2.14c-.54,4.08-1.79,7.64-5.94,9.68l1.48-.17c-.14,1.45.74,1.7,3.22,1,1.05,1.56,2.47,1.46,3.86.87,1,1.59,2.52,1.5,3.88,1.31,2.15-.31,1.56-2.36,2.1-3.87ZM22.37-24.38,19-20c-2.12,2.8-4.27,5.59-6.35,8.43-.32.43-.65,1.27-.46,1.55a2.62,2.62,0,0,0,1.61.68,8.31,8.31,0,0,0,1.95,0c1.12-.07,1.56.42,1.53,1.54-.05,1.84,0,3.69,0,5.53,0,1.2.36,1.82,1.69,1.75a49.25,49.25,0,0,1,5,0c1.4.08,1.81-.51,1.74-1.82-.08-1.51.05-3,0-4.56S26.27-9,27.82-9C29.68-8.88,30-8.65,30-6.8c0,1.57.06,3.15,0,4.72-.06,1.23.44,1.63,1.62,1.58,1.73-.07,3.47-.06,5.21,0C38-.46,38.47-1,38.44-2.17s0-2.39,0-3.58c0-4-.49-3.53,3.53-3.6.53,0,1.43-.24,1.51-.54A2.41,2.41,0,0,0,43-11.62,33.64,33.64,0,0,0,39.7-16c-3.09-3.18-4.59-6.82-3.86-11.27.13-.81,0-1.57-1-1.74A1.42,1.42,0,0,0,33-27.89c-.43,1.33-1.13,1.38-2,.25-.68-.84-1.31-1.72-2-2.59-.79-1-1.54-1-2.31,0s-1.56,2-2.19,3a2.35,2.35,0,0,0-.22,1.8c.85,2.18,1.86,4.3,2.81,6.45l-.26.15Zm-146.16-6.83c-4.38-1.62-9.32,2.22-9,6.33a2.63,2.63,0,0,1-1.2,2.53,5.22,5.22,0,0,0-1.53,2.41c-1,3.17.85,6.2,3.68,6.27a4.81,4.81,0,0,1,2.32.66c3.44,2.12,7,2.91,10.69.89a2.41,2.41,0,0,1,2.71-.09c3.21,1.71,7.33.86,8.81-1.77.59-1.06,1-1.81,2.46-2,.85-.12,1.79-1.22,2.25-2.11,1.35-2.64.46-5.29-2.08-6.88,1-4.66-.74-9.94-6.82-9.42A4.61,4.61,0,0,1-114-35C-118-37.21-123.05-35.39-123.79-31.22Zm40.56,1.5L-95.57-9.57h40.39l-1.16-2c2-.23,3.56-1,3.93-3.07.3-1.73-1.32-4.4-3.07-5.36s-2.85-.11-4.18,1.55L-71.41-36.09l-6.78,10.63ZM18.71-95c-1.85-1.53-3.77-2.29-5.89-1s-2.59,3-1.67,4.75L6.89-89.68,8.84-86c.17-.22.05-.05-.08.1-1.83,2.17-1.36,4.05,1.42,4.55a42.71,42.71,0,0,0,6.75.24c.72,0,1.44-.08,2.17-.13.06,1.67,0,3.07-2.1,3.44.82.85,1.62,1.86,2.54,2a42.14,42.14,0,0,0,5.91.08c-.57-2.49-1.64-5,1-6.87,2.1,3.36,4.63,3.62,7,.78,1.3.29,2.69.8,3.68-.56s.59-2.78-.16-4.1c-.37-.65-1-1.16-1.37-1.79a1.5,1.5,0,0,1-.25-1.08c1.14-3.71-1.09-7.13-5-7.16a34.63,34.63,0,0,0-5.95,1C22.64-97.55,20.46-97.46,18.71-95ZM-82.88-77.89a31.75,31.75,0,0,1-9.58,13.63h4.53A16,16,0,0,1-94.7-56l.07.42,7.4-.74A65.16,65.16,0,0,1-97.29-46.7c4.85-.43,9.72-.48,14.25-2.47.12-.05.33,0,.48.09C-78-47.22-73.21-47-68.11-46.58c-3.89-3.08-7.57-5.89-10.45-9.73l7.35.75.09-.45a14.73,14.73,0,0,1-6.66-8.25h3.91A27,27,0,0,1-82.88-77.89Zm52,.5c2.7-1.32,2-3.17.52-4.41.08-1.54.61-3,.09-3.89s-2.12-1.21-3.23-1.78c.25-.36.66-.86,1-1.41.5-.86.14-1.45-.71-1.77A4.18,4.18,0,0,0-38.11-89c-.27.41-.57.8-.9,1.27l-1.05-2.84c-3.3,1.46-4.63,4-5.34,7.1l-2.13-2a9.72,9.72,0,0,0-1.3,6.64c.33,3.91.61,4.28,3.93,5.29-.15,2.13.46,3.91,2.52,5s3.79.17,5.48-.9l.44.85c1.41,2.82,4.11,3.7,6.57,2.15,2.29-1.45,2.7-4.4.94-6.79-.19-.26-.61-.61-.55-.75C-28.79-75.59-30.06-76.41-30.93-77.39Zm15.29,24v-3.28c0-3.41,0-3.41,3.44-3.69H-12c1.13-.06,1.3-.69.77-1.52a24.27,24.27,0,0,0-1.87-2.45c-2.76-3.31-5.85-6.45-4.81-11.4.09-.44-.65-1-1-1.58-.5.35-1.22.6-1.47,1.09-.57,1.08-1.12,1-1.82.24s-1.35-1.7-2.09-2.48a1.4,1.4,0,0,0-1.09-.45c-1.69.46-2.93,3.9-2,5.41,1.48,2.42,1.54,4.71-.21,6.76a6.29,6.29,0,0,1-3.4,2.2c-1.62.24-3.37-.33-5.06-.55a4.5,4.5,0,0,0-1.63,1.59c-.56.82-1,1.7-1.54,2.55a19.46,19.46,0,0,0,3,.58c1.3.05,1.86.53,1.8,1.87-.08,1.71,0,3.42,0,5.13H-27c0-1.7.08-3.32,0-4.93-.09-1.44.71-1.57,1.81-1.59s2.05.06,2,1.59,0,3.23,0,4.92ZM-128.59,19a7.15,7.15,0,0,0-.89-1.31c-.39-.34-.9-.78-1.34-.75s-.77.71-.83,1.15a12.06,12.06,0,0,0,0,2.92,5,5,0,0,1-1.35,4c-1.29,1.53-2.5,3.12-3.67,4.74A19.52,19.52,0,0,0-138,32a13,13,0,0,0,2.68.56c1.25,0,1.59.5,1.53,1.67-.08,1.35,0,2.71,0,4.06,0,.89.38,1.27,1.27,1.26,1.41,0,2.82,0,4.23,0,1,0,1.38-.31,1.34-1.31a26.93,26.93,0,0,1,0-4.06A1.7,1.7,0,0,1-125.77,33c2.09-.32,2.35,0,2.36,2.08,0,.49,0,1,0,1.46,0,3,0,3,3,3,3.77,0,3.77,0,3.77-3.78,0-2.9,0-2.89,2.91-3.19a1.73,1.73,0,0,0,1.23-.56c.15-.28-.11-.91-.36-1.26-1-1.36-2-2.66-3.06-4-2.67-3.47-5.33-6.94-8-10.39-1.1-1.41-1.4-1.39-2.52,0C-127.07,17.16-127.73,17.93-128.59,19Zm-5.36,72a13,13,0,0,1,1.62,0c1.42.18,2-.38,1.84-1.83-.11-1.07,0-2.17,0-3.25-.06-1.29.55-1.69,1.77-1.71s1.84.41,1.79,1.69c0,.92,0,1.84,0,2.76,0,2.32,0,2.32,2.29,2.32,4.55,0,4.55,0,4.55-4.54,0-2.55,0-2.53,2.54-2.6a7.3,7.3,0,0,0,1.63-.43,6.53,6.53,0,0,0-.64-1.54c-3.28-4.3-6.62-8.55-9.89-12.85-2.62-3.44-2.12-3-4.44,0-1,1.24-1.29,1.21-2.16-.06a1.68,1.68,0,0,0-1.27-.63c-.28,0-.72.62-.76,1a16.06,16.06,0,0,0,0,3.08A4.8,4.8,0,0,1-136.38,76c-1.63,1.94-3.13,4-4.64,6-.26.35-.56,1-.42,1.24s.79.46,1.23.49c2.89.18,2.89.17,2.89,3.08q0,.33,0,.65C-137.33,91.43-137.6,90.93-133.95,91Zm52-79.81c-1,1.17-1.7,2.08-2.45,3s-1.31,1.12-1.86-.23c-.15-.37-.88-.65-1.35-.67-.26,0-.62.59-.78,1a2.2,2.2,0,0,0,0,1.13,8.16,8.16,0,0,1-2.61,7.43,22.85,22.85,0,0,0-2.38,3.07A20.48,20.48,0,0,0-94.62,28a11,11,0,0,0,2.43.45c1.4-.05,1.82.54,1.74,1.85s0,2.49,0,3.74c0,1,.37,1.52,1.41,1.51,1.3,0,2.6,0,3.9,0,1.11,0,1.55-.52,1.52-1.61s.07-2.39,0-3.58S-83,28.86-82,28.85s1.73.35,1.65,1.6,0,2.49,0,3.74c0,1,.44,1.38,1.36,1.37,1.3,0,2.6,0,3.9,0,1.1,0,1.57-.51,1.54-1.59,0-1.35,0-2.71,0-4.07-.05-1.09.43-1.47,1.44-1.41a4.32,4.32,0,0,0,1.13,0A15.87,15.87,0,0,0-69.43,28a7,7,0,0,0-.64-1.4c-1.66-2.2-3.36-4.37-5-6.56Zm70.11,12.13A12.36,12.36,0,0,0-24.21,10.88,12.45,12.45,0,0,0-36.47,23.16,12.36,12.36,0,0,0-24.23,35.6,12.28,12.28,0,0,0-11.88,23.27ZM-76.25-92.63c-1.27,1.3-1.24,3.35-1.18,5.81-3.21-4.12-2.94-8.24-1.94-12.7-5,3.63-9,7.57-8.5,14.2l-.39.06-2.06-3.69a15,15,0,0,0,.16,20.36,4.11,4.11,0,0,0,0-.85,8.9,8.9,0,0,1,2.27-8.27A86.42,86.42,0,0,1-81.22-84c3.3,4.44,7.78,8.65,6.49,15.44C-69-71.13-67.09-78-69.09-81.36c-1.19,2.44-1.6,2.86-3.4,3.4,2.36-3.48,2.36-6,.12-9C-73.74-88.84-75-90.77-76.25-92.63Zm6,165.21c4.76-1.57,8.55-6.76,6.18-12-.76,1.53-1.66,2.89-3.62,3.31,2.49-3,2.51-5.58.26-8.28-1.42-1.7-2.77-3.47-4.13-5.18-1,1-1,1-1.45,4.8-2.5-2-3-4.83-2-11.22-4.79,3.2-9.29,6.42-9.17,13.19l-2.3-3.49c-6,6.36-5.53,12.59.56,19.26-1.5-3.84-.1-6.82,2.47-9.37,1.95-1.93,4.08-3.68,6.24-5.6a62.19,62.19,0,0,1,4.12,4.69C-71,65.62-68.66,68.55-70.25,72.58ZM-76.4,84c0,1.52,0,3.08,0,4.65,0,.9.34,1.41,1.35,1.37,1.24-.05,2.49-.07,3.74,0s1.42-.43,1.38-1.45c-.06-1.19,0-2.39,0-3.57s.52-1.77,1.73-1.68a3.09,3.09,0,0,0,1,0,14.21,14.21,0,0,0,1.44-.53,5.6,5.6,0,0,0-.55-1.27c-3.52-4.59-7.07-9.14-10.58-13.74-.71-.94-1.25-1.1-1.95,0-.42.63-.91,1.21-1.37,1.8-.61.79-1.12.87-1.74-.07-.28-.42-.91-.61-1.39-.9A7.18,7.18,0,0,0-84,70a5.72,5.72,0,0,0,0,1.78,5.5,5.5,0,0,1-1.52,4.58C-87,78-88.29,79.8-89.63,81.56c-.81,1.06-.6,1.59.62,1.73,3.06.37,3.06.37,3.06,3.42q0,.41,0,.81C-86,90-86,90-83.5,90c3.91,0,3.91,0,3.91-4C-79.59,83.49-79.12,83.16-76.4,84Zm103.06.44c2.16.26,4,.46,5.89.72,1,.14,1.3-.3,1.37-1.26a32.45,32.45,0,0,1,.68-5,2.4,2.4,0,0,1,1.45-1.29,6.21,6.21,0,0,1,1.93.05c.54,0,1.09-.08,1.63-.12A8.34,8.34,0,0,0,39.07,76C36,70.6,32.8,65.25,29.67,59.89c-1.8-3.08-1.79-3.08-4.38-.51l-.11.12c-1.46,1.44-2,1.32-2.84-.49a1.71,1.71,0,0,0-1.07-.77c-.17,0-.62.48-.71.81-.19.67-.14,1.4-.34,2.07-.48,1.6.18,3.51-1.41,4.82-.44.36-1,1.31-.8,1.61.69,1.23.57,3.24,2.44,3.46,1.69.2,2.6.9,2.82,2.59a3.89,3.89,0,0,0,.58,1.66,2.94,2.94,0,0,0,1.4,1.22c2.24.58,2.47.88,2.09,3.23C27.09,81.19,26.91,82.67,26.66,84.41ZM-12.9-10c.17-.62.21-.72.22-.83.07-1-.23-2.36.31-3s1.89-.32,2.88-.45S-8-15-8.7-15.89c-3.84-5-7.73-10-11.59-15-.6-.78-1.14-.65-1.69.07s-1.13,1.45-1.71,2.16-1.25.81-1.51,0-.86-1.41-1.59-1a2.2,2.2,0,0,0-.77,1.8c.25,2.82-.21,5.31-2.31,7.41a23,23,0,0,0-2.61,3.31,20.91,20.91,0,0,0-1.28,2.47,15.43,15.43,0,0,0,2.75.49c1.17,0,1.53.49,1.46,1.58-.06.89,0,1.78,0,2.68l6.76-1.43c.13-2.38.15-2.27,1.3-2.46,2.65-.45,1.93,1.55,2.12,3.12ZM-48,30.41c-1.47.22-2.58.42-3.7.54-3.16.36-5.82-.94-6.62-3.46a4.12,4.12,0,0,1,.24-2.86c.54-1,1.71-.9,2.76-.54a5.45,5.45,0,0,0,1.71.4A1.57,1.57,0,0,0-52.4,24a1.48,1.48,0,0,0-.26-1.27,4.26,4.26,0,0,0-4-1.65,3.23,3.23,0,0,0-3.15,2.79,42.64,42.64,0,0,0,0,5.06c-1.82-1.65-2.18-3.86-2.5-6-.61-4.07-.41-8,3.23-11.26A8.68,8.68,0,0,0-61,10.9a3.34,3.34,0,0,0-4,3.53,37.31,37.31,0,0,0,.45,6.3c.34,2.16,1,4.28,1.54,6.61a16.89,16.89,0,0,1-5.28-8.18c-.82-2.89-1.37-5.86-2-8.81a14.24,14.24,0,0,0-4.39-8.28C-76,.87-77.63,0-79.55.79c-1.39.56-1.55,1.41-.49,2.42.55.52,1.18.94,1.75,1.43,3.64,3.11,5.38,7.37,7,11.68,1.88,5,3.53,10.09,6.67,14.49,1.47,2.06,3.13,3.87,5.87,4.19C-54.4,35.5-51.32,33.14-48,30.41ZM-132.35-33l.76.35c2.56,1.16,4.19.71,5.83-1.57a1.87,1.87,0,0,1,.87-.52c1.82-.66,2.77-3.17,1.49-4.63a4.32,4.32,0,0,1-1-3.05,3.63,3.63,0,0,0-3.84-3.72,6.92,6.92,0,0,1-2.29-.51c-2.57-1-4.68-.2-5.76,2.37-3-.61-5.14,1.06-5.4,4.14a2.52,2.52,0,0,1-.68,1.31,3.32,3.32,0,0,0-1,3.52,2.54,2.54,0,0,0,2.69,1.87,2.56,2.56,0,0,1,1.16.48C-137.07-31.53-134.7-31.25-132.35-33ZM-7.18-52.66H-49.82V-57l-2.06-.68-1.83,1.08v3.91l-2.47.15v2.7h49Zm18.5,71.14L6.7,22.37,12.55,21l-1.32,4.15,3.65-2.45,1,3.2,1.84-2.8L20.94,28l-.53-5.83L23.8,23,22.27,20l5.63.33,0-.24-4.89-2.73,3-2.24-3.68-.51,3.27-4.47-.19-.16-4.85,2.45L20.4,9l-2.46,2.31L16.16,6.21h-.29l-.68,5.39L11.76,9.75l1,3.43L7.69,11.78l-.17.28,3.84,3.55L8.3,16.92ZM6.71-47.32c-1.09,1.53-2.13,2.86-3,4.29a1.71,1.71,0,0,0,.12,1.6c3.53,3.86,7.13,7.66,10.8,11.57L16.52-33l7.35,9.29a81.28,81.28,0,0,0-3.19-8l-3.47-7.82L14.55-35.6c-1.37-2.07-2.62-4-3.88-5.84S8.08-45.29,6.71-47.32ZM34.8,15.84l-.55.29c.41.78.63,1.8,1.27,2.29A4,4,0,0,1,37,23a16.92,16.92,0,0,0-.23,2l-.55.12-1.86-5.72-.58.15c.39,2,.28,4.25,1.29,5.81,1.63,2.53,1.5,5,1.38,7.68l-1.5.33c.68.9,1.16,2.14,1.75,2.19,2.42.23,4.87.1,7.31.1l.18-.58c-1.11-.66-2.23-1.3-3.32-2-.22-.14-.31-.51-.44-.77-.84-1.68.63-2.52,1.31-3.65a12.9,12.9,0,0,0,.58-1.23l-.38-.18-2,1.43a3.44,3.44,0,0,1,1.46-4.23,11.35,11.35,0,0,0,2.12-2.73l-.35-.26-3.31,2.82C38.81,21.33,42.24,20,42,17.2l-2.32,2.7c-1.17-2.39-.53-4.53.56-6.64l-1.57,1.48-1-6.94h-.26v5.73L37,13.7,33.19,8.75a9.82,9.82,0,0,0,1.27,3.42c.55.92,1.45,1.63,2,2.57a14.2,14.2,0,0,1,.88,2.76l-.47.16ZM31.5,86c-3.67-1.08-21.8-1.75-24.84-1v4.78c6.54-.14,13,.57,19.38-1.28l.14-1.31ZM15.63,68.69c-1,1.12-1.79,2-2.53,2.91-.62.76-1.17,1.59-1.74,2.38,1,.23,1.91.53,2.88.68,1.31.21,1.88.79,1.63,2.19A42.84,42.84,0,0,0,15.25,82a1.5,1.5,0,0,0,.93,1.1,20.35,20.35,0,0,0,3.2.38c2.94.23,2.88.21,3.15-2.81a44.86,44.86,0,0,1,.87-4.55,5.89,5.89,0,0,0-1.24-2.52,2,2,0,0,0-1.41-.79,3.69,3.69,0,0,1-4.07-2.46A15.44,15.44,0,0,0,15.63,68.69ZM-111.45,54.4c2.71-2.28,2.07-5.19-1.59-6.32-4.93-1.53-9.63-.61-14,1.92a9.2,9.2,0,0,0-2.63,2.57,2.36,2.36,0,0,0,.27,3.29,13.12,13.12,0,0,1,1.84-2.1A14.37,14.37,0,0,1-117.5,51C-115.11,51.22-112.61,51.66-111.45,54.4Zm38.31-40.6c-2.22-4.65-4.92-9-9.6-11.6a9.43,9.43,0,0,0-8.84-.66c-.6.27-1,1-1.47,1.51a12,12,0,0,0,1.7,1c3.42,1.26,7,2.14,10.22,3.82C-78.24,9.36-75.79,11.77-73.14,13.8ZM30.79,89.65H48.48V84.49c-2.25,0-4.4,0-6.56,0-1.35,0-2.65,0-2.88,1.78a.77.77,0,0,1-.6.43C35.54,86.6,33.42,88.66,30.79,89.65Zm-14.52-50c4.37,2.08,7.69-.45,11.2-2.08.05,0,0-.17.08-.32-.73-.59-1.5-1.18-2.22-1.82a9.5,9.5,0,0,0-7-2.3c-.43,0-1.14.38-1.2.68C16.76,35.82,16.53,37.84,16.27,39.67Zm18.3,2.92c.75,1.36,1.41,2.66,2.16,3.9.22.36.67.8,1,.81,3.13.06,6.25,0,9.33,0,.42-1.55,0-2.49-1.31-3.17-1.58-.8-3-1.92-4.59-2.71A4.13,4.13,0,0,0,38.63,41,28.83,28.83,0,0,0,34.57,42.59ZM11.21,47.23H23.74c-1.5-4.81-3.88-6.49-7.83-5.61C14.47,42,11.13,45.83,11.21,47.23Zm3.64-8.49C11.63,37.28,9.56,34.17,6,36.21c-.55.31-1.59.61-1.59.92,0,1.21-.66,2.62.66,3.62s2.38,1.86,3.82,3ZM-127.82,58.58c1.61-2.83,4.34-3.38,7.07-3.72a11.87,11.87,0,0,1,8,1.75c.93-1.9.55-3-1.22-3.95-3.58-1.86-10.63-.84-13.56,2C-128.8,55.85-128.92,57.06-127.82,58.58ZM.32-8.85l0-.24C-.95-9.37-2.2-9.6-3.42-10a16,16,0,0,0-8.45-.18,10.83,10.83,0,0,1-5.23.24,19.55,19.55,0,0,0-11.6.33,12,12,0,0,1-7.62,0,6.8,6.8,0,0,0-.77-.24c-.25-.05-.52,0-1.11-.09,3.46,2.09,6.7,2.73,10.32,1.43a12.72,12.72,0,0,1,9.63.13,8.36,8.36,0,0,0,6.77-.06,14.14,14.14,0,0,1,8.71-.46A15.53,15.53,0,0,0,.32-8.85ZM33.57,47.34c0-.23.07-.29.05-.32l-3.46-5.07c-1.42-2.08-2.77-2.57-5.16-1.87-1,.29-1.76,1.59-1.35,2.33,1.72,3.12,3.54,6.07,7.94,4.95A8.48,8.48,0,0,1,33.57,47.34Zm-100.52-18a9.17,9.17,0,0,0,12.69,8.39,14.21,14.21,0,0,0,7.09-6.17,71.91,71.91,0,0,1-6.75,3.61,8.82,8.82,0,0,1-10.44-2.33C-65.3,31.74-66.07,30.52-66.94,29.33Zm-45.67,30.35.55-.3a8.86,8.86,0,0,0-1.51-2.32c-2.85-2.27-9.79-2-12.51.48a3,3,0,0,0-.93,2.23c.09.71.93,1.32,1.57,2.14C-123.77,57.91-120.14,57.39-112.61,59.68Zm63-118.05,6-9.08-2.22-2.09-6.92,9.08Zm-87.09-2.52a17.45,17.45,0,0,0,.94,1.82c.43.64.86,1.55,1.47,1.74,1.36.42,1.83,1,1,2.49,2-1.35,2-2.28.18-3.29a3.46,3.46,0,0,1-1.85-4.3,18.2,18.2,0,0,0,.18-3.06l-1.73-.23-.63-1.79-.4,0c0,.53,0,1.07,0,1.6a10.61,10.61,0,0,1-.27,2.85c-.14.42-1.15.47-1.58.87a4,4,0,0,0-1.21,1.76c-.36,1.38-.55,2.78-2.81,2.25,2.14,1.59,2.83,1.51,3.54-.44C-139.3-60.06-138.58-61.06-136.66-60.89ZM-6-7.53l-.15-.4c-1.67.36-3.37.59-5,1.1a10.43,10.43,0,0,1-7.25,0,11.45,11.45,0,0,0-7-.53c-3.07.76-6.14,1.67-9.33.46A7.86,7.86,0,0,0-29-5.68a25.58,25.58,0,0,1,10.9.56,8.32,8.32,0,0,0,4.12,0C-11.27-5.73-8.65-6.69-6-7.53ZM-110.91,63a9.9,9.9,0,0,0-1.2-1.79c-2.27-2.19-8-2.91-10.83-1.43-1.93,1-2,2.5-.21,4C-121,60.53-116.43,60.34-110.91,63Zm-9.31,5.85c2.67-1,5-1.09,7.25.29a1,1,0,0,0,1.63-1.1,3,3,0,0,0-1.22-1.74,8.18,8.18,0,0,0-6.67-1A2.73,2.73,0,0,0-121,66.77C-121.14,67.33-120.51,68.13-120.23,68.83Zm9.16-2.35c.81-1.16.13-1.89-.52-2.51-2-1.91-6.8-2.61-9.32-1.42-1.71.8-1.9,1.76-.66,3.24C-118.57,63.54-114.53,63.79-111.06,66.48ZM-84.17-48.09v8.95h2.6v-8.95ZM29.61,38.78c3.64,2.72,7,2.51,10.33-.39C38.65,36.48,33.56,36.63,29.61,38.78Zm17.64,4.45c0-1.34,0-2.66,0-4a3.28,3.28,0,0,0,0-1,1.49,1.49,0,0,0-.55-.82,3.7,3.7,0,0,0-5.44,1.94l5.59,3.79C46.88,43.23,47,43.21,47.24,43.23ZM34.06,35.46c-1.31-2.81-.37-2.26-3.62-2.32-1.65,0-3.3,0-4.86,0C27.69,36.25,30.16,38.44,34.06,35.46Zm-118.25-28a12.18,12.18,0,0,0-6.33-2,10,10,0,0,0-4.23,1.24c-.64.3-.95,1.28-1.41,2,2.35-.24,4.3-.89,6.3-1.12A46.52,46.52,0,0,1-84.18,7.46ZM-27.37,67c.49.81,1.31,1.55,1.24,2.18-.29,2.4,1.4,2.34,2.86,2.75l1.4-2.33-2.91-3.77ZM-9.62-4.69c-1.25.28-2.51.53-3.76.86a12,12,0,0,1-6.05,0,19.76,19.76,0,0,0-5.77-.47c-2.32.14-4.61.67-6.8,1,1.12.07,2.44.2,3.76.22,2.42,0,5-.5,7.23.14C-16.84-1.78-13.27-3.14-9.62-4.69ZM-135.1,8.16c.74,1.3,0,3.29,2.46,3.41,1.68.08,2-.83,2.5-2,.82-1.78-.84-2.07-1.6-2.6C-133.18,6-133.84,7.87-135.1,8.16ZM-119.31,7c-.52,1.25-2.9,1.2-2,3.05.37.78.26,2.19,1.78,2.08s2.79-.52,2.91-2.61S-118.65,8.15-119.31,7Zm7.81-1.4c2.72-2.11,2.78-2.14,1.69-4.31-.93-1.84-2.37-.07-3.55-.59l-.84,3.17ZM-139.42,20.3c2,.05,2.9-.79,3-2.86,0-.61-2.06-2.43-2.64-2.09a7.76,7.76,0,0,0-2.38,2.27C-141.76,18.12-140,20.29-139.42,20.3Zm26.61-5.18c-3.1,1.56-3.1,1.56-1.89,4.76,3.31.28,3.31.28,4.23-2.87ZM17.38-24.5v-.34l-7-.47.29,1.55H3.11l0,.09,10.13,1.8-.56-2.37ZM-10.15,36.77c-.89.54-1.76.78-1.92,1.25a2.2,2.2,0,0,0,.42,2,9.78,9.78,0,0,0,3.31,1.72,2.15,2.15,0,0,0,1.8-.93,2,2,0,0,0-.35-1.85A25.28,25.28,0,0,0-10.15,36.77Zm-5.76,3.07c1.59,0,3.1-1,3.13-2s-1.32-1.94-2.91-2.1l-.16,0c-1.74-.08-3.34,1-3.31,2.14S-17.66,39.87-15.91,39.84Zm4.55-3.39A17.58,17.58,0,0,0-8.1,34.72c1.19-1,.82-2.57-.7-2.77a6.53,6.53,0,0,0-3.6.76,2.53,2.53,0,0,0-1.07,2.19C-13.32,35.52-12.18,35.89-11.36,36.45ZM24-38.37v6.83h.3l1.13-9.3L23-40l-.55-5.87-.2,0v8.1ZM-116.5,68.6a10.38,10.38,0,0,0-2.47.64c-.38.21-.48.91-.71,1.39a8.67,8.67,0,0,0,1.38.44c1.34.2,2.69.37,4,.47a6.65,6.65,0,0,0,1.54-.24c-.19-.5-.25-1.26-.6-1.45A25.67,25.67,0,0,0-116.5,68.6ZM49.29-68.32a2,2,0,0,0-2-2.09,1.91,1.91,0,0,0-2,1.93,1.9,1.9,0,0,0,1.9,2.16A2,2,0,0,0,49.29-68.32ZM-12.45,72.11a1.77,1.77,0,0,0,1.9-1.93,1.94,1.94,0,0,0-1.92-2,2,2,0,0,0-2.08,2A1.88,1.88,0,0,0-12.45,72.11Zm27-35.16.66-.32c-.33-1.12-.35-2.84-1.07-3.22-1.05-.55-2.61-.14-4-.14l-.11.42ZM4.42,43.32v4H8.27C7.67,45.27,5.73,44.81,4.42,43.32ZM-28.7-88.5l7,1.89C-22.93-89.06-25.17-89.58-28.7-88.5Zm-3.9-3.42,6.41,1.74C-27.32-92.6-29.43-93.13-32.6-91.92Zm-81,165.24a4.36,4.36,0,0,0-4.74-1.49c-.29.13-.66.5-.67.76a1,1,0,0,0,.66.75,33.29,33.29,0,0,0,3.75.6C-114.33,74-114,73.58-113.61,73.32ZM-23-84.43l7,1.91C-17.47-85-18.92-85.34-23-84.43ZM-90.47,9c-4-.34-6.76,1.26-5.92,3.47ZM8.7,33.19H3.84c.56.8.82,1.63,1.26,1.74C6.43,35.24,8.65,34.08,8.7,33.19ZM-9.54-35.67c1.12-1.14.83-4.3-.51-5.76C-9.78-39.49-11.27-37.47-9.54-35.67Zm-27.7,16.95c0,1.91-1.35,3.95.5,6C-35.51-15-36.83-16.84-37.24-18.72ZM-18-37.36l-.66,0c0,1.55,0,3.1,0,4.64,0,.3.5.58.76.87.2-.32.61-.67.57-1C-17.43-34.31-17.72-35.83-18-37.36Zm-15.37,8.95c-.06,1.94-1.35,4,.56,6.07C-31.69-24.73-33-26.54-33.34-28.41ZM-138.08-71l-.62,0c-.32.57-1,1.21-.86,1.71s.89.92,1.38,1.37c.4-.49,1.11-1,1.11-1.47S-137.72-70.49-138.08-71ZM-7.6-25l-.78-5.79C-9.64-27.81-9.44-25.86-7.6-25Zm-32.2-4.36.58-.12L-40-35.06C-41.25-32.24-41.11-30.29-39.8-29.37Zm11-4.32-.86-6.06C-30.86-36.32-30.62-34.16-28.76-33.69ZM11,70a6.71,6.71,0,0,0-1.75.29,2.34,2.34,0,0,0-1,1.06c-.08.16.24.75.45.8a2.69,2.69,0,0,0,1.4-.09,10.33,10.33,0,0,0,1.54-.81Zm32.35,5.61c-.2,2,1.24,1.47,2.14,1.35.42-.05,1.15-1,1.05-1.17C45.58,73.8,44.43,75.72,43.32,75.58ZM-140.49,8.1v7.32h.56C-139.14,13-140.33,10.52-140.49,8.1ZM-121,0V7.29h.55C-119.57,4.89-120.75,2.48-121,0Zm-14.91-66.13c1.95-1.14,2.2.52,3.09,1.51.15-.75.26-1.76-.12-2a16.49,16.49,0,0,0-3.34-1.34ZM-22.69,62.63v2.5c1.18.55,2.2.79,2.53-1.1Zm-107-54.85V.66a16.9,16.9,0,0,0-.49,3.68C-130.13,5.46-131.34,6.82-129.65,7.78Zm19,8.49h.49V9.57C-110.35,11.8-111.52,14-110.7,16.27Zm-3.88-13.5c1.26-2.78,0-5-.33-7.35Zm-.59,72.65.08-.57c-1.34-1.07-2.17-1.13-3.68.12ZM-23.24,61V58.34l-2.22,1.44Z"/><path d="M11.32,18.48l-3-1.56,3.07-1.3L7.52,12.07l.17-.28,5.07,1.39-1-3.43,3.43,1.86.68-5.39h.29l1.78,5.08L20.4,9l.23,3.4,4.85-2.45.19.16-3.27,4.47,3.68.51-3,2.24L27.95,20l0,.24L22.27,20,23.8,23l-3.38-.84L20.94,28,17.7,23.12l-1.84,2.8-1-3.2-3.65,2.45L12.55,21,6.7,22.37Zm9.9-1.26a4,4,0,0,0-3.91-4.06,4.13,4.13,0,0,0-3.92,3.95,3.86,3.86,0,0,0,3.8,4A3.79,3.79,0,0,0,21.22,17.22Z"/><path d="M34.8,15.84l2,1.82.47-.16a14.2,14.2,0,0,0-.88-2.76c-.52-.93-1.41-1.65-2-2.57a9.82,9.82,0,0,1-1.27-3.42L37,13.7l.37-.16V7.81h.26l1,6.94,1.57-1.48c-1.09,2.11-1.73,4.25-.56,6.64L42,17.2c.27,2.82-3.16,4.13-2.09,7.05l3.31-2.82.35.26a11.35,11.35,0,0,1-2.12,2.73A3.44,3.44,0,0,0,40,28.66l2-1.43.38.18a12.9,12.9,0,0,1-.58,1.23c-.68,1.13-2.16,2-1.31,3.65.14.27.22.63.44.77,1.09.7,2.21,1.33,3.32,2l-.18.58c-2.44,0-4.89.13-7.31-.1-.59-.06-1.07-1.29-1.75-2.19l1.5-.33c.12-2.64.25-5.15-1.38-7.68-1-1.56-.9-3.85-1.29-5.81l.58-.15L36.2,25.1l.55-.12A16.92,16.92,0,0,1,37,23a4,4,0,0,0-1.47-4.57c-.63-.49-.86-1.51-1.27-2.29Z"/><path d="M16.27,39.67c.25-1.83.49-3.85.87-5.85.06-.3.78-.66,1.2-.68a9.5,9.5,0,0,1,7,2.3c.72.64,1.5,1.23,2.22,1.82,0,.15,0,.3-.08.32C24,39.22,20.64,41.75,16.27,39.67Z"/><path d="M34.57,42.59A28.83,28.83,0,0,1,38.63,41a4.13,4.13,0,0,1,2.57.42c1.58.8,3,1.91,4.59,2.71,1.36.68,1.73,1.63,1.31,3.17-3.07,0-6.2,0-9.33,0-.36,0-.81-.45-1-.81C36,45.24,35.32,44,34.57,42.59Z"/><path d="M11.21,47.23c-.08-1.4,3.26-5.28,4.69-5.61,3.95-.89,6.33.79,7.83,5.61Z"/><path d="M14.85,38.75l-6,5c-1.45-1.14-2.62-2.09-3.82-3s-.66-2.4-.66-3.62c0-.31,1-.61,1.59-.92C9.56,34.17,11.63,37.28,14.85,38.75Z"/><path d="M33.57,47.34a8.48,8.48,0,0,0-2,0c-4.39,1.12-6.22-1.83-7.94-4.95-.41-.74.37-2,1.35-2.33,2.39-.7,3.74-.21,5.16,1.87L33.62,47S33.61,47.11,33.57,47.34Z"/><path d="M29.61,38.78c4-2.15,9-2.3,10.33-.39C36.63,41.3,33.25,41.5,29.61,38.78Z"/><path d="M47.24,43.23c-.24,0-.36,0-.43,0l-5.59-3.79a3.7,3.7,0,0,1,5.44-1.94,1.49,1.49,0,0,1,.55.82,3.28,3.28,0,0,1,0,1C47.24,40.57,47.24,41.89,47.24,43.23Z"/><path d="M34.06,35.46c-3.91,3-6.37.8-8.48-2.33,1.56,0,3.21,0,4.86,0C33.69,33.2,32.75,32.65,34.06,35.46Z"/><path d="M14.56,36.95,10.08,33.7l.11-.42c1.34,0,2.9-.41,4,.14.72.38.74,2.1,1.07,3.22Z"/><path d="M4.42,43.32c1.32,1.49,3.25,2,3.85,4H4.42Z"/><path d="M8.7,33.19c-.05.89-2.27,2.05-3.59,1.74-.44-.11-.71-.94-1.26-1.74Z"/><path class="cls-4" d="M21.22,17.22a3.79,3.79,0,0,1-4,3.87,3.86,3.86,0,0,1-3.8-4,4.13,4.13,0,0,1,3.92-3.95A4,4,0,0,1,21.22,17.22Z"/></g><rect class="cls-1" x="3.97" y="4.04" width="42.75" height="42.75" rx="8.64" ry="8.64"/></g></svg>