<svg xmlns="http://www.w3.org/2000/svg" viewBox="0 0 49.69 48.98"><defs><style>.cls-1{opacity:0.66;}.cls-2{fill:none;stroke:#231f20;stroke-miterlimit:10;}.cls-3{fill:#231f20;}.cls-4{fill:#fff;}</style></defs><title>EARTHQUAKE</title><g id="Layer_7" data-name="Layer 7"><rect class="cls-2" x="4.78" y="2.91" width="42.75" height="42.75" rx="8.64" ry="8.64"/><polygon class="cls-3" points="4.78 27.48 18.32 25.19 17.97 28.03 20.68 29.06 17.7 32 20.68 35.26 19.01 39.7 20.68 41.37 21.1 42.9 21.1 45.66 13.42 45.66 11.13 45.35 7.86 43.62 5.86 41.2 5.17 39.6 4.78 35.9 4.78 27.48"/><polygon class="cls-3" points="47.53 26.88 36.61 26.88 37.48 17.8 40 18.15 31.67 8.09 21.45 16.02 23.92 16.37 23.17 25.44 21.1 25.44 23.34 28.6 18.92 32.05 22.2 35.04 19.9 39.52 21.74 41.81 21.38 43.13 21.1 45.66 38.89 45.66 41.97 45.09 44.67 43.43 46.09 41.79 47.14 39.58 47.66 35.96 47.53 26.88"/><rect class="cls-4" x="26.8" y="19.94" width="1.37" height="1.1" transform="translate(1.85 -2.27) rotate(4.9)"/><rect class="cls-4" x="26.63" y="21.99" width="1.37" height="1.1" transform="translate(2.03 -2.25) rotate(4.9)"/><rect class="cls-4" x="29.33" y="20.19" width="1.37" height="1.1" transform="translate(1.88 -2.49) rotate(4.9)"/><rect class="cls-4" x="29.15" y="22.24" width="1.37" height="1.1" transform="translate(2.06 -2.47) rotate(4.9)"/><rect class="cls-4" x="31.87" y="20.41" width="1.37" height="1.1" transform="translate(1.91 -2.71) rotate(4.9)"/><rect class="cls-4" x="31.7" y="22.46" width="1.37" height="1.1" transform="translate(2.09 -2.68) rotate(4.9)"/></g></svg>