<svg xmlns="http://www.w3.org/2000/svg" viewBox="0 0 60.88 64.05"><defs><style>.cls-1{opacity:0.66;}.cls-2,.cls-6{fill:none;stroke-miterlimit:10;}.cls-2{stroke:#6d6e71;stroke-width:0.25px;}.cls-3,.cls-5{fill:#231f20;}.cls-4{fill:#fff;}.cls-5{font-size:12px;font-family:Helvetica, Helvetica;}.cls-6{stroke:#231f20;}</style></defs><title>EPIDEMIC</title><g id="Layer_2" data-name="Layer 2"><rect class="cls-2" x="-205.27" y="-162.54" width="232.78" height="162.54" rx="11.97" ry="11.97"/></g><g id="Layer_7" data-name="Layer 7"><path class="cls-3" d="M48.76,40.32A8.49,8.49,0,1,1,40.18,32,8.44,8.44,0,0,1,48.76,40.32Zm-9.95,9.31a10.17,10.17,0,1,0-10-10.17A10.1,10.1,0,0,0,38.81,49.64Z"/><path class="cls-4" d="M45.64,46.53l.2.51A15.92,15.92,0,0,0,48,45.46c0-.22.95-3.7.95-3.7l-.13-.64-.93.53L47,44.29Z"/><path class="cls-3" d="M20.21,32a8.38,8.38,0,1,1-8.58,8.29A8.44,8.44,0,0,1,20.21,32Zm11.41,7.44a10,10,0,1,0-10,10.17A10.1,10.1,0,0,0,31.62,39.47Z"/><path class="cls-4" d="M14.75,46.53l-.2.51a15.92,15.92,0,0,1-2.18-1.59c0-.22-.95-3.7-.95-3.7l.13-.64.93.53.95,2.64Z"/><path class="cls-3" d="M36.61,26a7.54,7.54,0,1,1-2.79-10.37A7.59,7.59,0,0,1,36.61,26ZM25.78,31.74a9,9,0,1,0-3.63-12.34A9.09,9.09,0,0,0,25.78,31.74Z"/><path class="cls-4" d="M27.57,15.38,27.26,15a14.33,14.33,0,0,1,2.2-1c.19.06,3.33.87,3.33.87l.45.38-.82.5-2.49-.41Z"/><path d="M30,44.93A10.49,10.49,0,1,1,40.5,34.44,10.49,10.49,0,0,1,30,44.93Zm7.87-10.49A7.87,7.87,0,1,0,30,42.31,7.87,7.87,0,0,0,37.87,34.44Z"/><circle class="cls-4" cx="30.05" cy="33.72" r="1.42"/><text class="cls-5" transform="translate(13.08 -5.27)">Epidemics</text><rect class="cls-6" x="8.68" y="11.34" width="42.75" height="42.75" rx="8.64" ry="8.64"/></g></svg>
