<svg xmlns="http://www.w3.org/2000/svg" viewBox="0 0 49.69 48.98"><defs><style>.cls-1{opacity:0.66;}.cls-2{fill:none;stroke:#231f20;stroke-miterlimit:10;}.cls-3{fill:#231f20;}</style></defs><title>FIRE</title><g id="Layer_7" data-name="Layer 7"><rect class="cls-2" x="1.77" y="3.27" width="42.75" height="42.75" rx="8.64" ry="8.64"/><polygon class="cls-3" points="1.72 34.01 44.44 34.01 44.52 37.39 44 39.87 43.11 42.16 41.53 44.19 39.23 45.51 35.88 46.03 18.15 46.13 9.68 46.04 6.24 44.98 3.77 42.95 2.66 41.17 1.72 38.54 1.72 34.01"/><path class="cls-3" d="M10.39,34.58a3.61,3.61,0,0,0,2.25-4.94,6.33,6.33,0,0,1-.66-5s.93-.14,1.26,1.88c0,0,.82,3.5,1.42.93,0,0,.27-.77.82-.93,0,0,.88-.88,0-2.68,0,0-.6-2.67,1.1.8,0,0,1.86,3.63-1.2,6.1,0,0,.38,2,2.35-.49a3.75,3.75,0,0,1-.64,2.07s-.81.58.16,1.68Z"/><path class="cls-3" d="M9.94,35.51s1.68-3.06-1.06-7a1.37,1.37,0,0,1,2.13.26S8.12,25.89,9.1,24.38c0,0,.93,1.43,1.91.85,0,0,.8-2.93,0-3.86,0,0,.93.07,1.46,1.5,0,0-1.15-3.72,1.06-4.25,0,0-1.33,2.81,1.33,3.8a2.23,2.23,0,0,0,1-2.82s.89-.35,1.51,3.5c0,0,1.51.44,1.51-1.46a5.07,5.07,0,0,1-.44,5.1s-1.46,2.53.75,1.68c0,0,.18,0-.44,2,0,0-.62,1.11-.13,1.86,0,0,.4.22-.49,1.77h1.64a6.4,6.4,0,0,0,1.64-4.37c0-2.77-1.15-2.6.58-3.57,0,0-.75-.53-1.33,0,0,0-.93-1,.75-3.61a6.52,6.52,0,0,0-2.62-6.77s1.42,2.57-.18,3.15c0,0-1.86-.18-2.22-6.21,0,0-1.37,2.75-1,4.88,0,0-3-.49-.51-5.81,0,0-3.77.94-3.1,6.07,0,0-1.37.68-1.82-3,0,0-1.84,1.9-.71,6.25,0,0-1.24,1.24-1.55-1.91,0,0-3.18,3.54.93,7.23,0,0-1.55-1.06-2.62-.58,0,0,2.39.71,1.91,4.48,0,0-.8,2.62.89,4.34Z"/><path class="cls-3" d="M35,18.72s-2,4.18-4.43,0c0,0-2.15-3.61,2.21-3.29,0,0-.63-5.44,2.66-2.15,0,0,1.08-3.23,4.56-.7,0,0,1.58,2,2.72-.25,0,0,1.49-1.4,1.82-.41V24s-1,2.78-4.22,0A2.61,2.61,0,0,1,40.77,20S37.71,21.63,38,17.83C38,17.83,36.82,21.19,35,18.72Z"/><path class="cls-3" d="M27.5,15.59A21.64,21.64,0,0,1,28.14,19l0-.15c.23.46.45.92.65,1.39s.34,1,.51,1.45.32,1,.51,1.45.41.93.65,1.39v.05c.2,1.12.49,2.23.65,3.36s.36,2.25.45,3.38l-.06-.19a34.78,34.78,0,0,1,2,4.74l-.09,0a34.78,34.78,0,0,1-2.83-4.29l0-.07,0-.12c-.16-1.13-.22-2.26-.31-3.4s-.05-2.28-.11-3.42l0,.05c-.18-.48-.4-.94-.62-1.4s-.5-.9-.76-1.34-.54-.88-.76-1.33-.43-.93-.63-1.4l0-.08v-.06a21.64,21.64,0,0,1,.11-3.52Z"/><path class="cls-3" d="M23.52,24.35a4.12,4.12,0,0,1,1.79,0c.57.1,1.06.59,1.63.69h0l0,0a6,6,0,0,0,1.11.71,12,12,0,0,1,1.05.77,6.31,6.31,0,0,1,.89.95,5.36,5.36,0,0,1,.69,1.16l-.07.07a5.36,5.36,0,0,1-1.21-.6,6.31,6.31,0,0,1-1-.81,12,12,0,0,1-.85-1,6,6,0,0,0-.8-1l.07,0c-.56-.16-1.21.06-1.77-.11a4.12,4.12,0,0,1-1.61-.79Z"/><path class="cls-3" d="M26.24,22.66a1.94,1.94,0,0,1,.82,1.15,1.92,1.92,0,0,1-.15,1.4,1.92,1.92,0,0,1-.82-1.15A1.94,1.94,0,0,1,26.24,22.66Z"/><path class="cls-3" d="M24.09,20.38a6,6,0,0,1,2.57.22A6,6,0,0,1,29,21.78a6,6,0,0,1-2.57-.22A6,6,0,0,1,24.09,20.38Z"/><path class="cls-3" d="M25.17,18.05a2.07,2.07,0,0,1,1.46.05,2,2,0,0,1,1.09,1A2,2,0,0,1,26.25,19,2.07,2.07,0,0,1,25.17,18.05Z"/><path class="cls-3" d="M30.27,24.65A6.85,6.85,0,0,1,31,22a6.77,6.77,0,0,1,1.59-2.24,6.77,6.77,0,0,1-.69,2.66A6.85,6.85,0,0,1,30.27,24.65Z"/><path class="cls-3" d="M30.75,27.94a5.73,5.73,0,0,1,2,.83l.08,0,.06.09c.38.56.45,1.32.85,1.88a6.53,6.53,0,0,0,1.35,1.56l0,0,0,.25A7.58,7.58,0,0,1,35,34.7a8.11,8.11,0,0,1-.67,2h-.1A8.11,8.11,0,0,1,34,34.59a7.58,7.58,0,0,1,.27-2.05l.07.29a6.53,6.53,0,0,0-.84-1.88c-.34-.59-1-1-1.35-1.56l.14.14A5.73,5.73,0,0,1,30.7,28Z"/><path class="cls-3" d="M40,35.52A13.6,13.6,0,0,1,39.53,33c0-.43-.08-.85-.08-1.28a12.37,12.37,0,0,1,.08-1.28v.08a10.47,10.47,0,0,0-.6-2.36c-.29-.76-.68-1.48-1-2.24l0,0v-.1a31.15,31.15,0,0,1,.1-3.6c.06-.6.14-1.2.24-1.79a17.19,17.19,0,0,1,.39-1.79h.1A17.19,17.19,0,0,1,39,20.38c0,.6.06,1.21.06,1.81a31.15,31.15,0,0,1-.26,3.6l0-.15c.19.79.3,1.61.49,2.39a10.47,10.47,0,0,0,.87,2.27h0v.08a12.35,12.35,0,0,1,.19,1.27c0,.43,0,.85,0,1.28a13.6,13.6,0,0,1-.25,2.57Z"/><path class="cls-3" d="M33.71,19.08a8.33,8.33,0,0,1,2.7,1.39,8.23,8.23,0,0,1,2.1,2.19,8.23,8.23,0,0,1-2.7-1.39A8.33,8.33,0,0,1,33.71,19.08Z"/><path class="cls-3" d="M41.27,23.59a4.16,4.16,0,0,1-.9,1.92,4.11,4.11,0,0,1-1.68,1.3,4.11,4.11,0,0,1,.9-1.92A4.16,4.16,0,0,1,41.27,23.59Z"/><path class="cls-3" d="M32.77,23.55a7.5,7.5,0,0,1,1.84,1.34,4.38,4.38,0,0,1,.73.86c.21.32.4.65.64.94l.05.06v.05a5.42,5.42,0,0,0,.08,1.46,13.35,13.35,0,0,1,.21,1.46v.11a13.26,13.26,0,0,1-.52,2.34,10.93,10.93,0,0,1-1,2.22l-.1,0a10.93,10.93,0,0,1,.13-2.43,13.26,13.26,0,0,1,.6-2.32v.11a13.37,13.37,0,0,1,.21-1.46,5.42,5.42,0,0,0,.08-1.46l0,.12c-.28-.25-.61-.45-.92-.67a4.38,4.38,0,0,1-.84-.75,7.5,7.5,0,0,1-1.28-1.88Z"/><path class="cls-3" d="M35.81,26.8a1.66,1.66,0,0,1-.2-.67,1.76,1.76,0,0,1,.06-.62A3.24,3.24,0,0,1,36,25a1,1,0,0,0,.13-.6l0,.17a6.67,6.67,0,0,1-.66-.39,4.07,4.07,0,0,1-.54-.49,2.57,2.57,0,0,1-.57-1.42l.08-.06a2.57,2.57,0,0,1,1.31.79,4.07,4.07,0,0,1,.4.61,6.67,6.67,0,0,1,.28.71l.06.14,0,0a1,1,0,0,0-.12.6,3.24,3.24,0,0,1,.11.65,1.75,1.75,0,0,1-.19.59,1.66,1.66,0,0,1-.44.54Z"/><path class="cls-3" d="M35.86,30.31a2.56,2.56,0,0,1,.17-1,3.47,3.47,0,0,1,.45-.83l.15-.19.18,0a2.92,2.92,0,0,1,.76,0,2.41,2.41,0,0,1,.8.23,2.4,2.4,0,0,1-.68.48,2.92,2.92,0,0,1-.72.25L37.3,29a3.47,3.47,0,0,1-.58.75A2.56,2.56,0,0,1,35.86,30.31Z"/></g></svg>