<svg xmlns="http://www.w3.org/2000/svg" xmlns:xlink="http://www.w3.org/1999/xlink" viewBox="0 0 49.69 48.98"><defs><style>.cls-1{fill:none;stroke:#231f20;stroke-miterlimit:10;}.cls-2{opacity:0.66;}.cls-3{fill:#fff;}.cls-4{clip-path:url(#clip-path);}</style><clipPath id="clip-path"><rect class="cls-1" x="-46.52" y="4.04" width="42.75" height="42.75" rx="8.64" ry="8.64"/></clipPath></defs><title>FLOOD</title><g id="Layer_7" data-name="Layer 7"><path class="cls-3" d="M4.07,47.62q0-20.85,0-41.69H49.52q0,20.85,0,41.69Zm5-20c1.91-.61,3.51.05,5.1.84a4,4,0,0,0,1.25.34,6.31,6.31,0,0,0,3.85-.74,4.63,4.63,0,0,1,4.27-.17l.94.4a5.79,5.79,0,0,0,4.91,0,11.28,11.28,0,0,1,1.81-.67c.47-.11.59-.31.58-.77,0-2,0-4.06,0-6.09,0-1.35,0-1.35,1.38-1.35h.83l.07-.13L33.63,19c-1-.89-2-1.81-3-2.66a1.58,1.58,0,0,1-.66-1.44c.05-1,0-2,0-3s0-2.08,0-3.17c-.21,0-.38,0-.54,0-1.23,0-2.47,0-3.7,0-.48,0-.57.18-.55.6,0,.69,0,1.38,0,2.23L20.4,7.33l-13.62,12,.08.15H9ZM5.49,37.09A4.32,4.32,0,0,0,8,36.52a4.77,4.77,0,0,1,4.42-.39c.5.19,1,.43,1.46.63a6.72,6.72,0,0,0,1.18.39,6,6,0,0,0,4-.65,4.81,4.81,0,0,1,4.38-.21l1.05.44a5.6,5.6,0,0,0,4.69,0l1-.41a4.89,4.89,0,0,1,4.54.19,5.34,5.34,0,0,0,3.29.7,10.5,10.5,0,0,0,2.63-.82,5.28,5.28,0,0,1,5.32.22,4.27,4.27,0,0,0,2.37.52v-4.8a5.47,5.47,0,0,1-3.2-.94,3,3,0,0,0-.74-.28,5.44,5.44,0,0,0-4.06.66,5.7,5.7,0,0,1-5.57,0,5.18,5.18,0,0,0-4.91-.08,11.89,11.89,0,0,1-1.21.49,5.43,5.43,0,0,1-4.36-.31,5.7,5.7,0,0,0-5.59,0,5.25,5.25,0,0,1-5.14,0,8.5,8.5,0,0,0-1.31-.55,4.36,4.36,0,0,0-3.44,0,6.62,6.62,0,0,1-3.39,1Zm41.93-8.37a6.5,6.5,0,0,0,.17-1.35,1.71,1.71,0,0,0-.4-1.12,2.33,2.33,0,0,1-.78-1.62c-.11-.54-.22-1.08-.34-1.61a1.5,1.5,0,0,0-1.29-1.26l-5.56-.89a1.5,1.5,0,0,0-1.66.82c-.38.68-.76,1.36-1.18,2a1.59,1.59,0,0,1-.65.54,1.56,1.56,0,0,0-1,1.17q-.21,1.09-.35,2.19a.54.54,0,0,0,.19.45,5.77,5.77,0,0,0,5.25.41c1.52-.69,3-1.35,4.71-.91.4-.72.77-.94,1.26-.76s.67.65.42,1.6Z"/><path d="M9,27.66V19.51H6.86l-.08-.15,13.62-12,4.75,4.19c0-.85,0-1.54,0-2.23,0-.42.07-.61.55-.6,1.23,0,2.47,0,3.7,0,.17,0,.33,0,.54,0,0,1.08,0,2.12,0,3.17s0,2,0,3a1.58,1.58,0,0,0,.66,1.44c1,.85,2,1.77,3,2.66l.38.31-.07.13h-.83c-1.38,0-1.38,0-1.38,1.35,0,2,0,4.06,0,6.09,0,.46-.11.65-.58.77a11.28,11.28,0,0,0-1.81.67,5.79,5.79,0,0,1-4.91,0l-.94-.4a4.63,4.63,0,0,0-4.27.17,6.31,6.31,0,0,1-3.85.74,4,4,0,0,1-1.25-.34C12.54,27.71,10.94,27,9,27.66Z"/><path d="M5.49,37.09V32.33a6.62,6.62,0,0,0,3.39-1,4.36,4.36,0,0,1,3.44,0,8.5,8.5,0,0,1,1.31.55,5.25,5.25,0,0,0,5.14,0,5.7,5.7,0,0,1,5.59,0,5.43,5.43,0,0,0,4.36.31,11.89,11.89,0,0,0,1.21-.49,5.18,5.18,0,0,1,4.91.08,5.7,5.7,0,0,0,5.57,0,5.44,5.44,0,0,1,4.06-.66,3,3,0,0,1,.74.28,5.47,5.47,0,0,0,3.2.94v4.8A4.27,4.27,0,0,1,46,36.61a5.28,5.28,0,0,0-5.32-.22,10.5,10.5,0,0,1-2.63.82,5.34,5.34,0,0,1-3.29-.7,4.89,4.89,0,0,0-4.54-.19l-1,.41a5.6,5.6,0,0,1-4.69,0l-1.05-.44a4.81,4.81,0,0,0-4.38.21,6,6,0,0,1-4,.65,6.72,6.72,0,0,1-1.18-.39c-.49-.2-1-.44-1.46-.63A4.77,4.77,0,0,0,8,36.52,4.32,4.32,0,0,1,5.49,37.09Z"/><path d="M47.42,28.72l-1.2-.33c.26-.94.13-1.39-.42-1.6s-.87,0-1.26.76c-1.7-.45-3.19.21-4.71.91A5.77,5.77,0,0,1,34.58,28a.54.54,0,0,1-.19-.45q.14-1.1.35-2.19a1.56,1.56,0,0,1,1-1.17,1.59,1.59,0,0,0,.65-.54c.42-.65.8-1.33,1.18-2a1.5,1.5,0,0,1,1.66-.82l5.56.89A1.5,1.5,0,0,1,46.07,23c.12.54.23,1.08.34,1.61a2.33,2.33,0,0,0,.78,1.62,1.71,1.71,0,0,1,.4,1.12A6.5,6.5,0,0,1,47.42,28.72Zm-10.2-4.4,8.35,1.32c-.16-.79-.32-1.51-.44-2.23a.74.74,0,0,0-.7-.69c-1.74-.27-3.48-.56-5.23-.81a.85.85,0,0,0-.7.22C38.05,22.8,37.68,23.52,37.22,24.32Zm.34,1.9a.89.89,0,0,0-.91-.89,1,1,0,0,0-.88.94.94.94,0,0,0,.93.89A.93.93,0,0,0,37.56,26.22Z"/><path class="cls-3" d="M37.22,24.32c.46-.8.83-1.52,1.28-2.19a.85.85,0,0,1,.7-.22c1.75.25,3.48.55,5.23.81a.74.74,0,0,1,.7.69c.12.72.28,1.43.44,2.23Z"/><path class="cls-3" d="M37.56,26.22a.93.93,0,0,1-.87,1,.94.94,0,0,1-.93-.89,1,1,0,0,1,.88-.94A.89.89,0,0,1,37.56,26.22Z"/><rect class="cls-1" x="5.3" y="2.91" width="42.75" height="42.75" rx="8.64" ry="8.64"/><g class="cls-4"><path class="cls-3" d="M3.92-52.29V91.29H-195.65V-101.45H3.92v48.84c-2.87,0-2.91,0-3.64-2.8-.45-1.75-1.28-3-3.19-3.41A2.27,2.27,0,0,1-4.14-60.2a9.28,9.28,0,0,1-.23-2.3c1.37.52,3.74,0,4.42-1,.16-.24-.07-.76-.14-1.26A15.18,15.18,0,0,0-1.82-64c-1.07.69-1.68,0-2.28-.71l-1.3-1.64a19.56,19.56,0,0,1-2.76.68c-2.61.22-2.52.21-3.3,2.71-.35,1.12.12,1.28.88,1.48.8-1.15.43-3.59,2.55-2.67a24.06,24.06,0,0,0-.12,4.3c.31,2.06.9,4.06-1.05,6-1.93-2.09-4-4.15-5.86-6.39A50.9,50.9,0,0,1-22.9-73.43c-.37-.89-.89-1.27-1.8-.78.29,2.76.47,5.47,2.61,7.5a1.65,1.65,0,0,1,.45.85c.68,3.73,2.64,6.36,6.33,7.62.39.13.58.86.86,1.31a5.4,5.4,0,0,1-1.71.66,2.16,2.16,0,0,1-1.4-.71c-1.69-1.79-3.64-3.38-4-6.11a4.47,4.47,0,0,0-1.27-2.73,7.77,7.77,0,0,1-2.86-6.55,1.35,1.35,0,0,0-.13-.79,10.92,10.92,0,0,0-1.12-1.07c0,2.18.55,4.27-.12,5.82a8.08,8.08,0,0,0,.33,7.55,3.15,3.15,0,0,1-1.13,4.26c-.41.24-1.53.1-1.62-.13-.37-1-1-2.42-.59-3.12.86-1.47.64-2.89.76-4.38s.61-3.06.71-4.6a38,38,0,0,0-.13-4.8c0-.19-.41-.45-.66-.51a.69.69,0,0,0-.55.4c-.23,1.15-.74,2.39-.51,3.46a2.46,2.46,0,0,1-1.09,2.77,7.66,7.66,0,0,0-3,5.05,11.08,11.08,0,0,1-3.07,5.77c-1.3,1.47-2.94,1.43-4.23-.16,1.28-.88,2.5-1.84,3.83-2.62a6.66,6.66,0,0,0,3.11-4.33,6.44,6.44,0,0,1,1.1-2.83c2.07-2.1,2.24-4.75,2.61-7.39-1.37-.46-2.07.09-2.73,1.37a79.22,79.22,0,0,1-5.67,10C-42-59.27-45-56.25-47.65-53.21h37.4C-11-52-13-52.37-12.63-50.5c.25,1.13.68,2.06,2.12,2.25l-.73-2.67a4.79,4.79,0,0,0,4.69-3.69c.56-1.67,1.47-2.13,3.28-1.65,1.51.4,1.54,1.59,1.94,2.52,1.33,3.09,1.17,3.45,5,1.66A1.83,1.83,0,0,0,3.92-52.29ZM-102.24,89.88h53c-.53-.47-.72-.78-1-.84a5.79,5.79,0,0,0-1.3,0H-71.13c.5-.87.75-1.8,1.12-1.85,2.12-.26,2.87-1.79,3.66-3.43,1.1-2.26,1.16-2.26,3.5-1.55a1.93,1.93,0,0,1,1,.84c.42.75.71,1.57,1.07,2.35,1,2.12,3.09,2.23,4.68.12l-2.59.2a1.42,1.42,0,0,1-.22-.31,22,22,0,0,0-1-3.38,4.32,4.32,0,0,0-1.81-2c-2.17-1-2.59-1.49-2.2-3.9a4.63,4.63,0,0,0,4.12-1.14c.17-.24-.07-.77-.13-1.25l-2.79,1.23-2.31-2.68a22.67,22.67,0,0,1-2.61.51c-2.63.17-2.85.28-3.41,2.81-.1.44.27,1,.54,1.87,1-1.58.72-3.87,2.69-3a28.66,28.66,0,0,0,.06,5.37c.5,2.52-.14,4.54-2.53,5.73C-71.82,86.21-73,87-71.7,89-74,89-76,89.07-78,89c-.38,0-.92-.62-1.07-1.06-.61-1.84-.91-3.79-1.67-5.56a8.84,8.84,0,0,1,1-9.33,3.11,3.11,0,0,0,.21-3.56,43.22,43.22,0,0,1-2.11-5.07,1.94,1.94,0,0,1,.19-1.68c2.49-2.29,2.78-4.95,1.64-8a16.33,16.33,0,0,1-.66-2.83c-.17-.92-.57-1.09-1.48-.84-2.8.78-5.62,1.47-8.44,2.17a1.94,1.94,0,0,0-1.56,1.58c-1.18,4.19-2.48,8.35-3.71,12.52C-97.81,74.82-100,82.29-102.24,89.88Zm-46-149.68c-1-2-2-3.7-2.76-5.51-1-2.27-1.83-4.61-2.75-6.91a13.53,13.53,0,0,0-9.72-8.5c-2-.52-2.32-.39-2.92,1.89H-175c-1.25-2.57-2.86-3.27-5.84-2.16a14.93,14.93,0,0,0-3,1.5c-4.6,3.06-7,7.66-8.81,12.68-.74,2.1-1.25,4.29-1.91,6.59h2.83c-.12-2.12,1.69-2.61,3.15-3.43l-3.49-2.08.76-2,1.39.47c-.9-1-1.36-2.12-.6-3.22a2.83,2.83,0,0,1,2-1c1.34,0,1.59,1.15,2,2.2a1.82,1.82,0,0,0,1.34,1,2.62,2.62,0,0,1,2.88,2.51c.06.42.17.83.29,1.43l-2.52.83-.31,3.47c3.52-2.24,5.43-4.89,5.6-8.58a2.71,2.71,0,0,1,1.9-2.81,3.56,3.56,0,0,0,2.25-3.28,15.17,15.17,0,0,1,.31-1.92c.3-1.28,1-1.92,2.27-1.69a9.19,9.19,0,0,0-.9,2.54,5.71,5.71,0,0,1-3,5.05,3.29,3.29,0,0,0-1.3,2.14c-.54,4.08-1.79,7.64-5.94,9.68l1.48-.17c-.14,1.45.74,1.7,3.22,1,1.05,1.56,2.47,1.46,3.86.87,1,1.59,2.52,1.5,3.88,1.31,2.15-.31,1.56-2.36,2.1-3.87Zm120.1,35.41L-31.44-20c-2.12,2.8-4.27,5.59-6.35,8.43-.32.43-.65,1.27-.46,1.55a2.62,2.62,0,0,0,1.61.68,8.31,8.31,0,0,0,1.95,0c1.12-.07,1.56.42,1.53,1.54-.05,1.84,0,3.69,0,5.53,0,1.2.36,1.82,1.69,1.75a49.25,49.25,0,0,1,5,0c1.4.08,1.81-.51,1.74-1.82-.08-1.51.05-3,0-4.56S-24.21-9-22.66-9c1.86.08,2.17.31,2.18,2.16,0,1.57.06,3.15,0,4.72-.06,1.23.44,1.63,1.62,1.58,1.73-.07,3.47-.06,5.21,0C-12.45-.46-12-1-12-2.17s0-2.39,0-3.58c0-4-.49-3.53,3.53-3.6.53,0,1.43-.24,1.51-.54a2.41,2.41,0,0,0-.44-1.73A33.64,33.64,0,0,0-10.79-16c-3.09-3.18-4.59-6.82-3.86-11.27.13-.81,0-1.57-1-1.74a1.42,1.42,0,0,0-1.81,1.12c-.43,1.33-1.13,1.38-2,.25-.68-.84-1.31-1.72-2-2.59-.79-1-1.54-1-2.31,0s-1.56,2-2.19,3a2.35,2.35,0,0,0-.22,1.8c.85,2.18,1.86,4.3,2.81,6.45l-.26.15Zm-146.16-6.83c-4.38-1.62-9.32,2.22-9,6.33a2.63,2.63,0,0,1-1.2,2.53A5.22,5.22,0,0,0-186-19.94c-1,3.17.85,6.2,3.68,6.27a4.81,4.81,0,0,1,2.32.66c3.44,2.12,7,2.91,10.69.89a2.41,2.41,0,0,1,2.71-.09c3.21,1.71,7.33.86,8.81-1.77.59-1.06,1-1.81,2.46-2,.85-.12,1.79-1.22,2.25-2.11,1.35-2.64.46-5.29-2.08-6.88,1-4.66-.74-9.94-6.82-9.42a4.61,4.61,0,0,1-2.49-.57C-168.53-37.21-173.54-35.39-174.28-31.22Zm40.56,1.5L-146.06-9.57h40.39l-1.16-2c2-.23,3.56-1,3.93-3.07.3-1.73-1.32-4.4-3.07-5.36s-2.85-.11-4.18,1.55L-121.9-36.09l-6.78,10.63ZM-31.78-95c-1.85-1.53-3.77-2.29-5.89-1s-2.59,3-1.67,4.75l-4.25,1.55L-41.64-86c.17-.22.05-.05-.08.1-1.83,2.17-1.36,4.05,1.42,4.55a42.71,42.71,0,0,0,6.75.24c.72,0,1.44-.08,2.17-.13.06,1.67,0,3.07-2.1,3.44.82.85,1.62,1.86,2.54,2a42.14,42.14,0,0,0,5.91.08c-.57-2.49-1.64-5,1-6.87,2.1,3.36,4.63,3.62,7,.78,1.3.29,2.69.8,3.68-.56s.59-2.78-.16-4.1c-.37-.65-1-1.16-1.37-1.79a1.5,1.5,0,0,1-.25-1.08c1.14-3.71-1.09-7.13-5-7.16a34.63,34.63,0,0,0-5.95,1C-27.85-97.55-30-97.46-31.78-95ZM-133.37-77.89A31.75,31.75,0,0,1-143-64.26h4.53A16,16,0,0,1-145.18-56l.07.42,7.4-.74a65.16,65.16,0,0,1-10.07,9.59c4.85-.43,9.72-.48,14.25-2.47.12-.05.33,0,.48.09,4.54,1.86,9.36,2.05,14.45,2.51-3.89-3.08-7.57-5.89-10.45-9.73l7.35.75.09-.45a14.73,14.73,0,0,1-6.66-8.25h3.91A27,27,0,0,1-133.37-77.89Zm52,.5c2.7-1.32,2-3.17.52-4.41.08-1.54.61-3,.09-3.89S-82.93-86.9-84-87.46c.25-.36.66-.86,1-1.41.5-.86.14-1.45-.71-1.77A4.18,4.18,0,0,0-88.59-89c-.27.41-.57.8-.9,1.27l-1.05-2.84c-3.3,1.46-4.63,4-5.34,7.1l-2.13-2a9.72,9.72,0,0,0-1.3,6.64c.33,3.91.61,4.28,3.93,5.29-.15,2.13.46,3.91,2.52,5s3.79.17,5.48-.9l.44.85c1.41,2.82,4.11,3.7,6.57,2.15,2.29-1.45,2.7-4.4.94-6.79-.19-.26-.61-.61-.55-.75C-79.27-75.59-80.55-76.41-81.42-77.39Zm15.29,24v-3.28c0-3.41,0-3.41,3.44-3.69h.16c1.13-.06,1.3-.69.77-1.52a24.27,24.27,0,0,0-1.87-2.45c-2.76-3.31-5.85-6.45-4.81-11.4.09-.44-.65-1-1-1.58-.5.35-1.22.6-1.47,1.09-.57,1.08-1.12,1-1.82.24s-1.35-1.7-2.09-2.48a1.4,1.4,0,0,0-1.09-.45c-1.69.46-2.93,3.9-2,5.41,1.48,2.42,1.54,4.71-.21,6.76a6.29,6.29,0,0,1-3.4,2.2c-1.62.24-3.37-.33-5.06-.55a4.5,4.5,0,0,0-1.63,1.59c-.56.82-1,1.7-1.54,2.55a19.46,19.46,0,0,0,3,.58c1.3.05,1.86.53,1.8,1.87-.08,1.71,0,3.42,0,5.13h7.48c0-1.7.08-3.32,0-4.93-.09-1.44.71-1.57,1.81-1.59s2.05.06,2,1.59,0,3.23,0,4.92ZM-179.08,19a7.15,7.15,0,0,0-.89-1.31c-.39-.34-.9-.78-1.34-.75s-.77.71-.83,1.15a12.06,12.06,0,0,0,0,2.92,5,5,0,0,1-1.35,4c-1.29,1.53-2.5,3.12-3.67,4.74A19.52,19.52,0,0,0-188.44,32a13,13,0,0,0,2.68.56c1.25,0,1.59.5,1.53,1.67-.08,1.35,0,2.71,0,4.06,0,.89.38,1.27,1.27,1.26,1.41,0,2.82,0,4.23,0,1,0,1.38-.31,1.34-1.31a26.93,26.93,0,0,1,0-4.06A1.7,1.7,0,0,1-176.26,33c2.09-.32,2.35,0,2.36,2.08,0,.49,0,1,0,1.46,0,3,0,3,3,3,3.77,0,3.77,0,3.77-3.78,0-2.9,0-2.89,2.91-3.19A1.73,1.73,0,0,0-163,32c.15-.28-.11-.91-.36-1.26-1-1.36-2-2.66-3.06-4-2.67-3.47-5.33-6.94-8-10.39-1.1-1.41-1.4-1.39-2.52,0C-177.56,17.16-178.21,17.93-179.08,19Zm-5.36,72a13,13,0,0,1,1.62,0c1.42.18,2-.38,1.84-1.83-.11-1.07,0-2.17,0-3.25-.06-1.29.55-1.69,1.77-1.71s1.84.41,1.79,1.69c0,.92,0,1.84,0,2.76,0,2.32,0,2.32,2.29,2.32,4.55,0,4.55,0,4.55-4.54,0-2.55,0-2.53,2.54-2.6a7.3,7.3,0,0,0,1.63-.43,6.53,6.53,0,0,0-.64-1.54c-3.28-4.3-6.62-8.55-9.89-12.85-2.62-3.44-2.12-3-4.44,0-1,1.24-1.29,1.21-2.16-.06a1.68,1.68,0,0,0-1.27-.63c-.28,0-.72.62-.76,1a16.06,16.06,0,0,0,0,3.08A4.8,4.8,0,0,1-186.87,76c-1.63,1.94-3.13,4-4.64,6-.26.35-.56,1-.42,1.24s.79.46,1.23.49c2.89.18,2.89.17,2.89,3.08q0,.33,0,.65C-187.82,91.43-188.09,90.93-184.43,91Zm52-79.81c-1,1.17-1.7,2.08-2.45,3s-1.31,1.12-1.86-.23c-.15-.37-.88-.65-1.35-.67-.26,0-.62.59-.78,1a2.2,2.2,0,0,0,0,1.13,8.16,8.16,0,0,1-2.61,7.43,22.85,22.85,0,0,0-2.38,3.07A20.48,20.48,0,0,0-145.1,28a11,11,0,0,0,2.43.45c1.4-.05,1.82.54,1.74,1.85s0,2.49,0,3.74c0,1,.37,1.52,1.41,1.51,1.3,0,2.6,0,3.9,0,1.11,0,1.55-.52,1.52-1.61s.07-2.39,0-3.58.63-1.51,1.67-1.53,1.73.35,1.65,1.6,0,2.49,0,3.74c0,1,.44,1.38,1.36,1.37,1.3,0,2.6,0,3.9,0,1.1,0,1.57-.51,1.54-1.59,0-1.35,0-2.71,0-4.07-.05-1.09.43-1.47,1.44-1.41a4.32,4.32,0,0,0,1.13,0,15.87,15.87,0,0,0,1.59-.51,7,7,0,0,0-.64-1.4c-1.66-2.2-3.36-4.37-5-6.56Zm70.11,12.13A12.36,12.36,0,0,0-74.69,10.88,12.45,12.45,0,0,0-87,23.16,12.36,12.36,0,0,0-74.72,35.6,12.28,12.28,0,0,0-62.36,23.27ZM-126.74-92.63c-1.27,1.3-1.24,3.35-1.18,5.81-3.21-4.12-2.94-8.24-1.94-12.7-5,3.63-9,7.57-8.5,14.2l-.39.06-2.06-3.69a15,15,0,0,0,.16,20.36,4.11,4.11,0,0,0,0-.85,8.9,8.9,0,0,1,2.27-8.27A86.42,86.42,0,0,1-131.71-84c3.3,4.44,7.78,8.65,6.49,15.44,5.76-2.57,7.64-9.44,5.64-12.81-1.19,2.44-1.6,2.86-3.4,3.4,2.36-3.48,2.36-6,.12-9C-124.22-88.84-125.46-90.77-126.74-92.63Zm6,165.21c4.76-1.57,8.55-6.76,6.18-12-.76,1.53-1.66,2.89-3.62,3.31,2.49-3,2.51-5.58.26-8.28-1.42-1.7-2.77-3.47-4.13-5.18-1,1-1,1-1.45,4.8-2.5-2-3-4.83-2-11.22-4.79,3.2-9.29,6.42-9.17,13.19l-2.3-3.49c-6,6.36-5.53,12.59.56,19.26-1.5-3.84-.1-6.82,2.47-9.37,1.95-1.93,4.08-3.68,6.24-5.6a62.19,62.19,0,0,1,4.12,4.69C-121.46,65.62-119.15,68.55-120.74,72.58ZM-126.89,84c0,1.52,0,3.08,0,4.65,0,.9.34,1.41,1.35,1.37,1.24-.05,2.49-.07,3.74,0s1.42-.43,1.38-1.45c-.06-1.19,0-2.39,0-3.57s.52-1.77,1.73-1.68a3.09,3.09,0,0,0,1,0,14.21,14.21,0,0,0,1.44-.53,5.6,5.6,0,0,0-.55-1.27c-3.52-4.59-7.07-9.14-10.58-13.74-.71-.94-1.25-1.1-1.95,0-.42.63-.91,1.21-1.37,1.8-.61.79-1.12.87-1.74-.07-.28-.42-.91-.61-1.39-.9a7.18,7.18,0,0,0-.6,1.45,5.72,5.72,0,0,0,0,1.78A5.5,5.5,0,0,1-136,76.34c-1.45,1.67-2.76,3.46-4.11,5.22-.81,1.06-.6,1.59.62,1.73,3.06.37,3.06.37,3.06,3.42q0,.41,0,.81c0,2.45,0,2.45,2.46,2.45,3.91,0,3.91,0,3.91-4C-130.08,83.49-129.61,83.16-126.89,84Zm103.06.44c2.16.26,4,.46,5.89.72,1,.14,1.3-.3,1.37-1.26a32.45,32.45,0,0,1,.68-5,2.4,2.4,0,0,1,1.45-1.29,6.21,6.21,0,0,1,1.93.05c.54,0,1.09-.08,1.63-.12A8.34,8.34,0,0,0-11.42,76c-3.12-5.37-6.27-10.72-9.4-16.08-1.8-3.08-1.79-3.08-4.38-.51l-.11.12c-1.46,1.44-2,1.32-2.84-.49a1.71,1.71,0,0,0-1.07-.77c-.17,0-.62.48-.71.81-.19.67-.14,1.4-.34,2.07-.48,1.6.18,3.51-1.41,4.82-.44.36-1,1.31-.8,1.61.69,1.23.57,3.24,2.44,3.46,1.69.2,2.6.9,2.82,2.59a3.89,3.89,0,0,0,.58,1.66,2.94,2.94,0,0,0,1.4,1.22c2.24.58,2.47.88,2.09,3.23C-23.39,81.19-23.58,82.67-23.83,84.41ZM-63.39-10c.17-.62.21-.72.22-.83.07-1-.23-2.36.31-3s1.89-.32,2.88-.45,1.48-.75.78-1.65c-3.84-5-7.73-10-11.59-15-.6-.78-1.14-.65-1.69.07s-1.13,1.45-1.71,2.16-1.25.81-1.51,0-.86-1.41-1.59-1a2.2,2.2,0,0,0-.77,1.8c.25,2.82-.21,5.31-2.31,7.41A23,23,0,0,0-83-17.24a20.91,20.91,0,0,0-1.28,2.47,15.43,15.43,0,0,0,2.75.49c1.17,0,1.53.49,1.46,1.58-.06.89,0,1.78,0,2.68l6.76-1.43c.13-2.38.15-2.27,1.3-2.46,2.65-.45,1.93,1.55,2.12,3.12Zm-35.1,40.41c-1.47.22-2.58.42-3.7.54-3.16.36-5.82-.94-6.62-3.46a4.12,4.12,0,0,1,.24-2.86c.54-1,1.71-.9,2.76-.54a5.45,5.45,0,0,0,1.71.4,1.57,1.57,0,0,0,1.21-.54,1.48,1.48,0,0,0-.26-1.27,4.26,4.26,0,0,0-4-1.65,3.23,3.23,0,0,0-3.15,2.79,42.64,42.64,0,0,0,0,5.06c-1.82-1.65-2.18-3.86-2.5-6-.61-4.07-.41-8,3.23-11.26a8.68,8.68,0,0,0-1.84-.74,3.34,3.34,0,0,0-4,3.53,37.31,37.31,0,0,0,.45,6.3c.34,2.16,1,4.28,1.54,6.61a16.89,16.89,0,0,1-5.28-8.18c-.82-2.89-1.37-5.86-2-8.81a14.24,14.24,0,0,0-4.39-8.28c-1.36-1.19-3-2-4.89-1.27-1.39.56-1.55,1.41-.49,2.42.55.52,1.18.94,1.75,1.43,3.64,3.11,5.38,7.37,7,11.68,1.88,5,3.53,10.09,6.67,14.49,1.47,2.06,3.13,3.87,5.87,4.19C-104.89,35.5-101.81,33.14-98.49,30.41ZM-182.83-33l.76.35c2.56,1.16,4.19.71,5.83-1.57a1.87,1.87,0,0,1,.87-.52c1.82-.66,2.77-3.17,1.49-4.63a4.32,4.32,0,0,1-1-3.05,3.63,3.63,0,0,0-3.84-3.72,6.92,6.92,0,0,1-2.29-.51c-2.57-1-4.68-.2-5.76,2.37-3-.61-5.14,1.06-5.4,4.14a2.52,2.52,0,0,1-.68,1.31,3.32,3.32,0,0,0-1,3.52,2.54,2.54,0,0,0,2.69,1.87,2.56,2.56,0,0,1,1.16.48C-187.56-31.53-185.19-31.25-182.83-33Zm125.17-19.7h-42.64V-57l-2.06-.68-1.83,1.08v3.91l-2.47.15v2.7h49Zm18.5,71.14-4.62,3.89L-37.94,21l-1.32,4.15,3.65-2.45,1,3.2,1.84-2.8L-29.55,28l-.53-5.83,3.38.84L-28.22,20l5.63.33,0-.24-4.89-2.73,3-2.24-3.68-.51,3.27-4.47L-25,9.94l-4.85,2.45L-30.09,9l-2.46,2.31-1.78-5.08h-.29l-.68,5.39-3.43-1.86,1,3.43-5.07-1.39-.17.28,3.84,3.55-3.07,1.3Zm-4.61-65.8c-1.09,1.53-2.13,2.86-3,4.29a1.71,1.71,0,0,0,.12,1.6c3.53,3.86,7.13,7.66,10.8,11.57L-34-33l7.35,9.29a81.28,81.28,0,0,0-3.19-8l-3.47-7.82-2.66,3.94c-1.37-2.07-2.62-4-3.88-5.84S-42.41-45.29-43.77-47.32Zm28.08,63.16-.55.29c.41.78.63,1.8,1.27,2.29A4,4,0,0,1-13.51,23a16.92,16.92,0,0,0-.23,2l-.55.12-1.86-5.72-.58.15c.39,2,.28,4.25,1.29,5.81,1.63,2.53,1.5,5,1.38,7.68l-1.5.33c.68.9,1.16,2.14,1.75,2.19,2.42.23,4.87.1,7.31.1l.18-.58c-1.11-.66-2.23-1.3-3.32-2-.22-.14-.31-.51-.44-.77-.84-1.68.63-2.52,1.31-3.65a12.9,12.9,0,0,0,.58-1.23l-.38-.18-2,1.43a3.44,3.44,0,0,1,1.46-4.23,11.35,11.35,0,0,0,2.12-2.73l-.35-.26-3.31,2.82C-11.68,21.33-8.25,20-8.52,17.2l-2.32,2.7c-1.17-2.39-.53-4.53.56-6.64l-1.57,1.48-1-6.94h-.26v5.73l-.37.16L-17.3,8.75A9.82,9.82,0,0,0-16,12.17c.55.92,1.45,1.63,2,2.57a14.2,14.2,0,0,1,.88,2.76l-.47.16ZM-19,86c-3.67-1.08-21.8-1.75-24.84-1v4.78c6.54-.14,13,.57,19.38-1.28l.14-1.31ZM-34.86,68.69c-1,1.12-1.79,2-2.53,2.91-.62.76-1.17,1.59-1.74,2.38,1,.23,1.91.53,2.88.68,1.31.21,1.88.79,1.63,2.19A42.84,42.84,0,0,0-35.24,82a1.5,1.5,0,0,0,.93,1.1,20.35,20.35,0,0,0,3.2.38c2.94.23,2.88.21,3.15-2.81a44.86,44.86,0,0,1,.87-4.55,5.89,5.89,0,0,0-1.24-2.52,2,2,0,0,0-1.41-.79,3.69,3.69,0,0,1-4.07-2.46A15.44,15.44,0,0,0-34.86,68.69ZM-161.94,54.4c2.71-2.28,2.07-5.19-1.59-6.32-4.93-1.53-9.63-.61-14,1.92a9.2,9.2,0,0,0-2.63,2.57,2.36,2.36,0,0,0,.27,3.29,13.12,13.12,0,0,1,1.84-2.1A14.37,14.37,0,0,1-168,51C-165.6,51.22-163.1,51.66-161.94,54.4Zm38.31-40.6c-2.22-4.65-4.92-9-9.6-11.6a9.43,9.43,0,0,0-8.84-.66c-.6.27-1,1-1.47,1.51a12,12,0,0,0,1.7,1c3.42,1.26,7,2.14,10.22,3.82C-128.72,9.36-126.28,11.77-123.63,13.8ZM-19.69,89.65H-2V84.49c-2.25,0-4.4,0-6.56,0-1.35,0-2.65,0-2.88,1.78a.77.77,0,0,1-.6.43C-15,86.6-17.07,88.66-19.69,89.65Zm-14.52-50c4.37,2.08,7.69-.45,11.2-2.08.05,0,0-.17.08-.32-.73-.59-1.5-1.18-2.22-1.82a9.5,9.5,0,0,0-7-2.3c-.43,0-1.14.38-1.2.68C-33.73,35.82-34,37.84-34.21,39.67Zm18.3,2.92c.75,1.36,1.41,2.66,2.16,3.9.22.36.67.8,1,.81,3.13.06,6.25,0,9.33,0,.42-1.55,0-2.49-1.31-3.17-1.58-.8-3-1.92-4.59-2.71A4.13,4.13,0,0,0-11.86,41,28.83,28.83,0,0,0-15.92,42.59Zm-23.36,4.64h12.52c-1.5-4.81-3.88-6.49-7.83-5.61C-36,42-39.36,45.83-39.27,47.23Zm3.64-8.49c-3.22-1.46-5.29-4.58-8.89-2.54-.55.31-1.59.61-1.59.92,0,1.21-.66,2.62.66,3.62s2.38,1.86,3.82,3ZM-178.31,58.58c1.61-2.83,4.34-3.38,7.07-3.72a11.87,11.87,0,0,1,8,1.75c.93-1.9.55-3-1.22-3.95-3.58-1.86-10.63-.84-13.56,2C-179.29,55.85-179.41,57.06-178.31,58.58ZM-50.17-8.85l0-.24c-1.24-.29-2.49-.52-3.71-.87a16,16,0,0,0-8.45-.18,10.83,10.83,0,0,1-5.23.24,19.55,19.55,0,0,0-11.6.33,12,12,0,0,1-7.62,0,6.8,6.8,0,0,0-.77-.24c-.25-.05-.52,0-1.11-.09C-85.21-7.84-82-7.19-78.36-8.5a12.72,12.72,0,0,1,9.63.13A8.36,8.36,0,0,0-62-8.42a14.14,14.14,0,0,1,8.71-.46A15.53,15.53,0,0,0-50.17-8.85Zm33.25,56.19c0-.23.07-.29.05-.32l-3.46-5.07c-1.42-2.08-2.77-2.57-5.16-1.87-1,.29-1.76,1.59-1.35,2.33,1.72,3.12,3.54,6.07,7.94,4.95A8.48,8.48,0,0,1-16.92,47.34Zm-100.52-18a9.17,9.17,0,0,0,12.69,8.39,14.21,14.21,0,0,0,7.09-6.17,71.91,71.91,0,0,1-6.75,3.61,8.82,8.82,0,0,1-10.44-2.33C-115.79,31.74-116.56,30.52-117.43,29.33ZM-163.1,59.68l.55-.3a8.86,8.86,0,0,0-1.51-2.32c-2.85-2.27-9.79-2-12.51.48a3,3,0,0,0-.93,2.23c.09.71.93,1.32,1.57,2.14C-174.26,57.91-170.63,57.39-163.1,59.68Zm63-118.05,6-9.08-2.22-2.09-6.92,9.08Zm-87.09-2.52a17.45,17.45,0,0,0,.94,1.82c.43.64.86,1.55,1.47,1.74,1.36.42,1.83,1,1,2.49,2-1.35,2-2.28.18-3.29a3.46,3.46,0,0,1-1.85-4.3,18.2,18.2,0,0,0,.18-3.06l-1.73-.23-.63-1.79-.4,0c0,.53,0,1.07,0,1.6a10.61,10.61,0,0,1-.27,2.85c-.14.42-1.15.47-1.58.87a4,4,0,0,0-1.21,1.76c-.36,1.38-.55,2.78-2.81,2.25,2.14,1.59,2.83,1.51,3.54-.44C-189.79-60.06-189.07-61.06-187.15-60.89ZM-56.48-7.53l-.15-.4c-1.67.36-3.37.59-5,1.1a10.43,10.43,0,0,1-7.25,0,11.45,11.45,0,0,0-7-.53C-79-6.65-82-5.74-85.22-7a7.86,7.86,0,0,0,5.74,1.27,25.58,25.58,0,0,1,10.9.56,8.32,8.32,0,0,0,4.12,0C-61.75-5.73-59.13-6.69-56.48-7.53ZM-161.4,63a9.9,9.9,0,0,0-1.2-1.79c-2.27-2.19-8-2.91-10.83-1.43-1.93,1-2,2.5-.21,4C-171.46,60.53-166.91,60.34-161.4,63Zm-9.31,5.85c2.67-1,5-1.09,7.25.29a1,1,0,0,0,1.63-1.1,3,3,0,0,0-1.22-1.74,8.18,8.18,0,0,0-6.67-1,2.73,2.73,0,0,0-1.72,1.43C-171.63,67.33-171,68.13-170.71,68.83Zm9.16-2.35c.81-1.16.13-1.89-.52-2.51-2-1.91-6.8-2.61-9.32-1.42-1.71.8-1.9,1.76-.66,3.24C-169.06,63.54-165,63.79-161.55,66.48Zm26.89-114.57v8.95h2.6v-8.95ZM-20.88,38.78c3.64,2.72,7,2.51,10.33-.39C-11.84,36.48-16.93,36.63-20.88,38.78Zm17.64,4.45c0-1.34,0-2.66,0-4a3.28,3.28,0,0,0,0-1,1.49,1.49,0,0,0-.55-.82,3.7,3.7,0,0,0-5.44,1.94l5.59,3.79C-3.6,43.23-3.49,43.21-3.24,43.23Zm-13.18-7.77c-1.31-2.81-.37-2.26-3.62-2.32-1.65,0-3.3,0-4.86,0C-22.79,36.25-20.33,38.44-16.42,35.46Zm-118.25-28a12.18,12.18,0,0,0-6.33-2,10,10,0,0,0-4.23,1.24c-.64.3-.95,1.28-1.41,2,2.35-.24,4.3-.89,6.3-1.12A46.52,46.52,0,0,1-134.67,7.46ZM-77.85,67c.49.81,1.31,1.55,1.24,2.18-.29,2.4,1.4,2.34,2.86,2.75l1.4-2.33-2.91-3.77ZM-60.1-4.69c-1.25.28-2.51.53-3.76.86a12,12,0,0,1-6.05,0,19.76,19.76,0,0,0-5.77-.47c-2.32.14-4.61.67-6.8,1,1.12.07,2.44.2,3.76.22,2.42,0,5-.5,7.23.14C-67.33-1.78-63.76-3.14-60.1-4.69ZM-185.59,8.16c.74,1.3,0,3.29,2.46,3.41,1.68.08,2-.83,2.5-2,.82-1.78-.84-2.07-1.6-2.6C-183.66,6-184.33,7.87-185.59,8.16ZM-169.8,7c-.52,1.25-2.9,1.2-2,3.05.37.78.26,2.19,1.78,2.08s2.79-.52,2.91-2.61S-169.14,8.15-169.8,7Zm7.81-1.4c2.72-2.11,2.78-2.14,1.69-4.31-.93-1.84-2.37-.07-3.55-.59l-.84,3.17ZM-189.91,20.3c2,.05,2.9-.79,3-2.86,0-.61-2.06-2.43-2.64-2.09a7.76,7.76,0,0,0-2.38,2.27C-192.25,18.12-190.49,20.29-189.91,20.3Zm26.61-5.18c-3.1,1.56-3.1,1.56-1.89,4.76,3.31.28,3.31.28,4.23-2.87ZM-33.1-24.5v-.34l-7-.47.29,1.55h-7.62l0,.09,10.13,1.8-.56-2.37ZM-60.64,36.77c-.89.54-1.76.78-1.92,1.25a2.2,2.2,0,0,0,.42,2,9.78,9.78,0,0,0,3.31,1.72,2.15,2.15,0,0,0,1.8-.93,2,2,0,0,0-.35-1.85A25.28,25.28,0,0,0-60.64,36.77Zm-5.76,3.07c1.59,0,3.1-1,3.13-2s-1.32-1.94-2.91-2.1l-.16,0c-1.74-.08-3.34,1-3.31,2.14S-68.15,39.87-66.4,39.84Zm4.55-3.39a17.58,17.58,0,0,0,3.26-1.73c1.19-1,.82-2.57-.7-2.77a6.53,6.53,0,0,0-3.6.76A2.53,2.53,0,0,0-64,34.9C-63.8,35.52-62.67,35.89-61.85,36.45Zm35.39-74.82v6.83h.3l1.13-9.3-2.46.83L-28-45.88l-.2,0v8.1ZM-167,68.6a10.38,10.38,0,0,0-2.47.64c-.38.21-.48.91-.71,1.39a8.67,8.67,0,0,0,1.38.44c1.34.2,2.69.37,4,.47a6.65,6.65,0,0,0,1.54-.24c-.19-.5-.25-1.26-.6-1.45A25.67,25.67,0,0,0-167,68.6ZM-1.2-68.32a2,2,0,0,0-2-2.09,1.91,1.91,0,0,0-2,1.93,1.9,1.9,0,0,0,1.9,2.16A2,2,0,0,0-1.2-68.32ZM-62.93,72.11A1.77,1.77,0,0,0-61,70.18a1.94,1.94,0,0,0-1.92-2,2,2,0,0,0-2.08,2A1.88,1.88,0,0,0-62.93,72.11Zm27-35.16.66-.32c-.33-1.12-.35-2.84-1.07-3.22-1.05-.55-2.61-.14-4-.14l-.11.42Zm-10.14,6.37v4h3.85C-42.82,45.27-44.75,44.81-46.07,43.32ZM-79.19-88.5l7,1.89C-73.42-89.06-75.66-89.58-79.19-88.5Zm-3.9-3.42,6.41,1.74C-77.8-92.6-79.92-93.13-83.09-91.92Zm-81,165.24a4.36,4.36,0,0,0-4.74-1.49c-.29.13-.66.5-.67.76a1,1,0,0,0,.66.75,33.29,33.29,0,0,0,3.75.6C-164.82,74-164.5,73.58-164.1,73.32ZM-73.53-84.43l7,1.91C-68-85-69.41-85.34-73.53-84.43ZM-141,9c-4-.34-6.76,1.26-5.92,3.47Zm99.17,24.23h-4.85c.56.8.82,1.63,1.26,1.74C-44.06,35.24-41.84,34.08-41.79,33.19ZM-60-35.67c1.12-1.14.83-4.3-.51-5.76C-60.26-39.49-61.75-37.47-60-35.67Zm-27.7,16.95c0,1.91-1.35,3.95.5,6C-86-15-87.32-16.84-87.72-18.72Zm19.27-18.63-.66,0c0,1.55,0,3.1,0,4.64,0,.3.5.58.76.87.2-.32.61-.67.57-1C-67.92-34.31-68.21-35.83-68.46-37.36Zm-15.37,8.95c-.06,1.94-1.35,4,.56,6.07C-82.18-24.73-83.45-26.54-83.83-28.41ZM-188.57-71l-.62,0c-.32.57-1,1.21-.86,1.71s.89.92,1.38,1.37c.4-.49,1.11-1,1.11-1.47S-188.21-70.49-188.57-71ZM-58.09-25l-.78-5.79C-60.12-27.81-59.93-25.86-58.09-25Zm-32.2-4.36.58-.12-.74-5.56C-91.74-32.24-91.6-30.29-90.29-29.37Zm11-4.32-.86-6.06C-81.35-36.32-81.1-34.16-79.25-33.69ZM-39.52,70a6.71,6.71,0,0,0-1.75.29,2.34,2.34,0,0,0-1,1.06c-.08.16.24.75.45.8a2.69,2.69,0,0,0,1.4-.09,10.33,10.33,0,0,0,1.54-.81Zm32.35,5.61c-.2,2,1.24,1.47,2.14,1.35.42-.05,1.15-1,1.05-1.17C-4.91,73.8-6.06,75.72-7.16,75.58ZM-191,8.1v7.32h.56C-189.62,13-190.81,10.52-191,8.1Zm19.52-8V7.29h.55C-170.05,4.89-171.23,2.48-171.46,0Zm-14.91-66.13c1.95-1.14,2.2.52,3.09,1.51.15-.75.26-1.76-.12-2a16.49,16.49,0,0,0-3.34-1.34ZM-73.17,62.63v2.5c1.18.55,2.2.79,2.53-1.1Zm-107-54.85V.66a16.9,16.9,0,0,0-.49,3.68C-180.61,5.46-181.83,6.82-180.14,7.78Zm19,8.49h.49V9.57C-160.84,11.8-162,14-161.19,16.27Zm-3.88-13.5c1.26-2.78,0-5-.33-7.35Zm-.59,72.65.08-.57c-1.34-1.07-2.17-1.13-3.68.12ZM-73.73,61V58.34l-2.22,1.44Z"/></g><rect class="cls-1" x="-46.52" y="4.04" width="42.75" height="42.75" rx="8.64" ry="8.64"/></g></svg>