<svg xmlns="http://www.w3.org/2000/svg" viewBox="0 0 286.51 326.1"><defs><style>.cls-1{opacity:0.66;}.cls-2{fill:#fff;}.cls-2,.cls-5{fill-rule:evenodd;}.cls-3,.cls-4{fill:#231f20;}.cls-4{font-size:40.29px;font-family:Helvetica-Bold, Helvetica;font-weight:700;}.cls-5{fill:#ed1c24;}</style></defs><title>EVENT Symbol_Closed_Mission History</title><g id="Layer_2" data-name="Layer 2"><path class="cls-2" d="M129.21,206.7l-3-.48a92.9,92.9,0,1,1,31.44,0l-2.74.43-12.85,81.38Z"/><path class="cls-3" d="M142.06,24.73a89.93,89.93,0,0,1,15.13,178.58l-.58.09-4.32.68-.68,4.31-9.55,60.46-9.55-60.46-.68-4.31-4.31-.68-.81-.13A89.93,89.93,0,0,1,142.06,24.73m0-6a95.93,95.93,0,0,0-16.32,190.46l.85.13L138,281.59l4.06,25.72,15.47-98,.62-.1a95.93,95.93,0,0,0-16.09-190.5Z"/><path class="cls-2" d="M143.25,180.36a64.89,64.89,0,1,1,64.89-64.89A65,65,0,0,1,143.25,180.36Z"/><path class="cls-3" d="M143.25,50.83a64.64,64.64,0,1,1-64.64,64.64,64.72,64.72,0,0,1,64.64-64.64m0-.5a65.14,65.14,0,1,0,65.14,65.14,65.14,65.14,0,0,0-65.14-65.14Z"/><text class="cls-4" transform="translate(117.9 135.51)">OCx</text><path class="cls-5" d="M91.37,100.05,94,97.83l1.86.52s20.52-10.73,32.59-11.86c0,0,2.27-.21.93-2.89,0,0-1-2.58-2.37-2,0,0-22.85,6.5-36.61,15.57l.41.93.93-.41Z"/><path class="cls-5" d="M101.28,112.06l6-15.26s.62-1-.93-.52L85.8,106.7a2,2,0,0,0-1.13,2s.21,3.71,2.27,2.78L92.3,109l1,.72L83,114.74s-1,2.68,2.06,5.16Z"/><path class="cls-5" d="M113.86,94.53a29.15,29.15,0,0,1,5.26,5.05s13.82-6.91,15.88-7c0,0,1.13-.72-.41-2.58,0,0-.62-3.2-2.58-2.58,0,0-14.54,4.77-17.12,6A.94.94,0,0,0,113.86,94.53Z"/><path class="cls-5" d="M131.5,104s7.84-3.9,10.52-4c0,0,.41-3.88-1.24-5.22,0,0-15.88,2.9-20.22,5.22l2.27,3.55Z"/><path class="cls-5" d="M117.26,111.55s.1-4.64-4.74-8.77l-6.29,12.89s-3.92,1.13-5.57-1.65c0,0-3.61.93-3.3,3,0,0,0,4.85,2.68,3.4Z"/><path class="cls-5" d="M110.95,85.27s2.71-2.1,2.9-4.19c0,0,1.08-5.7-3.8-4.86,0,0-6.64,2.93-1.53,9.05Z"/></g></svg>