<svg xmlns="http://www.w3.org/2000/svg" viewBox="0 0 49.69 48.98"><defs><style>.cls-1{opacity:0.66;}.cls-2{fill:none;stroke:#231f20;stroke-miterlimit:10;}.cls-3{fill:#231f20;}.cls-4{fill:#fff;}</style></defs><title>LANDSLIDE</title><g id="Layer_7" data-name="Layer 7"><rect class="cls-2" x="2.96" y="3.27" width="42.75" height="42.75" rx="8.64" ry="8.64"/><path class="cls-3" d="M4.54,29.64,8,27.47l.09-.06.08.09,1,1H8.89q1.48-1.74,3-3.46l.19-.21.22.19,1.12.92-.48.08c1.23-2.06,2.43-4.15,3.68-6.2l.09-.14.16,0,.74-.22-.19.12,1.84-1.93.4-.42.31.49,1.2,1.88L21,19.38l.66.36.08,0,.06.08,2.63,3.39h-.79l4.55-6.05.08-.1.11,0L29,16.8l-.2.16,1.42-2,.33-.46.36.43c.77.91,1.54,1.81,2.3,2.73l-.11-.09,1.06.59.09.05,0,.08,3.44,5.56-.27-.11,1.23-.23.12,0,.08.07c1.67,1.51,3.35,3,5,4.52-1.78-1.37-3.53-2.78-5.29-4.18l.19,0-1.21.3-.17,0-.1-.15-3.65-5.43.14.13-1.08-.55-.06,0-.06-.06c-.8-.88-1.57-1.79-2.35-2.68l.69,0-1.4,2-.07.11-.12.05-.65.27.19-.15-4.48,6.1L24,24.4l-.4-.53L21,20.44l.15.13-.66-.37-.11-.06-.06-.1-1.18-1.89.71.07L18,20.13l-.08.09-.11,0-.74.21.25-.19c-1.26,2-2.58,4.05-3.87,6.08l-.2.32L13,26.42l-1.08-1,.41,0q-1.56,1.67-3.15,3.31L9,28.89l-.13-.15L8,27.69l.18,0Z"/><path class="cls-3" d="M13.86,25.1l2.79-2.46-.2,4,2.75-4,1.38,2.51.79-2.51,1.51,2.08-4.23,4.21s0-2.63-1.89-1.22c0,0-1.85.12-1.3,1.45,0,0-1.26,1.73.35,2.67,0,0-.51,2.24,1.73,2.32a2.69,2.69,0,0,0,2.24,1.49s3.1.39,3.1-1a2.49,2.49,0,0,0,2.67-2.32l3-10.22,1.53,3.93,1.3-2.87,2,3.89.47-5.46,3.65,3.85,1.1-1.1,4.69,3.19L38.77,23.7,37.55,24,34.86,19.8l-.58-.89-.64-.62-1.12-.86L31,15.61l-.37-.84L29.32,17l-.77.48-.61.75L24.23,23.3l-.6-.28-2.2-2.87-.88-.72-.89-1.79L18,19.51l-1.23.55Z"/><path class="cls-4" d="M16.93,31a.87.87,0,0,1,0,.36.21.21,0,0,0,.07.3,3.39,3.39,0,0,1,.64.26v0a.52.52,0,0,1-.74-.19c0-.14-.12-.24-.18-.39A.38.38,0,0,1,16.9,31Z"/><path class="cls-4" d="M18.52,30.17a2,2,0,0,1-.13.64.69.69,0,0,0-.1.6c.08.2.2.2.4.17s.39-.09.62-.12v0a1.16,1.16,0,0,1-.59.35.55.55,0,0,1-.39,0,.41.41,0,0,1-.18-.36c0-.24,0-.45,0-.68a1.12,1.12,0,0,1,.31-.59Z"/><path class="cls-4" d="M18.2,28.54a2.13,2.13,0,0,0-.3-.4c-.12-.11-.22-.14-.32,0a2.43,2.43,0,0,0-.5.84v0h0c-.27.08-.57.42-.48.52s.17.16.29.24l.4.25v0a1.42,1.42,0,0,1-.48-.07.7.7,0,0,1-.43-.33.41.41,0,0,1,.24-.51c.15-.08.3-.12.45-.19l0,0a2,2,0,0,1,.44-1,.38.38,0,0,1,.33-.08A.45.45,0,0,1,18,28a1.2,1.2,0,0,1,.2.5Z"/><path class="cls-4" d="M21.33,32.86a.6.6,0,0,1-.39.26,1.4,1.4,0,0,0-.48,0,.42.42,0,0,1-.48-.22.52.52,0,0,1,.06-.5h0c.13.34.13.49.41.59a.42.42,0,0,0,.41-.1.92.92,0,0,1,.44-.09Z"/><path class="cls-4" d="M18.22,32.45a1,1,0,0,0,.12.79.84.84,0,0,0,.74.36h0l0,0a1.85,1.85,0,0,0,.55.67.77.77,0,0,0,.79-.1l0,0a.89.89,0,0,1-.38.33.6.6,0,0,1-.55,0,1.28,1.28,0,0,1-.54-.86l.05,0-.45-.13a1.08,1.08,0,0,1-.44-.23.71.71,0,0,1,0-.93Z"/><path class="cls-4" d="M21.32,33.93a1.12,1.12,0,0,1,.43,0,.31.31,0,0,0,.38-.07,4.24,4.24,0,0,0,.3-.73h0a.62.62,0,0,1,.08.47.51.51,0,0,1-.33.38c-.16,0-.29.11-.45.16a.5.5,0,0,1-.44-.15Z"/><path class="cls-4" d="M22.75,32.59a.85.85,0,0,1,.46.23c0,.07.08.17.15.21a.27.27,0,0,0,.25,0,1.34,1.34,0,0,1,1-.27l0,0a.78.78,0,0,1-.38.5.79.79,0,0,1-.63,0,1.11,1.11,0,0,0-.29-.1,1.88,1.88,0,0,1-.33,0,.47.47,0,0,1-.27-.56Z"/></g></svg>