<svg xmlns="http://www.w3.org/2000/svg" viewBox="0 0 60.88 64.05"><defs><style>.cls-1{opacity:0.66;}.cls-2{font-size:12px;font-family:Helvetica, Helvetica;}.cls-2,.cls-3{fill:#231f20;}.cls-4{stroke:#fff;stroke-width:0.66px;}.cls-4,.cls-6{stroke-miterlimit:10;}.cls-5{fill:#fff;}.cls-6{fill:none;stroke:#231f20;}</style></defs><title>MALNUTRITION</title><g id="Layer_7" data-name="Layer 7"><text class="cls-2" transform="translate(-42.08 -3.4)">Malnutrition</text><circle class="cls-3" cx="34.28" cy="19.05" r="5.31"/><path d="M23.89,38.13l4.26-12.66a2.78,2.78,0,0,1,3-1.12,2.5,2.5,0,0,1,1.62,2.89l-4,12.29a.53.53,0,0,0,0,.48l5.89,8.27s1,3-1.4,3H21s-1.88.06-1.88-1.65v-.79s.08-1.79,1.71-1.79h7.43s.27,0,.06-.27l-4.49-6.32a1.78,1.78,0,0,1-.17-.77v-.54A7.93,7.93,0,0,1,23.89,38.13Z"/><path d="M44.49,31.73s-.37,2.71-2.38,3l-4-1.15a2.74,2.74,0,0,1-.92-2.21v-.59s0-1,2.32-1h2.58s2.38.15,2.38.92Z"/><path class="cls-4" d="M40.73,37.2H35.42s-.34.06-1-.56l-5.87-7a1.84,1.84,0,0,1,.45-2,1.77,1.77,0,0,1,2.21-.13l5.22,6.08h4.28s1.38.34,1.38,1.46v.77S41.83,37.2,40.73,37.2Z"/><ellipse class="cls-5" cx="40.88" cy="30.85" rx="3.13" ry="0.61"/><rect class="cls-6" x="9.38" y="9.47" width="42.75" height="42.75" rx="8.64" ry="8.64"/></g></svg>
