<svg style="filter:invert(100%);" xmlns="http://www.w3.org/2000/svg" viewBox="0 0 60.88 64.05"><defs><style>.cls-1{opacity:0.66;}.cls-2{fill:#fff;}.cls-3{fill:none;stroke:#231f20;stroke-miterlimit:10;}</style></defs><title>SEARCH AND RESCUE</title><g id="Layer_7" data-name="Layer 7"><path class="cls-2" d="M9.56,50.83V7.73h43.1q0,21.55,0,43.1ZM34.75,28.6l-.41.24c-.83.44-1.65.89-2.48,1.31a1.55,1.55,0,0,1-1.3.08c-.83-.32-1.65-.66-2.48-1l-1.74-.73v.41q0,8.64,0,17.29c0,.1,0,.2,0,.3A1.85,1.85,0,0,0,30,46.26q0-5.91,0-11.82V34h1v.38q0,2.38,0,4.77c0,2.37,0,4.74,0,7.12a1.84,1.84,0,0,0,2.25,1.83,1.9,1.9,0,0,0,1.44-1.93c0-5.76,0-11.52,0-17.29C34.75,28.84,34.75,28.75,34.75,28.6Zm-12.4,2.62-.61.68a1.57,1.57,0,1,1-2.33-2.1l4.1-4.62a1.57,1.57,0,0,1,1.9-.47c1.3.46,2.62.88,3.92,1.37a2.48,2.48,0,0,0,2.14-.19,16,16,0,0,0,3.87-2.79,2,2,0,0,1,2.12-.52,1.92,1.92,0,0,1,1.43,1.69c.07.74,0,1.5.06,2.24,0,.11,0,.22,0,.39a3.16,3.16,0,0,0-1.09-5.33.64.64,0,0,1-.34-.27,3.42,3.42,0,0,0-3.24-2c-2.49,0-5,0-7.49,0a3.41,3.41,0,0,0-3.48,2.76,12.43,12.43,0,0,0-.14,1.73.64.64,0,0,1-.13.35c-1.51,1.7-3,3.37-4.53,5.09a2.57,2.57,0,0,0,.22,3.53A2.69,2.69,0,0,0,23,32ZM33.71,15.1c.21,0,.38,0,.55,0a.49.49,0,0,0,.48-.44.45.45,0,0,0-.34-.57c-.29-.06-.37-.25-.42-.48s-.08-.35-.12-.52a3,3,0,0,0-3-2.7,3,3,0,0,0-3.43,2.15c-.12.38-.21.77-.31,1.16a.43.43,0,0,1-.36.38.47.47,0,0,0-.38.58.51.51,0,0,0,.54.45h.48a3.28,3.28,0,0,0,.92,2.2,3.1,3.1,0,0,0,2.18.95,3,3,0,0,0,2-.65A3.18,3.18,0,0,0,33.71,15.1Zm8.4,3.15a2.63,2.63,0,1,0,2.63,2.62A2.62,2.62,0,0,0,42.11,18.26Zm-4.2,8.67c0-.36,0-.72,0-1.07a1.31,1.31,0,0,0-2.62,0q0,1,0,2.08a1.31,1.31,0,1,0,2.62,0C37.91,27.62,37.9,27.27,37.9,26.92ZM24.76,28.5c-.15-.16-.28-.32-.43-.46a1.32,1.32,0,0,0-1.79,0,1.28,1.28,0,0,0-.06,1.81c.37.4.76.79,1.16,1.16a1.31,1.31,0,0,0,2.18-1c0-.4,0-.8,0-1.21,0-.6,0-.6-.56-.82h-.08Z"/><path d="M34.75,28.6c0,.16,0,.25,0,.34,0,5.76,0,11.52,0,17.29a1.9,1.9,0,0,1-1.44,1.93,1.84,1.84,0,0,1-2.25-1.83c0-2.37,0-4.74,0-7.12q0-2.38,0-4.77V34H30v.4q0,5.91,0,11.82a1.85,1.85,0,0,1-3.68.25c0-.1,0-.2,0-.3q0-8.64,0-17.29v-.41l1.74.73c.82.34,1.65.68,2.48,1a1.55,1.55,0,0,0,1.3-.08c.83-.43,1.66-.87,2.48-1.31Z"/><path d="M22.35,31.21,23,32a2.69,2.69,0,0,1-4.28.75,2.57,2.57,0,0,1-.22-3.53c1.49-1.72,3-3.39,4.53-5.09a.64.64,0,0,0,.13-.35,12.43,12.43,0,0,1,.14-1.73A3.41,3.41,0,0,1,26.8,19.3c2.49,0,5,0,7.49,0a3.42,3.42,0,0,1,3.24,2,.64.64,0,0,0,.34.27A3.16,3.16,0,0,1,39,26.89c0-.17,0-.28,0-.39,0-.75,0-1.5-.06-2.24a1.92,1.92,0,0,0-1.43-1.69,2,2,0,0,0-2.12.52,16,16,0,0,1-3.87,2.79,2.48,2.48,0,0,1-2.14.19c-1.29-.49-2.61-.91-3.92-1.37a1.57,1.57,0,0,0-1.9.47l-4.1,4.62a1.57,1.57,0,1,0,2.33,2.1Z"/><path d="M33.71,15.1a3.18,3.18,0,0,1-1.24,2.5,3,3,0,0,1-2,.65,3.1,3.1,0,0,1-2.18-.95,3.28,3.28,0,0,1-.92-2.2h-.48a.51.51,0,0,1-.54-.45.47.47,0,0,1,.38-.58.43.43,0,0,0,.36-.38c.1-.39.19-.78.31-1.16a3,3,0,0,1,3.43-2.15,3,3,0,0,1,3,2.7c0,.17.08.35.12.52s.12.42.42.48a.45.45,0,0,1,.34.57.49.49,0,0,1-.48.44C34.09,15.12,33.92,15.1,33.71,15.1Zm-2.65-3.66H30V12.5H29v1h1v1h1v-1h1v-1h-1Z"/><path d="M42.11,18.26a2.63,2.63,0,1,1-2.63,2.61A2.62,2.62,0,0,1,42.11,18.26Z"/><path d="M37.9,26.92c0,.35,0,.69,0,1a1.31,1.31,0,1,1-2.62,0q0-1,0-2.08a1.31,1.31,0,0,1,2.62,0C37.91,26.21,37.9,26.57,37.9,26.92Z"/><path d="M24.76,28.5l.42-.45h.08c.56.22.56.22.56.82,0,.4,0,.8,0,1.21a1.31,1.31,0,0,1-2.18,1c-.4-.37-.79-.76-1.16-1.16a1.28,1.28,0,0,1,.06-1.81,1.32,1.32,0,0,1,1.79,0C24.48,28.17,24.6,28.33,24.76,28.5Z"/><path class="cls-2" d="M31.06,11.44v1h1v1h-1v1H30v-1H29v-1h1V11.44Z"/><rect class="cls-3" x="9.65" y="7.94" width="42.75" height="42.75" rx="8.64" ry="8.64"/></g></svg>
