<svg xmlns="http://www.w3.org/2000/svg" viewBox="0 0 49.69 48.98"><defs><style>.cls-1{opacity:0.66;}.cls-2{fill:none;stroke:#231f20;stroke-miterlimit:10;}.cls-3{fill:#231f20;}.cls-4{fill:#fff;}</style></defs><title>TSUNAMI</title><g id="Layer_7" data-name="Layer 7"><rect class="cls-2" x="5.61" y="2.91" width="42.75" height="42.75" rx="8.64" ry="8.64"/><path class="cls-3" d="M5.61,30.82V19.18a10.2,10.2,0,0,1,9.22-4.71s8.42.2,8.1,6.31c0,0-.34,3.83-4.06,4.06,0,0-3.18-.16-1.52-2.6,0,0,.18,1.51,1.52.6,0,0,1.07-2.43-1.74-2.07,0,0-2.73.56-2,3.14,0,0,.67,2.89,2.34,2.89a2.47,2.47,0,0,0,2.06-.91,5.78,5.78,0,0,1,3.77-1.31s5.31.08,4.76,3.77c0,0-1.11,4.45-3.25,1.71,0,0,1.51.29,1-1,0,0-.87-1.49-2.06.49,0,0-1.47,2.42,2.14,4.76a15.6,15.6,0,0,0,5,1.82l2.66-3.49V26.06H31.23l7.41-6.9,7.93,7H44V32.6h4.37v5.86l-.64,1.82-1.06,1.86L44.83,44l-1.76,1-1.78.53H37.37l-12.91.15h-8l-3.33-.07-2.45-.7L8.81,43.72,8.05,43,6.16,40l-.55-3,0-4Z"/><rect class="cls-4" x="35.65" y="27.45" width="1.37" height="1.1"/><rect class="cls-4" x="35.65" y="29.51" width="1.37" height="1.1"/><rect class="cls-4" x="38.19" y="27.48" width="1.37" height="1.1"/><rect class="cls-4" x="38.19" y="29.54" width="1.37" height="1.1"/><rect class="cls-4" x="40.74" y="27.48" width="1.37" height="1.1"/><rect class="cls-4" x="40.74" y="29.54" width="1.37" height="1.1"/></g></svg>