<svg xmlns="http://www.w3.org/2000/svg" viewBox="0 0 49.69 48.98"><defs><style>.cls-1{opacity:0.66;}.cls-2,.cls-5{fill:none;stroke:#231f20;stroke-miterlimit:10;}.cls-3{fill:#231f20;}.cls-4{fill:#fff;}.cls-5{stroke-width:1.5px;}</style></defs><title>TYPHOON AND CYCLONE</title><g id="Layer_7" data-name="Layer 7"><rect class="cls-2" x="3.96" y="2.91" width="42.75" height="42.75" rx="8.64" ry="8.64"/><polygon class="cls-3" points="3.96 34.42 18.45 34.42 18.45 27.78 16.09 27.78 24.58 19.88 33.07 27.78 30.78 27.78 30.78 34.42 46.71 34.42 46.65 38.04 46.32 39.58 45.58 41.28 44.3 42.99 42.44 44.47 40.71 45.25 38.07 45.66 28.49 45.66 20.3 45.66 13.73 45.66 10.78 45.47 8.12 44.39 6.12 42.72 4.88 40.88 3.96 38.34 3.91 36.12 3.96 34.42"/><rect class="cls-4" x="21.57" y="31.64" width="1.37" height="1.1"/><rect class="cls-4" x="24.1" y="29.61" width="1.37" height="1.1"/><rect class="cls-4" x="21.57" y="29.61" width="1.37" height="1.1"/><rect class="cls-4" x="24.1" y="31.67" width="1.37" height="1.1"/><rect class="cls-4" x="26.66" y="29.61" width="1.37" height="1.1"/><rect class="cls-4" x="26.66" y="31.67" width="1.37" height="1.1"/><ellipse class="cls-5" cx="12.1" cy="21.04" rx="4.79" ry="1.76"/><ellipse class="cls-5" cx="10.83" cy="25.42" rx="3.9" ry="1.46"/><ellipse class="cls-5" cx="11.01" cy="28.5" rx="2.81" ry="1.11"/><ellipse class="cls-5" cx="10.41" cy="31.82" rx="2.22" ry="1.11"/><path class="cls-5" d="M12.63,31.82c-.28,2.14-4.06,3.81-4.06,3.81"/><path class="cls-5" d="M13.82,28.5s.35,3.52-2.25,4.27"/><path class="cls-5" d="M13.44,29.06s2.82-1.4,1.3-3.64"/><path class="cls-5" d="M16.89,21c.55,2.86-2.58,5-2.58,5"/><path class="cls-3" d="M10.6,17.38a7.47,7.47,0,0,1,2.55-.45,7.56,7.56,0,0,1,2.62.38,4.34,4.34,0,0,1,1.28.68,2.18,2.18,0,0,1,.85,1.45,2.06,2.06,0,0,1-.45,1.48,3.32,3.32,0,0,1-1,.87c.3-.81.57-1.66.34-2.11a2.54,2.54,0,0,0-1.49-1C13.86,18.24,12.25,18,10.6,17.38Z"/><ellipse class="cls-5" cx="38.51" cy="21.04" rx="4.79" ry="1.76"/><ellipse class="cls-5" cx="37.24" cy="25.42" rx="3.9" ry="1.46"/><ellipse class="cls-5" cx="37.42" cy="28.5" rx="2.81" ry="1.11"/><ellipse class="cls-5" cx="36.82" cy="31.82" rx="2.22" ry="1.11"/><path class="cls-5" d="M39,31.82C38.76,34,35,35.63,35,35.63"/><path class="cls-5" d="M40.23,28.5S40.57,32,38,32.77"/><path class="cls-5" d="M39.84,29.06s2.82-1.4,1.3-3.64"/><path class="cls-5" d="M43.3,21c.55,2.86-2.58,5-2.58,5"/><path class="cls-3" d="M37,17.38a7.47,7.47,0,0,1,2.55-.45,7.56,7.56,0,0,1,2.62.38,4.34,4.34,0,0,1,1.28.68,2.18,2.18,0,0,1,.85,1.45,2.06,2.06,0,0,1-.45,1.48,3.32,3.32,0,0,1-1,.87c.3-.81.57-1.66.34-2.11a2.54,2.54,0,0,0-1.49-1C40.27,18.24,38.66,18,37,17.38Z"/></g></svg>