<svg xmlns="http://www.w3.org/2000/svg" viewBox="0 0 49.69 48.98"><defs><style>.cls-1{opacity:0.66;}.cls-2{fill:none;stroke:#231f20;stroke-miterlimit:10;}.cls-3{fill:#231f20;}.cls-4{fill:#fff;}</style></defs><title>VOLCANO</title><g id="Layer_7" data-name="Layer 7"><rect class="cls-2" x="3.3" y="2.85" width="42.75" height="42.75" rx="8.64" ry="8.64"/><polygon class="cls-3" points="3.3 35.25 11.76 35.25 15.05 32.8 16.56 32.8 19.11 30 20.72 30 24.36 24.55 26.8 24.55 27.72 24.55 31.21 30.42 32.13 30.42 36.67 34.41 43.74 35.74 46.05 35.74 46.05 37.63 45.77 39.15 44.8 41.42 43.4 43.17 41.71 44.44 40.45 45.04 37.41 45.6 29.05 45.6 14.56 45.6 9.29 45.18 6.78 43.87 5.23 42.39 3.92 40.16 3.3 38.05 3.3 35.25"/><path class="cls-4" d="M15.79,39.36c-.07-1.21-.09-2.41-.1-3.62v-.07l.07,0c.79-.36,1.6-.7,2.41-1l0,0q.28-.72.53-1.44v0h0c.58,0,1.15,0,1.73,0l0,0,.71-1h0l.93-.69,0,.07.48-2.68V28.8l.06,0,1.51-.72-.06.05.93-1.76v0c.15-.61.31-1.22.48-1.82h0c-.11.62-.23,1.24-.36,1.85h0l-.85,1.8,0,0,0,0-1.5.73.07-.09-.52,2.67v0l0,0-1,.65,0,0-.74,1,0,0h0c-.58,0-1.15,0-1.73,0l0,0q-.25.73-.47,1.46v0h0c-.79.38-1.58.75-2.38,1.09l.06-.1c0,1.21,0,2.41-.1,3.62Z"/><path class="cls-4" d="M15.8,41.75A21.24,21.24,0,0,1,18,39.63l0,.06a20.48,20.48,0,0,0,0-2.67v0l0,0c.71-.68,1.45-1.34,2.21-2l0,.08c.07-.61.16-1.22.27-1.83h0c0,.62,0,1.23-.06,1.85v0l0,0c-.73.67-1.47,1.31-2.25,1.93l0-.07a20.48,20.48,0,0,0,0,2.67v0l0,0a21.24,21.24,0,0,1-2.28,2Z"/><path class="cls-4" d="M21.87,42.21c-.43-.38-.82-.78-1.21-1.19s-.74-.85-1.1-1.29l0,0,0,0c.79-.64,1.47-1.39,2.23-2.06l0,.14c-.26-.68-.48-1.37-.69-2.07l0,0c-.29-.2-.57-.41-.85-.62v0l.93.49h0v0c.27.68.53,1.36.76,2l0,.08-.06.05c-.76.67-1.6,1.25-2.33,1.95v-.07c.4.4.82.78,1.18,1.21s.74.86,1.07,1.32Z"/><path class="cls-4" d="M24.66,33.85a17.4,17.4,0,0,1-.09-2.17l0,.08c-.23-.19-.44-.39-.66-.59l0,0,0,0A22.27,22.27,0,0,0,25.33,29l0,.06c0-.56,0-1.11,0-1.67h0c0-.71-.07-1.42-.05-2.13h0c.13.7.21,1.41.28,2.11h0c0,.56,0,1.11,0,1.67v0l0,0a22.27,22.27,0,0,0-1.46,2v-.08c.24.17.48.34.71.52l0,0v.05a17.4,17.4,0,0,1-.09,2.17Z"/><path class="cls-4" d="M26.62,24.54c.22,1.37.38,2.74.47,4.11v0c.26.53.51,1.06.79,1.58h0q0,1,0,2.06v0l0,0c-.53.72-1.08,1.44-1.63,2.15l0-.08v1.06l0-.06c.28.48.53,1,.8,1.47s.53,1,.77,1.48h0c-.31-.46-.61-.94-.9-1.41s-.59-.94-.87-1.43l0,0V34.36l0,0c.56-.7,1.13-1.4,1.71-2.08l0,.05q0-1,0-2.06v0c-.28-.52-.58-1-.88-1.53h0v0c-.17-1.37-.27-2.75-.31-4.13Z"/><path class="cls-4" d="M31.56,33.24a4.46,4.46,0,0,1-1.08-.84,4.83,4.83,0,0,0-1-.88h0a7.6,7.6,0,0,1-1.62-1.29v0a7.6,7.6,0,0,1,1.72,1.16h0a4.83,4.83,0,0,0,1,.9,4.46,4.46,0,0,1,1,.95Z"/><path class="cls-4" d="M26.81,26.59a6.17,6.17,0,0,1,.6.82,9.75,9.75,0,0,1,.46.9l0,0c.5.12,1,.12,1.52.2h0l0,0a9.67,9.67,0,0,1,1,1.68h0a9.67,9.67,0,0,1-1.2-1.55l.08.05c-.5-.1-1-.29-1.49-.35h0v0a9.75,9.75,0,0,1-.57-.83,6.17,6.17,0,0,1-.43-.92Z"/><path class="cls-3" d="M5.7,14.11S5,11.69,8.49,11.74L9.57,12S8,9.17,10.32,8.58c0,0,1.61-.43,2.25,0,0,0-.05-1.34.91-1.34,0,0,2.58-1.34,3.76,1.82,0,0,4.29-1.39,5.2,1.88,0,0,.7-.59,1.18.05,0,0,.41-2.47,2.54-1.88,0,0,3.09-2.74,5.08,1.07,0,0,2.31-3.29,5,.34,0,0,2.9-1,2.79,2,0,0,2.47-1,2.47,1,0,0,3.22.62,1.07,2.17,0,0-2.31.8-3.59,0a4.18,4.18,0,0,1-3,0s-2.09-.38-2.47.8a1.62,1.62,0,0,1-2.31-.32s-3.11-1.72-4,2.31l-.82,6.09h-.75l-1.06-6.18s-.5-4-3.38-2.47c0,0-2.1,1.42-3-.75,0,0-.49-1.64-2.75-.07,0,0-2.09,2.06-3.28-.14,0,0-2.09,2.06-3.31.1C8.86,15.15,4.81,16.89,5.7,14.11Z"/><path class="cls-4" d="M11.21,14.1a1.8,1.8,0,0,1,.12-1.47,1.09,1.09,0,0,1,.61-.46,2.74,2.74,0,0,1,.74-.12l0,0A2.56,2.56,0,0,1,13,10.22a1.25,1.25,0,0,1,.87-.49,2,2,0,0,1,.95.12v0a2.88,2.88,0,0,0-.9.05,1.21,1.21,0,0,0-.7.45,2.85,2.85,0,0,0-.47,1.7v0h0a1.38,1.38,0,0,0-.69.15,1.18,1.18,0,0,0-.48.47,2.71,2.71,0,0,0-.29,1.35Z"/><path class="cls-4" d="M15.29,12.69a1.73,1.73,0,0,1-.06-1.26A1,1,0,0,1,16.34,11l.6.11c.2,0,.37,0,.39-.09a2.15,2.15,0,0,0,0-.56.53.53,0,0,1,.09-.34c.09-.12.24-.08.33-.07v0c-.25,0-.27.17-.22.37a1.37,1.37,0,0,1,0,.66.39.39,0,0,1-.33.26,1,1,0,0,1-.35,0c-.22-.05-.4-.15-.59-.21a.77.77,0,0,0-.58,0,.58.58,0,0,0-.32.43,4.91,4.91,0,0,0-.11,1.18Z"/><path class="cls-4" d="M10.15,11.36a1.25,1.25,0,0,1-.31-.81,3,3,0,0,1,.23-.85,1.13,1.13,0,0,1,.68-.57,1.69,1.69,0,0,1,.87,0v0l-.78.25a1.71,1.71,0,0,0-.65.4.76.76,0,0,0-.14.76l.12.81Z"/><path class="cls-4" d="M16.24,9.8a8,8,0,0,1-.44-.86,1.44,1.44,0,0,0-.53-.78,1.71,1.71,0,0,0-.82-.33,2.65,2.65,0,0,0-.91.14v0a1.3,1.3,0,0,1,.94-.38,1.26,1.26,0,0,1,.9.49l.62.79a2,2,0,0,1,.28.95Z"/><path class="cls-4" d="M9.93,13.21A9.35,9.35,0,0,1,9,12.9a1.29,1.29,0,0,0-.9-.17,1.71,1.71,0,0,0-.78.37,3.31,3.31,0,0,0-.57.71h0a1.38,1.38,0,0,1,.42-.89,1.24,1.24,0,0,1,.95-.32c.33,0,.64.06,1,.11a1.8,1.8,0,0,1,.84.48Z"/><path class="cls-4" d="M19.09,12.35a4.65,4.65,0,0,0-.18.83.54.54,0,0,0,.37.66c.54.17,1.11.13,1.71.26v0A2.07,2.07,0,0,1,19.21,14a1.19,1.19,0,0,1-.51-.78,1.09,1.09,0,0,1,.37-.84Z"/><path class="cls-4" d="M18.79,10.22a2.66,2.66,0,0,1,1-.47,1.39,1.39,0,0,1,1.79.87,3.13,3.13,0,0,1,.22,1.06l-.17-.1a3.14,3.14,0,0,1,1.24-.4,1.54,1.54,0,0,1,.67.08,1,1,0,0,1,.5.42h0a1.23,1.23,0,0,0-1.12-.27,4.54,4.54,0,0,0-1.16.37l-.17.07v-.18c0-.17,0-.34,0-.51a3.65,3.65,0,0,0-.09-.5,1,1,0,0,0-.65-.71,3.6,3.6,0,0,0-2,.3Z"/><path class="cls-4" d="M24.25,14.13a9.1,9.1,0,0,0,.11,1.05.91.91,0,0,0,.55.82,2.58,2.58,0,0,0,1,.11c.35,0,.7-.08,1.07-.11v0a2.91,2.91,0,0,1-1.06.34,1.69,1.69,0,0,1-1.1-.25,2,2,0,0,1-.68-.89,1.67,1.67,0,0,1,.06-1.11Z"/><path class="cls-4" d="M26.79,14.12c-.06-.29-.1-.56-.14-.82a.72.72,0,0,0-.37-.68,1.4,1.4,0,0,0-.76-.07c-.26,0-.53.11-.82.15v0a1.82,1.82,0,0,1,.79-.39,1,1,0,0,1,.88.21,2.38,2.38,0,0,1,.49.75,1.33,1.33,0,0,1,0,.87Z"/><path class="cls-4" d="M28,15.18c.23-.18.46-.34.68-.49a.75.75,0,0,0,.47-.63,1.3,1.3,0,0,0-.26-.72c-.16-.22-.34-.43-.51-.67l0,0a1.79,1.79,0,0,1,.71.54,1,1,0,0,1,.19.89,2.59,2.59,0,0,1-.47.77,1.38,1.38,0,0,1-.81.36Z"/><path class="cls-4" d="M25,11.12a1,1,0,0,1,.17-.58.72.72,0,0,1,.56-.3,1.76,1.76,0,0,1,1.13.43l-.13,0a8.82,8.82,0,0,1,.74-1.27A1.84,1.84,0,0,1,28,8.9a1.21,1.21,0,0,1,.37-.16,1.42,1.42,0,0,1,.41,0,2,2,0,0,1,1.12,1,6.41,6.41,0,0,1,.58,1.35h0c-.26-.42-.47-.84-.75-1.23a2.2,2.2,0,0,0-1-.9,1.18,1.18,0,0,0-1.16.5,3.28,3.28,0,0,0-.66,1.26l0,.09-.1,0c-.17-.08-.34-.18-.51-.25a1.38,1.38,0,0,0-.52-.12.79.79,0,0,0-.72.68Z"/><path class="cls-4" d="M32.33,10.73a1.47,1.47,0,0,1,.63-.68,5.66,5.66,0,0,1,.89-.27,1.16,1.16,0,0,1,.92.21,1.61,1.61,0,0,1,.57.74h0a8.31,8.31,0,0,0-.69-.54,1.61,1.61,0,0,0-.77-.29,1,1,0,0,0-.79.31l-.72.52Z"/><path class="cls-4" d="M31,15.18c.27,0,.52,0,.78,0a3.64,3.64,0,0,0,.76.05.64.64,0,0,0,.54-.42,1.46,1.46,0,0,0,0-.69l0,.06a.38.38,0,0,1-.13-.31.34.34,0,0,1,.2-.26,1.1,1.1,0,0,1,.5-.07v0a1.86,1.86,0,0,0-.41.2c-.05,0-.08.08-.07.11a.28.28,0,0,0,.07.11l0,0v0a1.14,1.14,0,0,1,0,.85,1,1,0,0,1-.71.42,2.29,2.29,0,0,1-.8.08A2.12,2.12,0,0,1,31,15.2Z"/><path class="cls-4" d="M33.83,11.34a1.24,1.24,0,0,1,.92.1,1.78,1.78,0,0,1,.59.74,1.41,1.41,0,0,1,0,.94,2.25,2.25,0,0,1-.45.8h0c.06-.31.15-.58.23-.86a2.48,2.48,0,0,0,.1-.84.69.69,0,0,0-.55-.59c-.26-.1-.53-.18-.83-.26Z"/><path class="cls-4" d="M39.29,14.86a2.9,2.9,0,0,1,.55-.39c.19-.07.43-.24.36-.44s-.09-.12-.19-.23a.39.39,0,0,1-.1-.44.44.44,0,0,1,.39-.19,1.5,1.5,0,0,1,.35,0v0c-.2.1-.49.17-.52.24a.35.35,0,0,0,.07.18.66.66,0,0,1,.13.36,1.33,1.33,0,0,1-.38.63,1.08,1.08,0,0,1-.66.24Z"/><path class="cls-4" d="M37.17,11.67A1,1,0,0,1,38.3,12a1.33,1.33,0,0,1,.18.6l0,.6v0a2.38,2.38,0,0,1,.4.59.62.62,0,0,1-.11.77,1,1,0,0,1-.74.13,2.85,2.85,0,0,1-.67-.19v0c.23,0,.46,0,.68,0a1.08,1.08,0,0,0,.57-.13c.12-.08.12-.29.06-.49a2.33,2.33,0,0,0-.27-.6v0h0a1.78,1.78,0,0,0,0-.58,1.67,1.67,0,0,0-.26-.49,1.24,1.24,0,0,0-1-.46Z"/></g></svg>